<svg width="96" height="96" viewBox="64 432 31 36" fill="none" xmlns="http://www.w3.org/2000/svg">
  <!-- MTS BondVision Logo - Euronext Vertical Bars -->
  <path d="M68.9576 444.721H66V453.089H68.9576V444.721Z" fill="#8DC8E8"/>
  <path d="M68.9576 453.089H66V459.735H68.9576V453.089Z" fill="#41B6E6"/>
  <path d="M71.9618 438.474H68.9576V447.745H71.9618V438.474Z" fill="#41B6E6"/>
  <path d="M71.9618 447.745H68.9576V458.373H71.9618V447.745Z" fill="#14A3C7"/>
  <path d="M74.9352 440.02H71.9618V450.019H74.9352V440.02Z" fill="#5CB8B2"/>
  <path d="M74.9352 450.019H71.9618V461.724H74.9352V450.019Z" fill="#279989"/>
  <path d="M79.4707 434H74.9352V444.656H79.4707V434Z" fill="#A0D1CA"/>
  <path d="M79.4707 444.656H74.9352V464.154H79.4707V444.656Z" fill="#008D7F"/>
  <path d="M82.4511 439.262H79.4706V453.089H82.4511V439.262Z" fill="#009639"/>
  <path d="M82.4511 453.088H79.4706V466H82.4511V453.088Z" fill="#00685E"/>
  <path d="M86.9826 436.608H82.4511V448.798H86.9826V436.608Z" fill="#84BD00"/>
  <path d="M86.9826 448.798H82.4511V462.005H86.9826V448.798Z" fill="#007864"/>
  <path d="M89.9647 444.717H86.9825V451.333H89.9647V444.717Z" fill="#A4D65E"/>
  <path d="M89.9647 451.333H86.9825V458.372H89.9647V451.333Z" fill="#009A44"/>
  <path d="M92.9439 442.757H89.9648V448.798H92.9439V442.757Z" fill="#C2E189"/>
  <path d="M92.9439 448.798H89.9648V455.813H92.9439V448.798Z" fill="#78BE20"/>
</svg>
