<svg width="1418" height="729" viewBox="0 0 1418 729" fill="none" xmlns="http://www.w3.org/2000/svg">
<rect width="1152" height="729" fill="white"/>
<path d="M78.304 84.176C78.304 82.016 77.056 80.744 75.736 80.216C76.888 79.76 78.04 78.44 78.04 76.592C78.04 73.712 76.048 71.912 72.88 71.912H66.232V89H73.144C76.168 89 78.304 87.32 78.304 84.176ZM75.712 84.056C75.712 85.568 74.704 86.672 72.904 86.672H68.824V81.464H72.904C74.704 81.464 75.712 82.544 75.712 84.056ZM75.448 76.688C75.448 78.272 74.32 79.136 72.664 79.136H68.824V74.24H72.664C74.32 74.24 75.448 75.104 75.448 76.688ZM94.1461 83.24V71.912H91.5541V83.12C91.5541 85.4 90.1381 86.816 88.0021 86.816C85.8661 86.816 84.4741 85.4 84.4741 83.12V71.912H81.8821V83.24C81.8821 86.768 84.5221 89.144 88.0021 89.144C91.4821 89.144 94.1461 86.768 94.1461 83.24ZM108.829 74.24V71.912H96.8294V74.24H101.533V89H104.125V74.24H108.829ZM122.259 74.24V71.912H110.259V74.24H114.963V89H117.555V74.24H122.259ZM136.396 80.456C136.396 77.168 136.444 75.272 134.764 73.592C133.588 72.416 132.076 71.768 130.252 71.768C128.428 71.768 126.94 72.416 125.764 73.592C124.084 75.272 124.108 77.168 124.108 80.456C124.108 83.744 124.084 85.64 125.764 87.32C126.94 88.496 128.428 89.144 130.252 89.144C132.076 89.144 133.588 88.496 134.764 87.32C136.444 85.64 136.396 83.744 136.396 80.456ZM133.804 80.456C133.804 83.888 133.636 84.848 132.796 85.76C132.196 86.408 131.26 86.816 130.252 86.816C129.244 86.816 128.308 86.408 127.708 85.76C126.868 84.848 126.7 83.888 126.7 80.456C126.7 77.024 126.868 76.064 127.708 75.152C128.308 74.504 129.244 74.096 130.252 74.096C131.26 74.096 132.196 74.504 132.796 75.152C133.636 76.064 133.804 77.024 133.804 80.456ZM153.112 89V71.912H150.52V83.912L142.624 71.912H140.248V89H142.84V76.976L150.736 89H153.112Z" fill="black"/>
<path d="M110.64 161.48H99.36C98.16 166.36 95.12 169.56 89.76 169.56C86.72 169.56 84.32 168.6 82.64 166.6C80.32 164.12 79.84 161.56 79.84 150.52C79.84 139.48 80.32 136.92 82.64 134.44C84.32 132.44 86.72 131.48 89.76 131.48C95.12 131.48 98.16 134.68 99.36 139.56H110.64C108.72 127.96 100.64 121.56 89.68 121.56C83.6 121.56 78.48 123.64 74.32 127.8C71.84 130.28 70.32 133.08 69.68 136.36C69.04 139.56 68.72 144.28 68.72 150.52C68.72 156.76 69.04 161.48 69.68 164.68C70.32 167.88 71.84 170.76 74.32 173.24C78.48 177.4 83.6 179.48 89.68 179.48C100.56 179.48 108.72 173.08 110.64 161.48ZM157.831 150.52C157.831 140.68 157.911 133.56 152.151 127.8C148.151 123.8 143.271 121.56 136.791 121.56C130.311 121.56 125.351 123.8 121.351 127.8C115.591 133.56 115.751 140.68 115.751 150.52C115.751 160.36 115.591 167.48 121.351 173.24C125.351 177.24 130.311 179.48 136.791 179.48C143.271 179.48 148.151 177.24 152.151 173.24C157.911 167.48 157.831 160.36 157.831 150.52ZM146.711 150.52C146.711 161.48 146.071 164.12 143.911 166.52C142.311 168.36 139.831 169.56 136.791 169.56C133.751 169.56 131.191 168.36 129.591 166.52C127.431 164.12 126.871 161.48 126.871 150.52C126.871 139.56 127.431 136.92 129.591 134.52C131.191 132.68 133.751 131.48 136.791 131.48C139.831 131.48 142.311 132.68 143.911 134.52C146.071 136.92 146.711 139.56 146.711 150.52ZM220.756 179V122.04H209.796L194.996 152.84L180.116 122.04H169.156V179H180.276V145.8L191.236 167.4H198.756L209.636 145.8V179H220.756ZM274.879 139.8C274.879 130.12 267.839 122.04 256.079 122.04H233.999V179H245.119V157.56H256.079C267.839 157.56 274.879 149.48 274.879 139.8ZM263.759 139.8C263.759 144.44 260.559 147.56 255.519 147.56H245.119V131.96H255.519C260.559 131.96 263.759 135.16 263.759 139.8ZM324.394 150.52C324.394 140.68 324.474 133.56 318.714 127.8C314.714 123.8 309.834 121.56 303.354 121.56C296.874 121.56 291.914 123.8 287.914 127.8C282.154 133.56 282.314 140.68 282.314 150.52C282.314 160.36 282.154 167.48 287.914 173.24C291.914 177.24 296.874 179.48 303.354 179.48C309.834 179.48 314.714 177.24 318.714 173.24C324.474 167.48 324.394 160.36 324.394 150.52ZM313.274 150.52C313.274 161.48 312.634 164.12 310.474 166.52C308.874 168.36 306.394 169.56 303.354 169.56C300.314 169.56 297.754 168.36 296.154 166.52C293.994 164.12 293.434 161.48 293.434 150.52C293.434 139.56 293.994 136.92 296.154 134.52C297.754 132.68 300.314 131.48 303.354 131.48C306.394 131.48 308.874 132.68 310.474 134.52C312.634 136.92 313.274 139.56 313.274 150.52ZM379.318 179V122.04H368.198V156.92L345.638 122.04H335.718V179H346.838V144.04L369.398 179H379.318ZM430.113 179V169.08H403.713V155.24H426.193V145.32H403.713V131.96H430.113V122.04H392.593V179H430.113ZM484.631 179V122.04H473.511V156.92L450.951 122.04H441.031V179H452.151V144.04L474.711 179H484.631ZM534.546 131.96V122.04H493.666V131.96H508.546V179H519.666V131.96H534.546Z" fill="black"/>
<rect x="69" y="325" width="134" height="56" fill="#E3E8EB"/>
<rect x="64.5" y="261.5" width="143" height="123" rx="4.5" stroke="#7B61FF" stroke-dasharray="10 5"/>
<g clip-path="url(#clip0_64_4472)">
<path d="M86.947 291.721H84V300.089H86.947V291.721Z" fill="#8DC8E8"/>
<path d="M86.947 300.089H84V306.735H86.947V300.089Z" fill="#41B6E6"/>
<path d="M89.9404 285.474H86.947V294.745H89.9404V285.474Z" fill="#41B6E6"/>
<path d="M89.9404 294.745H86.947V305.373H89.9404V294.745Z" fill="#14A3C7"/>
<path d="M92.9032 287.02H89.9404V297.019H92.9032V287.02Z" fill="#5CB8B2"/>
<path d="M92.9032 297.019H89.9404V308.724H92.9032V297.019Z" fill="#279989"/>
<path d="M97.4224 281H92.9032V291.656H97.4224V281Z" fill="#A0D1CA"/>
<path d="M97.4224 291.656H92.9032V311.155H97.4224V291.656Z" fill="#00857D"/>
<path d="M100.392 286.262H97.4224V300.05H100.392V286.262Z" fill="#009639"/>
<path d="M100.392 300.05H97.4224V313H100.392V300.05Z" fill="#00685E"/>
<path d="M104.907 283.608H100.392V295.798H104.907V283.608Z" fill="#84BD00"/>
<path d="M104.907 295.798H100.392V309.005H104.907V295.798Z" fill="#007864"/>
<path d="M107.879 291.717H104.907V298.333H107.879V291.717Z" fill="#A4D65E"/>
<path d="M107.879 298.333H104.907V305.372H107.879V298.333Z" fill="#009A44"/>
<path d="M110.847 289.757H107.879V295.798H110.847V289.757Z" fill="#C2E189"/>
<path d="M110.847 295.798H107.879V302.813H110.847V295.798Z" fill="#78BE20"/>
<path d="M183.233 293.597C183.235 293.584 183.234 293.571 183.23 293.559C183.226 293.547 183.219 293.536 183.21 293.527C183.201 293.518 183.19 293.511 183.177 293.507C183.165 293.503 183.152 293.502 183.139 293.503H180.725C180.704 293.505 180.683 293.501 180.664 293.494C180.644 293.486 180.626 293.475 180.611 293.46C180.596 293.445 180.585 293.427 180.578 293.408C180.57 293.388 180.567 293.367 180.568 293.347V291.948C180.567 291.927 180.57 291.906 180.577 291.887C180.585 291.867 180.596 291.849 180.611 291.835C180.626 291.82 180.644 291.808 180.664 291.801C180.683 291.794 180.704 291.79 180.725 291.792H187.841C187.862 291.79 187.884 291.793 187.903 291.801C187.923 291.808 187.941 291.82 187.956 291.834C187.971 291.849 187.983 291.867 187.99 291.886C187.998 291.906 188.001 291.927 188 291.948V293.346C188.001 293.367 187.998 293.388 187.99 293.408C187.983 293.428 187.971 293.445 187.956 293.46C187.941 293.475 187.923 293.487 187.903 293.494C187.884 293.501 187.862 293.505 187.841 293.503H185.431C185.418 293.502 185.405 293.503 185.393 293.507C185.381 293.511 185.369 293.518 185.36 293.527C185.351 293.536 185.344 293.547 185.34 293.559C185.336 293.571 185.335 293.584 185.336 293.597V302.301C185.338 302.322 185.334 302.343 185.327 302.363C185.319 302.382 185.308 302.4 185.293 302.415C185.278 302.43 185.26 302.441 185.24 302.449C185.22 302.456 185.199 302.459 185.178 302.458H183.392C183.371 302.459 183.35 302.456 183.33 302.449C183.31 302.441 183.292 302.43 183.277 302.415C183.262 302.4 183.251 302.382 183.243 302.363C183.236 302.343 183.232 302.322 183.233 302.301V293.597ZM180.1 302.262L176.866 296.758L179.649 291.98C179.658 291.957 179.66 291.932 179.656 291.908C179.652 291.884 179.642 291.861 179.626 291.842C179.611 291.823 179.591 291.808 179.568 291.799C179.545 291.79 179.521 291.787 179.496 291.79H177.669C177.61 291.791 177.554 291.81 177.506 291.844C177.459 291.878 177.423 291.925 177.404 291.98L175.738 294.859L174.033 291.984C174.004 291.922 173.958 291.871 173.899 291.836C173.841 291.802 173.773 291.785 173.705 291.79H171.851C171.827 291.786 171.802 291.79 171.779 291.801C171.757 291.811 171.738 291.828 171.725 291.848C171.711 291.869 171.704 291.893 171.704 291.918C171.704 291.942 171.711 291.966 171.725 291.987L174.501 296.744L171.381 302.265C171.33 302.365 171.378 302.459 171.486 302.459H173.377C173.511 302.459 173.577 302.41 173.657 302.269L175.656 298.709L177.773 302.265C177.868 302.422 177.941 302.459 178.06 302.459H179.981C180.005 302.462 180.03 302.458 180.052 302.447C180.074 302.436 180.092 302.42 180.105 302.399C180.117 302.378 180.124 302.354 180.123 302.329C180.122 302.305 180.114 302.282 180.1 302.262ZM164.221 291.948C164.22 291.927 164.223 291.906 164.231 291.886C164.238 291.867 164.25 291.849 164.265 291.834C164.28 291.82 164.298 291.808 164.317 291.801C164.337 291.793 164.358 291.79 164.379 291.792H170.157C170.178 291.79 170.199 291.793 170.219 291.801C170.239 291.808 170.257 291.82 170.271 291.834C170.286 291.849 170.298 291.867 170.306 291.886C170.313 291.906 170.316 291.927 170.315 291.948V293.344C170.316 293.365 170.313 293.386 170.306 293.406C170.298 293.426 170.287 293.443 170.272 293.458C170.257 293.473 170.239 293.484 170.219 293.492C170.199 293.499 170.178 293.502 170.157 293.501H166.434C166.421 293.499 166.408 293.5 166.395 293.505C166.383 293.509 166.372 293.516 166.363 293.525C166.354 293.534 166.347 293.545 166.342 293.557C166.338 293.57 166.337 293.583 166.339 293.595V296.074C166.337 296.087 166.338 296.1 166.343 296.112C166.347 296.124 166.354 296.135 166.363 296.144C166.372 296.153 166.383 296.16 166.395 296.164C166.408 296.168 166.421 296.17 166.434 296.168H169.611C169.632 296.167 169.653 296.17 169.673 296.177C169.692 296.184 169.71 296.196 169.725 296.211C169.74 296.225 169.752 296.243 169.76 296.263C169.767 296.282 169.77 296.303 169.769 296.324V297.626C169.77 297.647 169.767 297.668 169.76 297.687C169.752 297.707 169.741 297.725 169.726 297.74C169.711 297.755 169.693 297.766 169.673 297.773C169.653 297.781 169.632 297.784 169.611 297.783H166.434C166.421 297.781 166.408 297.782 166.395 297.786C166.383 297.791 166.372 297.797 166.363 297.807C166.354 297.816 166.347 297.827 166.342 297.839C166.338 297.851 166.337 297.864 166.339 297.877V300.622C166.337 300.635 166.338 300.648 166.342 300.66C166.346 300.672 166.353 300.683 166.363 300.693C166.372 300.702 166.383 300.709 166.395 300.713C166.408 300.717 166.421 300.718 166.434 300.716H170.29C170.311 300.715 170.332 300.718 170.352 300.726C170.372 300.733 170.39 300.745 170.405 300.76C170.42 300.775 170.432 300.793 170.439 300.813C170.446 300.832 170.45 300.853 170.448 300.874V302.301C170.449 302.322 170.446 302.343 170.439 302.363C170.431 302.382 170.42 302.4 170.405 302.415C170.39 302.43 170.372 302.441 170.352 302.449C170.332 302.456 170.311 302.459 170.29 302.458H164.379C164.358 302.459 164.337 302.456 164.317 302.449C164.298 302.441 164.28 302.43 164.265 302.415C164.25 302.4 164.238 302.382 164.231 302.363C164.223 302.343 164.22 302.322 164.221 302.301L164.221 291.948ZM159.574 302.458C159.448 302.458 159.4 302.395 159.353 302.269L156.492 294.584C156.412 294.378 156.366 294.27 156.271 294.27C156.176 294.27 156.16 294.301 156.16 294.568L156.158 302.301C156.16 302.322 156.156 302.343 156.149 302.363C156.141 302.382 156.13 302.4 156.115 302.415C156.1 302.43 156.082 302.441 156.062 302.449C156.042 302.456 156.021 302.459 156 302.458H154.485C154.464 302.459 154.443 302.456 154.423 302.449C154.403 302.441 154.385 302.43 154.37 302.415C154.355 302.4 154.344 302.382 154.336 302.363C154.328 302.343 154.325 302.322 154.326 302.301V291.948C154.325 291.927 154.328 291.906 154.336 291.886C154.344 291.867 154.355 291.849 154.37 291.834C154.385 291.82 154.403 291.808 154.423 291.801C154.443 291.793 154.464 291.79 154.485 291.792H157.187C157.298 291.792 157.346 291.87 157.393 291.979L160.08 299.4C160.159 299.635 160.19 299.65 160.269 299.65C160.348 299.65 160.38 299.618 160.38 299.494L160.382 291.948C160.381 291.927 160.384 291.906 160.391 291.887C160.399 291.867 160.41 291.849 160.425 291.834C160.44 291.82 160.458 291.808 160.478 291.801C160.498 291.793 160.519 291.79 160.54 291.792H162.103C162.124 291.79 162.145 291.793 162.164 291.801C162.184 291.808 162.202 291.82 162.217 291.834C162.232 291.849 162.244 291.867 162.251 291.886C162.259 291.906 162.262 291.927 162.261 291.948V302.301C162.262 302.322 162.259 302.343 162.251 302.363C162.244 302.382 162.232 302.4 162.217 302.415C162.202 302.43 162.184 302.441 162.165 302.449C162.145 302.456 162.124 302.459 162.103 302.458H159.574ZM146.898 300.498C147.151 300.843 147.593 300.889 148.399 300.889C149.237 300.889 149.663 300.843 149.916 300.498C150.264 300.012 150.422 298.616 150.422 297.125C150.422 295.619 150.264 294.239 149.916 293.752C149.663 293.407 149.237 293.36 148.431 293.36C147.593 293.36 147.151 293.407 146.898 293.752C146.55 294.239 146.392 295.619 146.392 297.125C146.392 298.616 146.55 300.012 146.898 300.498ZM151.544 301.626C150.88 302.411 149.916 302.615 148.383 302.615C146.851 302.615 145.934 302.411 145.254 301.626C144.575 300.811 144.195 299.117 144.195 297.125C144.195 295.133 144.575 293.439 145.254 292.623C145.934 291.839 146.898 291.635 148.431 291.635C149.964 291.635 150.88 291.839 151.544 292.623C152.24 293.439 152.619 295.133 152.619 297.125C152.619 299.117 152.24 300.811 151.544 301.626ZM140.387 295.086C140.387 293.674 140.007 293.313 138.585 293.313H137.813C137.639 293.313 137.607 293.344 137.607 293.407V296.889C137.607 296.968 137.639 297 137.718 297.015H138.585C139.944 297.015 140.387 296.481 140.387 295.086ZM139.185 298.725C139.059 298.489 139.027 298.441 138.933 298.427H137.734C137.655 298.427 137.607 298.458 137.607 298.536V302.301C137.608 302.322 137.605 302.343 137.598 302.363C137.59 302.382 137.578 302.4 137.563 302.415C137.549 302.43 137.531 302.441 137.511 302.449C137.491 302.456 137.47 302.459 137.449 302.458H135.663C135.642 302.459 135.621 302.456 135.601 302.449C135.582 302.441 135.564 302.43 135.549 302.415C135.534 302.4 135.522 302.382 135.515 302.363C135.507 302.343 135.504 302.322 135.506 302.301V291.948C135.504 291.927 135.507 291.906 135.515 291.887C135.522 291.867 135.534 291.849 135.549 291.834C135.564 291.82 135.582 291.808 135.601 291.801C135.621 291.793 135.642 291.79 135.663 291.792H138.964C141.367 291.792 142.584 292.591 142.584 294.74C142.584 296.152 142.283 297 141.193 297.626C141.082 297.72 141.035 297.783 141.035 297.846C141.063 298.069 141.15 298.28 141.287 298.458L143.39 302.301C143.437 302.379 143.437 302.458 143.311 302.458H141.209C141.113 302.458 141.067 302.427 141.019 302.317L139.185 298.725ZM133.512 300.058C133.512 301.752 131.947 302.615 129.656 302.615C127.048 302.615 125.831 301.752 125.831 300.058V291.948C125.83 291.927 125.833 291.906 125.841 291.886C125.848 291.867 125.86 291.849 125.875 291.834C125.89 291.82 125.908 291.808 125.927 291.801C125.947 291.793 125.968 291.79 125.989 291.792H127.774C127.795 291.79 127.817 291.793 127.836 291.801C127.856 291.808 127.874 291.82 127.889 291.834C127.904 291.849 127.916 291.867 127.923 291.886C127.931 291.906 127.934 291.927 127.933 291.948V299.446C127.933 300.67 128.739 300.858 129.687 300.858C130.636 300.858 131.426 300.67 131.426 299.431V291.948C131.425 291.927 131.428 291.906 131.435 291.887C131.443 291.867 131.454 291.849 131.469 291.834C131.484 291.82 131.502 291.808 131.522 291.801C131.542 291.793 131.563 291.79 131.584 291.792H133.354C133.375 291.79 133.396 291.793 133.416 291.801C133.436 291.808 133.454 291.82 133.469 291.834C133.484 291.849 133.495 291.867 133.503 291.886C133.51 291.906 133.513 291.927 133.512 291.948V300.058ZM117.851 291.948C117.85 291.927 117.853 291.906 117.861 291.887C117.868 291.867 117.88 291.849 117.895 291.835C117.91 291.82 117.927 291.808 117.947 291.801C117.967 291.793 117.988 291.79 118.009 291.792H123.788C123.809 291.79 123.83 291.793 123.85 291.801C123.87 291.808 123.887 291.82 123.902 291.834C123.917 291.849 123.929 291.867 123.936 291.887C123.944 291.906 123.947 291.927 123.946 291.948V293.344C123.947 293.365 123.944 293.386 123.936 293.406C123.929 293.425 123.917 293.443 123.902 293.458C123.888 293.473 123.87 293.484 123.85 293.492C123.83 293.499 123.809 293.502 123.788 293.501H120.064C120.051 293.499 120.038 293.5 120.026 293.505C120.013 293.509 120.002 293.516 119.993 293.525C119.984 293.534 119.977 293.545 119.973 293.558C119.969 293.57 119.968 293.583 119.97 293.596V296.074C119.968 296.087 119.969 296.1 119.973 296.112C119.977 296.125 119.984 296.136 119.993 296.145C120.002 296.154 120.014 296.161 120.026 296.165C120.038 296.169 120.051 296.171 120.064 296.169H123.241C123.262 296.168 123.283 296.171 123.303 296.178C123.323 296.185 123.341 296.197 123.356 296.212C123.371 296.226 123.383 296.244 123.39 296.264C123.398 296.283 123.401 296.304 123.4 296.325V297.627C123.401 297.648 123.398 297.669 123.39 297.688C123.383 297.708 123.371 297.726 123.356 297.741C123.341 297.755 123.323 297.767 123.303 297.774C123.283 297.782 123.262 297.785 123.241 297.783H120.064C120.051 297.781 120.038 297.783 120.026 297.787C120.013 297.791 120.002 297.798 119.993 297.807C119.984 297.816 119.977 297.828 119.973 297.84C119.969 297.852 119.968 297.865 119.97 297.878V300.623C119.968 300.636 119.969 300.649 119.973 300.661C119.977 300.674 119.984 300.685 119.993 300.694C120.002 300.703 120.014 300.71 120.026 300.714C120.038 300.718 120.051 300.719 120.064 300.717H123.921C123.942 300.716 123.963 300.719 123.983 300.727C124.003 300.734 124.021 300.746 124.036 300.761C124.05 300.776 124.062 300.793 124.07 300.813C124.077 300.833 124.08 300.854 124.079 300.875V302.302C124.08 302.323 124.077 302.344 124.069 302.364C124.062 302.383 124.05 302.401 124.035 302.416C124.02 302.431 124.002 302.442 123.983 302.45C123.963 302.457 123.942 302.46 123.921 302.459H118.009C117.988 302.46 117.967 302.457 117.947 302.45C117.927 302.442 117.91 302.431 117.895 302.416C117.88 302.401 117.868 302.383 117.861 302.364C117.853 302.344 117.85 302.323 117.851 302.302V291.948Z" fill="#00857D"/>
</g>
<g clip-path="url(#clip1_64_4472)">
<path d="M117.749 343.948C117.748 343.927 117.751 343.906 117.758 343.887C117.766 343.867 117.777 343.849 117.792 343.834C117.807 343.82 117.825 343.808 117.845 343.801C117.865 343.793 117.886 343.79 117.907 343.791H123.694C123.715 343.79 123.736 343.793 123.756 343.801C123.776 343.808 123.794 343.82 123.809 343.834C123.824 343.849 123.835 343.867 123.843 343.887C123.85 343.906 123.853 343.927 123.852 343.948V345.344C123.853 345.365 123.85 345.386 123.843 345.406C123.835 345.425 123.824 345.443 123.809 345.458C123.794 345.473 123.776 345.484 123.756 345.492C123.736 345.499 123.715 345.502 123.694 345.501H119.965C119.952 345.499 119.939 345.5 119.927 345.504C119.914 345.509 119.903 345.516 119.894 345.525C119.884 345.534 119.878 345.545 119.873 345.557C119.869 345.57 119.868 345.583 119.87 345.596V348.074C119.868 348.087 119.869 348.1 119.874 348.113C119.878 348.125 119.885 348.136 119.894 348.145C119.903 348.154 119.914 348.161 119.927 348.165C119.939 348.169 119.952 348.17 119.965 348.169H123.146C123.167 348.167 123.189 348.17 123.208 348.178C123.228 348.185 123.246 348.197 123.261 348.211C123.276 348.226 123.288 348.244 123.296 348.263C123.303 348.283 123.306 348.304 123.305 348.325V349.627C123.306 349.648 123.303 349.669 123.296 349.689C123.288 349.708 123.276 349.726 123.261 349.741C123.246 349.756 123.228 349.767 123.208 349.774C123.189 349.782 123.167 349.785 123.146 349.783H119.965C119.952 349.782 119.939 349.783 119.927 349.787C119.914 349.791 119.903 349.798 119.894 349.807C119.884 349.816 119.878 349.828 119.873 349.84C119.869 349.852 119.868 349.865 119.87 349.878V352.624C119.868 352.636 119.869 352.649 119.874 352.662C119.878 352.674 119.885 352.685 119.894 352.694C119.903 352.703 119.914 352.71 119.927 352.714C119.939 352.718 119.952 352.719 119.965 352.717H123.827C123.848 352.716 123.869 352.719 123.889 352.727C123.909 352.734 123.927 352.746 123.942 352.761C123.957 352.775 123.969 352.793 123.976 352.813C123.984 352.833 123.987 352.854 123.985 352.875V354.302C123.987 354.323 123.984 354.344 123.976 354.364C123.969 354.384 123.957 354.401 123.942 354.416C123.927 354.431 123.909 354.443 123.889 354.45C123.869 354.458 123.848 354.461 123.827 354.459H117.907C117.886 354.461 117.864 354.457 117.845 354.45C117.825 354.442 117.807 354.431 117.792 354.416C117.777 354.401 117.766 354.383 117.758 354.364C117.751 354.344 117.748 354.323 117.749 354.302V343.948ZM133.432 352.058C133.432 353.752 131.865 354.615 129.57 354.615C126.959 354.615 125.74 353.752 125.74 352.058V343.948C125.739 343.927 125.742 343.906 125.75 343.886C125.757 343.867 125.769 343.849 125.784 343.834C125.799 343.819 125.817 343.808 125.836 343.801C125.856 343.793 125.877 343.79 125.898 343.791H127.687C127.708 343.79 127.729 343.793 127.749 343.8C127.768 343.808 127.786 343.819 127.801 343.834C127.816 343.849 127.828 343.867 127.835 343.886C127.843 343.906 127.846 343.927 127.845 343.948V351.446C127.845 352.67 128.652 352.858 129.602 352.858C130.552 352.858 131.343 352.669 131.343 351.431V343.948C131.342 343.927 131.345 343.906 131.353 343.886C131.36 343.867 131.372 343.849 131.387 343.834C131.402 343.819 131.42 343.808 131.439 343.8C131.459 343.793 131.48 343.79 131.502 343.791H133.274C133.295 343.79 133.316 343.793 133.336 343.8C133.356 343.808 133.374 343.819 133.389 343.834C133.404 343.849 133.415 343.867 133.423 343.886C133.431 343.906 133.434 343.927 133.432 343.948V352.058ZM139.114 350.725C138.988 350.489 138.956 350.441 138.861 350.426H137.66C137.581 350.426 137.533 350.458 137.533 350.536V354.301C137.535 354.322 137.532 354.343 137.524 354.363C137.517 354.382 137.505 354.4 137.49 354.415C137.475 354.43 137.457 354.441 137.437 354.449C137.417 354.456 137.396 354.459 137.375 354.458H135.587C135.566 354.459 135.544 354.456 135.525 354.449C135.505 354.441 135.487 354.43 135.472 354.415C135.457 354.4 135.445 354.382 135.438 354.363C135.431 354.343 135.427 354.322 135.429 354.301V343.948C135.427 343.927 135.431 343.906 135.438 343.887C135.446 343.867 135.457 343.849 135.472 343.834C135.487 343.82 135.505 343.808 135.525 343.801C135.545 343.793 135.566 343.79 135.587 343.791H138.893C141.298 343.791 142.517 344.591 142.517 346.74C142.517 348.151 142.217 348.999 141.124 349.626C141.014 349.721 140.966 349.783 140.966 349.846C140.994 350.069 141.082 350.28 141.219 350.458L143.324 354.301C143.372 354.38 143.372 354.458 143.245 354.458H141.141C141.045 354.458 140.998 354.427 140.95 354.317L139.114 350.725ZM140.317 347.086C140.317 345.673 139.937 345.313 138.513 345.313H137.74C137.566 345.313 137.533 345.344 137.533 345.407V348.889C137.533 348.968 137.566 348.999 137.644 349.015H138.513C139.873 349.015 140.317 348.481 140.317 347.086ZM151.491 353.627C150.827 354.411 149.861 354.615 148.325 354.615C146.79 354.615 145.873 354.411 145.192 353.627C144.512 352.811 144.131 351.117 144.131 349.125C144.131 347.133 144.511 345.439 145.192 344.623C145.873 343.839 146.838 343.635 148.373 343.635C149.908 343.635 150.827 343.839 151.491 344.623C152.188 345.439 152.568 347.133 152.568 349.125C152.568 351.117 152.188 352.811 151.491 353.627ZM146.838 352.498C147.091 352.843 147.534 352.889 148.341 352.889C149.18 352.889 149.608 352.843 149.861 352.498C150.209 352.011 150.368 350.615 150.368 349.125C150.368 347.619 150.209 346.239 149.861 345.752C149.608 345.407 149.18 345.36 148.373 345.36C147.534 345.36 147.091 345.407 146.838 345.752C146.49 346.239 146.331 347.619 146.331 349.125C146.331 350.615 146.49 352.011 146.838 352.498ZM159.532 354.458C159.406 354.458 159.358 354.395 159.311 354.269L156.446 346.584C156.366 346.378 156.32 346.27 156.225 346.27C156.13 346.27 156.113 346.301 156.113 346.568L156.112 354.301C156.113 354.322 156.11 354.343 156.103 354.363C156.095 354.382 156.084 354.4 156.069 354.415C156.054 354.43 156.036 354.441 156.016 354.449C155.996 354.456 155.975 354.459 155.954 354.458H154.436C154.415 354.459 154.393 354.456 154.374 354.449C154.354 354.441 154.336 354.43 154.321 354.415C154.306 354.4 154.294 354.382 154.287 354.363C154.279 354.343 154.276 354.322 154.277 354.301V343.948C154.276 343.927 154.279 343.906 154.287 343.887C154.294 343.867 154.306 343.849 154.321 343.834C154.336 343.82 154.354 343.808 154.374 343.801C154.393 343.793 154.415 343.79 154.436 343.791H157.142C157.253 343.791 157.301 343.87 157.348 343.979L160.039 351.399C160.119 351.635 160.15 351.65 160.229 351.65C160.308 351.65 160.34 351.619 160.34 351.494L160.342 343.948C160.341 343.927 160.344 343.906 160.351 343.887C160.359 343.867 160.37 343.849 160.385 343.834C160.4 343.82 160.418 343.808 160.438 343.801C160.458 343.793 160.479 343.79 160.5 343.791H162.065C162.086 343.79 162.107 343.793 162.127 343.801C162.147 343.808 162.165 343.819 162.18 343.834C162.195 343.849 162.206 343.867 162.214 343.886C162.221 343.906 162.225 343.927 162.223 343.948V354.301C162.225 354.322 162.221 354.343 162.214 354.363C162.206 354.382 162.195 354.4 162.18 354.415C162.165 354.43 162.147 354.441 162.127 354.449C162.107 354.456 162.086 354.459 162.065 354.458H159.532ZM164.186 343.948C164.185 343.927 164.188 343.906 164.196 343.886C164.203 343.867 164.215 343.849 164.23 343.834C164.245 343.819 164.263 343.808 164.283 343.801C164.303 343.793 164.324 343.79 164.345 343.791H170.131C170.152 343.79 170.173 343.793 170.193 343.801C170.213 343.808 170.231 343.819 170.246 343.834C170.261 343.849 170.272 343.867 170.28 343.886C170.287 343.906 170.291 343.927 170.289 343.948V345.344C170.291 345.365 170.287 345.386 170.28 345.406C170.272 345.425 170.261 345.443 170.246 345.458C170.231 345.473 170.213 345.484 170.193 345.492C170.173 345.499 170.152 345.502 170.131 345.501H166.403C166.39 345.499 166.376 345.5 166.364 345.504C166.352 345.509 166.341 345.515 166.331 345.525C166.322 345.534 166.315 345.545 166.311 345.557C166.307 345.569 166.306 345.583 166.308 345.595V348.074C166.306 348.087 166.307 348.1 166.311 348.112C166.315 348.124 166.322 348.135 166.332 348.144C166.341 348.153 166.352 348.16 166.364 348.164C166.377 348.168 166.39 348.17 166.403 348.168H169.584C169.605 348.166 169.626 348.17 169.646 348.177C169.666 348.184 169.684 348.196 169.699 348.211C169.714 348.225 169.726 348.243 169.733 348.263C169.741 348.283 169.744 348.304 169.743 348.324V349.626C169.744 349.647 169.741 349.668 169.733 349.688C169.726 349.707 169.714 349.725 169.699 349.74C169.684 349.755 169.666 349.766 169.646 349.773C169.626 349.781 169.605 349.784 169.584 349.783H166.403C166.39 349.781 166.376 349.782 166.364 349.786C166.352 349.79 166.341 349.797 166.331 349.806C166.322 349.816 166.315 349.827 166.311 349.839C166.307 349.851 166.306 349.864 166.308 349.877V352.622C166.306 352.635 166.307 352.648 166.311 352.66C166.315 352.673 166.322 352.684 166.331 352.693C166.341 352.702 166.352 352.709 166.364 352.713C166.376 352.717 166.39 352.718 166.403 352.717H170.264C170.286 352.715 170.307 352.719 170.327 352.726C170.346 352.734 170.364 352.745 170.379 352.76C170.394 352.775 170.406 352.793 170.414 352.812C170.421 352.832 170.424 352.853 170.423 352.874V354.301C170.424 354.322 170.421 354.343 170.413 354.363C170.406 354.382 170.394 354.4 170.379 354.415C170.364 354.43 170.346 354.441 170.327 354.449C170.307 354.456 170.286 354.459 170.264 354.458H164.345C164.324 354.459 164.302 354.456 164.283 354.449C164.263 354.441 164.245 354.43 164.23 354.415C164.215 354.4 164.203 354.382 164.196 354.363C164.188 354.343 164.185 354.322 164.186 354.301V343.948ZM180.089 354.262L176.85 348.758L179.637 343.98C179.678 343.895 179.607 343.79 179.484 343.79H177.653C177.595 343.791 177.538 343.81 177.491 343.844C177.444 343.878 177.408 343.925 177.389 343.98L175.72 346.859L174.013 343.984C173.984 343.922 173.937 343.871 173.879 343.836C173.82 343.802 173.752 343.785 173.684 343.79H171.828C171.803 343.786 171.778 343.79 171.756 343.8C171.733 343.811 171.714 343.827 171.701 343.848C171.687 343.869 171.68 343.893 171.68 343.918C171.68 343.942 171.688 343.967 171.701 343.987L174.481 348.744L171.358 354.265C171.305 354.365 171.354 354.459 171.462 354.459H173.356C173.49 354.459 173.556 354.41 173.636 354.269L175.638 350.709L177.759 354.265C177.854 354.422 177.927 354.459 178.046 354.459H179.97C179.994 354.462 180.019 354.457 180.041 354.447C180.063 354.436 180.081 354.419 180.094 354.399C180.106 354.378 180.113 354.354 180.112 354.329C180.111 354.305 180.103 354.281 180.089 354.262ZM183.227 345.597C183.229 345.584 183.228 345.571 183.224 345.559C183.219 345.547 183.212 345.536 183.203 345.527C183.194 345.518 183.183 345.511 183.171 345.507C183.158 345.503 183.145 345.501 183.132 345.503H180.715C180.694 345.504 180.673 345.501 180.653 345.494C180.634 345.486 180.616 345.474 180.601 345.46C180.586 345.445 180.574 345.427 180.567 345.407C180.559 345.388 180.556 345.367 180.557 345.346V343.948C180.556 343.927 180.559 343.906 180.567 343.887C180.574 343.867 180.586 343.849 180.601 343.835C180.616 343.82 180.634 343.808 180.653 343.801C180.673 343.793 180.694 343.79 180.715 343.791H187.842C187.863 343.79 187.884 343.793 187.904 343.801C187.924 343.808 187.942 343.819 187.956 343.834C187.971 343.849 187.983 343.867 187.991 343.886C187.998 343.906 188.001 343.927 188 343.948V345.346C188.001 345.367 187.998 345.388 187.991 345.408C187.983 345.427 187.972 345.445 187.957 345.46C187.942 345.475 187.924 345.486 187.904 345.494C187.884 345.501 187.863 345.504 187.842 345.503H185.427C185.414 345.501 185.401 345.503 185.389 345.507C185.377 345.511 185.366 345.518 185.356 345.527C185.347 345.536 185.34 345.547 185.336 345.559C185.332 345.571 185.331 345.584 185.332 345.597V354.301C185.334 354.322 185.331 354.343 185.323 354.363C185.316 354.382 185.304 354.4 185.289 354.415C185.274 354.43 185.256 354.441 185.236 354.449C185.216 354.456 185.195 354.459 185.174 354.458H183.386C183.364 354.459 183.343 354.456 183.323 354.449C183.304 354.441 183.286 354.43 183.271 354.415C183.256 354.4 183.244 354.382 183.237 354.363C183.229 354.343 183.226 354.322 183.227 354.301V345.597Z" fill="white"/>
<path d="M86.2886 358.734H84V352.376H86.2886V358.734ZM84.0007 351.569H86.2886V343.723H84.0007V351.569ZM87.1015 357.373H89.4286V347.244H87.1015V357.373ZM87.1015 346.437H89.4286V337.471H87.1015V346.437ZM92.5428 349.4H90.2407V360.724H92.5428V349.4ZM92.5421 339.018H90.2407V348.594H92.5421V339.018ZM96.9591 344.231H93.3549V363.155H96.9591V344.231ZM93.3538 343.427H96.9579V333H93.3538V343.427ZM100.079 352.492H97.7715V365H100.079V352.492ZM97.7715 351.706H100.079V338.259H97.7715V351.706ZM104.492 348.287L100.891 348.287V361.006L104.492 361.008V348.287ZM100.891 347.478H104.491V335.604H100.891V347.478ZM107.612 350.824H105.304V357.373H107.612V350.824ZM105.304 350.019H107.612V343.718H105.304V350.019ZM110.732 348.289H108.425V354.812H110.732V348.289ZM110.732 341.758H108.425V347.474H110.732V341.758Z" fill="white"/>
</g>
<rect x="228.5" y="261.5" width="66" height="123" rx="4.5" fill="#ECECEC"/>
<rect x="228.5" y="261.5" width="66" height="123" rx="4.5" stroke="#7B61FF" stroke-dasharray="10 5"/>
<path d="M250.964 291.721H248V300.089H250.964V291.721Z" fill="#8DC8E8"/>
<path d="M250.964 300.089H248V306.735H250.964V300.089Z" fill="#41B6E6"/>
<path d="M253.974 285.474H250.964V294.745H253.974V285.474Z" fill="#41B6E6"/>
<path d="M253.974 294.745H250.964V305.373H253.974V294.745Z" fill="#14A3C7"/>
<path d="M256.954 287.02H253.974V297.019H256.954V287.02Z" fill="#5CB8B2"/>
<path d="M256.954 297.019H253.974V308.724H256.954V297.019Z" fill="#279989"/>
<path d="M261.499 281H256.954V291.656H261.499V281Z" fill="#A0D1CA"/>
<path d="M261.499 291.656H256.954V311.155H261.499V291.656Z" fill="#00857D"/>
<path d="M264.485 286.262H261.499V300.05H264.485V286.262Z" fill="#009639"/>
<path d="M264.485 300.05H261.499V313H264.485V300.05Z" fill="#00685E"/>
<path d="M269.026 283.608H264.485V295.798H269.026V283.608Z" fill="#84BD00"/>
<path d="M269.026 295.798H264.485V309.005H269.026V295.798Z" fill="#007864"/>
<path d="M272.015 291.717H269.026V298.333H272.015V291.717Z" fill="#A4D65E"/>
<path d="M272.015 298.333H269.026V305.372H272.015V298.333Z" fill="#009A44"/>
<path d="M275 289.757H272.015V295.798H275V289.757Z" fill="#C2E189"/>
<path d="M275 295.798H272.015V302.813H275V295.798Z" fill="#78BE20"/>
<path d="M250.289 358.734H248V352.376H250.289V358.734ZM248.001 351.569H250.289V343.723H248.001V351.569ZM251.101 357.373H253.429V347.244H251.101V357.373ZM251.101 346.437H253.429V337.471H251.101V346.437ZM256.543 349.4H254.241V360.724H256.543V349.4ZM256.542 339.018H254.241V348.594H256.542V339.018ZM260.959 344.231H257.355V363.155H260.959V344.231ZM257.354 343.427H260.958V333H257.354V343.427ZM264.079 352.492H261.771V365H264.079V352.492ZM261.771 351.706H264.079V338.259H261.771V351.706ZM268.492 348.287L264.891 348.287V361.006L268.492 361.008V348.287ZM264.891 347.478H268.491V335.604H264.891V347.478ZM271.612 350.824H269.304V357.373H271.612V350.824ZM269.304 350.019H271.612V343.718H269.304V350.019ZM274.732 348.289H272.425V354.812H274.732V348.289ZM274.732 341.758H272.425V347.474H274.732V341.758Z" fill="white"/>
<g clip-path="url(#clip2_64_4472)">
<path d="M68.9576 444.721H66V453.089H68.9576V444.721Z" fill="#8DC8E8"/>
<path d="M68.9576 453.089H66V459.735H68.9576V453.089Z" fill="#41B6E6"/>
<path d="M71.9618 438.474H68.9576V447.745H71.9618V438.474Z" fill="#41B6E6"/>
<path d="M71.9618 447.745H68.9576V458.373H71.9618V447.745Z" fill="#14A3C7"/>
<path d="M74.9352 440.02H71.9618V450.019H74.9352V440.02Z" fill="#5CB8B2"/>
<path d="M74.9352 450.019H71.9618V461.724H74.9352V450.019Z" fill="#279989"/>
<path d="M79.4707 434H74.9352V444.656H79.4707V434Z" fill="#A0D1CA"/>
<path d="M79.4707 444.656H74.9352V464.154H79.4707V444.656Z" fill="#008D7F"/>
<path d="M82.4511 439.262H79.4706V453.089H82.4511V439.262Z" fill="#009639"/>
<path d="M82.4511 453.088H79.4706V466H82.4511V453.088Z" fill="#00685E"/>
<path d="M86.9826 436.608H82.4511V448.798H86.9826V436.608Z" fill="#84BD00"/>
<path d="M86.9826 448.798H82.4511V462.005H86.9826V448.798Z" fill="#007864"/>
<path d="M89.9647 444.717H86.9825V451.333H89.9647V444.717Z" fill="#A4D65E"/>
<path d="M89.9647 451.333H86.9825V458.372H89.9647V451.333Z" fill="#009A44"/>
<path d="M92.9439 442.757H89.9648V448.798H92.9439V442.757Z" fill="#C2E189"/>
<path d="M92.9439 448.798H89.9648V455.813H92.9439V448.798Z" fill="#78BE20"/>
<path d="M99.8987 438.108C99.8987 438.015 99.959 437.949 100.059 437.949H105.513C105.607 437.949 105.674 438.009 105.674 438.108V439.498C105.674 439.59 105.614 439.656 105.513 439.656H102.107C102.047 439.656 102.013 439.69 102.013 439.749V442.211C102.013 442.27 102.047 442.304 102.107 442.304H105.272C105.366 442.304 105.433 442.363 105.433 442.462V443.753C105.433 443.845 105.373 443.912 105.272 443.912H102.107C102.047 443.912 102.013 443.945 102.013 444.004V446.731C102.013 446.79 102.047 446.824 102.107 446.824H105.761C105.854 446.824 105.921 446.883 105.921 446.982V448.399C105.921 448.491 105.861 448.557 105.761 448.557H100.059C99.9657 448.557 99.8987 448.498 99.8987 448.399V438.108Z" fill="#008D7F"/>
<path d="M115.29 446.162C115.29 447.843 113.731 448.703 111.449 448.703C108.852 448.703 107.635 447.849 107.635 446.162V438.108C107.635 438.015 107.695 437.949 107.795 437.949H109.575C109.669 437.949 109.736 438.009 109.736 438.108V445.553C109.736 446.771 110.539 446.956 111.482 446.956C112.426 446.956 113.216 446.771 113.216 445.54V438.108C113.216 438.015 113.276 437.949 113.376 437.949H115.143C115.236 437.949 115.303 438.009 115.303 438.108V446.162H115.29Z" fill="#008D7F"/>
<path d="M121.232 444.838C121.105 444.607 121.072 444.56 120.978 444.54H119.874C119.794 444.54 119.747 444.573 119.747 444.646V448.385C119.747 448.478 119.686 448.544 119.586 448.544H117.806C117.712 448.544 117.645 448.485 117.645 448.385V438.108C117.645 438.015 117.706 437.949 117.806 437.949H121.005C123.4 437.949 124.612 438.743 124.612 440.881C124.612 442.284 124.311 443.124 123.226 443.746C123.119 443.839 123.066 443.905 123.066 443.965C123.066 444.123 123.146 444.289 123.32 444.573L125.415 448.392C125.462 448.471 125.462 448.551 125.334 448.551H123.24C123.146 448.551 123.099 448.518 123.052 448.412L121.232 444.838ZM122.43 441.225C122.43 439.822 122.049 439.464 120.637 439.464H119.961C119.787 439.464 119.753 439.498 119.753 439.557V443.018C119.753 443.098 119.787 443.124 119.86 443.144H120.63C121.988 443.137 122.43 442.608 122.43 441.225Z" fill="#008D7F"/>
<path d="M133.973 447.717C133.311 448.498 132.354 448.696 130.822 448.696C129.296 448.696 128.379 448.491 127.703 447.717C127.027 446.91 126.646 445.222 126.646 443.243C126.646 441.265 127.027 439.584 127.703 438.77C128.379 437.989 129.343 437.79 130.868 437.79C132.394 437.79 133.311 437.995 133.973 438.77C134.669 439.577 135.044 441.265 135.044 443.243C135.044 445.222 134.669 446.91 133.973 447.717ZM129.343 446.598C129.597 446.943 130.039 446.989 130.842 446.989C131.678 446.989 132.1 446.943 132.354 446.598C132.702 446.115 132.856 444.726 132.856 443.25C132.856 441.754 132.695 440.384 132.354 439.901C132.1 439.557 131.678 439.511 130.875 439.511C130.039 439.511 129.597 439.557 129.349 439.901C129.001 440.384 128.848 441.754 128.848 443.25C128.841 444.726 128.995 446.115 129.343 446.598Z" fill="#008D7F"/>
<path d="M142.405 448.544C142.278 448.544 142.231 448.485 142.184 448.359L139.334 440.722C139.273 440.504 139.207 440.411 139.113 440.411C139.019 440.411 139.006 440.444 139.006 440.709L139.133 448.392C139.133 448.485 139.073 448.551 138.972 448.551H137.333C137.239 448.551 137.172 448.491 137.172 448.392V438.108C137.172 438.015 137.232 437.949 137.333 437.949H140.03C140.137 437.949 140.19 438.028 140.237 438.134L142.914 445.507C142.994 445.738 143.021 445.758 143.101 445.758C143.181 445.758 143.208 445.725 143.208 445.599L143.101 438.108C143.101 438.015 143.161 437.949 143.262 437.949H144.935C145.028 437.949 145.095 438.009 145.095 438.108V448.392C145.095 448.485 145.035 448.551 144.935 448.551H142.405L142.405 448.544Z" fill="#008D7F"/>
<path d="M147.558 438.108C147.558 438.015 147.618 437.949 147.718 437.949H153.172C153.266 437.949 153.333 438.009 153.333 438.108V439.498C153.333 439.59 153.273 439.656 153.172 439.656H149.766C149.706 439.656 149.673 439.69 149.673 439.749V442.211C149.673 442.27 149.706 442.304 149.766 442.304H152.931C153.025 442.304 153.092 442.363 153.092 442.462V443.753C153.092 443.845 153.032 443.912 152.931 443.912H149.766C149.706 443.912 149.673 443.945 149.673 444.004V446.731C149.673 446.79 149.706 446.824 149.766 446.824H153.42C153.514 446.824 153.581 446.883 153.581 446.982V448.399C153.581 448.491 153.52 448.557 153.42 448.557H147.718C147.625 448.557 147.558 448.498 147.558 448.399V438.108Z" fill="#008D7F"/>
<path d="M158.238 444.573C157.716 445.665 156.806 447.657 156.471 448.405C156.458 448.451 156.391 448.544 156.311 448.544H154.41C154.33 448.544 154.303 448.485 154.303 448.372C154.584 447.704 156.164 444.54 156.793 443.369C156.9 443.184 156.92 443.091 156.92 442.992C156.92 442.893 156.886 442.82 156.779 442.621C156.056 441.344 154.638 438.617 154.404 438.088C154.404 437.995 154.417 437.949 154.511 437.949H156.498C156.578 437.949 156.639 438.028 156.672 438.108C157.033 438.935 157.903 440.775 158.345 441.642C158.379 441.721 158.405 441.734 158.506 441.734C158.566 441.734 158.586 441.721 158.633 441.642C159.061 440.768 159.844 438.962 160.205 438.108C160.239 438.048 160.286 437.949 160.379 437.949H162.3C162.394 437.949 162.407 438.009 162.407 438.108C161.952 439.074 160.707 441.456 160.058 442.628C159.918 442.879 159.918 442.926 159.918 443.018C159.918 443.111 159.965 443.223 160.045 443.376C160.66 444.573 162.253 447.704 162.534 448.379C162.534 448.485 162.501 448.551 162.427 448.551H160.46C160.353 448.551 160.252 448.458 160.239 448.412C159.891 447.604 159.088 445.672 158.539 444.58C158.506 444.521 158.479 444.487 158.379 444.487C158.318 444.481 158.265 444.507 158.238 444.573Z" fill="#008D7F"/>
<path d="M165.137 439.756C165.137 439.696 165.104 439.663 165.044 439.663H163.029C162.936 439.663 162.869 439.603 162.869 439.504V438.101C162.869 438.009 162.929 437.942 163.029 437.942H169.36C169.454 437.942 169.52 438.002 169.52 438.101V439.504C169.52 439.597 169.46 439.663 169.36 439.663H167.326C167.265 439.663 167.232 439.696 167.232 439.756V448.385C167.232 448.478 167.172 448.544 167.071 448.544H165.291C165.198 448.544 165.131 448.485 165.131 448.385V439.756H165.137Z" fill="#008D7F"/>
<path d="M103.68 462.21C100.608 462.21 99.5374 460.291 99.5374 456.836C99.5374 453.441 100.608 451.304 103.68 451.304C104.596 451.304 105.379 451.41 105.808 451.568C105.868 451.602 105.915 451.615 105.915 451.707L105.834 453.19C105.834 453.236 105.754 453.296 105.674 453.269C105.266 453.143 104.603 453.051 103.987 453.051C102.174 453.051 101.766 453.984 101.766 456.849C101.766 459.53 102.174 460.463 103.987 460.463C104.57 460.463 105.245 460.37 105.64 460.258C105.721 460.244 105.828 460.244 105.848 460.337L105.955 461.727C105.968 461.819 105.941 461.899 105.895 461.912C105.353 462.084 104.596 462.21 103.68 462.21Z" fill="#008D7F"/>
<path d="M114.507 461.224C113.844 462.005 112.888 462.203 111.355 462.203C109.829 462.203 108.913 461.998 108.237 461.224C107.561 460.416 107.179 458.729 107.179 456.75C107.179 454.771 107.561 453.091 108.237 452.277C108.913 451.496 109.876 451.297 111.402 451.297C112.928 451.297 113.844 451.502 114.507 452.277C115.203 453.084 115.578 454.771 115.578 456.75C115.578 458.736 115.196 460.416 114.507 461.224ZM109.87 460.105C110.124 460.45 110.565 460.496 111.369 460.496C112.205 460.496 112.627 460.45 112.881 460.105C113.229 459.622 113.383 458.233 113.383 456.757C113.383 455.261 113.222 453.891 112.881 453.408C112.627 453.064 112.205 453.018 111.402 453.018C110.565 453.018 110.124 453.064 109.876 453.408C109.528 453.891 109.374 455.261 109.374 456.757C109.368 458.233 109.528 459.622 109.87 460.105Z" fill="#008D7F"/>
<path d="M121.279 458.345C121.152 458.113 121.118 458.067 121.025 458.047H119.921C119.84 458.047 119.793 458.08 119.793 458.153V461.892C119.793 461.985 119.733 462.051 119.633 462.051H117.853C117.759 462.051 117.692 461.991 117.692 461.892V451.615C117.692 451.522 117.752 451.456 117.853 451.456H121.052C123.447 451.456 124.658 452.25 124.658 454.388C124.658 455.791 124.357 456.631 123.273 457.253C123.166 457.346 123.113 457.412 123.113 457.471C123.113 457.63 123.193 457.796 123.367 458.08L125.461 461.899C125.508 461.978 125.508 462.058 125.381 462.058H123.293C123.2 462.058 123.153 462.024 123.106 461.919L121.279 458.345ZM122.477 454.725C122.477 453.322 122.095 452.965 120.684 452.965H120.008C119.834 452.965 119.8 452.998 119.8 453.057V456.518C119.8 456.598 119.834 456.624 119.907 456.644H120.677C122.035 456.644 122.477 456.115 122.477 454.725Z" fill="#008D7F"/>
<path d="M130.26 451.456C132.421 451.456 133.82 452.25 133.82 454.725C133.82 457.683 132.214 458.259 130.086 458.259H129.343C129.155 458.259 129.122 458.292 129.122 458.365V461.886C129.122 461.978 129.062 462.044 128.961 462.044H127.181C127.088 462.044 127.021 461.985 127.021 461.886V451.615C127.021 451.522 127.081 451.456 127.181 451.456L130.26 451.456ZM129.992 456.704C131.25 456.704 131.772 456.36 131.772 454.771C131.772 453.335 131.25 452.952 130.025 452.952H129.236C129.142 452.952 129.129 452.998 129.129 453.057V456.591C129.129 456.671 129.142 456.697 129.236 456.697H129.992V456.704Z" fill="#008D7F"/>
<path d="M142.686 461.224C142.024 462.005 141.067 462.203 139.534 462.203C138.009 462.203 137.092 461.998 136.416 461.224C135.74 460.416 135.359 458.729 135.359 456.75C135.359 454.771 135.74 453.091 136.416 452.277C137.092 451.496 138.056 451.297 139.581 451.297C141.107 451.297 142.024 451.502 142.686 452.277C143.382 453.084 143.757 454.771 143.757 456.75C143.757 458.736 143.382 460.416 142.686 461.224ZM138.056 460.105C138.31 460.45 138.751 460.496 139.554 460.496C140.391 460.496 140.813 460.45 141.067 460.105C141.415 459.622 141.569 458.233 141.569 456.757C141.569 455.261 141.408 453.891 141.067 453.408C140.813 453.064 140.391 453.018 139.588 453.018C138.751 453.018 138.31 453.064 138.062 453.408C137.714 453.891 137.56 455.261 137.56 456.757C137.554 458.233 137.708 459.622 138.056 460.105Z" fill="#008D7F"/>
<path d="M149.458 458.345C149.331 458.113 149.298 458.067 149.204 458.047H148.1C148.02 458.047 147.973 458.08 147.973 458.153V461.892C147.973 461.985 147.913 462.051 147.812 462.051H146.046C145.952 462.051 145.885 461.991 145.885 461.892V451.615C145.885 451.522 145.945 451.456 146.046 451.456H149.244C151.64 451.456 152.851 452.25 152.851 454.388C152.851 455.791 152.55 456.631 151.466 457.253C151.359 457.346 151.305 457.412 151.305 457.471C151.305 457.63 151.386 457.796 151.56 458.08L153.654 461.899C153.701 461.978 153.701 462.058 153.574 462.058H151.479C151.386 462.058 151.339 462.024 151.292 461.919L149.458 458.345ZM150.656 454.725C150.656 453.322 150.275 452.965 148.863 452.965H148.187C148.013 452.965 147.98 452.998 147.98 453.057V456.518C147.98 456.598 148.013 456.624 148.087 456.644H148.856C150.215 456.644 150.656 456.115 150.656 454.725Z" fill="#008D7F"/>
<path d="M160.205 459.483C160.192 459.404 160.159 459.377 160.078 459.377H157.007C156.926 459.377 156.866 459.411 156.846 459.483L156.251 461.899C156.204 462.025 156.143 462.058 156.043 462.058H154.216C154.136 462.058 154.089 462.025 154.089 461.965C154.089 461.952 154.089 461.919 154.102 461.905C154.578 460.019 156.291 453.785 156.953 451.621C156.987 451.529 157.047 451.463 157.141 451.463H160.152C160.259 451.463 160.313 451.522 160.339 451.621C161.015 453.944 162.768 460.536 163.096 461.905V461.965C163.096 462.025 163.063 462.058 162.989 462.058H160.975C160.868 462.058 160.801 462.025 160.768 461.899L160.205 459.483ZM159.811 457.796C159.871 457.796 159.904 457.783 159.904 457.703C159.73 456.909 159.162 454.434 158.867 453.216C158.854 453.157 158.807 453.137 158.599 453.137C158.392 453.137 158.345 453.15 158.332 453.216C158.004 454.434 157.388 456.909 157.214 457.703C157.214 457.783 157.248 457.796 157.308 457.796H159.811Z" fill="#008D7F"/>
<path d="M165.244 453.263C165.244 453.203 165.211 453.17 165.151 453.17H163.136C163.043 453.17 162.976 453.11 162.976 453.011V451.608C162.976 451.515 163.036 451.449 163.136 451.449H169.467C169.561 451.449 169.628 451.509 169.628 451.608V453.011C169.628 453.104 169.567 453.17 169.467 453.17H167.433C167.372 453.17 167.339 453.203 167.339 453.263V461.892C167.339 461.985 167.279 462.051 167.178 462.051H165.398C165.305 462.051 165.238 461.991 165.238 461.892V453.263H165.244Z" fill="#008D7F"/>
<path d="M171.06 451.615C171.06 451.522 171.12 451.456 171.22 451.456H176.674C176.768 451.456 176.835 451.515 176.835 451.615V453.005C176.835 453.097 176.774 453.163 176.674 453.163H173.268C173.208 453.163 173.174 453.196 173.174 453.256V455.718C173.174 455.777 173.208 455.81 173.268 455.81H176.433C176.527 455.81 176.594 455.87 176.594 455.969V457.26C176.594 457.352 176.534 457.419 176.433 457.419H173.268C173.208 457.419 173.174 457.452 173.174 457.511V460.238C173.174 460.297 173.208 460.33 173.268 460.33H176.922C177.015 460.33 177.082 460.39 177.082 460.489V461.905C177.082 461.998 177.022 462.064 176.922 462.064H171.22C171.127 462.064 171.06 462.005 171.06 461.905V451.615Z" fill="#008D7F"/>
<path d="M185.221 453.031C184.278 453.031 183.948 453.342 183.948 454.119C183.948 454.741 184.152 455.02 185.802 456.171C187.123 457.088 187.814 457.772 187.814 459.295C187.814 461.3 186.745 462.109 184.765 462.109C183.523 462.109 182.423 461.969 181.81 461.829C181.715 461.813 181.668 461.767 181.668 461.705L181.778 460.306C181.778 460.243 181.81 460.197 181.888 460.197C182.674 460.337 183.492 460.414 184.309 460.414C185.237 460.414 185.63 460.15 185.63 459.295C185.63 458.72 185.567 458.44 183.413 456.824C182.077 455.829 181.794 455.114 181.794 454.026C181.794 451.942 182.957 451.352 185.237 451.352C186.132 451.352 187.28 451.507 187.657 451.663C187.72 451.694 187.736 451.756 187.736 451.803L187.641 453.155C187.641 453.202 187.61 453.248 187.547 453.248C186.981 453.108 185.912 453.031 185.221 453.031Z" fill="#008D7F"/>
<path d="M196.82 461.176C196.16 461.953 195.201 462.155 193.677 462.155C192.152 462.155 191.24 461.953 190.564 461.176C189.888 460.368 189.511 458.689 189.511 456.715C189.511 454.74 189.888 453.062 190.564 452.253C191.24 451.476 192.199 451.274 193.724 451.274C195.248 451.274 196.16 451.476 196.82 452.253C197.512 453.062 197.889 454.741 197.889 456.715C197.889 458.689 197.512 460.368 196.82 461.176ZM192.199 460.057C192.451 460.399 192.891 460.446 193.692 460.446C194.525 460.446 194.95 460.399 195.201 460.057C195.547 459.575 195.704 458.191 195.704 456.715C195.704 455.222 195.547 453.855 195.201 453.373C194.95 453.031 194.525 452.984 193.724 452.984C192.891 452.984 192.45 453.031 192.199 453.373C191.853 453.855 191.696 455.222 191.696 456.715C191.696 458.191 191.853 459.575 192.199 460.057Z" fill="#008D7F"/>
<path d="M200.01 451.585C200.01 451.492 200.073 451.43 200.168 451.43H201.944C202.038 451.43 202.101 451.492 202.101 451.585V460.181C202.101 460.243 202.132 460.275 202.195 460.275H204.805C204.899 460.275 204.962 460.337 204.962 460.43V461.845C204.962 461.938 204.899 462 204.805 462H200.168C200.074 462 200.011 461.938 200.011 461.845L200.01 451.585Z" fill="#008D7F"/>
<path d="M213.795 459.622C213.795 461.3 212.239 462.155 209.96 462.155C207.366 462.155 206.156 461.3 206.156 459.622V451.585C206.156 451.492 206.219 451.43 206.313 451.43H208.089C208.184 451.43 208.246 451.492 208.246 451.585V459.015C208.246 460.228 209.048 460.414 209.991 460.414C210.934 460.414 211.72 460.228 211.72 459V451.585C211.72 451.492 211.783 451.43 211.878 451.43H213.638C213.732 451.43 213.795 451.492 213.795 451.585L213.795 459.622Z" fill="#008D7F"/>
<path d="M217.394 453.233C217.394 453.171 217.363 453.14 217.3 453.14H215.288C215.193 453.14 215.13 453.077 215.13 452.984V451.585C215.13 451.492 215.193 451.43 215.288 451.43H221.607C221.701 451.43 221.764 451.492 221.764 451.585V452.984C221.764 453.077 221.701 453.14 221.607 453.14H219.579C219.516 453.14 219.485 453.171 219.485 453.233V461.845C219.485 461.938 219.422 462 219.327 462H217.551C217.457 462 217.394 461.938 217.394 461.845L217.394 453.233Z" fill="#008D7F"/>
<path d="M223.351 462C223.257 462 223.194 461.938 223.194 461.845V451.585C223.194 451.492 223.257 451.43 223.351 451.43H225.127C225.222 451.43 225.284 451.492 225.284 451.585V461.845C225.284 461.938 225.222 462 225.127 462H223.351Z" fill="#008D7F"/>
<path d="M234.715 461.176C234.055 461.953 233.096 462.155 231.571 462.155C230.046 462.155 229.135 461.953 228.459 461.176C227.783 460.368 227.406 458.689 227.406 456.715C227.406 454.74 227.783 453.062 228.459 452.253C229.135 451.476 230.094 451.274 231.618 451.274C233.143 451.274 234.055 451.476 234.715 452.253C235.407 453.062 235.784 454.741 235.784 456.715C235.784 458.689 235.407 460.368 234.715 461.176ZM230.094 460.057C230.345 460.399 230.785 460.446 231.587 460.446C232.42 460.446 232.844 460.399 233.096 460.057C233.442 459.575 233.599 458.191 233.599 456.715C233.599 455.222 233.442 453.855 233.096 453.373C232.844 453.031 232.42 452.984 231.618 452.984C230.785 452.984 230.345 453.031 230.094 453.373C229.748 453.855 229.591 455.222 229.591 456.715C229.591 458.191 229.748 459.575 230.094 460.057Z" fill="#008D7F"/>
<path d="M243.124 462C242.998 462 242.951 461.938 242.904 461.813L240.058 454.197C239.996 453.979 239.933 453.886 239.838 453.886C239.744 453.886 239.728 453.917 239.728 454.181L239.854 461.845C239.854 461.938 239.791 462 239.697 462H238.062C237.968 462 237.905 461.938 237.905 461.845V451.585C237.905 451.492 237.968 451.43 238.062 451.43H240.75C240.86 451.43 240.907 451.507 240.954 451.616L243.627 458.969C243.705 459.202 243.737 459.218 243.815 459.218C243.894 459.218 243.925 459.186 243.925 459.062L243.815 451.585C243.815 451.492 243.878 451.43 243.972 451.43H245.639C245.733 451.43 245.796 451.492 245.796 451.585V461.845C245.796 461.938 245.733 462 245.639 462L243.124 462Z" fill="#008D7F"/>
<path d="M251.406 453.031C250.463 453.031 250.133 453.342 250.133 454.119C250.133 454.741 250.338 455.02 251.988 456.171C253.308 457.088 254 457.772 254 459.295C254 461.3 252.931 462.109 250.951 462.109C249.709 462.109 248.608 461.969 247.995 461.829C247.901 461.813 247.854 461.767 247.854 461.705L247.964 460.306C247.964 460.243 247.995 460.197 248.074 460.197C248.86 460.337 249.677 460.414 250.495 460.414C251.422 460.414 251.815 460.15 251.815 459.295C251.815 458.72 251.752 458.44 249.599 456.824C248.263 455.829 247.98 455.114 247.98 454.026C247.98 451.942 249.143 451.352 251.422 451.352C252.318 451.352 253.465 451.507 253.843 451.663C253.906 451.694 253.921 451.756 253.921 451.803L253.827 453.155C253.827 453.202 253.795 453.248 253.733 453.248C253.167 453.108 252.098 453.031 251.406 453.031Z" fill="#008D7F"/>
</g>
<defs>
<clipPath id="clip0_64_4472">
<rect width="104" height="32" fill="white" transform="translate(84 281)"/>
</clipPath>
<clipPath id="clip1_64_4472">
<rect width="104" height="32" fill="white" transform="translate(84 333)"/>
</clipPath>
<clipPath id="clip2_64_4472">
<rect width="188" height="32" fill="white" transform="translate(66 434)"/>
</clipPath>
</defs>
</svg>
