<svg width="1482" height="729" viewBox="0 0 1482 729" fill="none" xmlns="http://www.w3.org/2000/svg">
<rect width="1482" height="729" fill="#FAFAFA"/>
<path d="M77.056 89V86.672H68.824V71.912H66.232V89H77.056ZM91.0444 80.456C91.0444 77.168 91.0924 75.272 89.4124 73.592C88.2364 72.416 86.7244 71.768 84.9004 71.768C83.0764 71.768 81.5884 72.416 80.4124 73.592C78.7324 75.272 78.7564 77.168 78.7564 80.456C78.7564 83.744 78.7324 85.64 80.4124 87.32C81.5884 88.496 83.0764 89.144 84.9004 89.144C86.7244 89.144 88.2364 88.496 89.4124 87.32C91.0924 85.64 91.0444 83.744 91.0444 80.456ZM88.4524 80.456C88.4524 83.888 88.2844 84.848 87.4444 85.76C86.8444 86.408 85.9084 86.816 84.9004 86.816C83.8924 86.816 82.9564 86.408 82.3564 85.76C81.5164 84.848 81.3484 83.888 81.3484 80.456C81.3484 77.024 81.5164 76.064 82.3564 75.152C82.9564 74.504 83.8924 74.096 84.9004 74.096C85.9084 74.096 86.8444 74.504 87.4444 75.152C88.2844 76.064 88.4524 77.024 88.4524 80.456ZM106.656 82.376V79.76H100.416V81.968H104.064V82.928C104.064 84.032 103.824 84.896 103.2 85.616C102.528 86.384 101.544 86.816 100.416 86.816C99.4081 86.816 98.4961 86.432 97.8961 85.784C97.0561 84.872 96.8641 83.888 96.8641 80.456C96.8641 77.024 97.0561 76.064 97.8961 75.152C98.4961 74.504 99.4081 74.096 100.416 74.096C102.336 74.096 103.584 75.2 104.016 77.072H106.632C106.152 74.144 104.04 71.768 100.416 71.768C98.5921 71.768 97.1041 72.416 95.9281 73.592C94.2481 75.272 94.2721 77.168 94.2721 80.456C94.2721 83.744 94.2481 85.64 95.9281 87.32C97.1041 88.496 98.6401 89.144 100.416 89.144C102.216 89.144 103.824 88.568 105.12 87.2C106.248 86 106.656 84.584 106.656 82.376ZM122.146 80.456C122.146 77.168 122.194 75.272 120.514 73.592C119.338 72.416 117.826 71.768 116.002 71.768C114.178 71.768 112.69 72.416 111.514 73.592C109.834 75.272 109.858 77.168 109.858 80.456C109.858 83.744 109.834 85.64 111.514 87.32C112.69 88.496 114.178 89.144 116.002 89.144C117.826 89.144 119.338 88.496 120.514 87.32C122.194 85.64 122.146 83.744 122.146 80.456ZM119.554 80.456C119.554 83.888 119.386 84.848 118.546 85.76C117.946 86.408 117.01 86.816 116.002 86.816C114.994 86.816 114.058 86.408 113.458 85.76C112.618 84.848 112.45 83.888 112.45 80.456C112.45 77.024 112.618 76.064 113.458 75.152C114.058 74.504 114.994 74.096 116.002 74.096C117.01 74.096 117.946 74.504 118.546 75.152C119.386 76.064 119.554 77.024 119.554 80.456Z" fill="black"/>
<path d="M107.44 162.2C107.44 157.16 106.08 153 103.04 150.12C100.64 147.88 97.36 146.44 92.16 145.72L85.44 144.76C83.12 144.44 81.28 143.56 80.16 142.52C78.96 141.4 78.48 139.88 78.48 138.44C78.48 134.52 81.36 131.24 87.28 131.24C91.04 131.24 95.36 131.72 98.96 135.16L106 128.2C101.12 123.48 95.44 121.56 87.6 121.56C75.28 121.56 67.76 128.68 67.76 138.84C67.76 143.64 69.12 147.32 71.84 150.04C74.4 152.52 78 154.04 82.88 154.76L89.76 155.72C92.4 156.12 93.68 156.68 94.8 157.72C96 158.84 96.56 160.52 96.56 162.52C96.56 167.08 93.04 169.56 86.48 169.56C81.2 169.56 76.32 168.36 72.72 164.76L65.52 171.96C71.12 177.64 77.68 179.48 86.32 179.48C98.24 179.48 107.44 173.24 107.44 162.2ZM158.786 139.8C158.786 130.12 151.746 122.04 139.986 122.04H117.906V179H129.026V157.56H139.986C151.746 157.56 158.786 149.48 158.786 139.8ZM147.666 139.8C147.666 144.44 144.466 147.56 139.426 147.56H129.026V131.96H139.426C144.466 131.96 147.666 135.16 147.666 139.8ZM205.66 179V169.08H179.26V155.24H201.74V145.32H179.26V131.96H205.66V122.04H168.14V179H205.66ZM256.578 161.48H245.298C244.098 166.36 241.058 169.56 235.698 169.56C232.658 169.56 230.258 168.6 228.578 166.6C226.258 164.12 225.778 161.56 225.778 150.52C225.778 139.48 226.258 136.92 228.578 134.44C230.258 132.44 232.658 131.48 235.698 131.48C241.058 131.48 244.098 134.68 245.298 139.56H256.578C254.658 127.96 246.578 121.56 235.618 121.56C229.538 121.56 224.418 123.64 220.258 127.8C217.778 130.28 216.258 133.08 215.618 136.36C214.978 139.56 214.658 144.28 214.658 150.52C214.658 156.76 214.978 161.48 215.618 164.68C216.258 167.88 217.778 170.76 220.258 173.24C224.418 177.4 229.538 179.48 235.618 179.48C246.498 179.48 254.658 173.08 256.578 161.48ZM277.307 179V122.04H266.187V179H277.307ZM328.082 131.96V122.04H290.562V179H301.682V155.88H324.162V145.96H301.682V131.96H328.082ZM348.869 179V122.04H337.749V179H348.869ZM402.124 161.48H390.844C389.644 166.36 386.604 169.56 381.244 169.56C378.204 169.56 375.804 168.6 374.124 166.6C371.804 164.12 371.324 161.56 371.324 150.52C371.324 139.48 371.804 136.92 374.124 134.44C375.804 132.44 378.204 131.48 381.244 131.48C386.604 131.48 389.644 134.68 390.844 139.56H402.124C400.204 127.96 392.124 121.56 381.164 121.56C375.084 121.56 369.964 123.64 365.804 127.8C363.324 130.28 361.804 133.08 361.164 136.36C360.524 139.56 360.204 144.28 360.204 150.52C360.204 156.76 360.524 161.48 361.164 164.68C361.804 167.88 363.324 170.76 365.804 173.24C369.964 177.4 375.084 179.48 381.164 179.48C392.044 179.48 400.204 173.08 402.124 161.48ZM454.874 179L434.074 122.04H425.354L404.634 179H416.234L419.674 168.92H439.914L443.274 179H454.874ZM436.954 159.56H422.794L429.994 138.84L436.954 159.56ZM493.764 131.96V122.04H452.884V131.96H467.764V179H478.884V131.96H493.764ZM513.948 179V122.04H502.828V179H513.948ZM567.363 150.52C567.363 140.68 567.443 133.56 561.682 127.8C557.683 123.8 552.803 121.56 546.323 121.56C539.843 121.56 534.883 123.8 530.883 127.8C525.123 133.56 525.283 140.68 525.283 150.52C525.283 160.36 525.123 167.48 530.883 173.24C534.883 177.24 539.843 179.48 546.323 179.48C552.803 179.48 557.683 177.24 561.682 173.24C567.443 167.48 567.363 160.36 567.363 150.52ZM556.243 150.52C556.243 161.48 555.603 164.12 553.443 166.52C551.843 168.36 549.363 169.56 546.323 169.56C543.283 169.56 540.723 168.36 539.123 166.52C536.963 164.12 536.403 161.48 536.403 150.52C536.403 139.56 536.963 136.92 539.123 134.52C540.723 132.68 543.283 131.48 546.323 131.48C549.363 131.48 551.843 132.68 553.443 134.52C555.603 136.92 556.243 139.56 556.243 150.52ZM622.287 179V122.04H611.167V156.92L588.607 122.04H578.687V179H589.807V144.04L612.367 179H622.287ZM672.362 162.2C672.362 157.16 671.002 153 667.962 150.12C665.562 147.88 662.282 146.44 657.082 145.72L650.362 144.76C648.042 144.44 646.202 143.56 645.082 142.52C643.882 141.4 643.402 139.88 643.402 138.44C643.402 134.52 646.282 131.24 652.202 131.24C655.962 131.24 660.282 131.72 663.882 135.16L670.922 128.2C666.042 123.48 660.362 121.56 652.522 121.56C640.202 121.56 632.682 128.68 632.682 138.84C632.682 143.64 634.042 147.32 636.762 150.04C639.322 152.52 642.922 154.04 647.802 154.76L654.682 155.72C657.322 156.12 658.602 156.68 659.722 157.72C660.922 158.84 661.482 160.52 661.482 162.52C661.482 167.08 657.962 169.56 651.402 169.56C646.122 169.56 641.242 168.36 637.642 164.76L630.442 171.96C636.042 177.64 642.602 179.48 651.242 179.48C663.162 179.48 672.362 173.24 672.362 162.2Z" fill="black"/>
<path d="M93.25 296.2C93.25 290.05 93.3 285.6 89.7 282C87.2 279.5 84.15 278.1 80.1 278.1C76.05 278.1 72.95 279.5 70.45 282C66.85 285.6 66.95 290.05 66.95 296.2C66.95 302.35 66.85 306.8 70.45 310.4C72.95 312.9 76.05 314.3 80.1 314.3C84.15 314.3 87.2 312.9 89.7 310.4C93.3 306.8 93.25 302.35 93.25 296.2ZM86.3 296.2C86.3 303.05 85.9 304.7 84.55 306.2C83.55 307.35 82 308.1 80.1 308.1C78.2 308.1 76.6 307.35 75.6 306.2C74.25 304.7 73.9 303.05 73.9 296.2C73.9 289.35 74.25 287.7 75.6 286.2C76.6 285.05 78.2 284.3 80.1 284.3C82 284.3 83.55 285.05 84.55 286.2C85.9 287.7 86.3 289.35 86.3 296.2ZM120.628 287.95H113.778L108.528 304.05L103.228 287.95H96.3777L105.978 314H111.078L120.628 287.95ZM145.398 303V300.1C145.398 292.95 141.298 287.65 134.048 287.65C127.298 287.65 122.698 292.45 122.698 300.95C122.698 311.5 128.598 314.3 134.748 314.3C139.448 314.3 141.998 312.85 144.648 310.2L140.698 306.35C139.048 308 137.648 308.8 134.798 308.8C131.148 308.8 129.098 306.35 129.098 303H145.398ZM138.998 298.55H129.098C129.148 297.4 129.298 296.7 129.698 295.75C130.398 294.2 131.848 293.05 134.048 293.05C136.248 293.05 137.698 294.2 138.398 295.75C138.798 296.7 138.948 297.4 138.998 298.55ZM170.44 290.1C168.64 288.3 166.84 287.65 164.29 287.65C161.49 287.65 158.99 288.95 157.74 290.45V287.95H151.39V314H157.89V298.3C157.89 295 160.09 293.5 162.09 293.5C163.69 293.5 164.54 294.05 165.54 295.05L170.44 290.1ZM194.944 287.95H188.094L182.844 304.05L177.544 287.95H170.694L180.294 314H185.394L194.944 287.95ZM205.302 314V287.95H198.802V314H205.302ZM205.352 283.5V278.2H198.702V283.5H205.352ZM233.972 303V300.1C233.972 292.95 229.872 287.65 222.622 287.65C215.872 287.65 211.272 292.45 211.272 300.95C211.272 311.5 217.172 314.3 223.322 314.3C228.022 314.3 230.572 312.85 233.222 310.2L229.272 306.35C227.622 308 226.222 308.8 223.372 308.8C219.722 308.8 217.672 306.35 217.672 303H233.972ZM227.572 298.55H217.672C217.722 297.4 217.872 296.7 218.272 295.75C218.972 294.2 220.422 293.05 222.622 293.05C224.822 293.05 226.272 294.2 226.972 295.75C227.372 296.7 227.522 297.4 227.572 298.55ZM273.674 287.95H266.824L262.624 304.05L257.274 287.95H252.524L247.224 304.05L243.024 287.95H236.124L244.124 314H249.474L254.924 297.65L260.374 314H265.724L273.674 287.95Z" fill="black"/>
<path d="M77.08 383V381.368H68.296V375.2H75.784V373.568H68.296V367.544H77.08V365.912H66.472V383H77.08ZM88.9746 383V374.984C88.9746 372.416 87.4146 371.048 84.2466 371.048C82.3266 371.048 81.1266 371.432 80.0706 372.8L81.2466 373.88C81.9426 372.896 82.7106 372.536 84.2226 372.536C86.3826 372.536 87.2466 373.4 87.2466 375.128V376.256H83.6946C81.0546 376.256 79.6146 377.6 79.6146 379.664C79.6146 380.6 79.9266 381.488 80.5026 382.064C81.2466 382.832 82.2066 383.144 83.8386 383.144C85.4226 383.144 86.2866 382.832 87.2466 381.872V383H88.9746ZM87.2466 378.824C87.2466 379.808 87.0546 380.48 86.6466 380.864C85.9026 381.584 85.0146 381.656 84.0066 381.656C82.1346 381.656 81.2946 381.008 81.2946 379.64C81.2946 378.272 82.1586 377.552 83.9346 377.552H87.2466V378.824ZM101.655 381.392L100.479 380.264C99.5914 381.248 98.8954 381.608 97.7674 381.608C96.6154 381.608 95.6554 381.152 95.0314 380.264C94.4794 379.496 94.2634 378.584 94.2634 377.096C94.2634 375.608 94.4794 374.696 95.0314 373.928C95.6554 373.04 96.6154 372.584 97.7674 372.584C98.8954 372.584 99.5914 372.92 100.479 373.904L101.655 372.8C100.431 371.48 99.3994 371.048 97.7674 371.048C94.7914 371.048 92.5354 373.064 92.5354 377.096C92.5354 381.128 94.7914 383.144 97.7674 383.144C99.3994 383.144 100.431 382.712 101.655 381.392ZM114.237 383V375.416C114.237 372.752 112.653 371.048 109.989 371.048C108.669 371.048 107.541 371.504 106.677 372.488V365.912H104.949V383H106.677V375.704C106.677 373.664 107.853 372.584 109.629 372.584C111.405 372.584 112.509 373.64 112.509 375.704V383H114.237ZM133.426 377.096C133.426 375.272 133.186 373.616 131.986 372.392C131.17 371.576 130.042 371.048 128.602 371.048C127.162 371.048 126.034 371.576 125.218 372.392C124.018 373.616 123.778 375.272 123.778 377.096C123.778 378.92 124.018 380.576 125.218 381.8C126.034 382.616 127.162 383.144 128.602 383.144C130.042 383.144 131.17 382.616 131.986 381.8C133.186 380.576 133.426 378.92 133.426 377.096ZM131.698 377.096C131.698 378.416 131.626 379.88 130.762 380.744C130.21 381.296 129.442 381.608 128.602 381.608C127.762 381.608 127.018 381.296 126.466 380.744C125.602 379.88 125.506 378.416 125.506 377.096C125.506 375.776 125.602 374.312 126.466 373.448C127.018 372.896 127.762 372.584 128.602 372.584C129.442 372.584 130.21 372.896 130.762 373.448C131.626 374.312 131.698 375.776 131.698 377.096ZM141.761 372.584V371.264H139.241V369.08C139.241 368 139.721 367.352 140.825 367.352H141.761V365.864H140.513C138.497 365.864 137.513 367.28 137.513 369.032V371.264H136.001V372.584H137.513V383H139.241V372.584H141.761ZM159.676 377.096C159.676 375.272 159.436 373.616 158.236 372.392C157.42 371.576 156.292 371.048 154.852 371.048C153.412 371.048 152.284 371.576 151.468 372.392C150.268 373.616 150.028 375.272 150.028 377.096C150.028 378.92 150.268 380.576 151.468 381.8C152.284 382.616 153.412 383.144 154.852 383.144C156.292 383.144 157.42 382.616 158.236 381.8C159.436 380.576 159.676 378.92 159.676 377.096ZM157.948 377.096C157.948 378.416 157.876 379.88 157.012 380.744C156.46 381.296 155.692 381.608 154.852 381.608C154.012 381.608 153.268 381.296 152.716 380.744C151.852 379.88 151.756 378.416 151.756 377.096C151.756 375.776 151.852 374.312 152.716 373.448C153.268 372.896 154.012 372.584 154.852 372.584C155.692 372.584 156.46 372.896 157.012 373.448C157.876 374.312 157.948 375.776 157.948 377.096ZM172.547 383V371.192H170.819V378.464C170.819 380.528 169.643 381.608 167.867 381.608C166.091 381.608 164.987 380.552 164.987 378.464V371.192H163.259V378.728C163.259 380.096 163.619 381.224 164.459 382.04C165.179 382.76 166.235 383.144 167.507 383.144C168.827 383.144 170.003 382.64 170.843 381.68V383H172.547ZM184.727 372.152C183.887 371.312 183.023 371.048 181.895 371.048C180.527 371.048 179.231 371.648 178.583 372.632V371.192H176.855V383H178.583V375.752C178.583 373.952 179.687 372.584 181.415 372.584C182.327 372.584 182.807 372.8 183.455 373.448L184.727 372.152ZM202.317 377.096C202.317 375.248 202.077 373.28 200.877 372.08C200.253 371.456 199.197 371.048 197.997 371.048C196.701 371.048 195.621 371.336 194.661 372.584V371.192H192.933V388.28H194.661V381.608C195.621 382.832 196.701 383.144 197.997 383.144C199.197 383.144 200.253 382.736 200.877 382.112C202.077 380.912 202.317 378.944 202.317 377.096ZM200.589 377.096C200.589 379.4 200.205 381.608 197.637 381.608C195.069 381.608 194.661 379.4 194.661 377.096C194.661 374.792 195.069 372.584 197.637 372.584C200.205 372.584 200.589 374.792 200.589 377.096ZM213.884 372.152C213.044 371.312 212.18 371.048 211.052 371.048C209.684 371.048 208.388 371.648 207.74 372.632V371.192H206.012V383H207.74V375.752C207.74 373.952 208.844 372.584 210.572 372.584C211.484 372.584 211.964 372.8 212.612 373.448L213.884 372.152ZM224.317 377.096C224.317 375.272 224.077 373.616 222.877 372.392C222.061 371.576 220.933 371.048 219.493 371.048C218.053 371.048 216.925 371.576 216.109 372.392C214.909 373.616 214.669 375.272 214.669 377.096C214.669 378.92 214.909 380.576 216.109 381.8C216.925 382.616 218.053 383.144 219.493 383.144C220.933 383.144 222.061 382.616 222.877 381.8C224.077 380.576 224.317 378.92 224.317 377.096ZM222.589 377.096C222.589 378.416 222.517 379.88 221.653 380.744C221.101 381.296 220.333 381.608 219.493 381.608C218.653 381.608 217.909 381.296 217.357 380.744C216.493 379.88 216.397 378.416 216.397 377.096C216.397 375.776 216.493 374.312 217.357 373.448C217.909 372.896 218.653 372.584 219.493 372.584C220.333 372.584 221.101 372.896 221.653 373.448C222.517 374.312 222.589 375.776 222.589 377.096ZM236.779 383V365.912H235.051V372.56C234.091 371.336 233.011 371.048 231.715 371.048C230.515 371.048 229.459 371.456 228.835 372.08C227.635 373.28 227.395 375.248 227.395 377.096C227.395 378.944 227.635 380.912 228.835 382.112C229.459 382.736 230.515 383.144 231.715 383.144C233.011 383.144 234.115 382.832 235.075 381.584V383H236.779ZM235.051 377.096C235.051 379.4 234.667 381.608 232.099 381.608C229.531 381.608 229.123 379.4 229.123 377.096C229.123 374.792 229.531 372.584 232.099 372.584C234.667 372.584 235.051 374.792 235.051 377.096ZM250.266 383V371.192H248.538V378.464C248.538 380.528 247.362 381.608 245.586 381.608C243.81 381.608 242.706 380.552 242.706 378.464V371.192H240.978V378.728C240.978 380.096 241.338 381.224 242.178 382.04C242.898 382.76 243.954 383.144 245.226 383.144C246.546 383.144 247.722 382.64 248.562 381.68V383H250.266ZM263.046 381.392L261.87 380.264C260.982 381.248 260.286 381.608 259.158 381.608C258.006 381.608 257.046 381.152 256.422 380.264C255.87 379.496 255.654 378.584 255.654 377.096C255.654 375.608 255.87 374.696 256.422 373.928C257.046 373.04 258.006 372.584 259.158 372.584C260.286 372.584 260.982 372.92 261.87 373.904L263.046 372.8C261.822 371.48 260.79 371.048 259.158 371.048C256.182 371.048 253.926 373.064 253.926 377.096C253.926 381.128 256.182 383.144 259.158 383.144C260.79 383.144 261.822 382.712 263.046 381.392ZM270.876 383V381.512H269.964C268.86 381.512 268.356 380.864 268.356 379.784V372.584H270.876V371.264H268.356V367.568H266.628V371.264H265.14V372.584H266.628V379.832C266.628 381.584 267.636 383 269.652 383H270.876ZM289.453 383V371.192H287.725V378.464C287.725 380.528 286.549 381.608 284.773 381.608C282.997 381.608 281.893 380.552 281.893 378.464V371.192H280.165V378.728C280.165 380.096 280.525 381.224 281.365 382.04C282.085 382.76 283.141 383.144 284.413 383.144C285.733 383.144 286.909 382.64 287.749 381.68V383H289.453ZM302.282 379.544C302.282 377.336 300.866 376.544 298.802 376.352L296.906 376.184C295.418 376.064 294.842 375.464 294.842 374.456C294.842 373.256 295.754 372.512 297.482 372.512C298.706 372.512 299.786 372.8 300.626 373.448L301.754 372.32C300.698 371.456 299.186 371.048 297.506 371.048C294.986 371.048 293.162 372.344 293.162 374.504C293.162 376.448 294.386 377.48 296.69 377.672L298.634 377.84C300.002 377.96 300.602 378.536 300.602 379.568C300.602 380.96 299.402 381.656 297.458 381.656C295.994 381.656 294.722 381.272 293.786 380.288L292.634 381.44C293.93 382.688 295.49 383.144 297.482 383.144C300.338 383.144 302.282 381.824 302.282 379.544ZM314.716 377.552V376.76C314.716 373.256 312.916 371.048 309.868 371.048C306.868 371.048 305.02 373.28 305.02 377.096C305.02 381.272 307.06 383.144 310.18 383.144C312.196 383.144 313.3 382.52 314.5 381.32L313.324 380.288C312.388 381.224 311.596 381.632 310.228 381.632C307.972 381.632 306.748 380.144 306.748 377.552H314.716ZM312.988 376.256H306.748C306.796 375.296 306.844 374.936 307.108 374.288C307.564 373.208 308.62 372.512 309.868 372.512C311.116 372.512 312.172 373.208 312.628 374.288C312.892 374.936 312.94 375.296 312.988 376.256ZM328.907 383V381.512H327.995C326.891 381.512 326.387 380.864 326.387 379.784V372.584H328.907V371.264H326.387V367.568H324.659V371.264H323.171V372.584H324.659V379.832C324.659 381.584 325.667 383 327.683 383H328.907ZM341.628 383V375.416C341.628 372.752 340.044 371.048 337.38 371.048C336.06 371.048 334.932 371.504 334.068 372.488V365.912H332.34V383H334.068V375.704C334.068 373.664 335.244 372.584 337.02 372.584C338.796 372.584 339.9 373.64 339.9 375.704V383H341.628ZM354.864 377.552V376.76C354.864 373.256 353.064 371.048 350.016 371.048C347.016 371.048 345.168 373.28 345.168 377.096C345.168 381.272 347.208 383.144 350.328 383.144C352.344 383.144 353.448 382.52 354.648 381.32L353.472 380.288C352.536 381.224 351.744 381.632 350.376 381.632C348.12 381.632 346.896 380.144 346.896 377.552H354.864ZM353.136 376.256H346.896C346.944 375.296 346.992 374.936 347.256 374.288C347.712 373.208 348.768 372.512 350.016 372.512C351.264 372.512 352.32 373.208 352.776 374.288C353.04 374.936 353.088 375.296 353.136 376.256ZM373.039 379.544C373.039 377.336 371.623 376.544 369.559 376.352L367.663 376.184C366.175 376.064 365.599 375.464 365.599 374.456C365.599 373.256 366.511 372.512 368.239 372.512C369.463 372.512 370.543 372.8 371.383 373.448L372.511 372.32C371.455 371.456 369.943 371.048 368.263 371.048C365.743 371.048 363.919 372.344 363.919 374.504C363.919 376.448 365.143 377.48 367.447 377.672L369.391 377.84C370.759 377.96 371.359 378.536 371.359 379.568C371.359 380.96 370.159 381.656 368.215 381.656C366.751 381.656 365.479 381.272 364.543 380.288L363.391 381.44C364.687 382.688 366.247 383.144 368.239 383.144C371.095 383.144 373.039 381.824 373.039 379.544ZM384.85 383V374.984C384.85 372.416 383.29 371.048 380.122 371.048C378.202 371.048 377.002 371.432 375.946 372.8L377.122 373.88C377.818 372.896 378.586 372.536 380.098 372.536C382.258 372.536 383.122 373.4 383.122 375.128V376.256H379.57C376.93 376.256 375.49 377.6 375.49 379.664C375.49 380.6 375.802 381.488 376.378 382.064C377.122 382.832 378.082 383.144 379.714 383.144C381.298 383.144 382.162 382.832 383.122 381.872V383H384.85ZM383.122 378.824C383.122 379.808 382.93 380.48 382.522 380.864C381.778 381.584 380.89 381.656 379.882 381.656C378.01 381.656 377.17 381.008 377.17 379.64C377.17 378.272 378.034 377.552 379.81 377.552H383.122V378.824ZM405.954 383V375.44C405.954 374.072 405.522 372.968 404.682 372.152C403.962 371.456 402.906 371.048 401.634 371.048C399.978 371.048 398.658 371.72 397.746 373.016C397.026 371.72 395.754 371.048 394.122 371.048C392.802 371.048 391.626 371.528 390.786 372.488V371.192H389.058V383H390.786V375.728C390.786 373.664 391.962 372.584 393.738 372.584C395.514 372.584 396.642 373.64 396.642 375.728V383H398.37V375.536C398.37 373.664 399.594 372.584 401.322 372.584C403.098 372.584 404.226 373.64 404.226 375.728V383H405.954ZM419.2 377.552V376.76C419.2 373.256 417.4 371.048 414.352 371.048C411.352 371.048 409.504 373.28 409.504 377.096C409.504 381.272 411.544 383.144 414.664 383.144C416.68 383.144 417.784 382.52 418.984 381.32L417.808 380.288C416.872 381.224 416.08 381.632 414.712 381.632C412.456 381.632 411.232 380.144 411.232 377.552H419.2ZM417.472 376.256H411.232C411.28 375.296 411.328 374.936 411.592 374.288C412.048 373.208 413.104 372.512 414.352 372.512C415.6 372.512 416.656 373.208 417.112 374.288C417.376 374.936 417.424 375.296 417.472 376.256ZM439.775 383V381.368H430.991V375.2H438.479V373.568H430.991V367.544H439.775V365.912H429.167V383H439.775ZM452.414 383V371.192H450.686V378.464C450.686 380.528 449.51 381.608 447.734 381.608C445.958 381.608 444.854 380.552 444.854 378.464V371.192H443.126V378.728C443.126 380.096 443.486 381.224 444.326 382.04C445.046 382.76 446.102 383.144 447.374 383.144C448.694 383.144 449.87 382.64 450.71 381.68V383H452.414ZM464.595 372.152C463.755 371.312 462.891 371.048 461.763 371.048C460.395 371.048 459.099 371.648 458.451 372.632V371.192H456.723V383H458.451V375.752C458.451 373.952 459.555 372.584 461.283 372.584C462.195 372.584 462.675 372.8 463.323 373.448L464.595 372.152ZM475.028 377.096C475.028 375.272 474.788 373.616 473.588 372.392C472.772 371.576 471.644 371.048 470.204 371.048C468.764 371.048 467.636 371.576 466.82 372.392C465.62 373.616 465.38 375.272 465.38 377.096C465.38 378.92 465.62 380.576 466.82 381.8C467.636 382.616 468.764 383.144 470.204 383.144C471.644 383.144 472.772 382.616 473.588 381.8C474.788 380.576 475.028 378.92 475.028 377.096ZM473.3 377.096C473.3 378.416 473.228 379.88 472.364 380.744C471.812 381.296 471.044 381.608 470.204 381.608C469.364 381.608 468.62 381.296 468.068 380.744C467.204 379.88 467.108 378.416 467.108 377.096C467.108 375.776 467.204 374.312 468.068 373.448C468.62 372.896 469.364 372.584 470.204 372.584C471.044 372.584 471.812 372.896 472.364 373.448C473.228 374.312 473.3 375.776 473.3 377.096ZM488.018 383V375.44C488.018 374.072 487.634 372.968 486.794 372.152C486.074 371.432 485.042 371.048 483.77 371.048C482.45 371.048 481.298 371.528 480.458 372.488V371.192H478.73V383H480.458V375.728C480.458 373.664 481.61 372.584 483.386 372.584C485.162 372.584 486.29 373.64 486.29 375.728V383H488.018ZM501.255 377.552V376.76C501.255 373.256 499.455 371.048 496.407 371.048C493.407 371.048 491.559 373.28 491.559 377.096C491.559 381.272 493.599 383.144 496.719 383.144C498.735 383.144 499.839 382.52 501.039 381.32L499.863 380.288C498.927 381.224 498.135 381.632 496.767 381.632C494.511 381.632 493.287 380.144 493.287 377.552H501.255ZM499.527 376.256H493.287C493.335 375.296 493.383 374.936 493.647 374.288C494.103 373.208 495.159 372.512 496.407 372.512C497.655 372.512 498.711 373.208 499.167 374.288C499.431 374.936 499.479 375.296 499.527 376.256ZM513.078 383L509.07 376.976L512.91 371.192H510.822L508.158 375.56L505.446 371.192H503.358L507.198 376.976L503.19 383H505.278L508.158 378.416L510.99 383H513.078ZM520.555 383V381.512H519.643C518.539 381.512 518.035 380.864 518.035 379.784V372.584H520.555V371.264H518.035V367.568H516.307V371.264H514.819V372.584H516.307V379.832C516.307 381.584 517.315 383 519.331 383H520.555ZM534.165 383V381.512H533.229C532.029 381.512 531.645 380.936 531.645 379.784V365.912H529.917V379.856C529.917 381.656 530.853 383 532.917 383H534.165ZM545.645 377.096C545.645 375.272 545.405 373.616 544.205 372.392C543.389 371.576 542.261 371.048 540.821 371.048C539.381 371.048 538.253 371.576 537.437 372.392C536.237 373.616 535.997 375.272 535.997 377.096C535.997 378.92 536.237 380.576 537.437 381.8C538.253 382.616 539.381 383.144 540.821 383.144C542.261 383.144 543.389 382.616 544.205 381.8C545.405 380.576 545.645 378.92 545.645 377.096ZM543.917 377.096C543.917 378.416 543.845 379.88 542.981 380.744C542.429 381.296 541.661 381.608 540.821 381.608C539.981 381.608 539.237 381.296 538.685 380.744C537.821 379.88 537.725 378.416 537.725 377.096C537.725 375.776 537.821 374.312 538.685 373.448C539.237 372.896 539.981 372.584 540.821 372.584C541.661 372.584 542.429 372.896 542.981 373.448C543.845 374.312 543.917 375.776 543.917 377.096ZM558.06 383.36V371.192H556.356V372.584C555.396 371.336 554.34 371.048 553.044 371.048C551.844 371.048 550.788 371.456 550.164 372.08C548.988 373.256 548.724 375.08 548.724 377C548.724 378.92 548.988 380.744 550.164 381.92C550.788 382.544 551.82 382.976 553.02 382.976C554.292 382.976 555.372 382.664 556.332 381.44V383.288C556.332 385.304 555.372 386.912 553.092 386.912C551.724 386.912 551.124 386.504 550.26 385.736L549.132 386.84C550.38 387.968 551.364 388.424 553.14 388.424C556.236 388.424 558.06 386.288 558.06 383.36ZM556.332 377C556.332 379.208 555.972 381.416 553.404 381.416C550.836 381.416 550.452 379.208 550.452 377C550.452 374.792 550.836 372.584 553.404 372.584C555.972 372.584 556.332 374.792 556.332 377ZM571.403 377.096C571.403 375.272 571.163 373.616 569.963 372.392C569.147 371.576 568.019 371.048 566.579 371.048C565.139 371.048 564.011 371.576 563.195 372.392C561.995 373.616 561.755 375.272 561.755 377.096C561.755 378.92 561.995 380.576 563.195 381.8C564.011 382.616 565.139 383.144 566.579 383.144C568.019 383.144 569.147 382.616 569.963 381.8C571.163 380.576 571.403 378.92 571.403 377.096ZM569.675 377.096C569.675 378.416 569.603 379.88 568.739 380.744C568.187 381.296 567.419 381.608 566.579 381.608C565.739 381.608 564.995 381.296 564.443 380.744C563.579 379.88 563.483 378.416 563.483 377.096C563.483 375.776 563.579 374.312 564.443 373.448C564.995 372.896 565.739 372.584 566.579 372.584C567.419 372.584 568.187 372.896 568.739 373.448C569.603 374.312 569.675 375.776 569.675 377.096ZM577.313 383V380.744H575.057V383H577.313Z" fill="black"/>
<path d="M92.9 461.4H85.65L78.5 484.6L71.35 461.4H64.15L75.9 497H81.1L92.9 461.4ZM114.401 497V479.85C114.401 473.75 110.601 470.65 103.301 470.65C98.9508 470.65 96.4508 471.45 93.9008 474.25L98.0508 478.3C99.4008 476.75 100.551 476.15 103.051 476.15C106.501 476.15 107.901 477.4 107.901 480.25V481.55H101.751C95.7008 481.55 92.8508 484.95 92.8508 489.1C92.8508 491.4 93.6008 493.5 95.0008 494.95C96.5508 496.5 98.7008 497.25 101.651 497.25C104.651 497.25 106.301 496.5 108.051 494.75V497H114.401ZM107.901 487.4C107.901 489 107.651 490.05 106.951 490.7C105.801 491.8 104.651 491.95 102.851 491.95C100.301 491.95 99.1008 490.75 99.1008 488.95C99.1008 487.1 100.401 486 102.751 486H107.901V487.4ZM140.46 473.1C138.66 471.3 136.86 470.65 134.31 470.65C131.51 470.65 129.01 471.95 127.76 473.45V470.95H121.41V497H127.91V481.3C127.91 478 130.11 476.5 132.11 476.5C133.71 476.5 134.56 477.05 135.56 478.05L140.46 473.1ZM150.664 497V470.95H144.164V497H150.664ZM150.714 466.5V461.2H144.064V466.5H150.714ZM177.633 497V479.85C177.633 473.75 173.833 470.65 166.533 470.65C162.183 470.65 159.683 471.45 157.133 474.25L161.283 478.3C162.633 476.75 163.783 476.15 166.283 476.15C169.733 476.15 171.133 477.4 171.133 480.25V481.55H164.983C158.933 481.55 156.083 484.95 156.083 489.1C156.083 491.4 156.833 493.5 158.233 494.95C159.783 496.5 161.933 497.25 164.883 497.25C167.883 497.25 169.533 496.5 171.283 494.75V497H177.633ZM171.133 487.4C171.133 489 170.883 490.05 170.183 490.7C169.033 491.8 167.883 491.95 166.083 491.95C163.533 491.95 162.333 490.75 162.333 488.95C162.333 487.1 163.633 486 165.983 486H171.133V487.4ZM206.292 497V480.35C206.292 477.5 205.742 475.05 203.642 472.95C202.192 471.5 200.092 470.65 197.492 470.65C195.092 470.65 192.692 471.55 190.992 473.35V470.95H184.642V497H191.142V481.25C191.142 477.7 193.442 476.5 195.492 476.5C197.542 476.5 199.792 477.7 199.792 481.25V497H206.292ZM225.004 497V491.5H222.654C221.104 491.5 220.404 490.65 220.404 489.15V476.65H225.004V471.7H220.404V464H213.904V471.7H211.154V476.65H213.904V489.55C213.904 493.25 216.154 497 221.454 497H225.004ZM250.482 488.8C250.482 484.4 247.882 481.65 242.732 481.15L238.632 480.75C236.332 480.55 235.932 479.45 235.932 478.5C235.932 477.2 237.032 476 239.632 476C241.882 476 244.182 476.4 245.682 477.75L249.682 473.7C247.182 471.35 243.782 470.65 239.732 470.65C234.432 470.65 229.682 473.55 229.682 478.95C229.682 483.75 232.582 485.8 237.282 486.25L241.382 486.65C243.432 486.85 244.132 487.75 244.132 489.05C244.132 491 241.782 491.75 239.532 491.75C237.532 491.75 234.732 491.45 232.582 489.3L228.332 493.55C231.632 496.85 235.332 497.3 239.432 497.3C245.582 497.3 250.482 494.55 250.482 488.8Z" fill="black"/>
<path d="M76.432 550.544V548.912H64.72V550.544H69.664V566H71.488V550.544H76.432ZM88.5964 566V558.416C88.5964 555.752 87.0124 554.048 84.3484 554.048C83.0284 554.048 81.9004 554.504 81.0364 555.488V548.912H79.3084V566H81.0364V558.704C81.0364 556.664 82.2124 555.584 83.9884 555.584C85.7644 555.584 86.8684 556.64 86.8684 558.704V566H88.5964ZM101.833 560.552V559.76C101.833 556.256 100.033 554.048 96.985 554.048C93.985 554.048 92.137 556.28 92.137 560.096C92.137 564.272 94.177 566.144 97.297 566.144C99.313 566.144 100.417 565.52 101.617 564.32L100.441 563.288C99.505 564.224 98.713 564.632 97.345 564.632C95.089 564.632 93.865 563.144 93.865 560.552H101.833ZM100.105 559.256H93.865C93.913 558.296 93.961 557.936 94.225 557.288C94.681 556.208 95.737 555.512 96.985 555.512C98.233 555.512 99.289 556.208 99.745 557.288C100.009 557.936 100.057 558.296 100.105 559.256ZM122.408 566V564.368H113.624V558.2H121.112V556.568H113.624V550.544H122.408V548.912H111.8V566H122.408ZM135.047 566V554.192H133.319V561.464C133.319 563.528 132.143 564.608 130.367 564.608C128.591 564.608 127.487 563.552 127.487 561.464V554.192H125.759V561.728C125.759 563.096 126.119 564.224 126.959 565.04C127.679 565.76 128.735 566.144 130.007 566.144C131.327 566.144 132.503 565.64 133.343 564.68V566H135.047ZM147.227 555.152C146.387 554.312 145.523 554.048 144.395 554.048C143.027 554.048 141.731 554.648 141.083 555.632V554.192H139.355V566H141.083V558.752C141.083 556.952 142.187 555.584 143.915 555.584C144.827 555.584 145.307 555.8 145.955 556.448L147.227 555.152ZM157.661 560.096C157.661 558.272 157.421 556.616 156.221 555.392C155.405 554.576 154.277 554.048 152.837 554.048C151.397 554.048 150.269 554.576 149.453 555.392C148.253 556.616 148.013 558.272 148.013 560.096C148.013 561.92 148.253 563.576 149.453 564.8C150.269 565.616 151.397 566.144 152.837 566.144C154.277 566.144 155.405 565.616 156.221 564.8C157.421 563.576 157.661 561.92 157.661 560.096ZM155.933 560.096C155.933 561.416 155.861 562.88 154.997 563.744C154.445 564.296 153.677 564.608 152.837 564.608C151.997 564.608 151.253 564.296 150.701 563.744C149.837 562.88 149.741 561.416 149.741 560.096C149.741 558.776 149.837 557.312 150.701 556.448C151.253 555.896 151.997 555.584 152.837 555.584C153.677 555.584 154.445 555.896 154.997 556.448C155.861 557.312 155.933 558.776 155.933 560.096ZM170.651 566V558.44C170.651 557.072 170.267 555.968 169.427 555.152C168.707 554.432 167.675 554.048 166.403 554.048C165.083 554.048 163.931 554.528 163.091 555.488V554.192H161.363V566H163.091V558.728C163.091 556.664 164.243 555.584 166.019 555.584C167.795 555.584 168.923 556.64 168.923 558.728V566H170.651ZM183.888 560.552V559.76C183.888 556.256 182.088 554.048 179.04 554.048C176.04 554.048 174.192 556.28 174.192 560.096C174.192 564.272 176.232 566.144 179.352 566.144C181.368 566.144 182.472 565.52 183.672 564.32L182.496 563.288C181.56 564.224 180.768 564.632 179.4 564.632C177.144 564.632 175.92 563.144 175.92 560.552H183.888ZM182.16 559.256H175.92C175.968 558.296 176.016 557.936 176.28 557.288C176.736 556.208 177.792 555.512 179.04 555.512C180.288 555.512 181.344 556.208 181.8 557.288C182.064 557.936 182.112 558.296 182.16 559.256ZM195.711 566L191.703 559.976L195.543 554.192H193.455L190.791 558.56L188.079 554.192H185.991L189.831 559.976L185.823 566H187.911L190.791 561.416L193.623 566H195.711ZM203.188 566V564.512H202.276C201.172 564.512 200.668 563.864 200.668 562.784V555.584H203.188V554.264H200.668V550.568H198.94V554.264H197.452V555.584H198.94V562.832C198.94 564.584 199.948 566 201.964 566H203.188ZM216.798 566V564.512H215.862C214.662 564.512 214.278 563.936 214.278 562.784V548.912H212.55V562.856C212.55 564.656 213.486 566 215.55 566H216.798ZM228.278 560.096C228.278 558.272 228.038 556.616 226.838 555.392C226.022 554.576 224.894 554.048 223.454 554.048C222.014 554.048 220.886 554.576 220.07 555.392C218.87 556.616 218.63 558.272 218.63 560.096C218.63 561.92 218.87 563.576 220.07 564.8C220.886 565.616 222.014 566.144 223.454 566.144C224.894 566.144 226.022 565.616 226.838 564.8C228.038 563.576 228.278 561.92 228.278 560.096ZM226.55 560.096C226.55 561.416 226.478 562.88 225.614 563.744C225.062 564.296 224.294 564.608 223.454 564.608C222.614 564.608 221.87 564.296 221.318 563.744C220.454 562.88 220.358 561.416 220.358 560.096C220.358 558.776 220.454 557.312 221.318 556.448C221.87 555.896 222.614 555.584 223.454 555.584C224.294 555.584 225.062 555.896 225.614 556.448C226.478 557.312 226.55 558.776 226.55 560.096ZM240.692 566.36V554.192H238.988V555.584C238.028 554.336 236.972 554.048 235.676 554.048C234.476 554.048 233.42 554.456 232.796 555.08C231.62 556.256 231.356 558.08 231.356 560C231.356 561.92 231.62 563.744 232.796 564.92C233.42 565.544 234.452 565.976 235.652 565.976C236.924 565.976 238.004 565.664 238.964 564.44V566.288C238.964 568.304 238.004 569.912 235.724 569.912C234.356 569.912 233.756 569.504 232.892 568.736L231.764 569.84C233.012 570.968 233.996 571.424 235.772 571.424C238.868 571.424 240.692 569.288 240.692 566.36ZM238.964 560C238.964 562.208 238.604 564.416 236.036 564.416C233.468 564.416 233.084 562.208 233.084 560C233.084 557.792 233.468 555.584 236.036 555.584C238.604 555.584 238.964 557.792 238.964 560ZM254.036 560.096C254.036 558.272 253.796 556.616 252.596 555.392C251.78 554.576 250.652 554.048 249.212 554.048C247.772 554.048 246.644 554.576 245.828 555.392C244.628 556.616 244.388 558.272 244.388 560.096C244.388 561.92 244.628 563.576 245.828 564.8C246.644 565.616 247.772 566.144 249.212 566.144C250.652 566.144 251.78 565.616 252.596 564.8C253.796 563.576 254.036 561.92 254.036 560.096ZM252.308 560.096C252.308 561.416 252.236 562.88 251.372 563.744C250.82 564.296 250.052 564.608 249.212 564.608C248.372 564.608 247.628 564.296 247.076 563.744C246.212 562.88 246.116 561.416 246.116 560.096C246.116 558.776 246.212 557.312 247.076 556.448C247.628 555.896 248.372 555.584 249.212 555.584C250.052 555.584 250.82 555.896 251.372 556.448C252.236 557.312 252.308 558.776 252.308 560.096ZM265.443 566V554.192H263.715V566H265.443ZM265.563 550.832V548.888H263.619V550.832H265.563ZM278.305 562.544C278.305 560.336 276.889 559.544 274.825 559.352L272.929 559.184C271.441 559.064 270.865 558.464 270.865 557.456C270.865 556.256 271.777 555.512 273.505 555.512C274.729 555.512 275.809 555.8 276.649 556.448L277.777 555.32C276.721 554.456 275.209 554.048 273.529 554.048C271.009 554.048 269.185 555.344 269.185 557.504C269.185 559.448 270.409 560.48 272.713 560.672L274.657 560.84C276.025 560.96 276.625 561.536 276.625 562.568C276.625 563.96 275.425 564.656 273.481 564.656C272.017 564.656 270.745 564.272 269.809 563.288L268.657 564.44C269.953 565.688 271.513 566.144 273.505 566.144C276.361 566.144 278.305 564.824 278.305 562.544ZM296.092 566V557.984C296.092 555.416 294.532 554.048 291.364 554.048C289.444 554.048 288.244 554.432 287.188 555.8L288.364 556.88C289.06 555.896 289.828 555.536 291.34 555.536C293.5 555.536 294.364 556.4 294.364 558.128V559.256H290.812C288.172 559.256 286.732 560.6 286.732 562.664C286.732 563.6 287.044 564.488 287.62 565.064C288.364 565.832 289.324 566.144 290.956 566.144C292.54 566.144 293.404 565.832 294.364 564.872V566H296.092ZM294.364 561.824C294.364 562.808 294.172 563.48 293.764 563.864C293.02 564.584 292.132 564.656 291.124 564.656C289.252 564.656 288.412 564.008 288.412 562.64C288.412 561.272 289.276 560.552 291.052 560.552H294.364V561.824ZM308.605 554.192H306.733L303.493 563.672L300.277 554.192H298.405L302.725 566H304.261L308.605 554.192ZM319.225 566V557.984C319.225 555.416 317.665 554.048 314.497 554.048C312.577 554.048 311.377 554.432 310.321 555.8L311.497 556.88C312.193 555.896 312.961 555.536 314.473 555.536C316.633 555.536 317.497 556.4 317.497 558.128V559.256H313.945C311.305 559.256 309.865 560.6 309.865 562.664C309.865 563.6 310.177 564.488 310.753 565.064C311.497 565.832 312.457 566.144 314.089 566.144C315.673 566.144 316.537 565.832 317.497 564.872V566H319.225ZM317.497 561.824C317.497 562.808 317.305 563.48 316.897 563.864C316.153 564.584 315.265 564.656 314.257 564.656C312.385 564.656 311.545 564.008 311.545 562.64C311.545 561.272 312.409 560.552 314.185 560.552H317.497V561.824ZM325.161 566V554.192H323.433V566H325.161ZM325.281 550.832V548.888H323.337V550.832H325.281ZM333.704 566V564.512H332.768C331.568 564.512 331.184 563.936 331.184 562.784V548.912H329.456V562.856C329.456 564.656 330.392 566 332.456 566H333.704ZM345.053 566V557.984C345.053 555.416 343.493 554.048 340.325 554.048C338.405 554.048 337.205 554.432 336.149 555.8L337.325 556.88C338.021 555.896 338.789 555.536 340.301 555.536C342.461 555.536 343.325 556.4 343.325 558.128V559.256H339.773C337.133 559.256 335.693 560.6 335.693 562.664C335.693 563.6 336.005 564.488 336.581 565.064C337.325 565.832 338.285 566.144 339.917 566.144C341.501 566.144 342.365 565.832 343.325 564.872V566H345.053ZM343.325 561.824C343.325 562.808 343.133 563.48 342.725 563.864C341.981 564.584 341.093 564.656 340.085 564.656C338.213 564.656 337.373 564.008 337.373 562.64C337.373 561.272 338.237 560.552 340.013 560.552H343.325V561.824ZM358.646 560.096C358.646 558.248 358.406 556.28 357.206 555.08C356.582 554.456 355.526 554.048 354.326 554.048C353.03 554.048 351.95 554.336 350.99 555.56V548.912H349.262V566H350.99V564.584C351.95 565.832 353.03 566.144 354.326 566.144C355.526 566.144 356.582 565.736 357.206 565.112C358.406 563.912 358.646 561.944 358.646 560.096ZM356.918 560.096C356.918 562.4 356.534 564.608 353.966 564.608C351.398 564.608 350.99 562.4 350.99 560.096C350.99 557.792 351.398 555.584 353.966 555.584C356.534 555.584 356.918 557.792 356.918 560.096ZM366.54 566V564.512H365.604C364.404 564.512 364.02 563.936 364.02 562.784V548.912H362.292V562.856C362.292 564.656 363.228 566 365.292 566H366.54ZM377.903 560.552V559.76C377.903 556.256 376.103 554.048 373.055 554.048C370.055 554.048 368.207 556.28 368.207 560.096C368.207 564.272 370.247 566.144 373.367 566.144C375.383 566.144 376.487 565.52 377.687 564.32L376.511 563.288C375.575 564.224 374.783 564.632 373.415 564.632C371.159 564.632 369.935 563.144 369.935 560.552H377.903ZM376.175 559.256H369.935C369.983 558.296 370.031 557.936 370.295 557.288C370.751 556.208 371.807 555.512 373.055 555.512C374.303 555.512 375.359 556.208 375.815 557.288C376.079 557.936 376.127 558.296 376.175 559.256ZM389.286 566V554.192H387.558V566H389.286ZM389.406 550.832V548.888H387.462V550.832H389.406ZM402.917 566V558.44C402.917 557.072 402.533 555.968 401.693 555.152C400.973 554.432 399.941 554.048 398.669 554.048C397.349 554.048 396.197 554.528 395.357 555.488V554.192H393.629V566H395.357V558.728C395.357 556.664 396.509 555.584 398.285 555.584C400.061 555.584 401.189 556.64 401.189 558.728V566H402.917ZM417.618 566V564.512H416.706C415.602 564.512 415.098 563.864 415.098 562.784V555.584H417.618V554.264H415.098V550.568H413.37V554.264H411.882V555.584H413.37V562.832C413.37 564.584 414.378 566 416.394 566H417.618ZM436.003 554.192H434.131L431.443 563.672L428.323 554.192H426.835L423.739 563.672L421.027 554.192H419.155L422.899 566H424.507L427.579 556.832L430.675 566H432.283L436.003 554.192ZM447.325 560.096C447.325 558.272 447.085 556.616 445.885 555.392C445.069 554.576 443.941 554.048 442.501 554.048C441.061 554.048 439.933 554.576 439.117 555.392C437.917 556.616 437.677 558.272 437.677 560.096C437.677 561.92 437.917 563.576 439.117 564.8C439.933 565.616 441.061 566.144 442.501 566.144C443.941 566.144 445.069 565.616 445.885 564.8C447.085 563.576 447.325 561.92 447.325 560.096ZM445.597 560.096C445.597 561.416 445.525 562.88 444.661 563.744C444.109 564.296 443.341 564.608 442.501 564.608C441.661 564.608 440.917 564.296 440.365 563.744C439.501 562.88 439.405 561.416 439.405 560.096C439.405 558.776 439.501 557.312 440.365 556.448C440.917 555.896 441.661 555.584 442.501 555.584C443.341 555.584 444.109 555.896 444.661 556.448C445.525 557.312 445.597 558.776 445.597 560.096ZM465.476 564.392L464.3 563.264C463.412 564.248 462.716 564.608 461.588 564.608C460.436 564.608 459.476 564.152 458.852 563.264C458.3 562.496 458.084 561.584 458.084 560.096C458.084 558.608 458.3 557.696 458.852 556.928C459.476 556.04 460.436 555.584 461.588 555.584C462.716 555.584 463.412 555.92 464.3 556.904L465.476 555.8C464.252 554.48 463.22 554.048 461.588 554.048C458.612 554.048 456.356 556.064 456.356 560.096C456.356 564.128 458.612 566.144 461.588 566.144C463.22 566.144 464.252 565.712 465.476 564.392ZM477.442 560.096C477.442 558.272 477.202 556.616 476.002 555.392C475.186 554.576 474.058 554.048 472.618 554.048C471.178 554.048 470.05 554.576 469.234 555.392C468.034 556.616 467.794 558.272 467.794 560.096C467.794 561.92 468.034 563.576 469.234 564.8C470.05 565.616 471.178 566.144 472.618 566.144C474.058 566.144 475.186 565.616 476.002 564.8C477.202 563.576 477.442 561.92 477.442 560.096ZM475.714 560.096C475.714 561.416 475.642 562.88 474.778 563.744C474.226 564.296 473.458 564.608 472.618 564.608C471.778 564.608 471.034 564.296 470.482 563.744C469.618 562.88 469.522 561.416 469.522 560.096C469.522 558.776 469.618 557.312 470.482 556.448C471.034 555.896 471.778 555.584 472.618 555.584C473.458 555.584 474.226 555.896 474.778 556.448C475.642 557.312 475.714 558.776 475.714 560.096ZM485.344 566V564.512H484.408C483.208 564.512 482.824 563.936 482.824 562.784V548.912H481.096V562.856C481.096 564.656 482.032 566 484.096 566H485.344ZM496.825 560.096C496.825 558.272 496.585 556.616 495.385 555.392C494.569 554.576 493.441 554.048 492.001 554.048C490.561 554.048 489.433 554.576 488.617 555.392C487.417 556.616 487.177 558.272 487.177 560.096C487.177 561.92 487.417 563.576 488.617 564.8C489.433 565.616 490.561 566.144 492.001 566.144C493.441 566.144 494.569 565.616 495.385 564.8C496.585 563.576 496.825 561.92 496.825 560.096ZM495.097 560.096C495.097 561.416 495.025 562.88 494.161 563.744C493.609 564.296 492.841 564.608 492.001 564.608C491.161 564.608 490.417 564.296 489.865 563.744C489.001 562.88 488.905 561.416 488.905 560.096C488.905 558.776 489.001 557.312 489.865 556.448C490.417 555.896 491.161 555.584 492.001 555.584C492.841 555.584 493.609 555.896 494.161 556.448C495.025 557.312 495.097 558.776 495.097 560.096ZM508.399 555.152C507.559 554.312 506.695 554.048 505.567 554.048C504.199 554.048 502.903 554.648 502.255 555.632V554.192H500.527V566H502.255V558.752C502.255 556.952 503.359 555.584 505.087 555.584C505.999 555.584 506.479 555.8 507.127 556.448L508.399 555.152ZM525.125 562.544C525.125 560.336 523.709 559.544 521.645 559.352L519.749 559.184C518.261 559.064 517.685 558.464 517.685 557.456C517.685 556.256 518.597 555.512 520.325 555.512C521.549 555.512 522.629 555.8 523.469 556.448L524.597 555.32C523.541 554.456 522.029 554.048 520.349 554.048C517.829 554.048 516.005 555.344 516.005 557.504C516.005 559.448 517.229 560.48 519.533 560.672L521.477 560.84C522.845 560.96 523.445 561.536 523.445 562.568C523.445 563.96 522.245 564.656 520.301 564.656C518.837 564.656 517.565 564.272 516.629 563.288L515.477 564.44C516.773 565.688 518.333 566.144 520.325 566.144C523.181 566.144 525.125 564.824 525.125 562.544ZM536.984 564.392L535.808 563.264C534.92 564.248 534.224 564.608 533.096 564.608C531.944 564.608 530.984 564.152 530.36 563.264C529.808 562.496 529.592 561.584 529.592 560.096C529.592 558.608 529.808 557.696 530.36 556.928C530.984 556.04 531.944 555.584 533.096 555.584C534.224 555.584 534.92 555.92 535.808 556.904L536.984 555.8C535.76 554.48 534.728 554.048 533.096 554.048C530.12 554.048 527.864 556.064 527.864 560.096C527.864 564.128 530.12 566.144 533.096 566.144C534.728 566.144 535.76 565.712 536.984 564.392ZM549.565 566V558.416C549.565 555.752 547.981 554.048 545.317 554.048C543.997 554.048 542.869 554.504 542.005 555.488V548.912H540.277V566H542.005V558.704C542.005 556.664 543.181 555.584 544.957 555.584C546.733 555.584 547.837 556.64 547.837 558.704V566H549.565ZM562.802 560.552V559.76C562.802 556.256 561.002 554.048 557.954 554.048C554.954 554.048 553.106 556.28 553.106 560.096C553.106 564.272 555.146 566.144 558.266 566.144C560.282 566.144 561.386 565.52 562.586 564.32L561.41 563.288C560.474 564.224 559.682 564.632 558.314 564.632C556.058 564.632 554.834 563.144 554.834 560.552H562.802ZM561.074 559.256H554.834C554.882 558.296 554.93 557.936 555.194 557.288C555.65 556.208 556.706 555.512 557.954 555.512C559.202 555.512 560.258 556.208 560.714 557.288C560.978 557.936 561.026 558.296 561.074 559.256ZM583.376 566V558.44C583.376 557.072 582.944 555.968 582.104 555.152C581.384 554.456 580.328 554.048 579.056 554.048C577.4 554.048 576.08 554.72 575.168 556.016C574.448 554.72 573.176 554.048 571.544 554.048C570.224 554.048 569.048 554.528 568.208 555.488V554.192H566.48V566H568.208V558.728C568.208 556.664 569.384 555.584 571.16 555.584C572.936 555.584 574.064 556.64 574.064 558.728V566H575.792V558.536C575.792 556.664 577.016 555.584 578.744 555.584C580.52 555.584 581.648 556.64 581.648 558.728V566H583.376ZM596.622 560.552V559.76C596.622 556.256 594.822 554.048 591.774 554.048C588.774 554.048 586.926 556.28 586.926 560.096C586.926 564.272 588.966 566.144 592.086 566.144C594.102 566.144 595.206 565.52 596.406 564.32L595.23 563.288C594.294 564.224 593.502 564.632 592.134 564.632C589.878 564.632 588.654 563.144 588.654 560.552H596.622ZM594.894 559.256H588.654C588.702 558.296 588.75 557.936 589.014 557.288C589.47 556.208 590.526 555.512 591.774 555.512C593.022 555.512 594.078 556.208 594.534 557.288C594.798 557.936 594.846 558.296 594.894 559.256ZM608.821 562.544C608.821 560.336 607.405 559.544 605.341 559.352L603.445 559.184C601.957 559.064 601.381 558.464 601.381 557.456C601.381 556.256 602.293 555.512 604.021 555.512C605.245 555.512 606.325 555.8 607.165 556.448L608.293 555.32C607.237 554.456 605.725 554.048 604.045 554.048C601.525 554.048 599.701 555.344 599.701 557.504C599.701 559.448 600.925 560.48 603.229 560.672L605.173 560.84C606.541 560.96 607.141 561.536 607.141 562.568C607.141 563.96 605.941 564.656 603.997 564.656C602.533 564.656 601.261 564.272 600.325 563.288L599.173 564.44C600.469 565.688 602.029 566.144 604.021 566.144C606.877 566.144 608.821 564.824 608.821 562.544ZM615.063 558.776V556.52H612.807V558.776H615.063ZM615.063 566V563.744H612.807V566H615.063ZM634.02 566.36V554.192H632.316V555.584C631.356 554.336 630.3 554.048 629.004 554.048C627.804 554.048 626.748 554.456 626.124 555.08C624.948 556.256 624.684 558.08 624.684 560C624.684 561.92 624.948 563.744 626.124 564.92C626.748 565.544 627.78 565.976 628.98 565.976C630.252 565.976 631.332 565.664 632.292 564.44V566.288C632.292 568.304 631.332 569.912 629.052 569.912C627.684 569.912 627.084 569.504 626.22 568.736L625.092 569.84C626.34 570.968 627.324 571.424 629.1 571.424C632.196 571.424 634.02 569.288 634.02 566.36ZM632.292 560C632.292 562.208 631.932 564.416 629.364 564.416C626.796 564.416 626.412 562.208 626.412 560C626.412 557.792 626.796 555.584 629.364 555.584C631.932 555.584 632.292 557.792 632.292 560ZM646.212 555.152C645.372 554.312 644.508 554.048 643.38 554.048C642.012 554.048 640.716 554.648 640.068 555.632V554.192H638.34V566H640.068V558.752C640.068 556.952 641.172 555.584 642.9 555.584C643.812 555.584 644.292 555.8 644.94 556.448L646.212 555.152ZM656.669 560.552V559.76C656.669 556.256 654.869 554.048 651.821 554.048C648.821 554.048 646.973 556.28 646.973 560.096C646.973 564.272 649.013 566.144 652.133 566.144C654.149 566.144 655.253 565.52 656.453 564.32L655.277 563.288C654.341 564.224 653.549 564.632 652.181 564.632C649.925 564.632 648.701 563.144 648.701 560.552H656.669ZM654.941 559.256H648.701C648.749 558.296 648.797 557.936 649.061 557.288C649.517 556.208 650.573 555.512 651.821 555.512C653.069 555.512 654.125 556.208 654.581 557.288C654.845 557.936 654.893 558.296 654.941 559.256ZM669.396 560.552V559.76C669.396 556.256 667.596 554.048 664.548 554.048C661.548 554.048 659.7 556.28 659.7 560.096C659.7 564.272 661.74 566.144 664.86 566.144C666.876 566.144 667.98 565.52 669.18 564.32L668.004 563.288C667.068 564.224 666.276 564.632 664.908 564.632C662.652 564.632 661.428 563.144 661.428 560.552H669.396ZM667.668 559.256H661.428C661.476 558.296 661.524 557.936 661.788 557.288C662.244 556.208 663.3 555.512 664.548 555.512C665.796 555.512 666.852 556.208 667.308 557.288C667.572 557.936 667.62 558.296 667.668 559.256ZM682.362 566V558.44C682.362 557.072 681.978 555.968 681.138 555.152C680.418 554.432 679.386 554.048 678.114 554.048C676.794 554.048 675.642 554.528 674.802 555.488V554.192H673.074V566H674.802V558.728C674.802 556.664 675.954 555.584 677.73 555.584C679.506 555.584 680.634 556.64 680.634 558.728V566H682.362ZM700.951 566V557.984C700.951 555.416 699.391 554.048 696.223 554.048C694.303 554.048 693.103 554.432 692.047 555.8L693.223 556.88C693.919 555.896 694.687 555.536 696.199 555.536C698.359 555.536 699.223 556.4 699.223 558.128V559.256H695.671C693.031 559.256 691.591 560.6 691.591 562.664C691.591 563.6 691.903 564.488 692.479 565.064C693.223 565.832 694.183 566.144 695.815 566.144C697.399 566.144 698.263 565.832 699.223 564.872V566H700.951ZM699.223 561.824C699.223 562.808 699.031 563.48 698.623 563.864C697.879 564.584 696.991 564.656 695.983 564.656C694.111 564.656 693.271 564.008 693.271 562.64C693.271 561.272 694.135 560.552 695.911 560.552H699.223V561.824ZM714.448 566V558.44C714.448 557.072 714.064 555.968 713.224 555.152C712.504 554.432 711.472 554.048 710.2 554.048C708.88 554.048 707.728 554.528 706.888 555.488V554.192H705.16V566H706.888V558.728C706.888 556.664 708.04 555.584 709.816 555.584C711.592 555.584 712.72 556.64 712.72 558.728V566H714.448ZM727.397 566V548.912H725.669V555.56C724.709 554.336 723.629 554.048 722.333 554.048C721.133 554.048 720.077 554.456 719.453 555.08C718.253 556.28 718.013 558.248 718.013 560.096C718.013 561.944 718.253 563.912 719.453 565.112C720.077 565.736 721.133 566.144 722.333 566.144C723.629 566.144 724.733 565.832 725.693 564.584V566H727.397ZM725.669 560.096C725.669 562.4 725.285 564.608 722.717 564.608C720.149 564.608 719.741 562.4 719.741 560.096C719.741 557.792 720.149 555.584 722.717 555.584C725.285 555.584 725.669 557.792 725.669 560.096ZM752.643 554.192H750.771L748.083 563.672L744.963 554.192H743.475L740.379 563.672L737.667 554.192H735.795L739.539 566H741.147L744.219 556.832L747.315 566H748.923L752.643 554.192ZM764.346 566V558.416C764.346 555.752 762.762 554.048 760.098 554.048C758.778 554.048 757.65 554.504 756.786 555.488V548.912H755.058V566H756.786V558.704C756.786 556.664 757.962 555.584 759.738 555.584C761.514 555.584 762.618 556.64 762.618 558.704V566H764.346ZM770.263 566V554.192H768.535V566H770.263ZM770.383 550.832V548.888H768.439V550.832H770.383ZM779.141 566V564.512H778.229C777.125 564.512 776.621 563.864 776.621 562.784V555.584H779.141V554.264H776.621V550.568H774.893V554.264H773.405V555.584H774.893V562.832C774.893 564.584 775.901 566 777.917 566H779.141ZM791.435 560.552V559.76C791.435 556.256 789.635 554.048 786.587 554.048C783.587 554.048 781.739 556.28 781.739 560.096C781.739 564.272 783.779 566.144 786.899 566.144C788.915 566.144 790.019 565.52 791.219 564.32L790.043 563.288C789.107 564.224 788.315 564.632 786.947 564.632C784.691 564.632 783.467 563.144 783.467 560.552H791.435ZM789.707 559.256H783.467C783.515 558.296 783.563 557.936 783.827 557.288C784.283 556.208 785.339 555.512 786.587 555.512C787.835 555.512 788.891 556.208 789.347 557.288C789.611 557.936 789.659 558.296 789.707 559.256ZM797.321 566V563.744H795.065V566H797.321ZM85.9093 619.984C85.9093 617.824 84.1573 616.072 81.9973 616.072C79.8373 616.072 78.0853 617.824 78.0853 619.984C78.0853 622.144 79.8373 623.896 81.9973 623.896C84.1573 623.896 85.9093 622.144 85.9093 619.984ZM112.432 612.544V610.912H100.72V612.544H105.664V628H107.488V612.544H112.432ZM124.596 628V620.416C124.596 617.752 123.012 616.048 120.348 616.048C119.028 616.048 117.9 616.504 117.036 617.488V610.912H115.308V628H117.036V620.704C117.036 618.664 118.212 617.584 119.988 617.584C121.764 617.584 122.868 618.64 122.868 620.704V628H124.596ZM137.833 622.552V621.76C137.833 618.256 136.033 616.048 132.985 616.048C129.985 616.048 128.137 618.28 128.137 622.096C128.137 626.272 130.177 628.144 133.297 628.144C135.313 628.144 136.417 627.52 137.617 626.32L136.441 625.288C135.505 626.224 134.713 626.632 133.345 626.632C131.089 626.632 129.865 625.144 129.865 622.552H137.833ZM136.105 621.256H129.865C129.913 620.296 129.961 619.936 130.225 619.288C130.681 618.208 131.737 617.512 132.985 617.512C134.233 617.512 135.289 618.208 135.745 619.288C136.009 619.936 136.057 620.296 136.105 621.256ZM156.2 628.36V616.192H154.496V617.584C153.536 616.336 152.48 616.048 151.184 616.048C149.984 616.048 148.928 616.456 148.304 617.08C147.128 618.256 146.864 620.08 146.864 622C146.864 623.92 147.128 625.744 148.304 626.92C148.928 627.544 149.96 627.976 151.16 627.976C152.432 627.976 153.512 627.664 154.472 626.44V628.288C154.472 630.304 153.512 631.912 151.232 631.912C149.864 631.912 149.264 631.504 148.4 630.736L147.272 631.84C148.52 632.968 149.504 633.424 151.28 633.424C154.376 633.424 156.2 631.288 156.2 628.36ZM154.472 622C154.472 624.208 154.112 626.416 151.544 626.416C148.976 626.416 148.592 624.208 148.592 622C148.592 619.792 148.976 617.584 151.544 617.584C154.112 617.584 154.472 619.792 154.472 622ZM168.391 617.152C167.551 616.312 166.687 616.048 165.559 616.048C164.191 616.048 162.895 616.648 162.247 617.632V616.192H160.519V628H162.247V620.752C162.247 618.952 163.351 617.584 165.079 617.584C165.991 617.584 166.471 617.8 167.119 618.448L168.391 617.152ZM178.849 622.552V621.76C178.849 618.256 177.049 616.048 174.001 616.048C171.001 616.048 169.153 618.28 169.153 622.096C169.153 626.272 171.193 628.144 174.313 628.144C176.329 628.144 177.433 627.52 178.633 626.32L177.457 625.288C176.521 626.224 175.729 626.632 174.361 626.632C172.105 626.632 170.881 625.144 170.881 622.552H178.849ZM177.121 621.256H170.881C170.929 620.296 170.977 619.936 171.241 619.288C171.697 618.208 172.753 617.512 174.001 617.512C175.249 617.512 176.305 618.208 176.761 619.288C177.025 619.936 177.073 620.296 177.121 621.256ZM191.575 622.552V621.76C191.575 618.256 189.775 616.048 186.727 616.048C183.727 616.048 181.879 618.28 181.879 622.096C181.879 626.272 183.919 628.144 187.039 628.144C189.055 628.144 190.159 627.52 191.359 626.32L190.183 625.288C189.247 626.224 188.455 626.632 187.087 626.632C184.831 626.632 183.607 625.144 183.607 622.552H191.575ZM189.847 621.256H183.607C183.655 620.296 183.703 619.936 183.967 619.288C184.423 618.208 185.479 617.512 186.727 617.512C187.975 617.512 189.031 618.208 189.487 619.288C189.751 619.936 189.799 620.296 189.847 621.256ZM204.542 628V620.44C204.542 619.072 204.158 617.968 203.318 617.152C202.598 616.432 201.566 616.048 200.294 616.048C198.974 616.048 197.822 616.528 196.982 617.488V616.192H195.254V628H196.982V620.728C196.982 618.664 198.134 617.584 199.91 617.584C201.686 617.584 202.814 618.64 202.814 620.728V628H204.542ZM223.011 616.192H221.139L217.899 625.672L214.683 616.192H212.811L217.131 628H218.667L223.011 616.192ZM234.255 622.552V621.76C234.255 618.256 232.455 616.048 229.407 616.048C226.407 616.048 224.559 618.28 224.559 622.096C224.559 626.272 226.599 628.144 229.719 628.144C231.735 628.144 232.839 627.52 234.039 626.32L232.863 625.288C231.927 626.224 231.135 626.632 229.767 626.632C227.511 626.632 226.287 625.144 226.287 622.552H234.255ZM232.527 621.256H226.287C226.335 620.296 226.383 619.936 226.647 619.288C227.103 618.208 228.159 617.512 229.407 617.512C230.655 617.512 231.711 618.208 232.167 619.288C232.431 619.936 232.479 620.296 232.527 621.256ZM245.805 617.152C244.965 616.312 244.101 616.048 242.973 616.048C241.605 616.048 240.309 616.648 239.661 617.632V616.192H237.933V628H239.661V620.752C239.661 618.952 240.765 617.584 242.493 617.584C243.405 617.584 243.885 617.8 244.533 618.448L245.805 617.152ZM256.321 624.544C256.321 622.336 254.905 621.544 252.841 621.352L250.945 621.184C249.457 621.064 248.881 620.464 248.881 619.456C248.881 618.256 249.793 617.512 251.521 617.512C252.745 617.512 253.825 617.8 254.665 618.448L255.793 617.32C254.737 616.456 253.225 616.048 251.545 616.048C249.025 616.048 247.201 617.344 247.201 619.504C247.201 621.448 248.425 622.48 250.729 622.672L252.673 622.84C254.041 622.96 254.641 623.536 254.641 624.568C254.641 625.96 253.441 626.656 251.497 626.656C250.033 626.656 248.761 626.272 247.825 625.288L246.673 626.44C247.969 627.688 249.529 628.144 251.521 628.144C254.377 628.144 256.321 626.824 256.321 624.544ZM261.435 628V616.192H259.707V628H261.435ZM261.555 612.832V610.888H259.611V612.832H261.555ZM274.801 622.096C274.801 620.272 274.561 618.616 273.361 617.392C272.545 616.576 271.417 616.048 269.977 616.048C268.537 616.048 267.409 616.576 266.593 617.392C265.393 618.616 265.153 620.272 265.153 622.096C265.153 623.92 265.393 625.576 266.593 626.8C267.409 627.616 268.537 628.144 269.977 628.144C271.417 628.144 272.545 627.616 273.361 626.8C274.561 625.576 274.801 623.92 274.801 622.096ZM273.073 622.096C273.073 623.416 273.001 624.88 272.137 625.744C271.585 626.296 270.817 626.608 269.977 626.608C269.137 626.608 268.393 626.296 267.841 625.744C266.977 624.88 266.881 623.416 266.881 622.096C266.881 620.776 266.977 619.312 267.841 618.448C268.393 617.896 269.137 617.584 269.977 617.584C270.817 617.584 271.585 617.896 272.137 618.448C273.001 619.312 273.073 620.776 273.073 622.096ZM287.792 628V620.44C287.792 619.072 287.408 617.968 286.568 617.152C285.848 616.432 284.816 616.048 283.544 616.048C282.224 616.048 281.072 616.528 280.232 617.488V616.192H278.504V628H280.232V620.728C280.232 618.664 281.384 617.584 283.16 617.584C284.936 617.584 286.064 618.64 286.064 620.728V628H287.792ZM312.909 616.192H311.037L308.349 625.672L305.229 616.192H303.741L300.645 625.672L297.933 616.192H296.061L299.805 628H301.413L304.485 618.832L307.581 628H309.189L312.909 616.192ZM324.231 622.096C324.231 620.272 323.991 618.616 322.791 617.392C321.975 616.576 320.847 616.048 319.407 616.048C317.967 616.048 316.839 616.576 316.023 617.392C314.823 618.616 314.583 620.272 314.583 622.096C314.583 623.92 314.823 625.576 316.023 626.8C316.839 627.616 317.967 628.144 319.407 628.144C320.847 628.144 321.975 627.616 322.791 626.8C323.991 625.576 324.231 623.92 324.231 622.096ZM322.503 622.096C322.503 623.416 322.431 624.88 321.567 625.744C321.015 626.296 320.247 626.608 319.407 626.608C318.567 626.608 317.823 626.296 317.271 625.744C316.407 624.88 316.311 623.416 316.311 622.096C316.311 620.776 316.407 619.312 317.271 618.448C317.823 617.896 318.567 617.584 319.407 617.584C320.247 617.584 321.015 617.896 321.567 618.448C322.431 619.312 322.503 620.776 322.503 622.096ZM335.805 617.152C334.965 616.312 334.101 616.048 332.973 616.048C331.605 616.048 330.309 616.648 329.661 617.632V616.192H327.933V628H329.661V620.752C329.661 618.952 330.765 617.584 332.493 617.584C333.405 617.584 333.885 617.8 334.533 618.448L335.805 617.152ZM347.947 628L343.243 620.704L347.251 616.192H345.091L339.763 622.336V610.912H338.035V628H339.763V624.592L342.067 621.952L345.811 628H347.947ZM359.422 624.544C359.422 622.336 358.006 621.544 355.942 621.352L354.046 621.184C352.558 621.064 351.982 620.464 351.982 619.456C351.982 618.256 352.894 617.512 354.622 617.512C355.846 617.512 356.926 617.8 357.766 618.448L358.894 617.32C357.838 616.456 356.326 616.048 354.646 616.048C352.126 616.048 350.302 617.344 350.302 619.504C350.302 621.448 351.526 622.48 353.83 622.672L355.774 622.84C357.142 622.96 357.742 623.536 357.742 624.568C357.742 625.96 356.542 626.656 354.598 626.656C353.134 626.656 351.862 626.272 350.926 625.288L349.774 626.44C351.07 627.688 352.63 628.144 354.622 628.144C357.478 628.144 359.422 626.824 359.422 624.544ZM378.169 622.096C378.169 620.248 377.929 618.28 376.729 617.08C376.105 616.456 375.049 616.048 373.849 616.048C372.553 616.048 371.473 616.336 370.513 617.56V610.912H368.785V628H370.513V626.584C371.473 627.832 372.553 628.144 373.849 628.144C375.049 628.144 376.105 627.736 376.729 627.112C377.929 625.912 378.169 623.944 378.169 622.096ZM376.441 622.096C376.441 624.4 376.057 626.608 373.489 626.608C370.921 626.608 370.513 624.4 370.513 622.096C370.513 619.792 370.921 617.584 373.489 617.584C376.057 617.584 376.441 619.792 376.441 622.096ZM390.911 622.552V621.76C390.911 618.256 389.111 616.048 386.063 616.048C383.063 616.048 381.215 618.28 381.215 622.096C381.215 626.272 383.255 628.144 386.375 628.144C388.391 628.144 389.495 627.52 390.695 626.32L389.519 625.288C388.583 626.224 387.791 626.632 386.423 626.632C384.167 626.632 382.943 625.144 382.943 622.552H390.911ZM389.183 621.256H382.943C382.991 620.296 383.039 619.936 383.303 619.288C383.759 618.208 384.815 617.512 386.063 617.512C387.311 617.512 388.367 618.208 388.823 619.288C389.087 619.936 389.135 620.296 389.183 621.256ZM403.11 624.544C403.11 622.336 401.694 621.544 399.63 621.352L397.734 621.184C396.246 621.064 395.67 620.464 395.67 619.456C395.67 618.256 396.582 617.512 398.31 617.512C399.534 617.512 400.614 617.8 401.454 618.448L402.582 617.32C401.526 616.456 400.014 616.048 398.334 616.048C395.814 616.048 393.99 617.344 393.99 619.504C393.99 621.448 395.214 622.48 397.518 622.672L399.462 622.84C400.83 622.96 401.43 623.536 401.43 624.568C401.43 625.96 400.23 626.656 398.286 626.656C396.822 626.656 395.55 626.272 394.614 625.288L393.462 626.44C394.758 627.688 396.318 628.144 398.31 628.144C401.166 628.144 403.11 626.824 403.11 624.544ZM410.798 628V626.512H409.886C408.782 626.512 408.278 625.864 408.278 624.784V617.584H410.798V616.264H408.278V612.568H406.55V616.264H405.062V617.584H406.55V624.832C406.55 626.584 407.558 628 409.574 628H410.798ZM429.231 622.096C429.231 620.272 428.991 618.616 427.791 617.392C426.975 616.576 425.847 616.048 424.407 616.048C422.967 616.048 421.839 616.576 421.023 617.392C419.823 618.616 419.583 620.272 419.583 622.096C419.583 623.92 419.823 625.576 421.023 626.8C421.839 627.616 422.967 628.144 424.407 628.144C425.847 628.144 426.975 627.616 427.791 626.8C428.991 625.576 429.231 623.92 429.231 622.096ZM427.503 622.096C427.503 623.416 427.431 624.88 426.567 625.744C426.015 626.296 425.247 626.608 424.407 626.608C423.567 626.608 422.823 626.296 422.271 625.744C421.407 624.88 421.311 623.416 421.311 622.096C421.311 620.776 421.407 619.312 422.271 618.448C422.823 617.896 423.567 617.584 424.407 617.584C425.247 617.584 426.015 617.896 426.567 618.448C427.431 619.312 427.503 620.776 427.503 622.096ZM442.221 628V620.44C442.221 619.072 441.837 617.968 440.997 617.152C440.277 616.432 439.245 616.048 437.973 616.048C436.653 616.048 435.501 616.528 434.661 617.488V616.192H432.933V628H434.661V620.728C434.661 618.664 435.813 617.584 437.589 617.584C439.365 617.584 440.493 618.64 440.493 620.728V628H442.221ZM460.811 628V619.984C460.811 617.416 459.251 616.048 456.083 616.048C454.163 616.048 452.963 616.432 451.907 617.8L453.083 618.88C453.779 617.896 454.547 617.536 456.059 617.536C458.219 617.536 459.083 618.4 459.083 620.128V621.256H455.531C452.891 621.256 451.451 622.6 451.451 624.664C451.451 625.6 451.763 626.488 452.339 627.064C453.083 627.832 454.043 628.144 455.675 628.144C457.259 628.144 458.123 627.832 459.083 626.872V628H460.811ZM459.083 623.824C459.083 624.808 458.891 625.48 458.483 625.864C457.739 626.584 456.851 626.656 455.843 626.656C453.971 626.656 453.131 626.008 453.131 624.64C453.131 623.272 453.995 622.552 455.771 622.552H459.083V623.824ZM485.948 616.192H484.076L481.388 625.672L478.268 616.192H476.78L473.684 625.672L470.972 616.192H469.1L472.844 628H474.452L477.524 618.832L480.62 628H482.228L485.948 616.192ZM497.651 628V620.416C497.651 617.752 496.067 616.048 493.403 616.048C492.083 616.048 490.955 616.504 490.091 617.488V610.912H488.363V628H490.091V620.704C490.091 618.664 491.267 617.584 493.043 617.584C494.819 617.584 495.923 618.64 495.923 620.704V628H497.651ZM503.568 628V616.192H501.84V628H503.568ZM503.688 612.832V610.888H501.744V612.832H503.688ZM512.446 628V626.512H511.534C510.43 626.512 509.926 625.864 509.926 624.784V617.584H512.446V616.264H509.926V612.568H508.198V616.264H506.71V617.584H508.198V624.832C508.198 626.584 509.206 628 511.222 628H512.446ZM524.739 622.552V621.76C524.739 618.256 522.939 616.048 519.891 616.048C516.891 616.048 515.043 618.28 515.043 622.096C515.043 626.272 517.083 628.144 520.203 628.144C522.219 628.144 523.323 627.52 524.523 626.32L523.347 625.288C522.411 626.224 521.619 626.632 520.251 626.632C517.995 626.632 516.771 625.144 516.771 622.552H524.739ZM523.011 621.256H516.771C516.819 620.296 516.867 619.936 517.131 619.288C517.587 618.208 518.643 617.512 519.891 617.512C521.139 617.512 522.195 618.208 522.651 619.288C522.915 619.936 522.963 620.296 523.011 621.256ZM543.418 622.096C543.418 620.272 543.178 618.616 541.978 617.392C541.162 616.576 540.034 616.048 538.594 616.048C537.154 616.048 536.026 616.576 535.21 617.392C534.01 618.616 533.77 620.272 533.77 622.096C533.77 623.92 534.01 625.576 535.21 626.8C536.026 627.616 537.154 628.144 538.594 628.144C540.034 628.144 541.162 627.616 541.978 626.8C543.178 625.576 543.418 623.92 543.418 622.096ZM541.69 622.096C541.69 623.416 541.618 624.88 540.754 625.744C540.202 626.296 539.434 626.608 538.594 626.608C537.754 626.608 537.01 626.296 536.458 625.744C535.594 624.88 535.498 623.416 535.498 622.096C535.498 620.776 535.594 619.312 536.458 618.448C537.01 617.896 537.754 617.584 538.594 617.584C539.434 617.584 540.202 617.896 540.754 618.448C541.618 619.312 541.69 620.776 541.69 622.096ZM554.993 617.152C554.153 616.312 553.289 616.048 552.161 616.048C550.793 616.048 549.497 616.648 548.849 617.632V616.192H547.121V628H548.849V620.752C548.849 618.952 549.953 617.584 551.681 617.584C552.593 617.584 553.073 617.8 553.721 618.448L554.993 617.152ZM567.399 628V626.512H566.463C565.263 626.512 564.879 625.936 564.879 624.784V610.912H563.151V624.856C563.151 626.656 564.087 628 566.151 628H567.399ZM572.052 628V616.192H570.324V628H572.052ZM572.172 612.832V610.888H570.228V612.832H572.172ZM585.106 628.36V616.192H583.402V617.584C582.442 616.336 581.386 616.048 580.09 616.048C578.89 616.048 577.834 616.456 577.21 617.08C576.034 618.256 575.77 620.08 575.77 622C575.77 623.92 576.034 625.744 577.21 626.92C577.834 627.544 578.866 627.976 580.066 627.976C581.338 627.976 582.418 627.664 583.378 626.44V628.288C583.378 630.304 582.418 631.912 580.138 631.912C578.77 631.912 578.17 631.504 577.306 630.736L576.178 631.84C577.426 632.968 578.41 633.424 580.186 633.424C583.282 633.424 585.106 631.288 585.106 628.36ZM583.378 622C583.378 624.208 583.018 626.416 580.45 626.416C577.882 626.416 577.498 624.208 577.498 622C577.498 619.792 577.882 617.584 580.45 617.584C583.018 617.584 583.378 619.792 583.378 622ZM598.714 628V620.416C598.714 617.752 597.13 616.048 594.466 616.048C593.146 616.048 592.018 616.504 591.154 617.488V610.912H589.426V628H591.154V620.704C591.154 618.664 592.33 617.584 594.106 617.584C595.882 617.584 596.986 618.64 596.986 620.704V628H598.714ZM607.438 628V626.512H606.526C605.422 626.512 604.918 625.864 604.918 624.784V617.584H607.438V616.264H604.918V612.568H603.19V616.264H601.702V617.584H603.19V624.832C603.19 626.584 604.198 628 606.214 628H607.438ZM626.232 622.096C626.232 620.248 625.992 618.28 624.792 617.08C624.168 616.456 623.112 616.048 621.912 616.048C620.616 616.048 619.536 616.336 618.576 617.56V610.912H616.848V628H618.576V626.584C619.536 627.832 620.616 628.144 621.912 628.144C623.112 628.144 624.168 627.736 624.792 627.112C625.992 625.912 626.232 623.944 626.232 622.096ZM624.504 622.096C624.504 624.4 624.12 626.608 621.552 626.608C618.984 626.608 618.576 624.4 618.576 622.096C618.576 619.792 618.984 617.584 621.552 617.584C624.12 617.584 624.504 619.792 624.504 622.096ZM638.35 628V619.984C638.35 617.416 636.79 616.048 633.622 616.048C631.702 616.048 630.502 616.432 629.446 617.8L630.622 618.88C631.318 617.896 632.086 617.536 633.598 617.536C635.758 617.536 636.622 618.4 636.622 620.128V621.256H633.07C630.43 621.256 628.99 622.6 628.99 624.664C628.99 625.6 629.302 626.488 629.878 627.064C630.622 627.832 631.582 628.144 633.214 628.144C634.798 628.144 635.662 627.832 636.622 626.872V628H638.35ZM636.622 623.824C636.622 624.808 636.43 625.48 636.022 625.864C635.278 626.584 634.39 626.656 633.382 626.656C631.51 626.656 630.67 626.008 630.67 624.64C630.67 623.272 631.534 622.552 633.31 622.552H636.622V623.824ZM651.03 626.392L649.854 625.264C648.966 626.248 648.27 626.608 647.142 626.608C645.99 626.608 645.03 626.152 644.406 625.264C643.854 624.496 643.638 623.584 643.638 622.096C643.638 620.608 643.854 619.696 644.406 618.928C645.03 618.04 645.99 617.584 647.142 617.584C648.27 617.584 648.966 617.92 649.854 618.904L651.03 617.8C649.806 616.48 648.774 616.048 647.142 616.048C644.166 616.048 641.91 618.064 641.91 622.096C641.91 626.128 644.166 628.144 647.142 628.144C648.774 628.144 649.806 627.712 651.03 626.392ZM664.236 628L659.532 620.704L663.54 616.192H661.38L656.052 622.336V610.912H654.324V628H656.052V624.592L658.356 621.952L662.1 628H664.236ZM675.435 628.36V616.192H673.731V617.584C672.771 616.336 671.715 616.048 670.419 616.048C669.219 616.048 668.163 616.456 667.539 617.08C666.363 618.256 666.099 620.08 666.099 622C666.099 623.92 666.363 625.744 667.539 626.92C668.163 627.544 669.195 627.976 670.395 627.976C671.667 627.976 672.747 627.664 673.707 626.44V628.288C673.707 630.304 672.747 631.912 670.467 631.912C669.099 631.912 668.499 631.504 667.635 630.736L666.507 631.84C667.755 632.968 668.739 633.424 670.515 633.424C673.611 633.424 675.435 631.288 675.435 628.36ZM673.707 622C673.707 624.208 673.347 626.416 670.779 626.416C668.211 626.416 667.827 624.208 667.827 622C667.827 619.792 668.211 617.584 670.779 617.584C673.347 617.584 673.707 619.792 673.707 622ZM687.626 617.152C686.786 616.312 685.922 616.048 684.794 616.048C683.426 616.048 682.13 616.648 681.482 617.632V616.192H679.754V628H681.482V620.752C681.482 618.952 682.586 617.584 684.314 617.584C685.226 617.584 685.706 617.8 686.354 618.448L687.626 617.152ZM698.059 622.096C698.059 620.272 697.819 618.616 696.619 617.392C695.803 616.576 694.675 616.048 693.235 616.048C691.795 616.048 690.667 616.576 689.851 617.392C688.651 618.616 688.411 620.272 688.411 622.096C688.411 623.92 688.651 625.576 689.851 626.8C690.667 627.616 691.795 628.144 693.235 628.144C694.675 628.144 695.803 627.616 696.619 626.8C697.819 625.576 698.059 623.92 698.059 622.096ZM696.331 622.096C696.331 623.416 696.259 624.88 695.395 625.744C694.843 626.296 694.075 626.608 693.235 626.608C692.395 626.608 691.651 626.296 691.099 625.744C690.235 624.88 690.139 623.416 690.139 622.096C690.139 620.776 690.235 619.312 691.099 618.448C691.651 617.896 692.395 617.584 693.235 617.584C694.075 617.584 694.843 617.896 695.395 618.448C696.259 619.312 696.331 620.776 696.331 622.096ZM710.93 628V616.192H709.202V623.464C709.202 625.528 708.026 626.608 706.25 626.608C704.474 626.608 703.37 625.552 703.37 623.464V616.192H701.642V623.728C701.642 625.096 702.002 626.224 702.842 627.04C703.562 627.76 704.618 628.144 705.89 628.144C707.21 628.144 708.386 627.64 709.226 626.68V628H710.93ZM724.526 628V620.44C724.526 619.072 724.142 617.968 723.302 617.152C722.582 616.432 721.55 616.048 720.278 616.048C718.958 616.048 717.806 616.528 716.966 617.488V616.192H715.238V628H716.966V620.728C716.966 618.664 718.118 617.584 719.894 617.584C721.67 617.584 722.798 618.64 722.798 620.728V628H724.526ZM737.475 628V610.912H735.747V617.56C734.787 616.336 733.707 616.048 732.411 616.048C731.211 616.048 730.155 616.456 729.531 617.08C728.331 618.28 728.091 620.248 728.091 622.096C728.091 623.944 728.331 625.912 729.531 627.112C730.155 627.736 731.211 628.144 732.411 628.144C733.707 628.144 734.811 627.832 735.771 626.584V628H737.475ZM735.747 622.096C735.747 624.4 735.363 626.608 732.795 626.608C730.227 626.608 729.819 624.4 729.819 622.096C729.819 619.792 730.227 617.584 732.795 617.584C735.363 617.584 735.747 619.792 735.747 622.096ZM744.001 628V625.744H741.745V628H744.001ZM85.9093 650.984C85.9093 648.824 84.1573 647.072 81.9973 647.072C79.8373 647.072 78.0853 648.824 78.0853 650.984C78.0853 653.144 79.8373 654.896 81.9973 654.896C84.1573 654.896 85.9093 653.144 85.9093 650.984ZM112.432 643.544V641.912H100.72V643.544H105.664V659H107.488V643.544H112.432ZM124.596 659V651.416C124.596 648.752 123.012 647.048 120.348 647.048C119.028 647.048 117.9 647.504 117.036 648.488V641.912H115.308V659H117.036V651.704C117.036 649.664 118.212 648.584 119.988 648.584C121.764 648.584 122.868 649.64 122.868 651.704V659H124.596ZM137.833 653.552V652.76C137.833 649.256 136.033 647.048 132.985 647.048C129.985 647.048 128.137 649.28 128.137 653.096C128.137 657.272 130.177 659.144 133.297 659.144C135.313 659.144 136.417 658.52 137.617 657.32L136.441 656.288C135.505 657.224 134.713 657.632 133.345 657.632C131.089 657.632 129.865 656.144 129.865 653.552H137.833ZM136.105 652.256H129.865C129.913 651.296 129.961 650.936 130.225 650.288C130.681 649.208 131.737 648.512 132.985 648.512C134.233 648.512 135.289 649.208 135.745 650.288C136.009 650.936 136.057 651.296 136.105 652.256ZM162.44 647.192H160.568L157.88 656.672L154.76 647.192H153.272L150.176 656.672L147.464 647.192H145.592L149.336 659H150.944L154.016 649.832L157.112 659H158.72L162.44 647.192ZM174.143 659V651.416C174.143 648.752 172.559 647.048 169.895 647.048C168.575 647.048 167.447 647.504 166.583 648.488V641.912H164.855V659H166.583V651.704C166.583 649.664 167.759 648.584 169.535 648.584C171.311 648.584 172.415 649.64 172.415 651.704V659H174.143ZM180.06 659V647.192H178.332V659H180.06ZM180.18 643.832V641.888H178.236V643.832H180.18ZM188.938 659V657.512H188.026C186.922 657.512 186.418 656.864 186.418 655.784V648.584H188.938V647.264H186.418V643.568H184.69V647.264H183.202V648.584H184.69V655.832C184.69 657.584 185.698 659 187.714 659H188.938ZM201.231 653.552V652.76C201.231 649.256 199.431 647.048 196.383 647.048C193.383 647.048 191.535 649.28 191.535 653.096C191.535 657.272 193.575 659.144 196.695 659.144C198.711 659.144 199.815 658.52 201.015 657.32L199.839 656.288C198.903 657.224 198.111 657.632 196.743 657.632C194.487 657.632 193.263 656.144 193.263 653.552H201.231ZM199.503 652.256H193.263C193.311 651.296 193.359 650.936 193.623 650.288C194.079 649.208 195.135 648.512 196.383 648.512C197.631 648.512 198.687 649.208 199.143 650.288C199.407 650.936 199.455 651.296 199.503 652.256ZM219.191 647.192H217.319L214.079 656.672L210.863 647.192H208.991L213.311 659H214.847L219.191 647.192ZM230.435 653.552V652.76C230.435 649.256 228.635 647.048 225.587 647.048C222.587 647.048 220.739 649.28 220.739 653.096C220.739 657.272 222.779 659.144 225.899 659.144C227.915 659.144 229.019 658.52 230.219 657.32L229.043 656.288C228.107 657.224 227.315 657.632 225.947 657.632C223.691 657.632 222.467 656.144 222.467 653.552H230.435ZM228.707 652.256H222.467C222.515 651.296 222.563 650.936 222.827 650.288C223.283 649.208 224.339 648.512 225.587 648.512C226.835 648.512 227.891 649.208 228.347 650.288C228.611 650.936 228.659 651.296 228.707 652.256ZM241.985 648.152C241.145 647.312 240.281 647.048 239.153 647.048C237.785 647.048 236.489 647.648 235.841 648.632V647.192H234.113V659H235.841V651.752C235.841 649.952 236.945 648.584 238.673 648.584C239.585 648.584 240.065 648.8 240.713 649.448L241.985 648.152ZM252.5 655.544C252.5 653.336 251.084 652.544 249.02 652.352L247.124 652.184C245.636 652.064 245.06 651.464 245.06 650.456C245.06 649.256 245.972 648.512 247.7 648.512C248.924 648.512 250.004 648.8 250.844 649.448L251.972 648.32C250.916 647.456 249.404 647.048 247.724 647.048C245.204 647.048 243.38 648.344 243.38 650.504C243.38 652.448 244.604 653.48 246.908 653.672L248.852 653.84C250.22 653.96 250.82 654.536 250.82 655.568C250.82 656.96 249.62 657.656 247.676 657.656C246.212 657.656 244.94 657.272 244.004 656.288L242.852 657.44C244.148 658.688 245.708 659.144 247.7 659.144C250.556 659.144 252.5 657.824 252.5 655.544ZM257.615 659V647.192H255.887V659H257.615ZM257.735 643.832V641.888H255.791V643.832H257.735ZM270.981 653.096C270.981 651.272 270.741 649.616 269.541 648.392C268.725 647.576 267.597 647.048 266.157 647.048C264.717 647.048 263.589 647.576 262.773 648.392C261.573 649.616 261.333 651.272 261.333 653.096C261.333 654.92 261.573 656.576 262.773 657.8C263.589 658.616 264.717 659.144 266.157 659.144C267.597 659.144 268.725 658.616 269.541 657.8C270.741 656.576 270.981 654.92 270.981 653.096ZM269.253 653.096C269.253 654.416 269.181 655.88 268.317 656.744C267.765 657.296 266.997 657.608 266.157 657.608C265.317 657.608 264.573 657.296 264.021 656.744C263.157 655.88 263.061 654.416 263.061 653.096C263.061 651.776 263.157 650.312 264.021 649.448C264.573 648.896 265.317 648.584 266.157 648.584C266.997 648.584 267.765 648.896 268.317 649.448C269.181 650.312 269.253 651.776 269.253 653.096ZM283.971 659V651.44C283.971 650.072 283.587 648.968 282.747 648.152C282.027 647.432 280.995 647.048 279.723 647.048C278.403 647.048 277.251 647.528 276.411 648.488V647.192H274.683V659H276.411V651.728C276.411 649.664 277.563 648.584 279.339 648.584C281.115 648.584 282.243 649.64 282.243 651.728V659H283.971ZM302.657 655.544C302.657 653.336 301.241 652.544 299.177 652.352L297.281 652.184C295.793 652.064 295.217 651.464 295.217 650.456C295.217 649.256 296.129 648.512 297.857 648.512C299.081 648.512 300.161 648.8 301.001 649.448L302.129 648.32C301.073 647.456 299.561 647.048 297.881 647.048C295.361 647.048 293.537 648.344 293.537 650.504C293.537 652.448 294.761 653.48 297.065 653.672L299.009 653.84C300.377 653.96 300.977 654.536 300.977 655.568C300.977 656.96 299.777 657.656 297.833 657.656C296.369 657.656 295.097 657.272 294.161 656.288L293.009 657.44C294.305 658.688 295.865 659.144 297.857 659.144C300.713 659.144 302.657 657.824 302.657 655.544ZM315.331 659V651.416C315.331 648.752 313.747 647.048 311.083 647.048C309.763 647.048 308.635 647.504 307.771 648.488V641.912H306.043V659H307.771V651.704C307.771 649.664 308.947 648.584 310.723 648.584C312.499 648.584 313.603 649.64 313.603 651.704V659H315.331ZM328.543 653.096C328.543 651.272 328.303 649.616 327.103 648.392C326.287 647.576 325.159 647.048 323.719 647.048C322.279 647.048 321.151 647.576 320.335 648.392C319.135 649.616 318.895 651.272 318.895 653.096C318.895 654.92 319.135 656.576 320.335 657.8C321.151 658.616 322.279 659.144 323.719 659.144C325.159 659.144 326.287 658.616 327.103 657.8C328.303 656.576 328.543 654.92 328.543 653.096ZM326.815 653.096C326.815 654.416 326.743 655.88 325.879 656.744C325.327 657.296 324.559 657.608 323.719 657.608C322.879 657.608 322.135 657.296 321.583 656.744C320.719 655.88 320.623 654.416 320.623 653.096C320.623 651.776 320.719 650.312 321.583 649.448C322.135 648.896 322.879 648.584 323.719 648.584C324.559 648.584 325.327 648.896 325.879 649.448C326.743 650.312 326.815 651.776 326.815 653.096ZM341.414 659V647.192H339.686V654.464C339.686 656.528 338.51 657.608 336.734 657.608C334.958 657.608 333.854 656.552 333.854 654.464V647.192H332.126V654.728C332.126 656.096 332.486 657.224 333.326 658.04C334.046 658.76 335.102 659.144 336.374 659.144C337.694 659.144 338.87 658.64 339.71 657.68V659H341.414ZM349.923 659V657.512H348.987C347.787 657.512 347.403 656.936 347.403 655.784V641.912H345.675V655.856C345.675 657.656 346.611 659 348.675 659H349.923ZM361.608 659V641.912H359.88V648.56C358.92 647.336 357.84 647.048 356.544 647.048C355.344 647.048 354.288 647.456 353.664 648.08C352.464 649.28 352.224 651.248 352.224 653.096C352.224 654.944 352.464 656.912 353.664 658.112C354.288 658.736 355.344 659.144 356.544 659.144C357.84 659.144 358.944 658.832 359.904 657.584V659H361.608ZM359.88 653.096C359.88 655.4 359.496 657.608 356.928 657.608C354.36 657.608 353.952 655.4 353.952 653.096C353.952 650.792 354.36 648.584 356.928 648.584C359.496 648.584 359.88 650.792 359.88 653.096ZM381.286 653.096C381.286 651.248 381.046 649.28 379.846 648.08C379.222 647.456 378.166 647.048 376.966 647.048C375.67 647.048 374.59 647.336 373.63 648.56V641.912H371.902V659H373.63V657.584C374.59 658.832 375.67 659.144 376.966 659.144C378.166 659.144 379.222 658.736 379.846 658.112C381.046 656.912 381.286 654.944 381.286 653.096ZM379.558 653.096C379.558 655.4 379.174 657.608 376.606 657.608C374.038 657.608 373.63 655.4 373.63 653.096C373.63 650.792 374.038 648.584 376.606 648.584C379.174 648.584 379.558 650.792 379.558 653.096ZM394.028 653.552V652.76C394.028 649.256 392.228 647.048 389.18 647.048C386.18 647.048 384.332 649.28 384.332 653.096C384.332 657.272 386.372 659.144 389.492 659.144C391.508 659.144 392.612 658.52 393.812 657.32L392.636 656.288C391.7 657.224 390.908 657.632 389.54 657.632C387.284 657.632 386.06 656.144 386.06 653.552H394.028ZM392.3 652.256H386.06C386.108 651.296 386.156 650.936 386.42 650.288C386.876 649.208 387.932 648.512 389.18 648.512C390.428 648.512 391.484 649.208 391.94 650.288C392.204 650.936 392.252 651.296 392.3 652.256ZM412.851 659V647.192H411.123V654.464C411.123 656.528 409.947 657.608 408.171 657.608C406.395 657.608 405.291 656.552 405.291 654.464V647.192H403.563V654.728C403.563 656.096 403.923 657.224 404.763 658.04C405.483 658.76 406.539 659.144 407.811 659.144C409.131 659.144 410.307 658.64 411.147 657.68V659H412.851ZM425.68 655.544C425.68 653.336 424.264 652.544 422.2 652.352L420.304 652.184C418.816 652.064 418.24 651.464 418.24 650.456C418.24 649.256 419.152 648.512 420.88 648.512C422.104 648.512 423.184 648.8 424.024 649.448L425.152 648.32C424.096 647.456 422.584 647.048 420.904 647.048C418.384 647.048 416.56 648.344 416.56 650.504C416.56 652.448 417.784 653.48 420.088 653.672L422.032 653.84C423.4 653.96 424 654.536 424 655.568C424 656.96 422.8 657.656 420.856 657.656C419.392 657.656 418.12 657.272 417.184 656.288L416.032 657.44C417.328 658.688 418.888 659.144 420.88 659.144C423.736 659.144 425.68 657.824 425.68 655.544ZM438.114 653.552V652.76C438.114 649.256 436.314 647.048 433.266 647.048C430.266 647.048 428.418 649.28 428.418 653.096C428.418 657.272 430.458 659.144 433.578 659.144C435.594 659.144 436.698 658.52 437.898 657.32L436.722 656.288C435.786 657.224 434.994 657.632 433.626 657.632C431.37 657.632 430.146 656.144 430.146 653.552H438.114ZM436.386 652.256H430.146C430.194 651.296 430.242 650.936 430.506 650.288C430.962 649.208 432.018 648.512 433.266 648.512C434.514 648.512 435.57 649.208 436.026 650.288C436.29 650.936 436.338 651.296 436.386 652.256ZM450.553 659V641.912H448.825V648.56C447.865 647.336 446.785 647.048 445.489 647.048C444.289 647.048 443.233 647.456 442.609 648.08C441.409 649.28 441.169 651.248 441.169 653.096C441.169 654.944 441.409 656.912 442.609 658.112C443.233 658.736 444.289 659.144 445.489 659.144C446.785 659.144 447.889 658.832 448.849 657.584V659H450.553ZM448.825 653.096C448.825 655.4 448.441 657.608 445.873 657.608C443.305 657.608 442.897 655.4 442.897 653.096C442.897 650.792 443.305 648.584 445.873 648.584C448.441 648.584 448.825 650.792 448.825 653.096ZM469.872 653.096C469.872 651.272 469.632 649.616 468.432 648.392C467.616 647.576 466.488 647.048 465.048 647.048C463.608 647.048 462.48 647.576 461.664 648.392C460.464 649.616 460.224 651.272 460.224 653.096C460.224 654.92 460.464 656.576 461.664 657.8C462.48 658.616 463.608 659.144 465.048 659.144C466.488 659.144 467.616 658.616 468.432 657.8C469.632 656.576 469.872 654.92 469.872 653.096ZM468.144 653.096C468.144 654.416 468.072 655.88 467.208 656.744C466.656 657.296 465.888 657.608 465.048 657.608C464.208 657.608 463.464 657.296 462.912 656.744C462.048 655.88 461.952 654.416 461.952 653.096C461.952 651.776 462.048 650.312 462.912 649.448C463.464 648.896 464.208 648.584 465.048 648.584C465.888 648.584 466.656 648.896 467.208 649.448C468.072 650.312 468.144 651.776 468.144 653.096ZM482.862 659V651.44C482.862 650.072 482.478 648.968 481.638 648.152C480.918 647.432 479.886 647.048 478.614 647.048C477.294 647.048 476.142 647.528 475.302 648.488V647.192H473.574V659H475.302V651.728C475.302 649.664 476.454 648.584 478.23 648.584C480.006 648.584 481.134 649.64 481.134 651.728V659H482.862ZM501.787 659V641.912H500.059V648.56C499.099 647.336 498.019 647.048 496.723 647.048C495.523 647.048 494.467 647.456 493.843 648.08C492.643 649.28 492.403 651.248 492.403 653.096C492.403 654.944 492.643 656.912 493.843 658.112C494.467 658.736 495.523 659.144 496.723 659.144C498.019 659.144 499.123 658.832 500.083 657.584V659H501.787ZM500.059 653.096C500.059 655.4 499.675 657.608 497.107 657.608C494.539 657.608 494.131 655.4 494.131 653.096C494.131 650.792 494.539 648.584 497.107 648.584C499.675 648.584 500.059 650.792 500.059 653.096ZM514.529 659V650.984C514.529 648.416 512.969 647.048 509.801 647.048C507.881 647.048 506.681 647.432 505.625 648.8L506.801 649.88C507.497 648.896 508.265 648.536 509.777 648.536C511.937 648.536 512.801 649.4 512.801 651.128V652.256H509.249C506.609 652.256 505.169 653.6 505.169 655.664C505.169 656.6 505.481 657.488 506.057 658.064C506.801 658.832 507.761 659.144 509.393 659.144C510.977 659.144 511.841 658.832 512.801 657.872V659H514.529ZM512.801 654.824C512.801 655.808 512.609 656.48 512.201 656.864C511.457 657.584 510.569 657.656 509.561 657.656C507.689 657.656 506.849 657.008 506.849 655.64C506.849 654.272 507.713 653.552 509.489 653.552H512.801V654.824ZM526.61 648.152C525.77 647.312 524.906 647.048 523.778 647.048C522.41 647.048 521.114 647.648 520.466 648.632V647.192H518.738V659H520.466V651.752C520.466 649.952 521.57 648.584 523.298 648.584C524.21 648.584 524.69 648.8 525.338 649.448L526.61 648.152ZM538.752 659L534.048 651.704L538.056 647.192H535.896L530.568 653.336V641.912H528.84V659H530.568V655.592L532.872 652.952L536.616 659H538.752ZM556.707 653.096C556.707 651.272 556.467 649.616 555.267 648.392C554.451 647.576 553.323 647.048 551.883 647.048C550.443 647.048 549.315 647.576 548.499 648.392C547.299 649.616 547.059 651.272 547.059 653.096C547.059 654.92 547.299 656.576 548.499 657.8C549.315 658.616 550.443 659.144 551.883 659.144C553.323 659.144 554.451 658.616 555.267 657.8C556.467 656.576 556.707 654.92 556.707 653.096ZM554.979 653.096C554.979 654.416 554.907 655.88 554.043 656.744C553.491 657.296 552.723 657.608 551.883 657.608C551.043 657.608 550.299 657.296 549.747 656.744C548.883 655.88 548.787 654.416 548.787 653.096C548.787 651.776 548.883 650.312 549.747 649.448C550.299 648.896 551.043 648.584 551.883 648.584C552.723 648.584 553.491 648.896 554.043 649.448C554.907 650.312 554.979 651.776 554.979 653.096ZM568.282 648.152C567.442 647.312 566.578 647.048 565.45 647.048C564.082 647.048 562.786 647.648 562.138 648.632V647.192H560.41V659H562.138V651.752C562.138 649.952 563.242 648.584 564.97 648.584C565.882 648.584 566.362 648.8 567.01 649.448L568.282 648.152ZM584.96 657.392L583.784 656.264C582.896 657.248 582.2 657.608 581.072 657.608C579.92 657.608 578.96 657.152 578.336 656.264C577.784 655.496 577.568 654.584 577.568 653.096C577.568 651.608 577.784 650.696 578.336 649.928C578.96 649.04 579.92 648.584 581.072 648.584C582.2 648.584 582.896 648.92 583.784 649.904L584.96 648.8C583.736 647.48 582.704 647.048 581.072 647.048C578.096 647.048 575.84 649.064 575.84 653.096C575.84 657.128 578.096 659.144 581.072 659.144C582.704 659.144 583.736 658.712 584.96 657.392ZM596.926 653.096C596.926 651.272 596.686 649.616 595.486 648.392C594.67 647.576 593.542 647.048 592.102 647.048C590.662 647.048 589.534 647.576 588.718 648.392C587.518 649.616 587.278 651.272 587.278 653.096C587.278 654.92 587.518 656.576 588.718 657.8C589.534 658.616 590.662 659.144 592.102 659.144C593.542 659.144 594.67 658.616 595.486 657.8C596.686 656.576 596.926 654.92 596.926 653.096ZM595.198 653.096C595.198 654.416 595.126 655.88 594.262 656.744C593.71 657.296 592.942 657.608 592.102 657.608C591.262 657.608 590.518 657.296 589.966 656.744C589.102 655.88 589.006 654.416 589.006 653.096C589.006 651.776 589.102 650.312 589.966 649.448C590.518 648.896 591.262 648.584 592.102 648.584C592.942 648.584 593.71 648.896 594.262 649.448C595.126 650.312 595.198 651.776 595.198 653.096ZM604.829 659V657.512H603.893C602.693 657.512 602.309 656.936 602.309 655.784V641.912H600.581V655.856C600.581 657.656 601.517 659 603.581 659H604.829ZM616.309 653.096C616.309 651.272 616.069 649.616 614.869 648.392C614.053 647.576 612.925 647.048 611.485 647.048C610.045 647.048 608.917 647.576 608.101 648.392C606.901 649.616 606.661 651.272 606.661 653.096C606.661 654.92 606.901 656.576 608.101 657.8C608.917 658.616 610.045 659.144 611.485 659.144C612.925 659.144 614.053 658.616 614.869 657.8C616.069 656.576 616.309 654.92 616.309 653.096ZM614.581 653.096C614.581 654.416 614.509 655.88 613.645 656.744C613.093 657.296 612.325 657.608 611.485 657.608C610.645 657.608 609.901 657.296 609.349 656.744C608.485 655.88 608.389 654.416 608.389 653.096C608.389 651.776 608.485 650.312 609.349 649.448C609.901 648.896 610.645 648.584 611.485 648.584C612.325 648.584 613.093 648.896 613.645 649.448C614.509 650.312 614.581 651.776 614.581 653.096ZM627.884 648.152C627.044 647.312 626.18 647.048 625.052 647.048C623.684 647.048 622.388 647.648 621.74 648.632V647.192H620.012V659H621.74V651.752C621.74 649.952 622.844 648.584 624.572 648.584C625.484 648.584 625.964 648.8 626.612 649.448L627.884 648.152ZM638.341 653.552V652.76C638.341 649.256 636.541 647.048 633.493 647.048C630.493 647.048 628.645 649.28 628.645 653.096C628.645 657.272 630.685 659.144 633.805 659.144C635.821 659.144 636.925 658.52 638.125 657.32L636.949 656.288C636.013 657.224 635.221 657.632 633.853 657.632C631.597 657.632 630.373 656.144 630.373 653.552H638.341ZM636.613 652.256H630.373C630.421 651.296 630.469 650.936 630.733 650.288C631.189 649.208 632.245 648.512 633.493 648.512C634.741 648.512 635.797 649.208 636.253 650.288C636.517 650.936 636.565 651.296 636.613 652.256ZM650.779 659V641.912H649.051V648.56C648.091 647.336 647.011 647.048 645.715 647.048C644.515 647.048 643.459 647.456 642.835 648.08C641.635 649.28 641.395 651.248 641.395 653.096C641.395 654.944 641.635 656.912 642.835 658.112C643.459 658.736 644.515 659.144 645.715 659.144C647.011 659.144 648.115 658.832 649.075 657.584V659H650.779ZM649.051 653.096C649.051 655.4 648.667 657.608 646.099 657.608C643.531 657.608 643.123 655.4 643.123 653.096C643.123 650.792 643.531 648.584 646.099 648.584C648.667 648.584 649.051 650.792 649.051 653.096ZM670.458 653.096C670.458 651.248 670.218 649.28 669.018 648.08C668.394 647.456 667.338 647.048 666.138 647.048C664.842 647.048 663.762 647.336 662.802 648.56V641.912H661.074V659H662.802V657.584C663.762 658.832 664.842 659.144 666.138 659.144C667.338 659.144 668.394 658.736 669.018 658.112C670.218 656.912 670.458 654.944 670.458 653.096ZM668.73 653.096C668.73 655.4 668.346 657.608 665.778 657.608C663.21 657.608 662.802 655.4 662.802 653.096C662.802 650.792 663.21 648.584 665.778 648.584C668.346 648.584 668.73 650.792 668.73 653.096ZM682.576 659V650.984C682.576 648.416 681.016 647.048 677.848 647.048C675.928 647.048 674.728 647.432 673.672 648.8L674.848 649.88C675.544 648.896 676.312 648.536 677.824 648.536C679.984 648.536 680.848 649.4 680.848 651.128V652.256H677.296C674.656 652.256 673.216 653.6 673.216 655.664C673.216 656.6 673.528 657.488 674.104 658.064C674.848 658.832 675.808 659.144 677.44 659.144C679.024 659.144 679.888 658.832 680.848 657.872V659H682.576ZM680.848 654.824C680.848 655.808 680.656 656.48 680.248 656.864C679.504 657.584 678.616 657.656 677.608 657.656C675.736 657.656 674.896 657.008 674.896 655.64C674.896 654.272 675.76 653.552 677.536 653.552H680.848V654.824ZM695.257 657.392L694.081 656.264C693.193 657.248 692.497 657.608 691.369 657.608C690.217 657.608 689.257 657.152 688.633 656.264C688.081 655.496 687.865 654.584 687.865 653.096C687.865 651.608 688.081 650.696 688.633 649.928C689.257 649.04 690.217 648.584 691.369 648.584C692.497 648.584 693.193 648.92 694.081 649.904L695.257 648.8C694.033 647.48 693.001 647.048 691.369 647.048C688.393 647.048 686.137 649.064 686.137 653.096C686.137 657.128 688.393 659.144 691.369 659.144C693.001 659.144 694.033 658.712 695.257 657.392ZM708.463 659L703.759 651.704L707.767 647.192H705.607L700.279 653.336V641.912H698.551V659H700.279V655.592L702.583 652.952L706.327 659H708.463ZM719.661 659.36V647.192H717.957V648.584C716.997 647.336 715.941 647.048 714.645 647.048C713.445 647.048 712.389 647.456 711.765 648.08C710.589 649.256 710.325 651.08 710.325 653C710.325 654.92 710.589 656.744 711.765 657.92C712.389 658.544 713.421 658.976 714.621 658.976C715.893 658.976 716.973 658.664 717.933 657.44V659.288C717.933 661.304 716.973 662.912 714.693 662.912C713.325 662.912 712.725 662.504 711.861 661.736L710.733 662.84C711.981 663.968 712.965 664.424 714.741 664.424C717.837 664.424 719.661 662.288 719.661 659.36ZM717.933 653C717.933 655.208 717.573 657.416 715.005 657.416C712.437 657.416 712.053 655.208 712.053 653C712.053 650.792 712.437 648.584 715.005 648.584C717.573 648.584 717.933 650.792 717.933 653ZM731.852 648.152C731.012 647.312 730.148 647.048 729.02 647.048C727.652 647.048 726.356 647.648 725.708 648.632V647.192H723.98V659H725.708V651.752C725.708 649.952 726.812 648.584 728.54 648.584C729.452 648.584 729.932 648.8 730.58 649.448L731.852 648.152ZM742.286 653.096C742.286 651.272 742.046 649.616 740.846 648.392C740.03 647.576 738.902 647.048 737.462 647.048C736.022 647.048 734.894 647.576 734.078 648.392C732.878 649.616 732.638 651.272 732.638 653.096C732.638 654.92 732.878 656.576 734.078 657.8C734.894 658.616 736.022 659.144 737.462 659.144C738.902 659.144 740.03 658.616 740.846 657.8C742.046 656.576 742.286 654.92 742.286 653.096ZM740.558 653.096C740.558 654.416 740.486 655.88 739.622 656.744C739.07 657.296 738.302 657.608 737.462 657.608C736.622 657.608 735.878 657.296 735.326 656.744C734.462 655.88 734.366 654.416 734.366 653.096C734.366 651.776 734.462 650.312 735.326 649.448C735.878 648.896 736.622 648.584 737.462 648.584C738.302 648.584 739.07 648.896 739.622 649.448C740.486 650.312 740.558 651.776 740.558 653.096ZM755.156 659V647.192H753.428V654.464C753.428 656.528 752.252 657.608 750.476 657.608C748.7 657.608 747.596 656.552 747.596 654.464V647.192H745.868V654.728C745.868 656.096 746.228 657.224 747.068 658.04C747.788 658.76 748.844 659.144 750.116 659.144C751.436 659.144 752.612 658.64 753.452 657.68V659H755.156ZM768.753 659V651.44C768.753 650.072 768.369 648.968 767.529 648.152C766.809 647.432 765.777 647.048 764.505 647.048C763.185 647.048 762.033 647.528 761.193 648.488V647.192H759.465V659H761.193V651.728C761.193 649.664 762.345 648.584 764.121 648.584C765.897 648.584 767.025 649.64 767.025 651.728V659H768.753ZM781.701 659V641.912H779.973V648.56C779.013 647.336 777.933 647.048 776.637 647.048C775.437 647.048 774.381 647.456 773.757 648.08C772.557 649.28 772.317 651.248 772.317 653.096C772.317 654.944 772.557 656.912 773.757 658.112C774.381 658.736 775.437 659.144 776.637 659.144C777.933 659.144 779.037 658.832 779.997 657.584V659H781.701ZM779.973 653.096C779.973 655.4 779.589 657.608 777.021 657.608C774.453 657.608 774.045 655.4 774.045 653.096C774.045 650.792 774.453 648.584 777.021 648.584C779.589 648.584 779.973 650.792 779.973 653.096ZM794.539 655.544C794.539 653.336 793.123 652.544 791.059 652.352L789.163 652.184C787.675 652.064 787.099 651.464 787.099 650.456C787.099 649.256 788.011 648.512 789.739 648.512C790.963 648.512 792.043 648.8 792.883 649.448L794.011 648.32C792.955 647.456 791.443 647.048 789.763 647.048C787.243 647.048 785.419 648.344 785.419 650.504C785.419 652.448 786.643 653.48 788.947 653.672L790.891 653.84C792.259 653.96 792.859 654.536 792.859 655.568C792.859 656.96 791.659 657.656 789.715 657.656C788.251 657.656 786.979 657.272 786.043 656.288L784.891 657.44C786.187 658.688 787.747 659.144 789.739 659.144C792.595 659.144 794.539 657.824 794.539 655.544ZM800.134 659V656.744H797.878V659H800.134Z" fill="black"/>
</svg>
