<svg width="538" height="413" viewBox="0 0 538 413" fill="none" xmlns="http://www.w3.org/2000/svg">
<rect width="538" height="413" fill="white"/>
<path d="M80.192 97C79.9787 97 79.84 96.8933 79.776 96.68L78.816 93.544C78.7733 93.4587 78.72 93.416 78.656 93.416H70.784C70.72 93.416 70.6667 93.4587 70.624 93.544L69.696 96.68C69.632 96.8933 69.4933 97 69.28 97H65.216C65.088 97 64.992 96.968 64.928 96.904C64.864 96.8187 64.8533 96.7013 64.896 96.552L71.808 74.92C71.872 74.7067 72.0107 74.6 72.224 74.6H77.248C77.4613 74.6 77.6 74.7067 77.664 74.92L84.576 96.552C84.5973 96.5947 84.608 96.648 84.608 96.712C84.608 96.904 84.4907 97 84.256 97H80.192ZM71.776 89.736C71.7547 89.864 71.7973 89.928 71.904 89.928H77.536C77.664 89.928 77.7067 89.864 77.664 89.736L74.784 80.232C74.7627 80.1467 74.7307 80.1147 74.688 80.136C74.6453 80.136 74.6133 80.168 74.592 80.232L71.776 89.736ZM93.8335 97.256C92.1268 97.256 90.6442 96.8293 89.3855 95.976C88.1482 95.1227 87.2628 93.9493 86.7295 92.456C86.3668 91.3893 86.1855 90.1307 86.1855 88.68C86.1855 87.2507 86.3668 86.0133 86.7295 84.968C87.2415 83.5173 88.1268 82.376 89.3855 81.544C90.6442 80.712 92.1268 80.296 93.8335 80.296C95.5402 80.296 97.0335 80.7227 98.3135 81.576C99.6148 82.4293 100.479 83.5067 100.906 84.808C101.076 85.32 101.162 85.704 101.162 85.96V86.024C101.162 86.216 101.055 86.3333 100.842 86.376L97.1615 86.92H97.0975C96.9055 86.92 96.7775 86.8133 96.7135 86.6L96.6175 86.088C96.4682 85.5333 96.1375 85.0747 95.6255 84.712C95.1135 84.3493 94.5055 84.168 93.8015 84.168C93.1188 84.168 92.5428 84.3387 92.0735 84.68C91.6042 85.0213 91.2735 85.4907 91.0815 86.088C90.8468 86.728 90.7295 87.6027 90.7295 88.712C90.7295 89.8213 90.8362 90.696 91.0495 91.336C91.2415 91.976 91.5722 92.4773 92.0415 92.84C92.5322 93.2027 93.1188 93.384 93.8015 93.384C94.4628 93.384 95.0388 93.2133 95.5295 92.872C96.0415 92.5093 96.3935 92.0187 96.5855 91.4C96.6068 91.3573 96.6175 91.2933 96.6175 91.208C96.6388 91.1867 96.6495 91.1547 96.6495 91.112C96.6708 90.856 96.8202 90.7493 97.0975 90.792L100.778 91.368C100.991 91.4107 101.097 91.528 101.097 91.72C101.097 91.8907 101.034 92.2107 100.906 92.68C100.458 94.1093 99.5828 95.2293 98.2815 96.04C97.0015 96.8507 95.5188 97.256 93.8335 97.256ZM113.229 83.784C113.229 83.8907 113.186 83.9867 113.101 84.072C113.037 84.136 112.952 84.168 112.845 84.168H109.773C109.666 84.168 109.613 84.2213 109.613 84.328V91.112C109.613 91.816 109.752 92.3387 110.029 92.68C110.328 93.0213 110.797 93.192 111.437 93.192H112.493C112.6 93.192 112.685 93.2347 112.749 93.32C112.834 93.384 112.877 93.4693 112.877 93.576V96.616C112.877 96.8507 112.749 96.9893 112.493 97.032C111.597 97.0747 110.957 97.096 110.573 97.096C108.802 97.096 107.48 96.808 106.605 96.232C105.73 95.6347 105.282 94.5253 105.261 92.904V84.328C105.261 84.2213 105.208 84.168 105.101 84.168H103.277C103.17 84.168 103.074 84.136 102.989 84.072C102.925 83.9867 102.893 83.8907 102.893 83.784V80.936C102.893 80.8293 102.925 80.744 102.989 80.68C103.074 80.5947 103.17 80.552 103.277 80.552H105.101C105.208 80.552 105.261 80.4987 105.261 80.392V76.584C105.261 76.4773 105.293 76.392 105.357 76.328C105.442 76.2427 105.538 76.2 105.645 76.2H109.229C109.336 76.2 109.421 76.2427 109.485 76.328C109.57 76.392 109.613 76.4773 109.613 76.584V80.392C109.613 80.4987 109.666 80.552 109.773 80.552H112.845C112.952 80.552 113.037 80.5947 113.101 80.68C113.186 80.744 113.229 80.8293 113.229 80.936V83.784ZM118.377 78.696C117.652 78.696 117.044 78.4613 116.553 77.992C116.084 77.5013 115.849 76.8933 115.849 76.168C115.849 75.4213 116.084 74.8133 116.553 74.344C117.023 73.8747 117.631 73.64 118.377 73.64C119.124 73.64 119.732 73.8747 120.201 74.344C120.671 74.8133 120.905 75.4213 120.905 76.168C120.905 76.8933 120.66 77.5013 120.169 77.992C119.7 78.4613 119.103 78.696 118.377 78.696ZM116.457 97C116.351 97 116.255 96.968 116.169 96.904C116.105 96.8187 116.073 96.7227 116.073 96.616V80.904C116.073 80.7973 116.105 80.712 116.169 80.648C116.255 80.5627 116.351 80.52 116.457 80.52H120.201C120.308 80.52 120.393 80.5627 120.457 80.648C120.543 80.712 120.585 80.7973 120.585 80.904V96.616C120.585 96.7227 120.543 96.8187 120.457 96.904C120.393 96.968 120.308 97 120.201 97H116.457ZM131.366 97.256C129.574 97.256 128.038 96.7867 126.758 95.848C125.478 94.9093 124.603 93.6293 124.134 92.008C123.835 91.0053 123.686 89.9173 123.686 88.744C123.686 87.4853 123.835 86.3547 124.134 85.352C124.624 83.7733 125.51 82.536 126.79 81.64C128.07 80.744 129.606 80.296 131.398 80.296C133.147 80.296 134.64 80.744 135.878 81.64C137.115 82.5147 137.99 83.7413 138.502 85.32C138.843 86.3867 139.014 87.5067 139.014 88.68C139.014 89.832 138.864 90.9093 138.566 91.912C138.096 93.576 137.222 94.888 135.942 95.848C134.683 96.7867 133.158 97.256 131.366 97.256ZM131.366 93.384C132.07 93.384 132.667 93.1707 133.158 92.744C133.648 92.3173 134 91.7307 134.214 90.984C134.384 90.3013 134.47 89.5547 134.47 88.744C134.47 87.848 134.384 87.0907 134.214 86.472C133.979 85.7467 133.616 85.1813 133.126 84.776C132.635 84.3707 132.038 84.168 131.334 84.168C130.608 84.168 130 84.3707 129.51 84.776C129.04 85.1813 128.699 85.7467 128.486 86.472C128.315 86.984 128.23 87.7413 128.23 88.744C128.23 89.704 128.304 90.4507 128.454 90.984C128.667 91.7307 129.019 92.3173 129.51 92.744C130.022 93.1707 130.64 93.384 131.366 93.384ZM150.49 80.296C152.197 80.296 153.573 80.8187 154.618 81.864C155.663 82.9093 156.186 84.328 156.186 86.12V96.616C156.186 96.7227 156.143 96.8187 156.058 96.904C155.994 96.968 155.909 97 155.802 97H152.058C151.951 97 151.855 96.968 151.77 96.904C151.706 96.8187 151.674 96.7227 151.674 96.616V87.048C151.674 86.1947 151.429 85.5013 150.938 84.968C150.469 84.4347 149.839 84.168 149.05 84.168C148.261 84.168 147.621 84.4347 147.13 84.968C146.661 85.5013 146.426 86.1947 146.426 87.048V96.616C146.426 96.7227 146.383 96.8187 146.298 96.904C146.234 96.968 146.149 97 146.042 97H142.298C142.191 97 142.095 96.968 142.01 96.904C141.946 96.8187 141.914 96.7227 141.914 96.616V80.936C141.914 80.8293 141.946 80.744 142.01 80.68C142.095 80.5947 142.191 80.552 142.298 80.552H146.042C146.149 80.552 146.234 80.5947 146.298 80.68C146.383 80.744 146.426 80.8293 146.426 80.936V82.056C146.426 82.12 146.447 82.1627 146.49 82.184C146.533 82.2053 146.565 82.1947 146.586 82.152C147.461 80.9147 148.762 80.296 150.49 80.296ZM165.974 97.224C164.545 97.224 163.297 97.0213 162.23 96.616C161.163 96.2107 160.331 95.6453 159.734 94.92C159.158 94.1947 158.87 93.3733 158.87 92.456V92.136C158.87 92.0293 158.902 91.944 158.966 91.88C159.051 91.7947 159.147 91.752 159.254 91.752H162.806C162.913 91.752 162.998 91.7947 163.062 91.88C163.147 91.944 163.19 92.0293 163.19 92.136V92.168C163.19 92.6373 163.446 93.0427 163.958 93.384C164.491 93.704 165.153 93.864 165.942 93.864C166.667 93.864 167.254 93.7253 167.702 93.448C168.15 93.1493 168.374 92.7867 168.374 92.36C168.374 91.976 168.182 91.688 167.798 91.496C167.414 91.304 166.785 91.1013 165.91 90.888C164.907 90.632 164.118 90.3867 163.542 90.152C162.177 89.6827 161.089 89.1067 160.278 88.424C159.467 87.7413 159.062 86.76 159.062 85.48C159.062 83.9013 159.67 82.6533 160.886 81.736C162.123 80.7973 163.755 80.328 165.782 80.328C167.147 80.328 168.342 80.552 169.366 81C170.39 81.4267 171.179 82.0347 171.734 82.824C172.31 83.6133 172.598 84.5093 172.598 85.512C172.598 85.6187 172.555 85.7147 172.47 85.8C172.406 85.864 172.321 85.896 172.214 85.896H168.79C168.683 85.896 168.587 85.864 168.502 85.8C168.438 85.7147 168.406 85.6187 168.406 85.512C168.406 85.0427 168.161 84.648 167.67 84.328C167.201 84.008 166.571 83.848 165.782 83.848C165.078 83.848 164.502 83.976 164.054 84.232C163.606 84.488 163.382 84.84 163.382 85.288C163.382 85.7147 163.595 86.0347 164.022 86.248C164.47 86.4613 165.206 86.6853 166.23 86.92C166.465 86.984 166.731 87.0587 167.03 87.144C167.329 87.208 167.649 87.2933 167.99 87.4C169.505 87.848 170.699 88.424 171.574 89.128C172.449 89.832 172.886 90.856 172.886 92.2C172.886 93.7787 172.257 95.016 170.998 95.912C169.761 96.7867 168.086 97.224 165.974 97.224Z" fill="black"/>
<rect width="410" height="72" transform="translate(64 136)" fill="white"/>
<path d="M83 155V151C83 150.167 82.7083 149.458 82.125 148.875C81.5417 148.292 80.8333 148 80 148H70.825L74.425 151.6L73 153L67 147L73 141L74.425 142.4L70.825 146H80C81.3833 146 82.5625 146.488 83.5375 147.463C84.5125 148.438 85 149.617 85 151V155H83Z" fill="#006158"/>
<path d="M131 149H125V155H123V149H117V147H123V141H125V147H131V149Z" fill="#006158"/>
<path d="M172 138C166.48 138 162 142.48 162 148C162 153.52 166.48 158 172 158C177.52 158 182 153.52 182 148C182 142.48 177.52 138 172 138ZM177 149H173V153H171V149H167V147H171V143H173V147H177V149Z" fill="#006158"/>
<path d="M224.59 145H223V140C223 139.45 222.55 139 222 139H218C217.45 139 217 139.45 217 140V145H215.41C214.52 145 214.07 146.08 214.7 146.71L219.29 151.3C219.68 151.69 220.31 151.69 220.7 151.3L225.29 146.71C225.92 146.08 225.48 145 224.59 145ZM213 155C213 155.55 213.45 156 214 156H226C226.55 156 227 155.55 227 155C227 154.45 226.55 154 226 154H214C213.45 154 213 154.45 213 155Z" fill="#006158"/>
<path d="M263.402 145.593L264.992 145.593L264.992 150.593C264.992 151.143 265.442 151.593 265.992 151.593L269.992 151.592C270.542 151.592 270.992 151.142 270.992 150.592V145.592H272.582C273.472 145.592 273.922 144.512 273.292 143.882L268.702 139.292C268.312 138.902 267.682 138.903 267.292 139.293L262.702 143.883C262.072 144.513 262.512 145.593 263.402 145.593Z" fill="#006158"/>
<path d="M261 155C261 155.55 261.45 156 262 156H274C274.55 156 275 155.55 275 155C275 154.45 274.55 154 274 154H262C261.45 154 261 154.45 261 155Z" fill="#006158"/>
<path d="M307 153.25V157H310.75L321.81 145.94L318.06 142.19L307 153.25ZM324.71 143.04C325.1 142.65 325.1 142.02 324.71 141.63L322.37 139.29C321.98 138.9 321.35 138.9 320.96 139.29L319.13 141.12L322.88 144.87L324.71 143.04Z" fill="#006158"/>
<path d="M364 140.5C359 140.5 354.73 143.61 353 148C354.73 152.39 359 155.5 364 155.5C369 155.5 373.27 152.39 375 148C373.27 143.61 369 140.5 364 140.5ZM364 153C361.24 153 359 150.76 359 148C359 145.24 361.24 143 364 143C366.76 143 369 145.24 369 148C369 150.76 366.76 153 364 153ZM364 145C362.34 145 361 146.34 361 148C361 149.66 362.34 151 364 151C365.66 151 367 149.66 367 148C367 146.34 365.66 145 364 145Z" fill="#006158"/>
<path d="M412 143C414.76 143 417 145.24 417 148C417 148.65 416.87 149.26 416.64 149.83L419.56 152.75C421.07 151.49 422.26 149.86 422.99 148C421.26 143.61 416.99 140.5 411.99 140.5C410.59 140.5 409.25 140.75 408.01 141.2L410.17 143.36C410.74 143.13 411.35 143 412 143ZM402 140.27L404.28 142.55L404.74 143.01C403.08 144.3 401.78 146.02 401 148C402.73 152.39 407 155.5 412 155.5C413.55 155.5 415.03 155.2 416.38 154.66L416.8 155.08L419.73 158L421 156.73L403.27 139L402 140.27ZM407.53 145.8L409.08 147.35C409.03 147.56 409 147.78 409 148C409 149.66 410.34 151 412 151C412.22 151 412.44 150.97 412.65 150.92L414.2 152.47C413.53 152.8 412.79 153 412 153C409.24 153 407 150.76 407 148C407 147.21 407.2 146.47 407.53 145.8ZM411.84 145.02L414.99 148.17L415.01 148.01C415.01 146.35 413.67 145.01 412.01 145.01L411.84 145.02Z" fill="#006158"/>
<path d="M463.5 150H462.71L462.43 149.73C463.41 148.59 464 147.11 464 145.5C464 141.91 461.09 139 457.5 139C453.91 139 451 141.91 451 145.5C451 149.09 453.91 152 457.5 152C459.11 152 460.59 151.41 461.73 150.43L462 150.71V151.5L467 156.49L468.49 155L463.5 150ZM457.5 150C455.01 150 453 147.99 453 145.5C453 143.01 455.01 141 457.5 141C459.99 141 462 143.01 462 145.5C462 147.99 459.99 150 457.5 150Z" fill="#006158"/>
<path d="M70 203C70 204.1 70.9 205 72 205H80C81.1 205 82 204.1 82 203V191H70V203ZM83 188H79.5L78.5 187H73.5L72.5 188H69V190H83V188Z" fill="#006158"/>
<path d="M124 186L120 190H123V195H118V192L114 196L118 200V197H123V202H120L124 206L128 202H125V197H130V200L134 196L130 192V195H125V190H128L124 186Z" fill="#006158"/>
<path d="M176 185H164C162.9 185 162 185.9 162 187V201H164V187H176V185ZM179 189H168C166.9 189 166 189.9 166 191V205C166 206.1 166.9 207 168 207H179C180.1 207 181 206.1 181 205V191C181 189.9 180.1 189 179 189ZM179 205H168V191H179V205Z" fill="#006158"/>
<path d="M220.216 188.075C218.599 188.075 216.98 188.686 215.746 189.913C214.699 190.955 214.096 192.271 213.937 193.629C211.362 193.861 209.348 196.011 209.348 198.632C209.348 201.409 211.611 203.66 214.403 203.66H226.788C229.168 203.66 231.084 201.754 231.084 199.387C231.084 197.019 229.168 195.113 226.788 195.113H226.487C226.71 193.265 226.105 191.332 224.679 189.913C223.445 188.686 221.833 188.075 220.216 188.075ZM220.216 193.354C220.35 193.353 220.445 193.379 220.556 193.48L223.336 195.993C223.534 196.17 223.57 196.514 223.376 196.708C223.188 196.895 222.853 196.918 222.657 196.739L220.722 194.988V200.392C220.722 200.67 220.495 200.895 220.216 200.895C219.937 200.895 219.711 200.67 219.711 200.392V194.988L217.776 196.739C217.579 196.918 217.235 196.904 217.057 196.708C216.879 196.512 216.889 196.173 217.096 195.993L219.877 193.48C219.949 193.414 220.081 193.356 220.216 193.354Z" fill="#006158"/>
<path d="M263 190H273L267.99 196.3L263 190ZM260.25 189.61C262.27 192.2 266 197 266 197V203C266 203.55 266.45 204 267 204H269C269.55 204 270 203.55 270 203V197C270 197 273.72 192.2 275.74 189.61C275.855 189.462 275.925 189.286 275.944 189.1C275.964 188.914 275.93 188.726 275.848 188.558C275.765 188.391 275.638 188.249 275.479 188.151C275.32 188.052 275.137 188 274.95 188H261.04C260.21 188 259.74 188.95 260.25 189.61Z" fill="#006158"/>
<path fill-rule="evenodd" clip-rule="evenodd" d="M474 241H64V240H474V241Z" fill="#D3D3D3"/>
<path d="M66.9801 289H77.0201C78.0468 289 78.6868 287.887 78.1734 287L73.1534 278.327C72.6401 277.44 71.3601 277.44 70.8468 278.327L65.8268 287C65.3134 287.887 65.9534 289 66.9801 289ZM72.0001 284.333C71.6334 284.333 71.3334 284.033 71.3334 283.667V282.333C71.3334 281.967 71.6334 281.667 72.0001 281.667C72.3668 281.667 72.6667 281.967 72.6667 282.333V283.667C72.6667 284.033 72.3668 284.333 72.0001 284.333ZM72.6667 287H71.3334V285.667H72.6667V287Z" fill="#FF8328"/>
<path d="M90.704 277.8C90.7573 277.8 90.8 277.821 90.832 277.864C90.8747 277.896 90.896 277.939 90.896 277.992V279.56C90.896 279.613 90.8747 279.661 90.832 279.704C90.8 279.736 90.7573 279.752 90.704 279.752H87.84C87.7867 279.752 87.76 279.779 87.76 279.832V288.808C87.76 288.861 87.7387 288.909 87.696 288.952C87.664 288.984 87.6213 289 87.568 289H85.696C85.6427 289 85.5947 288.984 85.552 288.952C85.52 288.909 85.504 288.861 85.504 288.808V279.832C85.504 279.779 85.4773 279.752 85.424 279.752H82.64C82.5867 279.752 82.5387 279.736 82.496 279.704C82.464 279.661 82.448 279.613 82.448 279.56V277.992C82.448 277.939 82.464 277.896 82.496 277.864C82.5387 277.821 82.5867 277.8 82.64 277.8H90.704ZM94.4796 289.128C93.5836 289.128 92.8156 288.893 92.1756 288.424C91.5356 287.955 91.0983 287.315 90.8636 286.504C90.7143 286.003 90.6396 285.459 90.6396 284.872C90.6396 284.243 90.7143 283.677 90.8636 283.176C91.109 282.387 91.5516 281.768 92.1916 281.32C92.8316 280.872 93.5996 280.648 94.4956 280.648C95.3703 280.648 96.117 280.872 96.7356 281.32C97.3543 281.757 97.7916 282.371 98.0476 283.16C98.2183 283.693 98.3036 284.253 98.3036 284.84C98.3036 285.416 98.229 285.955 98.0796 286.456C97.845 287.288 97.4076 287.944 96.7676 288.424C96.1383 288.893 95.3756 289.128 94.4796 289.128ZM94.4796 287.192C94.8316 287.192 95.1303 287.085 95.3756 286.872C95.621 286.659 95.797 286.365 95.9036 285.992C95.989 285.651 96.0316 285.277 96.0316 284.872C96.0316 284.424 95.989 284.045 95.9036 283.736C95.7863 283.373 95.605 283.091 95.3596 282.888C95.1143 282.685 94.8156 282.584 94.4636 282.584C94.101 282.584 93.797 282.685 93.5516 282.888C93.317 283.091 93.1463 283.373 93.0396 283.736C92.9543 283.992 92.9116 284.371 92.9116 284.872C92.9116 285.352 92.949 285.725 93.0236 285.992C93.1303 286.365 93.3063 286.659 93.5516 286.872C93.8076 287.085 94.117 287.192 94.4796 287.192ZM110.237 282.872C110.44 283.427 110.541 284.088 110.541 284.856C110.541 285.592 110.45 286.237 110.269 286.792C110.024 287.517 109.629 288.088 109.085 288.504C108.552 288.92 107.917 289.128 107.181 289.128C106.402 289.128 105.789 288.835 105.341 288.248C105.32 288.227 105.298 288.221 105.277 288.232C105.256 288.232 105.245 288.248 105.245 288.28V288.808C105.245 288.861 105.224 288.909 105.181 288.952C105.149 288.984 105.106 289 105.053 289H103.181C103.128 289 103.08 288.984 103.037 288.952C103.005 288.909 102.989 288.861 102.989 288.808V277.992C102.989 277.939 103.005 277.896 103.037 277.864C103.08 277.821 103.128 277.8 103.181 277.8H105.053C105.106 277.8 105.149 277.821 105.181 277.864C105.224 277.896 105.245 277.939 105.245 277.992V281.416C105.245 281.448 105.256 281.469 105.277 281.48C105.298 281.491 105.32 281.48 105.341 281.448C105.757 280.915 106.349 280.648 107.117 280.648C107.896 280.648 108.546 280.851 109.069 281.256C109.602 281.651 109.992 282.189 110.237 282.872ZM107.869 286.504C108.093 286.099 108.205 285.565 108.205 284.904C108.205 284.168 108.077 283.603 107.821 283.208C107.565 282.792 107.186 282.584 106.685 282.584C106.216 282.584 105.858 282.792 105.613 283.208C105.378 283.613 105.261 284.173 105.261 284.888C105.261 285.603 105.368 286.141 105.581 286.504C105.837 286.963 106.21 287.192 106.701 287.192C107.224 287.192 107.613 286.963 107.869 286.504ZM119.253 284.04C119.317 284.445 119.338 284.899 119.317 285.4C119.306 285.528 119.237 285.592 119.109 285.592H114.165C114.101 285.592 114.079 285.619 114.101 285.672C114.133 285.885 114.191 286.099 114.277 286.312C114.554 286.909 115.119 287.208 115.973 287.208C116.655 287.197 117.194 286.92 117.589 286.376C117.631 286.312 117.679 286.28 117.733 286.28C117.765 286.28 117.802 286.301 117.845 286.344L118.997 287.48C119.05 287.533 119.077 287.581 119.077 287.624C119.077 287.645 119.055 287.688 119.013 287.752C118.661 288.189 118.207 288.531 117.653 288.776C117.098 289.011 116.49 289.128 115.829 289.128C114.911 289.128 114.133 288.92 113.493 288.504C112.863 288.088 112.41 287.507 112.133 286.76C111.909 286.227 111.797 285.528 111.797 284.664C111.797 284.077 111.877 283.56 112.037 283.112C112.282 282.355 112.709 281.752 113.317 281.304C113.935 280.856 114.666 280.632 115.509 280.632C116.575 280.632 117.429 280.941 118.069 281.56C118.719 282.179 119.114 283.005 119.253 284.04ZM115.525 282.584C114.853 282.584 114.41 282.899 114.197 283.528C114.154 283.667 114.117 283.837 114.085 284.04C114.085 284.093 114.111 284.12 114.165 284.12H116.933C116.997 284.12 117.018 284.093 116.997 284.04C116.943 283.731 116.917 283.581 116.917 283.592C116.821 283.272 116.65 283.027 116.405 282.856C116.17 282.675 115.877 282.584 115.525 282.584ZM128.006 280.664C128.39 280.664 128.694 280.739 128.918 280.888C129.003 280.931 129.035 281.011 129.014 281.128L128.678 282.952C128.667 283.08 128.593 283.117 128.454 283.064C128.294 283.011 128.107 282.984 127.894 282.984C127.809 282.984 127.691 282.995 127.542 283.016C127.158 283.048 126.833 283.192 126.566 283.448C126.299 283.693 126.166 284.024 126.166 284.44V288.808C126.166 288.861 126.145 288.909 126.102 288.952C126.07 288.984 126.027 289 125.974 289H124.102C124.049 289 124.001 288.984 123.958 288.952C123.926 288.909 123.91 288.861 123.91 288.808V280.968C123.91 280.915 123.926 280.872 123.958 280.84C124.001 280.797 124.049 280.776 124.102 280.776H125.974C126.027 280.776 126.07 280.797 126.102 280.84C126.145 280.872 126.166 280.915 126.166 280.968V281.576C126.166 281.608 126.177 281.629 126.198 281.64C126.219 281.651 126.235 281.645 126.246 281.624C126.683 280.984 127.27 280.664 128.006 280.664ZM137.112 284.04C137.176 284.445 137.197 284.899 137.176 285.4C137.165 285.528 137.096 285.592 136.968 285.592H132.024C131.96 285.592 131.939 285.619 131.96 285.672C131.992 285.885 132.051 286.099 132.136 286.312C132.413 286.909 132.979 287.208 133.832 287.208C134.515 287.197 135.053 286.92 135.448 286.376C135.491 286.312 135.539 286.28 135.592 286.28C135.624 286.28 135.661 286.301 135.704 286.344L136.856 287.48C136.909 287.533 136.936 287.581 136.936 287.624C136.936 287.645 136.915 287.688 136.872 287.752C136.52 288.189 136.067 288.531 135.512 288.776C134.957 289.011 134.349 289.128 133.688 289.128C132.771 289.128 131.992 288.92 131.352 288.504C130.723 288.088 130.269 287.507 129.992 286.76C129.768 286.227 129.656 285.528 129.656 284.664C129.656 284.077 129.736 283.56 129.896 283.112C130.141 282.355 130.568 281.752 131.176 281.304C131.795 280.856 132.525 280.632 133.368 280.632C134.435 280.632 135.288 280.941 135.928 281.56C136.579 282.179 136.973 283.005 137.112 284.04ZM133.384 282.584C132.712 282.584 132.269 282.899 132.056 283.528C132.013 283.667 131.976 283.837 131.944 284.04C131.944 284.093 131.971 284.12 132.024 284.12H134.792C134.856 284.12 134.877 284.093 134.856 284.04C134.803 283.731 134.776 283.581 134.776 283.592C134.68 283.272 134.509 283.027 134.264 282.856C134.029 282.675 133.736 282.584 133.384 282.584ZM138.758 289C138.705 289 138.657 288.984 138.614 288.952C138.582 288.909 138.566 288.861 138.566 288.808V277.992C138.566 277.939 138.582 277.896 138.614 277.864C138.657 277.821 138.705 277.8 138.758 277.8H140.63C140.684 277.8 140.726 277.821 140.758 277.864C140.801 277.896 140.822 277.939 140.822 277.992V288.808C140.822 288.861 140.801 288.909 140.758 288.952C140.726 288.984 140.684 289 140.63 289H138.758ZM149.753 284.04C149.817 284.445 149.838 284.899 149.817 285.4C149.806 285.528 149.737 285.592 149.609 285.592H144.665C144.601 285.592 144.579 285.619 144.601 285.672C144.633 285.885 144.691 286.099 144.777 286.312C145.054 286.909 145.619 287.208 146.473 287.208C147.155 287.197 147.694 286.92 148.089 286.376C148.131 286.312 148.179 286.28 148.233 286.28C148.265 286.28 148.302 286.301 148.345 286.344L149.497 287.48C149.55 287.533 149.577 287.581 149.577 287.624C149.577 287.645 149.555 287.688 149.513 287.752C149.161 288.189 148.707 288.531 148.153 288.776C147.598 289.011 146.99 289.128 146.329 289.128C145.411 289.128 144.633 288.92 143.993 288.504C143.363 288.088 142.91 287.507 142.633 286.76C142.409 286.227 142.297 285.528 142.297 284.664C142.297 284.077 142.377 283.56 142.537 283.112C142.782 282.355 143.209 281.752 143.817 281.304C144.435 280.856 145.166 280.632 146.009 280.632C147.075 280.632 147.929 280.941 148.569 281.56C149.219 282.179 149.614 283.005 149.753 284.04ZM146.025 282.584C145.353 282.584 144.91 282.899 144.697 283.528C144.654 283.667 144.617 283.837 144.585 284.04C144.585 284.093 144.611 284.12 144.665 284.12H147.433C147.497 284.12 147.518 284.093 147.497 284.04C147.443 283.731 147.417 283.581 147.417 283.592C147.321 283.272 147.15 283.027 146.905 282.856C146.67 282.675 146.377 282.584 146.025 282.584ZM154.409 280.648C155.102 280.648 155.721 280.771 156.265 281.016C156.809 281.251 157.23 281.576 157.529 281.992C157.838 282.408 157.993 282.872 157.993 283.384V288.808C157.993 288.861 157.972 288.909 157.929 288.952C157.897 288.984 157.854 289 157.801 289H155.929C155.876 289 155.828 288.984 155.785 288.952C155.753 288.909 155.737 288.861 155.737 288.808V288.28C155.737 288.248 155.726 288.227 155.705 288.216C155.684 288.205 155.662 288.216 155.641 288.248C155.193 288.835 154.473 289.128 153.481 289.128C152.649 289.128 151.977 288.925 151.465 288.52C150.953 288.115 150.697 287.517 150.697 286.728C150.697 285.907 150.985 285.272 151.561 284.824C152.137 284.365 152.958 284.136 154.025 284.136H155.657C155.71 284.136 155.737 284.109 155.737 284.056V283.704C155.737 283.352 155.63 283.08 155.417 282.888C155.204 282.685 154.884 282.584 154.457 282.584C154.126 282.584 153.849 282.643 153.625 282.76C153.412 282.877 153.273 283.043 153.209 283.256C153.177 283.373 153.108 283.427 153.001 283.416L151.065 283.16C150.937 283.139 150.878 283.091 150.889 283.016C150.932 282.568 151.108 282.163 151.417 281.8C151.737 281.437 152.153 281.155 152.665 280.952C153.188 280.749 153.769 280.648 154.409 280.648ZM154.089 287.448C154.548 287.448 154.937 287.325 155.257 287.08C155.577 286.835 155.737 286.52 155.737 286.136V285.56C155.737 285.507 155.71 285.48 155.657 285.48H154.505C154.025 285.48 153.646 285.571 153.369 285.752C153.102 285.933 152.969 286.189 152.969 286.52C152.969 286.808 153.07 287.037 153.273 287.208C153.476 287.368 153.748 287.448 154.089 287.448ZM162.862 289.112C162.147 289.112 161.523 289.011 160.99 288.808C160.457 288.605 160.041 288.323 159.742 287.96C159.454 287.597 159.31 287.187 159.31 286.728V286.568C159.31 286.515 159.326 286.472 159.358 286.44C159.401 286.397 159.449 286.376 159.502 286.376H161.278C161.331 286.376 161.374 286.397 161.406 286.44C161.449 286.472 161.47 286.515 161.47 286.568V286.584C161.47 286.819 161.598 287.021 161.854 287.192C162.121 287.352 162.451 287.432 162.846 287.432C163.209 287.432 163.502 287.363 163.726 287.224C163.95 287.075 164.062 286.893 164.062 286.68C164.062 286.488 163.966 286.344 163.774 286.248C163.582 286.152 163.267 286.051 162.83 285.944C162.329 285.816 161.934 285.693 161.646 285.576C160.963 285.341 160.419 285.053 160.014 284.712C159.609 284.371 159.406 283.88 159.406 283.24C159.406 282.451 159.71 281.827 160.318 281.368C160.937 280.899 161.753 280.664 162.766 280.664C163.449 280.664 164.046 280.776 164.558 281C165.07 281.213 165.465 281.517 165.742 281.912C166.03 282.307 166.174 282.755 166.174 283.256C166.174 283.309 166.153 283.357 166.11 283.4C166.078 283.432 166.035 283.448 165.982 283.448H164.27C164.217 283.448 164.169 283.432 164.126 283.4C164.094 283.357 164.078 283.309 164.078 283.256C164.078 283.021 163.955 282.824 163.71 282.664C163.475 282.504 163.161 282.424 162.766 282.424C162.414 282.424 162.126 282.488 161.902 282.616C161.678 282.744 161.566 282.92 161.566 283.144C161.566 283.357 161.673 283.517 161.886 283.624C162.11 283.731 162.478 283.843 162.99 283.96C163.107 283.992 163.241 284.029 163.39 284.072C163.539 284.104 163.699 284.147 163.87 284.2C164.627 284.424 165.225 284.712 165.662 285.064C166.099 285.416 166.318 285.928 166.318 286.6C166.318 287.389 166.003 288.008 165.374 288.456C164.755 288.893 163.918 289.112 162.862 289.112ZM174.893 284.04C174.957 284.445 174.979 284.899 174.957 285.4C174.947 285.528 174.877 285.592 174.749 285.592H169.805C169.741 285.592 169.72 285.619 169.741 285.672C169.773 285.885 169.832 286.099 169.917 286.312C170.195 286.909 170.76 287.208 171.613 287.208C172.296 287.197 172.835 286.92 173.229 286.376C173.272 286.312 173.32 286.28 173.373 286.28C173.405 286.28 173.443 286.301 173.485 286.344L174.637 287.48C174.691 287.533 174.717 287.581 174.717 287.624C174.717 287.645 174.696 287.688 174.653 287.752C174.301 288.189 173.848 288.531 173.293 288.776C172.739 289.011 172.131 289.128 171.469 289.128C170.552 289.128 169.773 288.92 169.133 288.504C168.504 288.088 168.051 287.507 167.773 286.76C167.549 286.227 167.437 285.528 167.437 284.664C167.437 284.077 167.517 283.56 167.677 283.112C167.923 282.355 168.349 281.752 168.957 281.304C169.576 280.856 170.307 280.632 171.149 280.632C172.216 280.632 173.069 280.941 173.709 281.56C174.36 282.179 174.755 283.005 174.893 284.04ZM171.165 282.584C170.493 282.584 170.051 282.899 169.837 283.528C169.795 283.667 169.757 283.837 169.725 284.04C169.725 284.093 169.752 284.12 169.805 284.12H172.573C172.637 284.12 172.659 284.093 172.637 284.04C172.584 283.731 172.557 283.581 172.557 283.592C172.461 283.272 172.291 283.027 172.045 282.856C171.811 282.675 171.517 282.584 171.165 282.584ZM181.452 277.992C181.452 277.939 181.468 277.896 181.5 277.864C181.542 277.821 181.59 277.8 181.644 277.8H183.516C183.569 277.8 183.612 277.821 183.644 277.864C183.686 277.896 183.708 277.939 183.708 277.992V288.808C183.708 288.861 183.686 288.909 183.644 288.952C183.612 288.984 183.569 289 183.516 289H181.644C181.59 289 181.542 288.984 181.5 288.952C181.468 288.909 181.452 288.861 181.452 288.808V288.28C181.452 288.248 181.441 288.232 181.42 288.232C181.398 288.221 181.377 288.227 181.356 288.248C180.908 288.835 180.294 289.128 179.516 289.128C178.769 289.128 178.124 288.92 177.58 288.504C177.046 288.088 176.662 287.517 176.428 286.792C176.246 286.237 176.156 285.592 176.156 284.856C176.156 284.099 176.252 283.437 176.444 282.872C176.689 282.189 177.073 281.651 177.596 281.256C178.129 280.851 178.785 280.648 179.564 280.648C180.332 280.648 180.929 280.915 181.356 281.448C181.377 281.48 181.398 281.491 181.42 281.48C181.441 281.469 181.452 281.448 181.452 281.416V277.992ZM181.116 286.504C181.329 286.109 181.436 285.571 181.436 284.888C181.436 284.173 181.318 283.613 181.084 283.208C180.838 282.792 180.481 282.584 180.012 282.584C179.51 282.584 179.132 282.792 178.876 283.208C178.609 283.624 178.476 284.189 178.476 284.904C178.476 285.544 178.588 286.077 178.812 286.504C179.078 286.963 179.473 287.192 179.996 287.192C180.476 287.192 180.849 286.963 181.116 286.504Z" fill="black"/>
<path d="M78 347V343.925L83.525 338.425C83.675 338.275 83.8417 338.167 84.025 338.1C84.2083 338.033 84.3917 338 84.575 338C84.775 338 84.9667 338.038 85.15 338.113C85.3333 338.188 85.5 338.3 85.65 338.45L86.575 339.375C86.7083 339.525 86.8125 339.692 86.8875 339.875C86.9625 340.058 87 340.242 87 340.425C87 340.608 86.9667 340.796 86.9 340.988C86.8333 341.179 86.725 341.35 86.575 341.5L81.075 347H78ZM79.5 345.5H80.45L83.475 342.45L83.025 341.975L82.55 341.525L79.5 344.55V345.5ZM70 347C69.45 347 68.9792 346.804 68.5875 346.413C68.1958 346.021 68 345.55 68 345V329C68 328.45 68.1958 327.979 68.5875 327.588C68.9792 327.196 69.45 327 70 327H78L84 333V336H82V334H77V329H70V345H76V347H70ZM83.025 341.975L82.55 341.525L83.475 342.45L83.025 341.975Z" fill="#006158"/>
</svg>
