<svg width="396" height="296" viewBox="0 0 396 296" fill="none" xmlns="http://www.w3.org/2000/svg">
<rect width="396" height="296" fill="white"/>
<path d="M81.472 78.088C81.472 78.1947 81.4293 78.2907 81.344 78.376C81.28 78.44 81.1947 78.472 81.088 78.472H70.624C70.5173 78.472 70.464 78.5253 70.464 78.632V83.592C70.464 83.6987 70.5173 83.752 70.624 83.752H77.504C77.6107 83.752 77.696 83.7947 77.76 83.88C77.8453 83.944 77.888 84.0293 77.888 84.136V87.24C77.888 87.3467 77.8453 87.4427 77.76 87.528C77.696 87.592 77.6107 87.624 77.504 87.624H70.624C70.5173 87.624 70.464 87.6773 70.464 87.784V96.616C70.464 96.7227 70.4213 96.8187 70.336 96.904C70.272 96.968 70.1867 97 70.08 97H66.336C66.2293 97 66.1333 96.968 66.048 96.904C65.984 96.8187 65.952 96.7227 65.952 96.616V74.984C65.952 74.8773 65.984 74.792 66.048 74.728C66.1333 74.6427 66.2293 74.6 66.336 74.6H81.088C81.1947 74.6 81.28 74.6427 81.344 74.728C81.4293 74.792 81.472 74.8773 81.472 74.984V78.088ZM86.0023 78.696C85.2769 78.696 84.6689 78.4613 84.1783 77.992C83.7089 77.5013 83.4743 76.8933 83.4743 76.168C83.4743 75.4213 83.7089 74.8133 84.1783 74.344C84.6476 73.8747 85.2556 73.64 86.0023 73.64C86.7489 73.64 87.3569 73.8747 87.8263 74.344C88.2956 74.8133 88.5303 75.4213 88.5303 76.168C88.5303 76.8933 88.2849 77.5013 87.7943 77.992C87.3249 78.4613 86.7276 78.696 86.0023 78.696ZM84.0823 97C83.9756 97 83.8796 96.968 83.7943 96.904C83.7303 96.8187 83.6983 96.7227 83.6983 96.616V80.904C83.6983 80.7973 83.7303 80.712 83.7943 80.648C83.8796 80.5627 83.9756 80.52 84.0823 80.52H87.8263C87.9329 80.52 88.0183 80.5627 88.0823 80.648C88.1676 80.712 88.2103 80.7973 88.2103 80.904V96.616C88.2103 96.7227 88.1676 96.8187 88.0823 96.904C88.0183 96.968 87.9329 97 87.8263 97H84.0823ZM92.1105 97C92.0038 97 91.9078 96.968 91.8225 96.904C91.7585 96.8187 91.7265 96.7227 91.7265 96.616V74.984C91.7265 74.8773 91.7585 74.792 91.8225 74.728C91.9078 74.6427 92.0038 74.6 92.1105 74.6H95.8545C95.9612 74.6 96.0465 74.6427 96.1105 74.728C96.1958 74.792 96.2385 74.8773 96.2385 74.984V96.616C96.2385 96.7227 96.1958 96.8187 96.1105 96.904C96.0465 96.968 95.9612 97 95.8545 97H92.1105ZM114.099 87.08C114.227 87.8907 114.27 88.7973 114.227 89.8C114.206 90.056 114.067 90.184 113.811 90.184H103.923C103.795 90.184 103.752 90.2373 103.795 90.344C103.859 90.7707 103.976 91.1973 104.147 91.624C104.702 92.8187 105.832 93.416 107.539 93.416C108.904 93.3947 109.982 92.84 110.771 91.752C110.856 91.624 110.952 91.56 111.059 91.56C111.123 91.56 111.198 91.6027 111.283 91.688L113.587 93.96C113.694 94.0667 113.747 94.1627 113.747 94.248C113.747 94.2907 113.704 94.376 113.619 94.504C112.915 95.3787 112.008 96.0613 110.899 96.552C109.79 97.0213 108.574 97.256 107.251 97.256C105.416 97.256 103.859 96.84 102.579 96.008C101.32 95.176 100.414 94.0133 99.859 92.52C99.411 91.4533 99.187 90.056 99.187 88.328C99.187 87.1547 99.347 86.12 99.667 85.224C100.158 83.7093 101.011 82.504 102.227 81.608C103.464 80.712 104.926 80.264 106.611 80.264C108.744 80.264 110.451 80.8827 111.731 82.12C113.032 83.3573 113.822 85.0107 114.099 87.08ZM106.643 84.168C105.299 84.168 104.414 84.7973 103.987 86.056C103.902 86.3333 103.827 86.6747 103.763 87.08C103.763 87.1867 103.816 87.24 103.923 87.24H109.459C109.587 87.24 109.63 87.1867 109.587 87.08C109.48 86.4613 109.427 86.1627 109.427 86.184C109.235 85.544 108.894 85.0533 108.403 84.712C107.934 84.3493 107.347 84.168 106.643 84.168ZM125.846 78.696C125.121 78.696 124.513 78.4613 124.022 77.992C123.553 77.5013 123.318 76.8933 123.318 76.168C123.318 75.4213 123.553 74.8133 124.022 74.344C124.491 73.8747 125.099 73.64 125.846 73.64C126.593 73.64 127.201 73.8747 127.67 74.344C128.139 74.8133 128.374 75.4213 128.374 76.168C128.374 76.8933 128.129 77.5013 127.638 77.992C127.169 78.4613 126.571 78.696 125.846 78.696ZM123.926 97C123.819 97 123.723 96.968 123.638 96.904C123.574 96.8187 123.542 96.7227 123.542 96.616V80.904C123.542 80.7973 123.574 80.712 123.638 80.648C123.723 80.5627 123.819 80.52 123.926 80.52H127.67C127.777 80.52 127.862 80.5627 127.926 80.648C128.011 80.712 128.054 80.7973 128.054 80.904V96.616C128.054 96.7227 128.011 96.8187 127.926 96.904C127.862 96.968 127.777 97 127.67 97H123.926ZM138.802 97.256C137.096 97.256 135.613 96.8293 134.354 95.976C133.117 95.1227 132.232 93.9493 131.698 92.456C131.336 91.3893 131.154 90.1307 131.154 88.68C131.154 87.2507 131.336 86.0133 131.698 84.968C132.21 83.5173 133.096 82.376 134.354 81.544C135.613 80.712 137.096 80.296 138.802 80.296C140.509 80.296 142.002 80.7227 143.282 81.576C144.584 82.4293 145.448 83.5067 145.874 84.808C146.045 85.32 146.13 85.704 146.13 85.96V86.024C146.13 86.216 146.024 86.3333 145.81 86.376L142.13 86.92H142.066C141.874 86.92 141.746 86.8133 141.682 86.6L141.586 86.088C141.437 85.5333 141.106 85.0747 140.594 84.712C140.082 84.3493 139.474 84.168 138.77 84.168C138.088 84.168 137.512 84.3387 137.042 84.68C136.573 85.0213 136.242 85.4907 136.05 86.088C135.816 86.728 135.698 87.6027 135.698 88.712C135.698 89.8213 135.805 90.696 136.018 91.336C136.21 91.976 136.541 92.4773 137.01 92.84C137.501 93.2027 138.088 93.384 138.77 93.384C139.432 93.384 140.008 93.2133 140.498 92.872C141.01 92.5093 141.362 92.0187 141.554 91.4C141.576 91.3573 141.586 91.2933 141.586 91.208C141.608 91.1867 141.618 91.1547 141.618 91.112C141.64 90.856 141.789 90.7493 142.066 90.792L145.746 91.368C145.96 91.4107 146.066 91.528 146.066 91.72C146.066 91.8907 146.002 92.2107 145.874 92.68C145.426 94.1093 144.552 95.2293 143.25 96.04C141.97 96.8507 140.488 97.256 138.802 97.256ZM155.834 97.256C154.042 97.256 152.506 96.7867 151.226 95.848C149.946 94.9093 149.072 93.6293 148.602 92.008C148.304 91.0053 148.154 89.9173 148.154 88.744C148.154 87.4853 148.304 86.3547 148.602 85.352C149.093 83.7733 149.978 82.536 151.258 81.64C152.538 80.744 154.074 80.296 155.866 80.296C157.616 80.296 159.109 80.744 160.346 81.64C161.584 82.5147 162.458 83.7413 162.97 85.32C163.312 86.3867 163.482 87.5067 163.482 88.68C163.482 89.832 163.333 90.9093 163.034 91.912C162.565 93.576 161.69 94.888 160.41 95.848C159.152 96.7867 157.626 97.256 155.834 97.256ZM155.834 93.384C156.538 93.384 157.136 93.1707 157.626 92.744C158.117 92.3173 158.469 91.7307 158.682 90.984C158.853 90.3013 158.938 89.5547 158.938 88.744C158.938 87.848 158.853 87.0907 158.682 86.472C158.448 85.7467 158.085 85.1813 157.594 84.776C157.104 84.3707 156.506 84.168 155.802 84.168C155.077 84.168 154.469 84.3707 153.978 84.776C153.509 85.1813 153.168 85.7467 152.954 86.472C152.784 86.984 152.698 87.7413 152.698 88.744C152.698 89.704 152.773 90.4507 152.922 90.984C153.136 91.7307 153.488 92.3173 153.978 92.744C154.49 93.1707 155.109 93.384 155.834 93.384ZM174.959 80.296C176.665 80.296 178.041 80.8187 179.087 81.864C180.132 82.9093 180.655 84.328 180.655 86.12V96.616C180.655 96.7227 180.612 96.8187 180.527 96.904C180.463 96.968 180.377 97 180.271 97H176.527C176.42 97 176.324 96.968 176.239 96.904C176.175 96.8187 176.143 96.7227 176.143 96.616V87.048C176.143 86.1947 175.897 85.5013 175.407 84.968C174.937 84.4347 174.308 84.168 173.519 84.168C172.729 84.168 172.089 84.4347 171.599 84.968C171.129 85.5013 170.895 86.1947 170.895 87.048V96.616C170.895 96.7227 170.852 96.8187 170.767 96.904C170.703 96.968 170.617 97 170.511 97H166.767C166.66 97 166.564 96.968 166.479 96.904C166.415 96.8187 166.383 96.7227 166.383 96.616V80.936C166.383 80.8293 166.415 80.744 166.479 80.68C166.564 80.5947 166.66 80.552 166.767 80.552H170.511C170.617 80.552 170.703 80.5947 170.767 80.68C170.852 80.744 170.895 80.8293 170.895 80.936V82.056C170.895 82.12 170.916 82.1627 170.959 82.184C171.001 82.2053 171.033 82.1947 171.055 82.152C171.929 80.9147 173.231 80.296 174.959 80.296ZM190.443 97.224C189.013 97.224 187.765 97.0213 186.699 96.616C185.632 96.2107 184.8 95.6453 184.203 94.92C183.627 94.1947 183.339 93.3733 183.339 92.456V92.136C183.339 92.0293 183.371 91.944 183.435 91.88C183.52 91.7947 183.616 91.752 183.723 91.752H187.275C187.381 91.752 187.467 91.7947 187.531 91.88C187.616 91.944 187.659 92.0293 187.659 92.136V92.168C187.659 92.6373 187.915 93.0427 188.427 93.384C188.96 93.704 189.621 93.864 190.411 93.864C191.136 93.864 191.723 93.7253 192.171 93.448C192.619 93.1493 192.843 92.7867 192.843 92.36C192.843 91.976 192.651 91.688 192.267 91.496C191.883 91.304 191.253 91.1013 190.379 90.888C189.376 90.632 188.587 90.3867 188.011 90.152C186.645 89.6827 185.557 89.1067 184.747 88.424C183.936 87.7413 183.531 86.76 183.531 85.48C183.531 83.9013 184.139 82.6533 185.355 81.736C186.592 80.7973 188.224 80.328 190.251 80.328C191.616 80.328 192.811 80.552 193.835 81C194.859 81.4267 195.648 82.0347 196.203 82.824C196.779 83.6133 197.067 84.5093 197.067 85.512C197.067 85.6187 197.024 85.7147 196.939 85.8C196.875 85.864 196.789 85.896 196.683 85.896H193.259C193.152 85.896 193.056 85.864 192.971 85.8C192.907 85.7147 192.875 85.6187 192.875 85.512C192.875 85.0427 192.629 84.648 192.139 84.328C191.669 84.008 191.04 83.848 190.251 83.848C189.547 83.848 188.971 83.976 188.523 84.232C188.075 84.488 187.851 84.84 187.851 85.288C187.851 85.7147 188.064 86.0347 188.491 86.248C188.939 86.4613 189.675 86.6853 190.699 86.92C190.933 86.984 191.2 87.0587 191.499 87.144C191.797 87.208 192.117 87.2933 192.459 87.4C193.973 87.848 195.168 88.424 196.043 89.128C196.917 89.832 197.355 90.856 197.355 92.2C197.355 93.7787 196.725 95.016 195.467 95.912C194.229 96.7867 192.555 97.224 190.443 97.224Z" fill="black"/>
<rect x="64.5" y="114.5" width="139" height="43" rx="4.5" stroke="#9747FF" stroke-dasharray="10 5"/>
<path d="M93.9228 126H76V128.624H93.9228V126Z" fill="#79D100"/>
<path d="M87.3837 130.341H76V132.965H87.3837V130.341Z" fill="#9ADC40"/>
<path d="M92.4469 134.687H76V137.311H92.4469V134.687Z" fill="#79D100"/>
<path d="M89.3652 139.027H76V141.652H89.3652V139.027Z" fill="#BCE880"/>
<path d="M96 143.376H76V146H96V143.376Z" fill="#79D100"/>
<path d="M130.588 129.682H128.112V144.844H130.588V129.682Z" fill="#9ADC40"/>
<path d="M137.718 142.318V127.156H136.171V142.318H137.718Z" fill="#79D100"/>
<path d="M140.812 136.312V133.156H139.265V136.312H140.812Z" fill="#79D100"/>
<path d="M143.912 137.896V131.578H142.365V137.896H143.912Z" fill="#79D100"/>
<path d="M132.141 129.682V139.792L134.618 142.318V127.156L132.141 129.682Z" fill="#9ADC40"/>
<path d="M126.565 129.682H124.088V139.792H126.565V129.682Z" fill="#BCE880"/>
<path d="M181.109 131.064H178.521V142.894H181.109V131.064Z" fill="#9ADC40"/>
<path d="M177.4 127.845H175.279V134.288H177.4V127.845Z" fill="#BCE880"/>
<path d="M173.83 132.482H172.194V136.094H173.83V132.482Z" fill="#BCE880"/>
<path d="M186.03 126.142H182.612V140.167H186.03V126.142Z" fill="#9ADC40"/>
<path d="M191.806 132.73H187.758V145.858H191.806V132.73Z" fill="#79D100"/>
<rect x="64.5" y="168.5" width="267" height="63" rx="4.5" stroke="#9747FF" stroke-dasharray="10 5"/>
<g clip-path="url(#clip0_18392_116495)">
<path d="M174.001 189.5H158C157.869 189.5 157.739 189.526 157.617 189.576C157.496 189.626 157.386 189.7 157.293 189.793C157.2 189.886 157.126 189.996 157.076 190.117C157.026 190.238 157 190.368 157 190.5V194.75L166.001 197.375L175.001 194.75V190.5C175.001 190.368 174.975 190.238 174.925 190.117C174.875 189.996 174.801 189.885 174.708 189.793C174.615 189.7 174.505 189.626 174.383 189.576C174.262 189.526 174.132 189.5 174.001 189.5Z" fill="#41A5EE"/>
<path d="M175.001 194.75H157V200L166.001 202.625L175.001 200V194.75Z" fill="#2B7CD3"/>
<path d="M175.001 200H157V205.25L166.001 207.876L175.001 205.251V200Z" fill="#185ABD"/>
<path d="M175.001 205.25H157V209.5C157 209.632 157.026 209.762 157.076 209.883C157.126 210.004 157.2 210.114 157.293 210.207C157.386 210.3 157.496 210.374 157.617 210.424C157.739 210.474 157.869 210.5 158 210.5H174.001C174.132 210.5 174.262 210.474 174.383 210.424C174.505 210.374 174.615 210.3 174.708 210.207C174.801 210.115 174.875 210.004 174.925 209.883C174.975 209.762 175.001 209.632 175.001 209.5V205.25Z" fill="#103F91"/>
<path opacity="0.1" d="M163.5 193.25H157V207.5H163.5C163.765 207.499 164.019 207.394 164.206 207.207C164.394 207.019 164.499 206.765 164.5 206.5V194.25C164.499 193.985 164.394 193.731 164.206 193.544C164.019 193.356 163.765 193.251 163.5 193.25Z" fill="black"/>
<path opacity="0.2" d="M162.75 194H157V208.25H162.75C163.015 208.25 163.269 208.144 163.457 207.957C163.644 207.77 163.75 207.516 163.75 207.251V195C163.75 194.735 163.644 194.481 163.457 194.294C163.269 194.106 163.015 194.001 162.75 194Z" fill="black"/>
<path opacity="0.2" d="M162.75 194H157V206.75H162.75C163.015 206.749 163.269 206.644 163.457 206.457C163.644 206.269 163.75 206.015 163.75 205.75V195C163.75 194.735 163.644 194.481 163.457 194.294C163.269 194.106 163.015 194.001 162.75 194Z" fill="black"/>
<path opacity="0.2" d="M162 194H157V206.75H162C162.265 206.749 162.519 206.644 162.707 206.456C162.894 206.269 162.999 206.015 163 205.75V195C162.999 194.735 162.894 194.481 162.707 194.294C162.519 194.107 162.265 194.001 162 194Z" fill="black"/>
<path d="M152 194H162C162.266 194 162.52 194.105 162.707 194.293C162.895 194.48 163 194.735 163 195V205.001C163 205.266 162.895 205.52 162.707 205.708C162.52 205.895 162.266 206 162 206H152C151.735 206 151.48 205.895 151.293 205.708C151.105 205.52 151 205.266 151 205.001V195C151 194.869 151.026 194.739 151.076 194.617C151.126 194.496 151.2 194.386 151.293 194.293C151.386 194.2 151.496 194.126 151.617 194.076C151.738 194.026 151.868 194 152 194Z" fill="#185ABD"/>
<path d="M159.963 203.75H158.613L157.038 198.575L155.388 203.75H154.038L152.538 196.25H153.888L154.938 201.5L156.513 196.4H157.638L159.138 201.5L160.188 196.25H161.461L159.963 203.75Z" fill="white"/>
</g>
<g clip-path="url(#clip1_18392_116495)">
<path d="M237 189.5H229C228.735 189.5 228.48 189.605 228.293 189.793C228.105 189.98 228 190.234 228 190.499V194.749L237 199.999L241.5 201.898L245.999 199.999V194.749L237 189.5Z" fill="#21A366"/>
<path d="M228 194.75H237V200H228V194.75Z" fill="#107C41"/>
<path d="M245 189.5H237V194.749H245.999V190.499C245.999 190.234 245.894 189.98 245.707 189.793C245.519 189.605 245.265 189.5 245 189.5Z" fill="#33C481"/>
<path d="M237 200H228V209.5C228 209.631 228.026 209.761 228.076 209.883C228.126 210.004 228.2 210.114 228.293 210.207C228.386 210.3 228.496 210.373 228.617 210.424C228.739 210.474 228.869 210.5 229 210.5H245C245.132 210.5 245.262 210.474 245.383 210.424C245.504 210.373 245.614 210.3 245.707 210.207C245.8 210.114 245.874 210.004 245.924 209.883C245.974 209.761 246 209.631 246 209.5V205.249L237 200Z" fill="#185C37"/>
<path d="M237 200H245.999V205.249H237V200Z" fill="#107C41"/>
<path opacity="0.1" d="M234.499 193.25H228V207.5H234.499C234.764 207.499 235.018 207.394 235.205 207.207C235.393 207.02 235.499 206.766 235.5 206.501V194.249C235.499 193.984 235.393 193.73 235.206 193.543C235.018 193.356 234.764 193.25 234.499 193.25Z" fill="black"/>
<path opacity="0.2" d="M233.75 194H228V208.25H233.75C234.015 208.249 234.269 208.144 234.456 207.957C234.643 207.77 234.749 207.516 234.75 207.251V195C234.749 194.735 234.644 194.481 234.456 194.294C234.269 194.107 234.015 194.001 233.75 194Z" fill="black"/>
<path opacity="0.2" d="M233.75 194H228V206.75H233.75C234.015 206.749 234.269 206.643 234.456 206.456C234.644 206.269 234.749 206.015 234.75 205.75V195C234.749 194.735 234.644 194.481 234.456 194.294C234.269 194.107 234.015 194.001 233.75 194Z" fill="black"/>
<path opacity="0.2" d="M233.001 194H228V206.75H233.001C233.265 206.749 233.519 206.643 233.707 206.456C233.894 206.269 233.999 206.015 234 205.75V195C233.999 194.735 233.894 194.481 233.707 194.294C233.519 194.107 233.265 194.001 233.001 194Z" fill="black"/>
<path d="M223 194H233.002C233.267 194 233.521 194.105 233.708 194.293C233.896 194.48 234.001 194.735 234.001 195V205.002C234.001 205.267 233.896 205.521 233.708 205.709C233.521 205.896 233.267 206.001 233.002 206.001H223C222.868 206.001 222.738 205.975 222.617 205.925C222.495 205.875 222.385 205.801 222.292 205.708C222.199 205.615 222.126 205.505 222.076 205.383C222.026 205.262 222 205.132 222 205V195C222 194.735 222.105 194.48 222.293 194.293C222.48 194.105 222.735 194 223 194Z" fill="#107C41"/>
<path d="M224.65 203.75L227.077 199.989L224.854 196.25H226.642L227.856 198.64C227.967 198.866 228.044 199.036 228.086 199.148H228.102C228.182 198.967 228.266 198.791 228.353 198.62L229.65 196.25H231.292L229.012 199.968L231.347 203.75H229.602L228.2 201.124C228.134 201.012 228.078 200.895 228.033 200.773H228.012C227.971 200.892 227.917 201.006 227.85 201.113L226.41 203.75H224.65Z" fill="white"/>
</g>
<path d="M103.5 211.625H88.5C87.4661 211.625 86.625 210.784 86.625 209.75V190.25C86.625 189.216 87.4661 188.375 88.5 188.375H96.1288C96.3751 188.374 96.6191 188.423 96.8466 188.517C97.0742 188.611 97.2808 188.75 97.4544 188.924L104.826 196.296C105 196.469 105.139 196.676 105.233 196.903C105.327 197.131 105.376 197.375 105.375 197.621V209.75C105.375 210.784 104.534 211.625 103.5 211.625ZM88.5 189.125C87.8796 189.125 87.375 189.63 87.375 190.25V209.75C87.375 210.37 87.8796 210.875 88.5 210.875H103.5C104.12 210.875 104.625 210.37 104.625 209.75V197.621C104.624 197.323 104.506 197.037 104.296 196.826L96.9242 189.454C96.82 189.35 96.696 189.267 96.5595 189.21C96.423 189.154 96.2766 189.125 96.1288 189.125H88.5Z" fill="#FD4233"/>
<path d="M101.852 203.06C101.839 202.964 101.762 202.844 101.679 202.764C101.443 202.531 100.924 202.409 100.133 202.398C99.5963 202.393 98.9513 202.439 98.2725 202.535C97.9688 202.361 97.6557 202.169 97.41 201.939C96.7482 201.322 96.1969 200.465 95.8519 199.522C95.8744 199.434 95.8932 199.357 95.9119 199.278C95.9119 199.278 96.2832 197.163 96.1857 196.447C96.1725 196.349 96.1632 196.321 96.1369 196.244L96.105 196.162C96.0038 195.927 95.805 195.68 95.4938 195.693L95.31 195.688H95.3063C94.9575 195.688 94.6763 195.866 94.6013 196.13C94.3763 196.963 94.6088 198.209 95.0307 199.822L94.9219 200.084C94.62 200.823 94.2413 201.566 93.9075 202.22L93.8644 202.304C93.5119 202.993 93.1932 203.578 92.9025 204.073L92.6044 204.23C92.5819 204.241 92.07 204.513 91.95 204.584C90.9319 205.194 90.2569 205.884 90.1444 206.431C90.1088 206.608 90.135 206.831 90.3169 206.934L90.6057 207.08C90.7313 207.142 90.8644 207.174 90.9994 207.174C91.725 207.174 92.5669 206.27 93.7275 204.245C95.0663 203.81 96.5925 203.446 97.9294 203.248C98.9475 203.819 100.2 204.219 100.991 204.219C101.132 204.219 101.254 204.206 101.351 204.179C101.503 204.138 101.631 204.052 101.709 203.936C101.863 203.705 101.893 203.386 101.852 203.06ZM90.8419 206.624C90.9732 206.263 91.4982 205.546 92.2725 204.913C92.3213 204.873 92.4413 204.761 92.55 204.656C91.74 205.948 91.1982 206.461 90.8419 206.624ZM95.4282 196.063C95.6607 196.063 95.7938 196.649 95.805 197.201C95.8163 197.752 95.6869 198.138 95.5275 198.425C95.3944 198.001 95.3307 197.334 95.3307 196.897C95.3307 196.897 95.3213 196.063 95.4282 196.063ZM94.0594 203.589C94.2225 203.298 94.3913 202.991 94.5638 202.666C94.9857 201.869 95.2519 201.247 95.4488 200.735C95.8425 201.451 96.3338 202.061 96.9094 202.548C96.9825 202.608 97.0594 202.67 97.1382 202.732C95.9663 202.963 94.9519 203.246 94.0594 203.589ZM101.453 203.523C101.381 203.566 101.177 203.593 101.046 203.593C100.622 203.593 100.095 203.399 99.3582 203.083C99.6413 203.062 99.9019 203.051 100.134 203.051C100.56 203.051 100.686 203.049 101.104 203.156C101.52 203.263 101.526 203.478 101.453 203.523Z" fill="#FF402F"/>
<g clip-path="url(#clip2_18392_116495)">
<path d="M306.5 189.5C303.718 189.508 301.052 190.617 299.084 192.584C297.117 194.552 296.008 197.218 296 200L309.303 202.802L306.5 189.5Z" fill="#ED6C47"/>
<path d="M306.5 189.5C309.282 189.508 311.948 190.617 313.916 192.584C315.883 194.552 316.992 197.218 317 200L311.75 203.568L306.5 200V189.5Z" fill="#FF8F6B"/>
<path d="M306.5 210.5C309.283 210.492 311.949 209.383 313.916 207.416C315.883 205.448 316.992 202.782 317 200H296C296.008 202.782 297.117 205.448 299.084 207.416C301.052 209.383 303.718 210.492 306.5 210.5Z" fill="#D35230"/>
<path opacity="0.1" d="M305.501 193.25H298.479C296.765 195.27 295.883 197.866 296.013 200.513C296.142 203.159 297.274 205.657 299.177 207.5H305.501C305.766 207.499 306.02 207.393 306.207 207.206C306.395 207.019 306.501 206.765 306.501 206.5V194.25C306.501 193.985 306.395 193.731 306.207 193.543C306.02 193.356 305.766 193.251 305.501 193.25Z" fill="black"/>
<path opacity="0.2" d="M304.75 194H297.905C296.36 196.193 295.719 198.898 296.116 201.552C296.514 204.206 297.919 206.605 300.039 208.249H304.751C305.015 208.249 305.269 208.143 305.456 207.956C305.643 207.769 305.749 207.515 305.75 207.25V195C305.749 194.735 305.643 194.481 305.456 194.293C305.269 194.106 305.015 194 304.75 194Z" fill="black"/>
<path opacity="0.2" d="M304.75 194H297.905C296.572 195.888 295.905 198.166 296.01 200.474C296.114 202.783 296.982 204.992 298.479 206.752H304.75C305.015 206.751 305.269 206.646 305.456 206.458C305.644 206.271 305.749 206.017 305.75 205.752V195C305.749 194.735 305.643 194.481 305.456 194.293C305.269 194.106 305.015 194 304.75 194Z" fill="black"/>
<path opacity="0.2" d="M304 194H297.903C296.571 195.888 295.904 198.166 296.009 200.475C296.113 202.783 296.982 204.992 298.48 206.752H304C304.265 206.751 304.519 206.646 304.706 206.458C304.894 206.271 304.999 206.017 305 205.752V195C304.999 194.735 304.894 194.481 304.706 194.293C304.519 194.106 304.265 194 304 194Z" fill="black"/>
<path d="M294 194H304C304.265 194 304.52 194.105 304.707 194.293C304.895 194.48 305 194.734 305 195V205C305 205.265 304.895 205.519 304.707 205.707C304.52 205.894 304.265 206 304 206H294C293.735 206 293.48 205.894 293.293 205.707C293.105 205.519 293 205.265 293 205V195C293 194.734 293.105 194.48 293.293 194.293C293.48 194.105 293.735 194 294 194Z" fill="#C43E1C"/>
<path d="M298.998 196.247C299.736 196.198 300.468 196.412 301.064 196.851C301.308 197.069 301.5 197.34 301.624 197.643C301.748 197.945 301.802 198.273 301.781 198.599C301.789 199.024 301.665 199.44 301.425 199.79C301.183 200.178 300.834 200.488 300.42 200.682C299.946 200.903 299.428 201.011 298.905 201H297.471V203.75H296V196.247H298.998ZM297.47 199.762H298.735C299.136 199.791 299.533 199.673 299.853 199.429C299.98 199.347 300.082 199.232 300.149 199.097C300.215 198.961 300.244 198.81 300.231 198.659C300.231 197.83 299.748 197.415 298.781 197.415H297.47V199.762Z" fill="#F9F7F7"/>
</g>
<defs>
<clipPath id="clip0_18392_116495">
<rect width="24" height="24" fill="white" transform="translate(151 188)"/>
</clipPath>
<clipPath id="clip1_18392_116495">
<rect width="24" height="24" fill="white" transform="translate(222 188)"/>
</clipPath>
<clipPath id="clip2_18392_116495">
<rect width="24" height="24" fill="white" transform="translate(293 188)"/>
</clipPath>
</defs>
</svg>
