<svg width="734" height="457" viewBox="0 0 734 457" fill="none" xmlns="http://www.w3.org/2000/svg">
<rect width="734" height="457" fill="white"/>
<path d="M77.856 74.984C77.856 74.8773 77.888 74.792 77.952 74.728C78.0373 74.6427 78.1333 74.6 78.24 74.6H81.984C82.0907 74.6 82.176 74.6427 82.24 74.728C82.3253 74.792 82.368 74.8773 82.368 74.984V96.616C82.368 96.7227 82.3253 96.8187 82.24 96.904C82.176 96.968 82.0907 97 81.984 97H78.24C78.1333 97 78.0373 96.968 77.952 96.904C77.888 96.8187 77.856 96.7227 77.856 96.616V87.784C77.856 87.6773 77.8027 87.624 77.696 87.624H70.624C70.5173 87.624 70.464 87.6773 70.464 87.784V96.616C70.464 96.7227 70.4213 96.8187 70.336 96.904C70.272 96.968 70.1867 97 70.08 97H66.336C66.2293 97 66.1333 96.968 66.048 96.904C65.984 96.8187 65.952 96.7227 65.952 96.616V74.984C65.952 74.8773 65.984 74.792 66.048 74.728C66.1333 74.6427 66.2293 74.6 66.336 74.6H70.08C70.1867 74.6 70.272 74.6427 70.336 74.728C70.4213 74.792 70.464 74.8773 70.464 74.984V83.592C70.464 83.6987 70.5173 83.752 70.624 83.752H77.696C77.8027 83.752 77.856 83.6987 77.856 83.592V74.984ZM93.0218 97.256C91.2298 97.256 89.6938 96.7867 88.4138 95.848C87.1338 94.9093 86.2591 93.6293 85.7898 92.008C85.4911 91.0053 85.3418 89.9173 85.3418 88.744C85.3418 87.4853 85.4911 86.3547 85.7898 85.352C86.2804 83.7733 87.1658 82.536 88.4458 81.64C89.7258 80.744 91.2618 80.296 93.0538 80.296C94.8031 80.296 96.2964 80.744 97.5338 81.64C98.7711 82.5147 99.6458 83.7413 100.158 85.32C100.499 86.3867 100.67 87.5067 100.67 88.68C100.67 89.832 100.52 90.9093 100.222 91.912C99.7524 93.576 98.8778 94.888 97.5978 95.848C96.3391 96.7867 94.8138 97.256 93.0218 97.256ZM93.0218 93.384C93.7258 93.384 94.3231 93.1707 94.8138 92.744C95.3044 92.3173 95.6564 91.7307 95.8698 90.984C96.0404 90.3013 96.1258 89.5547 96.1258 88.744C96.1258 87.848 96.0404 87.0907 95.8698 86.472C95.6351 85.7467 95.2724 85.1813 94.7818 84.776C94.2911 84.3707 93.6938 84.168 92.9898 84.168C92.2644 84.168 91.6564 84.3707 91.1658 84.776C90.6964 85.1813 90.3551 85.7467 90.1418 86.472C89.9711 86.984 89.8858 87.7413 89.8858 88.744C89.8858 89.704 89.9604 90.4507 90.1098 90.984C90.3231 91.7307 90.6751 92.3173 91.1658 92.744C91.6778 93.1707 92.2964 93.384 93.0218 93.384ZM121.81 80.296C123.474 80.296 124.776 80.7973 125.714 81.8C126.653 82.8027 127.122 84.2107 127.122 86.024V96.616C127.122 96.7227 127.08 96.8187 126.994 96.904C126.93 96.968 126.845 97 126.738 97H122.994C122.888 97 122.792 96.968 122.706 96.904C122.642 96.8187 122.61 96.7227 122.61 96.616V87.016C122.61 86.1413 122.386 85.448 121.938 84.936C121.49 84.424 120.893 84.168 120.146 84.168C119.4 84.168 118.792 84.424 118.322 84.936C117.853 85.448 117.618 86.1307 117.618 86.984V96.616C117.618 96.7227 117.576 96.8187 117.49 96.904C117.426 96.968 117.341 97 117.234 97H113.522C113.416 97 113.32 96.968 113.234 96.904C113.17 96.8187 113.138 96.7227 113.138 96.616V87.016C113.138 86.1627 112.904 85.48 112.434 84.968C111.965 84.4347 111.357 84.168 110.61 84.168C109.928 84.168 109.352 84.3707 108.882 84.776C108.434 85.1813 108.168 85.7467 108.082 86.472V96.616C108.082 96.7227 108.04 96.8187 107.954 96.904C107.89 96.968 107.805 97 107.698 97H103.954C103.848 97 103.752 96.968 103.666 96.904C103.602 96.8187 103.57 96.7227 103.57 96.616V80.936C103.57 80.8293 103.602 80.744 103.666 80.68C103.752 80.5947 103.848 80.552 103.954 80.552H107.698C107.805 80.552 107.89 80.5947 107.954 80.68C108.04 80.744 108.082 80.8293 108.082 80.936V82.184C108.082 82.248 108.104 82.2907 108.146 82.312C108.189 82.3333 108.232 82.312 108.274 82.248C109.149 80.9467 110.504 80.296 112.338 80.296C113.405 80.296 114.333 80.52 115.122 80.968C115.933 81.416 116.552 82.056 116.978 82.888C117.042 83.016 117.117 83.016 117.202 82.888C117.672 82.0133 118.301 81.3627 119.09 80.936C119.901 80.5093 120.808 80.296 121.81 80.296ZM144.755 87.08C144.883 87.8907 144.926 88.7973 144.883 89.8C144.862 90.056 144.723 90.184 144.467 90.184H134.579C134.451 90.184 134.409 90.2373 134.451 90.344C134.515 90.7707 134.633 91.1973 134.803 91.624C135.358 92.8187 136.489 93.416 138.195 93.416C139.561 93.3947 140.638 92.84 141.427 91.752C141.513 91.624 141.609 91.56 141.715 91.56C141.779 91.56 141.854 91.6027 141.939 91.688L144.243 93.96C144.35 94.0667 144.403 94.1627 144.403 94.248C144.403 94.2907 144.361 94.376 144.275 94.504C143.571 95.3787 142.665 96.0613 141.555 96.552C140.446 97.0213 139.23 97.256 137.907 97.256C136.073 97.256 134.515 96.84 133.235 96.008C131.977 95.176 131.07 94.0133 130.515 92.52C130.067 91.4533 129.843 90.056 129.843 88.328C129.843 87.1547 130.003 86.12 130.323 85.224C130.814 83.7093 131.667 82.504 132.883 81.608C134.121 80.712 135.582 80.264 137.267 80.264C139.401 80.264 141.107 80.8827 142.387 82.12C143.689 83.3573 144.478 85.0107 144.755 87.08ZM137.299 84.168C135.955 84.168 135.07 84.7973 134.643 86.056C134.558 86.3333 134.483 86.6747 134.419 87.08C134.419 87.1867 134.473 87.24 134.579 87.24H140.115C140.243 87.24 140.286 87.1867 140.243 87.08C140.137 86.4613 140.083 86.1627 140.083 86.184C139.891 85.544 139.55 85.0533 139.059 84.712C138.59 84.3493 138.003 84.168 137.299 84.168ZM162.352 84.968C162.736 86.056 162.928 87.336 162.928 88.808C162.928 90.28 162.725 91.6133 162.32 92.808C161.829 94.1733 161.051 95.2613 159.984 96.072C158.939 96.8613 157.637 97.256 156.08 97.256C154.544 97.256 153.349 96.7227 152.496 95.656C152.453 95.592 152.411 95.5707 152.368 95.592C152.325 95.6133 152.304 95.656 152.304 95.72V102.568C152.304 102.675 152.261 102.76 152.176 102.824C152.112 102.909 152.027 102.952 151.92 102.952H148.176C148.069 102.952 147.973 102.909 147.888 102.824C147.824 102.76 147.792 102.675 147.792 102.568V80.936C147.792 80.8293 147.824 80.744 147.888 80.68C147.973 80.5947 148.069 80.552 148.176 80.552H151.92C152.027 80.552 152.112 80.5947 152.176 80.68C152.261 80.744 152.304 80.8293 152.304 80.936V81.992C152.304 82.056 152.325 82.0987 152.368 82.12C152.411 82.12 152.453 82.0987 152.496 82.056C153.392 80.8827 154.629 80.296 156.208 80.296C157.68 80.296 158.949 80.712 160.016 81.544C161.104 82.3547 161.883 83.496 162.352 84.968ZM157.456 92.136C157.989 91.304 158.256 90.1733 158.256 88.744C158.256 87.4 158.032 86.3333 157.584 85.544C157.093 84.6267 156.304 84.168 155.216 84.168C154.235 84.168 153.499 84.6267 153.008 85.544C152.56 86.312 152.336 87.3893 152.336 88.776C152.336 90.2053 152.571 91.3147 153.04 92.104C153.531 92.9573 154.256 93.384 155.216 93.384C156.176 93.384 156.923 92.968 157.456 92.136ZM172.411 80.296C173.798 80.296 175.036 80.5413 176.124 81.032C177.212 81.5013 178.054 82.152 178.652 82.984C179.27 83.816 179.58 84.744 179.58 85.768V96.616C179.58 96.7227 179.537 96.8187 179.452 96.904C179.388 96.968 179.302 97 179.196 97H175.452C175.345 97 175.249 96.968 175.164 96.904C175.1 96.8187 175.068 96.7227 175.068 96.616V95.56C175.068 95.496 175.046 95.4533 175.004 95.432C174.961 95.4107 174.918 95.432 174.876 95.496C173.98 96.6693 172.54 97.256 170.556 97.256C168.892 97.256 167.548 96.8507 166.524 96.04C165.5 95.2293 164.988 94.0347 164.988 92.456C164.988 90.8133 165.564 89.544 166.716 88.648C167.868 87.7307 169.51 87.272 171.644 87.272H174.908C175.014 87.272 175.068 87.2187 175.068 87.112V86.408C175.068 85.704 174.854 85.16 174.428 84.776C174.001 84.3707 173.361 84.168 172.508 84.168C171.846 84.168 171.292 84.2853 170.844 84.52C170.417 84.7547 170.14 85.0853 170.012 85.512C169.948 85.7467 169.809 85.8533 169.596 85.832L165.724 85.32C165.468 85.2773 165.35 85.1813 165.372 85.032C165.457 84.136 165.809 83.3253 166.428 82.6C167.068 81.8747 167.9 81.3093 168.924 80.904C169.969 80.4987 171.132 80.296 172.411 80.296ZM171.772 93.896C172.689 93.896 173.468 93.6507 174.108 93.16C174.748 92.6693 175.068 92.04 175.068 91.272V90.12C175.068 90.0133 175.014 89.96 174.908 89.96H172.604C171.644 89.96 170.886 90.1413 170.332 90.504C169.798 90.8667 169.532 91.3787 169.532 92.04C169.532 92.616 169.734 93.0747 170.14 93.416C170.545 93.736 171.089 93.896 171.772 93.896ZM192.806 80.936C192.806 80.8293 192.838 80.744 192.902 80.68C192.987 80.5947 193.083 80.552 193.19 80.552H196.934C197.04 80.552 197.126 80.5947 197.19 80.68C197.275 80.744 197.318 80.8293 197.318 80.936V95.528C197.318 98.3227 196.507 100.317 194.886 101.512C193.286 102.707 191.216 103.304 188.678 103.304C187.931 103.304 187.099 103.251 186.182 103.144C185.968 103.123 185.862 102.984 185.862 102.728L185.99 99.432C185.99 99.1547 186.139 99.0373 186.438 99.08C187.206 99.208 187.91 99.272 188.55 99.272C189.915 99.272 190.96 98.9733 191.686 98.376C192.432 97.7787 192.806 96.8187 192.806 95.496C192.806 95.432 192.784 95.4 192.742 95.4C192.699 95.3787 192.656 95.3893 192.614 95.432C191.803 96.3067 190.619 96.744 189.062 96.744C187.675 96.744 186.395 96.4133 185.222 95.752C184.07 95.0693 183.248 93.9813 182.758 92.488C182.438 91.5067 182.278 90.2373 182.278 88.68C182.278 87.016 182.47 85.6613 182.854 84.616C183.302 83.3147 184.059 82.2693 185.126 81.48C186.192 80.6907 187.43 80.296 188.838 80.296C190.48 80.296 191.739 80.7867 192.614 81.768C192.656 81.8107 192.699 81.832 192.742 81.832C192.784 81.8107 192.806 81.768 192.806 81.704V80.936ZM192.55 91.272C192.72 90.632 192.806 89.7573 192.806 88.648C192.806 87.9867 192.784 87.4747 192.742 87.112C192.699 86.7493 192.624 86.408 192.518 86.088C192.326 85.512 192.006 85.0533 191.558 84.712C191.11 84.3493 190.555 84.168 189.894 84.168C189.254 84.168 188.71 84.3493 188.262 84.712C187.814 85.0533 187.483 85.512 187.27 86.088C186.971 86.728 186.822 87.592 186.822 88.68C186.822 89.8747 186.95 90.728 187.206 91.24C187.398 91.816 187.728 92.2853 188.198 92.648C188.688 92.9893 189.264 93.16 189.926 93.16C190.608 93.16 191.174 92.9893 191.622 92.648C192.07 92.2853 192.379 91.8267 192.55 91.272ZM215.099 87.08C215.227 87.8907 215.27 88.7973 215.227 89.8C215.206 90.056 215.067 90.184 214.811 90.184H204.923C204.795 90.184 204.752 90.2373 204.795 90.344C204.859 90.7707 204.976 91.1973 205.147 91.624C205.702 92.8187 206.832 93.416 208.539 93.416C209.904 93.3947 210.982 92.84 211.771 91.752C211.856 91.624 211.952 91.56 212.059 91.56C212.123 91.56 212.198 91.6027 212.283 91.688L214.587 93.96C214.694 94.0667 214.747 94.1627 214.747 94.248C214.747 94.2907 214.704 94.376 214.619 94.504C213.915 95.3787 213.008 96.0613 211.899 96.552C210.79 97.0213 209.574 97.256 208.251 97.256C206.416 97.256 204.859 96.84 203.579 96.008C202.32 95.176 201.414 94.0133 200.859 92.52C200.411 91.4533 200.187 90.056 200.187 88.328C200.187 87.1547 200.347 86.12 200.667 85.224C201.158 83.7093 202.011 82.504 203.227 81.608C204.464 80.712 205.926 80.264 207.611 80.264C209.744 80.264 211.451 80.8827 212.731 82.12C214.032 83.3573 214.822 85.0107 215.099 87.08ZM207.643 84.168C206.299 84.168 205.414 84.7973 204.987 86.056C204.902 86.3333 204.827 86.6747 204.763 87.08C204.763 87.1867 204.816 87.24 204.923 87.24H210.459C210.587 87.24 210.63 87.1867 210.587 87.08C210.48 86.4613 210.427 86.1627 210.427 86.184C210.235 85.544 209.894 85.0533 209.403 84.712C208.934 84.3493 208.347 84.168 207.643 84.168Z" fill="black"/>
<rect x="64.5" y="144.5" width="63" height="107" rx="4.5" stroke="#9747FF" stroke-dasharray="10 5"/>
<path d="M103 167H89C87.9 167 87 167.9 87 169V183C87 184.1 87.9 185 89 185H103C104.1 185 105 184.1 105 183V169C105 167.9 104.1 167 103 167ZM103 183H89V169H103V183ZM91 174H93V181H91V174ZM95 171H97V181H95V171ZM99 177H101V181H99V177Z" fill="#006158"/>
<g clip-path="url(#clip0_20770_31)">
<path d="M103 211H89C87.9 211 87 211.9 87 213V227C87 228.1 87.9 229 89 229H103C104.1 229 105 228.1 105 227V213C105 211.9 104.1 211 103 211ZM103 227H89V213H103V227ZM91 218H93V225H91V218ZM95 215H97V225H95V215ZM99 221H101V225H99V221Z" fill="white"/>
<path d="M103 211H89C87.9 211 87 211.9 87 213V227C87 228.1 87.9 229 89 229H103C104.1 229 105 228.1 105 227V213C105 211.9 104.1 211 103 211ZM93 225H91V218H93V225ZM97 225H95V215H97V225ZM101 225H99V221H101V225Z" fill="#006158"/>
</g>
<rect x="164.5" y="144.5" width="63" height="107" rx="4.5" stroke="#9747FF" stroke-dasharray="10 5"/>
<path d="M206 173V171H204V173H202V175H204V177H206V175H208V173H206Z" fill="#006158"/>
<path d="M192 176C194.21 176 196 174.21 196 172C196 169.79 194.21 168 192 168C189.79 168 188 169.79 188 172C188 174.21 189.79 176 192 176ZM192 170C193.1 170 194 170.9 194 172C194 173.1 193.1 174 192 174C190.9 174 190 173.1 190 172C190 170.9 190.9 170 192 170Z" fill="#006158"/>
<path d="M192 177C189.33 177 184 178.34 184 181V184H200V181C200 178.34 194.67 177 192 177ZM198 182H186V181.01C186.2 180.29 189.3 179 192 179C194.7 179 197.8 180.29 198 181V182Z" fill="#006158"/>
<path d="M196.51 168.05C197.43 169.11 198 170.49 198 172C198 173.51 197.43 174.89 196.51 175.95C198.47 175.7 200 174.04 200 172C200 169.96 198.47 168.3 196.51 168.05Z" fill="#006158"/>
<path d="M200.53 177.83C201.42 178.66 202 179.7 202 181V184H204V181C204 179.55 202.41 178.49 200.53 177.83Z" fill="#006158"/>
<g clip-path="url(#clip1_20770_31)">
<path d="M206 217V215H204V217H202V219H204V221H206V219H208V217H206Z" fill="#006158"/>
<path d="M192 220C194.21 220 196 218.21 196 216C196 213.79 194.21 212 192 212C189.79 212 188 213.79 188 216C188 218.21 189.79 220 192 220ZM192 214C193.1 214 194 214.9 194 216C194 217.1 193.1 218 192 218C190.9 218 190 217.1 190 216C190 214.9 190.9 214 192 214Z" fill="#006158"/>
<path d="M192 221C189.33 221 184 222.34 184 225V228H200V225C200 222.34 194.67 221 192 221ZM198 226H186V225.01C186.2 224.29 189.3 223 192 223C194.7 223 197.8 224.29 198 225V226Z" fill="#006158"/>
<path d="M196.51 212.05C197.43 213.11 198 214.49 198 216C198 217.51 197.43 218.89 196.51 219.95C198.47 219.7 200 218.04 200 216C200 213.96 198.47 212.3 196.51 212.05Z" fill="#006158"/>
<path d="M200.53 221.83C201.42 222.66 202 223.7 202 225V228H204V225C204 223.55 202.41 222.49 200.53 221.83Z" fill="#006158"/>
<path d="M206 217V215H204V217H202V219H204V221H206V219H208V217H206Z" fill="#006158"/>
<path d="M192 220C194.21 220 196 218.21 196 216C196 213.79 194.21 212 192 212C189.79 212 188 213.79 188 216C188 218.21 189.79 220 192 220Z" fill="#006158"/>
<path d="M192 221C189.33 221 184 222.34 184 225V228H200V225C200 222.34 194.67 221 192 221Z" fill="#006158"/>
<path d="M196.51 212.05C197.43 213.11 198 214.49 198 216C198 217.51 197.43 218.89 196.51 219.95C198.47 219.7 200 218.04 200 216C200 213.96 198.47 212.3 196.51 212.05Z" fill="#006158"/>
<path d="M200.53 221.83C201.42 222.66 202 223.7 202 225V228H204V225C204 223.55 202.41 222.49 200.53 221.83Z" fill="#006158"/>
</g>
<rect x="264.5" y="136.5" width="63" height="115" rx="4.5" stroke="#9747FF" stroke-dasharray="10 5"/>
<path d="M301 214C301.34 214 301.67 214.04 302 214.09V209.27L294.5 206L287 209.27V214.18C287 218.72 290.2 222.97 294.5 224C295.05 223.87 295.58 223.68 296.1 223.45C295.41 222.47 295 221.28 295 220C295 216.69 297.69 214 301 214Z" fill="#006158"/>
<path d="M301 216C298.79 216 297 217.79 297 220C297 222.21 298.79 224 301 224C303.21 224 305 222.21 305 220C305 217.79 303.21 216 301 216ZM301 217.38C301.62 217.38 302.12 217.89 302.12 218.5C302.12 219.11 301.61 219.62 301 219.62C300.39 219.62 299.88 219.11 299.88 218.5C299.88 217.89 300.38 217.38 301 217.38ZM301 222.75C300.07 222.75 299.26 222.29 298.76 221.58C298.81 220.86 300.27 220.5 301 220.5C301.73 220.5 303.19 220.86 303.24 221.58C302.74 222.29 301.93 222.75 301 222.75Z" fill="#006158"/>
<path d="M300 174.62C300.619 174.62 301.12 174.119 301.12 173.5C301.12 172.881 300.619 172.38 300 172.38C299.381 172.38 298.88 172.881 298.88 173.5C298.88 174.119 299.381 174.62 300 174.62Z" fill="#006158"/>
<path fill-rule="evenodd" clip-rule="evenodd" d="M300 175.5C299.27 175.5 297.81 175.86 297.76 176.58C298.26 177.29 299.08 177.75 300 177.75C300.92 177.75 301.74 177.29 302.24 176.58C302.19 175.86 300.73 175.5 300 175.5Z" fill="#006158"/>
<path fill-rule="evenodd" clip-rule="evenodd" d="M301 169.09V164.27L293.5 161L286 164.27V169.18C286 173.72 289.2 177.97 293.5 179C294.05 178.87 294.58 178.68 295.1 178.45C296.18 179.99 297.97 181 300 181C303.31 181 306 178.31 306 175C306 172.03 303.84 169.57 301 169.09ZM294 175C294 175.56 294.08 176.11 294.23 176.62C293.99 176.73 293.75 176.84 293.5 176.92C290.33 175.92 288 172.68 288 169.18V165.58L293.5 163.18L299 165.58V169.09C296.16 169.57 294 172.03 294 175ZM300 179C297.79 179 296 177.21 296 175C296 172.79 297.79 171 300 171C302.21 171 304 172.79 304 175C304 177.21 302.21 179 300 179Z" fill="#006158"/>
<rect x="364.5" y="137.5" width="63" height="114" rx="4.5" stroke="#9747FF" stroke-dasharray="10 5"/>
<path d="M391 168H389V175H391V168ZM397 168H395V175H397V168ZM405.5 177H386.5V179H405.5V177ZM403 168H401V175H403V168ZM396 161.26L401.21 164H390.79L396 161.26ZM396 159L386.5 164V166H405.5V164L396 159Z" fill="#006158"/>
<path d="M391 218.5H388V225.5H391V218.5Z" fill="#006158"/>
<path d="M397.5 218.5H394.5V225.5H397.5V218.5Z" fill="#006158"/>
<path d="M406 227.5H386V230.5H406V227.5Z" fill="#006158"/>
<path d="M404 218.5H401V225.5H404V218.5Z" fill="#006158"/>
<path d="M396 209.5L386 214.5V216.5H406V214.5L396 209.5Z" fill="#006158"/>
<rect x="464.5" y="137.5" width="63" height="114" rx="4.5" stroke="#9747FF" stroke-dasharray="10 5"/>
<path d="M496.315 209.82H488.315C487.215 209.82 486.315 210.72 486.315 211.82V227.82C486.315 228.92 487.205 229.82 488.305 229.82H497.315V221.82H502.315V215.82L496.315 209.82ZM495.315 216.82V211.32L500.815 216.82H495.315ZM499.315 229.48V223.82H504.975V225.82H502.735L505.685 228.77L504.275 230.18L501.315 227.23V229.47H499.315V229.48Z" fill="#006158"/>
<path d="M497.32 178.815H488.32C487.22 178.815 486.32 177.915 486.32 176.815V160.815C486.32 159.715 487.22 158.815 488.32 158.815H496.32L502.32 164.815V170.815H500.32V165.815H495.32V160.815H488.32V176.815H497.32V178.815ZM501.32 178.475V176.235L504.27 179.185L505.68 177.775L502.73 174.815H504.97V172.815H499.32V178.475H501.32Z" fill="#006158"/>
<rect x="564.5" y="137.5" width="63" height="114" rx="4.5" stroke="#9747FF" stroke-dasharray="10 5"/>
<path d="M601 164.5L596 160.5L591 167.5L587 164.5V177.5H605V164.5H601ZM603 174.45L596 169L592 174.5L589 172.1V168.5L591.44 170.33L596.4 163.38L600.3 166.5H603V174.45Z" fill="#006158"/>
<path d="M587 221.5V228.5H605V227L596 220L592 225.5L587 221.5ZM587 215.5L591 218.5L596 211.5L601 215.5H605V224.47L595.6 217.16L591.62 222.64L587 218.94V215.5Z" fill="#006158"/>
<path d="M67 297H69V295H67V297ZM67 301H69V299H67V301ZM67 293H69V291H67V293ZM71 297H85V295H71V297ZM71 301H85V299H71V301ZM71 291V293H85V291H71ZM67 297H69V295H67V297ZM67 301H69V299H67V301ZM67 293H69V291H67V293ZM71 297H85V295H71V297ZM71 301H85V299H71V301ZM71 291V293H85V291H71Z" fill="#006158"/>
<path d="M145.5 289.5V291.5H142.5V294.5H140.5V291.5H137.5V289.5H140.5V286.5H142.5V289.5H145.5ZM142.5 303.5H128.5V289.5H134.5V287.5H128.5C127.4 287.5 126.5 288.4 126.5 289.5V303.5C126.5 304.6 127.4 305.5 128.5 305.5H142.5C143.6 305.5 144.5 304.6 144.5 303.5V297.5H142.5V303.5ZM138.5 297.5V301.5H140.5V297.5H138.5ZM134.5 301.5H136.5V293.5H134.5V301.5ZM132.5 301.5V295.5H130.5V301.5H132.5Z" fill="#006158"/>
<path fill-rule="evenodd" clip-rule="evenodd" d="M670 341H64V340H670V341Z" fill="#D3D3D3"/>
<path d="M66.9801 389H77.0201C78.0468 389 78.6868 387.887 78.1735 387L73.1535 378.327C72.6401 377.44 71.3601 377.44 70.8468 378.327L65.8268 387C65.3135 387.887 65.9535 389 66.9801 389ZM72.0001 384.333C71.6335 384.333 71.3335 384.033 71.3335 383.667V382.333C71.3335 381.967 71.6335 381.667 72.0001 381.667C72.3668 381.667 72.6668 381.967 72.6668 382.333V383.667C72.6668 384.033 72.3668 384.333 72.0001 384.333ZM72.6668 387H71.3335V385.667H72.6668V387Z" fill="#FF8328"/>
<path d="M90.704 377.8C90.7573 377.8 90.8 377.821 90.832 377.864C90.8747 377.896 90.896 377.939 90.896 377.992V379.56C90.896 379.613 90.8747 379.661 90.832 379.704C90.8 379.736 90.7573 379.752 90.704 379.752H87.84C87.7867 379.752 87.76 379.779 87.76 379.832V388.808C87.76 388.861 87.7387 388.909 87.696 388.952C87.664 388.984 87.6213 389 87.568 389H85.696C85.6427 389 85.5947 388.984 85.552 388.952C85.52 388.909 85.504 388.861 85.504 388.808V379.832C85.504 379.779 85.4773 379.752 85.424 379.752H82.64C82.5867 379.752 82.5387 379.736 82.496 379.704C82.464 379.661 82.448 379.613 82.448 379.56V377.992C82.448 377.939 82.464 377.896 82.496 377.864C82.5387 377.821 82.5867 377.8 82.64 377.8H90.704ZM94.4796 389.128C93.5836 389.128 92.8156 388.893 92.1756 388.424C91.5356 387.955 91.0983 387.315 90.8636 386.504C90.7143 386.003 90.6396 385.459 90.6396 384.872C90.6396 384.243 90.7143 383.677 90.8636 383.176C91.109 382.387 91.5516 381.768 92.1916 381.32C92.8316 380.872 93.5996 380.648 94.4956 380.648C95.3703 380.648 96.117 380.872 96.7356 381.32C97.3543 381.757 97.7916 382.371 98.0476 383.16C98.2183 383.693 98.3036 384.253 98.3036 384.84C98.3036 385.416 98.229 385.955 98.0796 386.456C97.845 387.288 97.4076 387.944 96.7676 388.424C96.1383 388.893 95.3756 389.128 94.4796 389.128ZM94.4796 387.192C94.8316 387.192 95.1303 387.085 95.3756 386.872C95.621 386.659 95.797 386.365 95.9036 385.992C95.989 385.651 96.0316 385.277 96.0316 384.872C96.0316 384.424 95.989 384.045 95.9036 383.736C95.7863 383.373 95.605 383.091 95.3596 382.888C95.1143 382.685 94.8156 382.584 94.4636 382.584C94.101 382.584 93.797 382.685 93.5516 382.888C93.317 383.091 93.1463 383.373 93.0396 383.736C92.9543 383.992 92.9116 384.371 92.9116 384.872C92.9116 385.352 92.949 385.725 93.0236 385.992C93.1303 386.365 93.3063 386.659 93.5516 386.872C93.8076 387.085 94.117 387.192 94.4796 387.192ZM110.237 382.872C110.44 383.427 110.541 384.088 110.541 384.856C110.541 385.592 110.45 386.237 110.269 386.792C110.024 387.517 109.629 388.088 109.085 388.504C108.552 388.92 107.917 389.128 107.181 389.128C106.402 389.128 105.789 388.835 105.341 388.248C105.32 388.227 105.298 388.221 105.277 388.232C105.256 388.232 105.245 388.248 105.245 388.28V388.808C105.245 388.861 105.224 388.909 105.181 388.952C105.149 388.984 105.106 389 105.053 389H103.181C103.128 389 103.08 388.984 103.037 388.952C103.005 388.909 102.989 388.861 102.989 388.808V377.992C102.989 377.939 103.005 377.896 103.037 377.864C103.08 377.821 103.128 377.8 103.181 377.8H105.053C105.106 377.8 105.149 377.821 105.181 377.864C105.224 377.896 105.245 377.939 105.245 377.992V381.416C105.245 381.448 105.256 381.469 105.277 381.48C105.298 381.491 105.32 381.48 105.341 381.448C105.757 380.915 106.349 380.648 107.117 380.648C107.896 380.648 108.546 380.851 109.069 381.256C109.602 381.651 109.992 382.189 110.237 382.872ZM107.869 386.504C108.093 386.099 108.205 385.565 108.205 384.904C108.205 384.168 108.077 383.603 107.821 383.208C107.565 382.792 107.186 382.584 106.685 382.584C106.216 382.584 105.858 382.792 105.613 383.208C105.378 383.613 105.261 384.173 105.261 384.888C105.261 385.603 105.368 386.141 105.581 386.504C105.837 386.963 106.21 387.192 106.701 387.192C107.224 387.192 107.613 386.963 107.869 386.504ZM119.253 384.04C119.317 384.445 119.338 384.899 119.317 385.4C119.306 385.528 119.237 385.592 119.109 385.592H114.165C114.101 385.592 114.079 385.619 114.101 385.672C114.133 385.885 114.191 386.099 114.277 386.312C114.554 386.909 115.119 387.208 115.973 387.208C116.655 387.197 117.194 386.92 117.589 386.376C117.631 386.312 117.679 386.28 117.733 386.28C117.765 386.28 117.802 386.301 117.845 386.344L118.997 387.48C119.05 387.533 119.077 387.581 119.077 387.624C119.077 387.645 119.055 387.688 119.013 387.752C118.661 388.189 118.207 388.531 117.653 388.776C117.098 389.011 116.49 389.128 115.829 389.128C114.911 389.128 114.133 388.92 113.493 388.504C112.863 388.088 112.41 387.507 112.133 386.76C111.909 386.227 111.797 385.528 111.797 384.664C111.797 384.077 111.877 383.56 112.037 383.112C112.282 382.355 112.709 381.752 113.317 381.304C113.935 380.856 114.666 380.632 115.509 380.632C116.575 380.632 117.429 380.941 118.069 381.56C118.719 382.179 119.114 383.005 119.253 384.04ZM115.525 382.584C114.853 382.584 114.41 382.899 114.197 383.528C114.154 383.667 114.117 383.837 114.085 384.04C114.085 384.093 114.111 384.12 114.165 384.12H116.933C116.997 384.12 117.018 384.093 116.997 384.04C116.943 383.731 116.917 383.581 116.917 383.592C116.821 383.272 116.65 383.027 116.405 382.856C116.17 382.675 115.877 382.584 115.525 382.584ZM128.006 380.664C128.39 380.664 128.694 380.739 128.918 380.888C129.003 380.931 129.035 381.011 129.014 381.128L128.678 382.952C128.667 383.08 128.593 383.117 128.454 383.064C128.294 383.011 128.107 382.984 127.894 382.984C127.809 382.984 127.691 382.995 127.542 383.016C127.158 383.048 126.833 383.192 126.566 383.448C126.299 383.693 126.166 384.024 126.166 384.44V388.808C126.166 388.861 126.145 388.909 126.102 388.952C126.07 388.984 126.027 389 125.974 389H124.102C124.049 389 124.001 388.984 123.958 388.952C123.926 388.909 123.91 388.861 123.91 388.808V380.968C123.91 380.915 123.926 380.872 123.958 380.84C124.001 380.797 124.049 380.776 124.102 380.776H125.974C126.027 380.776 126.07 380.797 126.102 380.84C126.145 380.872 126.166 380.915 126.166 380.968V381.576C126.166 381.608 126.177 381.629 126.198 381.64C126.219 381.651 126.235 381.645 126.246 381.624C126.683 380.984 127.27 380.664 128.006 380.664ZM137.112 384.04C137.176 384.445 137.197 384.899 137.176 385.4C137.165 385.528 137.096 385.592 136.968 385.592H132.024C131.96 385.592 131.939 385.619 131.96 385.672C131.992 385.885 132.051 386.099 132.136 386.312C132.413 386.909 132.979 387.208 133.832 387.208C134.515 387.197 135.053 386.92 135.448 386.376C135.491 386.312 135.539 386.28 135.592 386.28C135.624 386.28 135.661 386.301 135.704 386.344L136.856 387.48C136.909 387.533 136.936 387.581 136.936 387.624C136.936 387.645 136.915 387.688 136.872 387.752C136.52 388.189 136.067 388.531 135.512 388.776C134.957 389.011 134.349 389.128 133.688 389.128C132.771 389.128 131.992 388.92 131.352 388.504C130.723 388.088 130.269 387.507 129.992 386.76C129.768 386.227 129.656 385.528 129.656 384.664C129.656 384.077 129.736 383.56 129.896 383.112C130.141 382.355 130.568 381.752 131.176 381.304C131.795 380.856 132.525 380.632 133.368 380.632C134.435 380.632 135.288 380.941 135.928 381.56C136.579 382.179 136.973 383.005 137.112 384.04ZM133.384 382.584C132.712 382.584 132.269 382.899 132.056 383.528C132.013 383.667 131.976 383.837 131.944 384.04C131.944 384.093 131.971 384.12 132.024 384.12H134.792C134.856 384.12 134.877 384.093 134.856 384.04C134.803 383.731 134.776 383.581 134.776 383.592C134.68 383.272 134.509 383.027 134.264 382.856C134.029 382.675 133.736 382.584 133.384 382.584ZM138.758 389C138.705 389 138.657 388.984 138.614 388.952C138.582 388.909 138.566 388.861 138.566 388.808V377.992C138.566 377.939 138.582 377.896 138.614 377.864C138.657 377.821 138.705 377.8 138.758 377.8H140.63C140.684 377.8 140.726 377.821 140.758 377.864C140.801 377.896 140.822 377.939 140.822 377.992V388.808C140.822 388.861 140.801 388.909 140.758 388.952C140.726 388.984 140.684 389 140.63 389H138.758ZM149.753 384.04C149.817 384.445 149.838 384.899 149.817 385.4C149.806 385.528 149.737 385.592 149.609 385.592H144.665C144.601 385.592 144.579 385.619 144.601 385.672C144.633 385.885 144.691 386.099 144.777 386.312C145.054 386.909 145.619 387.208 146.473 387.208C147.155 387.197 147.694 386.92 148.089 386.376C148.131 386.312 148.179 386.28 148.233 386.28C148.265 386.28 148.302 386.301 148.345 386.344L149.497 387.48C149.55 387.533 149.577 387.581 149.577 387.624C149.577 387.645 149.555 387.688 149.513 387.752C149.161 388.189 148.707 388.531 148.153 388.776C147.598 389.011 146.99 389.128 146.329 389.128C145.411 389.128 144.633 388.92 143.993 388.504C143.363 388.088 142.91 387.507 142.633 386.76C142.409 386.227 142.297 385.528 142.297 384.664C142.297 384.077 142.377 383.56 142.537 383.112C142.782 382.355 143.209 381.752 143.817 381.304C144.435 380.856 145.166 380.632 146.009 380.632C147.075 380.632 147.929 380.941 148.569 381.56C149.219 382.179 149.614 383.005 149.753 384.04ZM146.025 382.584C145.353 382.584 144.91 382.899 144.697 383.528C144.654 383.667 144.617 383.837 144.585 384.04C144.585 384.093 144.611 384.12 144.665 384.12H147.433C147.497 384.12 147.518 384.093 147.497 384.04C147.443 383.731 147.417 383.581 147.417 383.592C147.321 383.272 147.15 383.027 146.905 382.856C146.67 382.675 146.377 382.584 146.025 382.584ZM154.409 380.648C155.102 380.648 155.721 380.771 156.265 381.016C156.809 381.251 157.23 381.576 157.529 381.992C157.838 382.408 157.993 382.872 157.993 383.384V388.808C157.993 388.861 157.972 388.909 157.929 388.952C157.897 388.984 157.854 389 157.801 389H155.929C155.876 389 155.828 388.984 155.785 388.952C155.753 388.909 155.737 388.861 155.737 388.808V388.28C155.737 388.248 155.726 388.227 155.705 388.216C155.684 388.205 155.662 388.216 155.641 388.248C155.193 388.835 154.473 389.128 153.481 389.128C152.649 389.128 151.977 388.925 151.465 388.52C150.953 388.115 150.697 387.517 150.697 386.728C150.697 385.907 150.985 385.272 151.561 384.824C152.137 384.365 152.958 384.136 154.025 384.136H155.657C155.71 384.136 155.737 384.109 155.737 384.056V383.704C155.737 383.352 155.63 383.08 155.417 382.888C155.204 382.685 154.884 382.584 154.457 382.584C154.126 382.584 153.849 382.643 153.625 382.76C153.412 382.877 153.273 383.043 153.209 383.256C153.177 383.373 153.108 383.427 153.001 383.416L151.065 383.16C150.937 383.139 150.878 383.091 150.889 383.016C150.932 382.568 151.108 382.163 151.417 381.8C151.737 381.437 152.153 381.155 152.665 380.952C153.188 380.749 153.769 380.648 154.409 380.648ZM154.089 387.448C154.548 387.448 154.937 387.325 155.257 387.08C155.577 386.835 155.737 386.52 155.737 386.136V385.56C155.737 385.507 155.71 385.48 155.657 385.48H154.505C154.025 385.48 153.646 385.571 153.369 385.752C153.102 385.933 152.969 386.189 152.969 386.52C152.969 386.808 153.07 387.037 153.273 387.208C153.476 387.368 153.748 387.448 154.089 387.448ZM162.862 389.112C162.147 389.112 161.523 389.011 160.99 388.808C160.457 388.605 160.041 388.323 159.742 387.96C159.454 387.597 159.31 387.187 159.31 386.728V386.568C159.31 386.515 159.326 386.472 159.358 386.44C159.401 386.397 159.449 386.376 159.502 386.376H161.278C161.331 386.376 161.374 386.397 161.406 386.44C161.449 386.472 161.47 386.515 161.47 386.568V386.584C161.47 386.819 161.598 387.021 161.854 387.192C162.121 387.352 162.451 387.432 162.846 387.432C163.209 387.432 163.502 387.363 163.726 387.224C163.95 387.075 164.062 386.893 164.062 386.68C164.062 386.488 163.966 386.344 163.774 386.248C163.582 386.152 163.267 386.051 162.83 385.944C162.329 385.816 161.934 385.693 161.646 385.576C160.963 385.341 160.419 385.053 160.014 384.712C159.609 384.371 159.406 383.88 159.406 383.24C159.406 382.451 159.71 381.827 160.318 381.368C160.937 380.899 161.753 380.664 162.766 380.664C163.449 380.664 164.046 380.776 164.558 381C165.07 381.213 165.465 381.517 165.742 381.912C166.03 382.307 166.174 382.755 166.174 383.256C166.174 383.309 166.153 383.357 166.11 383.4C166.078 383.432 166.035 383.448 165.982 383.448H164.27C164.217 383.448 164.169 383.432 164.126 383.4C164.094 383.357 164.078 383.309 164.078 383.256C164.078 383.021 163.955 382.824 163.71 382.664C163.475 382.504 163.161 382.424 162.766 382.424C162.414 382.424 162.126 382.488 161.902 382.616C161.678 382.744 161.566 382.92 161.566 383.144C161.566 383.357 161.673 383.517 161.886 383.624C162.11 383.731 162.478 383.843 162.99 383.96C163.107 383.992 163.241 384.029 163.39 384.072C163.539 384.104 163.699 384.147 163.87 384.2C164.627 384.424 165.225 384.712 165.662 385.064C166.099 385.416 166.318 385.928 166.318 386.6C166.318 387.389 166.003 388.008 165.374 388.456C164.755 388.893 163.918 389.112 162.862 389.112ZM174.893 384.04C174.957 384.445 174.979 384.899 174.957 385.4C174.947 385.528 174.877 385.592 174.749 385.592H169.805C169.741 385.592 169.72 385.619 169.741 385.672C169.773 385.885 169.832 386.099 169.917 386.312C170.195 386.909 170.76 387.208 171.613 387.208C172.296 387.197 172.835 386.92 173.229 386.376C173.272 386.312 173.32 386.28 173.373 386.28C173.405 386.28 173.443 386.301 173.485 386.344L174.637 387.48C174.691 387.533 174.717 387.581 174.717 387.624C174.717 387.645 174.696 387.688 174.653 387.752C174.301 388.189 173.848 388.531 173.293 388.776C172.739 389.011 172.131 389.128 171.469 389.128C170.552 389.128 169.773 388.92 169.133 388.504C168.504 388.088 168.051 387.507 167.773 386.76C167.549 386.227 167.437 385.528 167.437 384.664C167.437 384.077 167.517 383.56 167.677 383.112C167.923 382.355 168.349 381.752 168.957 381.304C169.576 380.856 170.307 380.632 171.149 380.632C172.216 380.632 173.069 380.941 173.709 381.56C174.36 382.179 174.755 383.005 174.893 384.04ZM171.165 382.584C170.493 382.584 170.051 382.899 169.837 383.528C169.795 383.667 169.757 383.837 169.725 384.04C169.725 384.093 169.752 384.12 169.805 384.12H172.573C172.637 384.12 172.659 384.093 172.637 384.04C172.584 383.731 172.557 383.581 172.557 383.592C172.461 383.272 172.291 383.027 172.045 382.856C171.811 382.675 171.517 382.584 171.165 382.584ZM181.452 377.992C181.452 377.939 181.468 377.896 181.5 377.864C181.542 377.821 181.59 377.8 181.644 377.8H183.516C183.569 377.8 183.612 377.821 183.644 377.864C183.686 377.896 183.708 377.939 183.708 377.992V388.808C183.708 388.861 183.686 388.909 183.644 388.952C183.612 388.984 183.569 389 183.516 389H181.644C181.59 389 181.542 388.984 181.5 388.952C181.468 388.909 181.452 388.861 181.452 388.808V388.28C181.452 388.248 181.441 388.232 181.42 388.232C181.398 388.221 181.377 388.227 181.356 388.248C180.908 388.835 180.294 389.128 179.516 389.128C178.769 389.128 178.124 388.92 177.58 388.504C177.046 388.088 176.662 387.517 176.428 386.792C176.246 386.237 176.156 385.592 176.156 384.856C176.156 384.099 176.252 383.437 176.444 382.872C176.689 382.189 177.073 381.651 177.596 381.256C178.129 380.851 178.785 380.648 179.564 380.648C180.332 380.648 180.929 380.915 181.356 381.448C181.377 381.48 181.398 381.491 181.42 381.48C181.441 381.469 181.452 381.448 181.452 381.416V377.992ZM181.116 386.504C181.329 386.109 181.436 385.571 181.436 384.888C181.436 384.173 181.318 383.613 181.084 383.208C180.838 382.792 180.481 382.584 180.012 382.584C179.51 382.584 179.132 382.792 178.876 383.208C178.609 383.624 178.476 384.189 178.476 384.904C178.476 385.544 178.588 386.077 178.812 386.504C179.078 386.963 179.473 387.192 179.996 387.192C180.476 387.192 180.849 386.963 181.116 386.504Z" fill="black"/>
<defs>
<clipPath id="clip0_20770_31">
<rect width="24" height="24" fill="white" transform="translate(84 208)"/>
</clipPath>
<clipPath id="clip1_20770_31">
<rect width="24" height="24" fill="white" transform="translate(184 208)"/>
</clipPath>
</defs>
</svg>
