<svg width="538" height="405" viewBox="0 0 538 405" fill="none" xmlns="http://www.w3.org/2000/svg">
<rect width="538" height="405" fill="white"/>
<path d="M66.336 97C66.2293 97 66.1333 96.968 66.048 96.904C65.984 96.8187 65.952 96.7227 65.952 96.616V74.984C65.952 74.8773 65.984 74.792 66.048 74.728C66.1333 74.6427 66.2293 74.6 66.336 74.6H70.08C70.1867 74.6 70.272 74.6427 70.336 74.728C70.4213 74.792 70.464 74.8773 70.464 74.984V92.968C70.464 93.0747 70.5173 93.128 70.624 93.128H81.088C81.1947 93.128 81.28 93.1707 81.344 93.256C81.4293 93.32 81.472 93.4053 81.472 93.512V96.616C81.472 96.7227 81.4293 96.8187 81.344 96.904C81.28 96.968 81.1947 97 81.088 97H66.336ZM86.4085 78.696C85.6832 78.696 85.0752 78.4613 84.5845 77.992C84.1152 77.5013 83.8805 76.8933 83.8805 76.168C83.8805 75.4213 84.1152 74.8133 84.5845 74.344C85.0538 73.8747 85.6618 73.64 86.4085 73.64C87.1552 73.64 87.7632 73.8747 88.2325 74.344C88.7018 74.8133 88.9365 75.4213 88.9365 76.168C88.9365 76.8933 88.6912 77.5013 88.2005 77.992C87.7312 78.4613 87.1338 78.696 86.4085 78.696ZM84.4885 97C84.3818 97 84.2858 96.968 84.2005 96.904C84.1365 96.8187 84.1045 96.7227 84.1045 96.616V80.904C84.1045 80.7973 84.1365 80.712 84.2005 80.648C84.2858 80.5627 84.3818 80.52 84.4885 80.52H88.2325C88.3392 80.52 88.4245 80.5627 88.4885 80.648C88.5738 80.712 88.6165 80.7973 88.6165 80.904V96.616C88.6165 96.7227 88.5738 96.8187 88.4885 96.904C88.4245 96.968 88.3392 97 88.2325 97H84.4885ZM98.6927 97.224C97.2634 97.224 96.0154 97.0213 94.9488 96.616C93.8821 96.2107 93.0501 95.6453 92.4528 94.92C91.8768 94.1947 91.5888 93.3733 91.5888 92.456V92.136C91.5888 92.0293 91.6208 91.944 91.6848 91.88C91.7701 91.7947 91.8661 91.752 91.9728 91.752H95.5248C95.6314 91.752 95.7168 91.7947 95.7808 91.88C95.8661 91.944 95.9088 92.0293 95.9088 92.136V92.168C95.9088 92.6373 96.1648 93.0427 96.6768 93.384C97.2101 93.704 97.8714 93.864 98.6608 93.864C99.3861 93.864 99.9728 93.7253 100.421 93.448C100.869 93.1493 101.093 92.7867 101.093 92.36C101.093 91.976 100.901 91.688 100.517 91.496C100.133 91.304 99.5034 91.1013 98.6288 90.888C97.6261 90.632 96.8368 90.3867 96.2608 90.152C94.8954 89.6827 93.8074 89.1067 92.9968 88.424C92.1861 87.7413 91.7808 86.76 91.7808 85.48C91.7808 83.9013 92.3888 82.6533 93.6048 81.736C94.8421 80.7973 96.4741 80.328 98.5008 80.328C99.8661 80.328 101.061 80.552 102.085 81C103.109 81.4267 103.898 82.0347 104.453 82.824C105.029 83.6133 105.317 84.5093 105.317 85.512C105.317 85.6187 105.274 85.7147 105.189 85.8C105.125 85.864 105.039 85.896 104.933 85.896H101.509C101.402 85.896 101.306 85.864 101.221 85.8C101.157 85.7147 101.125 85.6187 101.125 85.512C101.125 85.0427 100.879 84.648 100.389 84.328C99.9194 84.008 99.2901 83.848 98.5008 83.848C97.7968 83.848 97.2208 83.976 96.7728 84.232C96.3248 84.488 96.1008 84.84 96.1008 85.288C96.1008 85.7147 96.3141 86.0347 96.7408 86.248C97.1888 86.4613 97.9248 86.6853 98.9488 86.92C99.1834 86.984 99.4501 87.0587 99.7488 87.144C100.047 87.208 100.367 87.2933 100.709 87.4C102.223 87.848 103.418 88.424 104.293 89.128C105.167 89.832 105.605 90.856 105.605 92.2C105.605 93.7787 104.975 95.016 103.717 95.912C102.479 96.7867 100.805 97.224 98.6927 97.224ZM117.604 83.784C117.604 83.8907 117.561 83.9867 117.476 84.072C117.412 84.136 117.327 84.168 117.22 84.168H114.148C114.041 84.168 113.988 84.2213 113.988 84.328V91.112C113.988 91.816 114.127 92.3387 114.404 92.68C114.703 93.0213 115.172 93.192 115.812 93.192H116.868C116.975 93.192 117.06 93.2347 117.124 93.32C117.209 93.384 117.252 93.4693 117.252 93.576V96.616C117.252 96.8507 117.124 96.9893 116.868 97.032C115.972 97.0747 115.332 97.096 114.948 97.096C113.177 97.096 111.855 96.808 110.98 96.232C110.105 95.6347 109.657 94.5253 109.636 92.904V84.328C109.636 84.2213 109.583 84.168 109.476 84.168H107.652C107.545 84.168 107.449 84.136 107.364 84.072C107.3 83.9867 107.268 83.8907 107.268 83.784V80.936C107.268 80.8293 107.3 80.744 107.364 80.68C107.449 80.5947 107.545 80.552 107.652 80.552H109.476C109.583 80.552 109.636 80.4987 109.636 80.392V76.584C109.636 76.4773 109.668 76.392 109.732 76.328C109.817 76.2427 109.913 76.2 110.02 76.2H113.604C113.711 76.2 113.796 76.2427 113.86 76.328C113.945 76.392 113.988 76.4773 113.988 76.584V80.392C113.988 80.4987 114.041 80.552 114.148 80.552H117.22C117.327 80.552 117.412 80.5947 117.476 80.68C117.561 80.744 117.604 80.8293 117.604 80.936V83.784ZM126.88 97.224C125.451 97.224 124.203 97.0213 123.136 96.616C122.07 96.2107 121.238 95.6453 120.64 94.92C120.064 94.1947 119.776 93.3733 119.776 92.456V92.136C119.776 92.0293 119.808 91.944 119.872 91.88C119.958 91.7947 120.054 91.752 120.16 91.752H123.712C123.819 91.752 123.904 91.7947 123.968 91.88C124.054 91.944 124.096 92.0293 124.096 92.136V92.168C124.096 92.6373 124.352 93.0427 124.864 93.384C125.398 93.704 126.059 93.864 126.848 93.864C127.574 93.864 128.16 93.7253 128.608 93.448C129.056 93.1493 129.28 92.7867 129.28 92.36C129.28 91.976 129.088 91.688 128.704 91.496C128.32 91.304 127.691 91.1013 126.816 90.888C125.814 90.632 125.024 90.3867 124.448 90.152C123.083 89.6827 121.995 89.1067 121.184 88.424C120.374 87.7413 119.968 86.76 119.968 85.48C119.968 83.9013 120.576 82.6533 121.792 81.736C123.03 80.7973 124.662 80.328 126.688 80.328C128.054 80.328 129.248 80.552 130.272 81C131.296 81.4267 132.086 82.0347 132.64 82.824C133.216 83.6133 133.504 84.5093 133.504 85.512C133.504 85.6187 133.462 85.7147 133.376 85.8C133.312 85.864 133.227 85.896 133.12 85.896H129.696C129.59 85.896 129.494 85.864 129.408 85.8C129.344 85.7147 129.312 85.6187 129.312 85.512C129.312 85.0427 129.067 84.648 128.576 84.328C128.107 84.008 127.478 83.848 126.688 83.848C125.984 83.848 125.408 83.976 124.96 84.232C124.512 84.488 124.288 84.84 124.288 85.288C124.288 85.7147 124.502 86.0347 124.928 86.248C125.376 86.4613 126.112 86.6853 127.136 86.92C127.371 86.984 127.638 87.0587 127.936 87.144C128.235 87.208 128.555 87.2933 128.896 87.4C130.411 87.848 131.606 88.424 132.48 89.128C133.355 89.832 133.792 90.856 133.792 92.2C133.792 93.7787 133.163 95.016 131.904 95.912C130.667 96.7867 128.992 97.224 126.88 97.224ZM149.349 80.296C150.736 80.296 151.973 80.5413 153.061 81.032C154.149 81.5013 154.992 82.152 155.589 82.984C156.208 83.816 156.517 84.744 156.517 85.768V96.616C156.517 96.7227 156.474 96.8187 156.389 96.904C156.325 96.968 156.24 97 156.133 97H152.389C152.282 97 152.186 96.968 152.101 96.904C152.037 96.8187 152.005 96.7227 152.005 96.616V95.56C152.005 95.496 151.984 95.4533 151.941 95.432C151.898 95.4107 151.856 95.432 151.813 95.496C150.917 96.6693 149.477 97.256 147.493 97.256C145.829 97.256 144.485 96.8507 143.461 96.04C142.437 95.2293 141.925 94.0347 141.925 92.456C141.925 90.8133 142.501 89.544 143.653 88.648C144.805 87.7307 146.448 87.272 148.581 87.272H151.845C151.952 87.272 152.005 87.2187 152.005 87.112V86.408C152.005 85.704 151.792 85.16 151.365 84.776C150.938 84.3707 150.298 84.168 149.445 84.168C148.784 84.168 148.229 84.2853 147.781 84.52C147.354 84.7547 147.077 85.0853 146.949 85.512C146.885 85.7467 146.746 85.8533 146.533 85.832L142.661 85.32C142.405 85.2773 142.288 85.1813 142.309 85.032C142.394 84.136 142.746 83.3253 143.365 82.6C144.005 81.8747 144.837 81.3093 145.861 80.904C146.906 80.4987 148.069 80.296 149.349 80.296ZM148.709 93.896C149.626 93.896 150.405 93.6507 151.045 93.16C151.685 92.6693 152.005 92.04 152.005 91.272V90.12C152.005 90.0133 151.952 89.96 151.845 89.96H149.541C148.581 89.96 147.824 90.1413 147.269 90.504C146.736 90.8667 146.469 91.3787 146.469 92.04C146.469 92.616 146.672 93.0747 147.077 93.416C147.482 93.736 148.026 93.896 148.709 93.896ZM168.271 80.296C169.978 80.296 171.354 80.8187 172.399 81.864C173.445 82.9093 173.967 84.328 173.967 86.12V96.616C173.967 96.7227 173.925 96.8187 173.839 96.904C173.775 96.968 173.69 97 173.583 97H169.839C169.733 97 169.637 96.968 169.551 96.904C169.487 96.8187 169.455 96.7227 169.455 96.616V87.048C169.455 86.1947 169.21 85.5013 168.719 84.968C168.25 84.4347 167.621 84.168 166.831 84.168C166.042 84.168 165.402 84.4347 164.911 84.968C164.442 85.5013 164.207 86.1947 164.207 87.048V96.616C164.207 96.7227 164.165 96.8187 164.079 96.904C164.015 96.968 163.93 97 163.823 97H160.079C159.973 97 159.877 96.968 159.791 96.904C159.727 96.8187 159.695 96.7227 159.695 96.616V80.936C159.695 80.8293 159.727 80.744 159.791 80.68C159.877 80.5947 159.973 80.552 160.079 80.552H163.823C163.93 80.552 164.015 80.5947 164.079 80.68C164.165 80.744 164.207 80.8293 164.207 80.936V82.056C164.207 82.12 164.229 82.1627 164.271 82.184C164.314 82.2053 164.346 82.1947 164.367 82.152C165.242 80.9147 166.543 80.296 168.271 80.296ZM187.31 74.984C187.31 74.8773 187.342 74.792 187.406 74.728C187.491 74.6427 187.587 74.6 187.694 74.6H191.438C191.544 74.6 191.63 74.6427 191.694 74.728C191.779 74.792 191.822 74.8773 191.822 74.984V96.616C191.822 96.7227 191.779 96.8187 191.694 96.904C191.63 96.968 191.544 97 191.438 97H187.694C187.587 97 187.491 96.968 187.406 96.904C187.342 96.8187 187.31 96.7227 187.31 96.616V95.56C187.31 95.496 187.288 95.464 187.246 95.464C187.203 95.4427 187.16 95.4533 187.118 95.496C186.222 96.6693 184.995 97.256 183.438 97.256C181.944 97.256 180.654 96.84 179.566 96.008C178.499 95.176 177.731 94.0347 177.262 92.584C176.899 91.4747 176.718 90.184 176.718 88.712C176.718 87.1973 176.91 85.8747 177.294 84.744C177.784 83.3787 178.552 82.3013 179.598 81.512C180.664 80.7013 181.976 80.296 183.534 80.296C185.07 80.296 186.264 80.8293 187.118 81.896C187.16 81.96 187.203 81.9813 187.246 81.96C187.288 81.9387 187.31 81.896 187.31 81.832V74.984ZM186.638 92.008C187.064 91.2187 187.278 90.1413 187.278 88.776C187.278 87.3467 187.043 86.2267 186.574 85.416C186.083 84.584 185.368 84.168 184.43 84.168C183.427 84.168 182.67 84.584 182.158 85.416C181.624 86.248 181.358 87.3787 181.358 88.808C181.358 90.088 181.582 91.1547 182.03 92.008C182.563 92.9253 183.352 93.384 184.398 93.384C185.358 93.384 186.104 92.9253 186.638 92.008ZM217.377 74.6C217.483 74.6 217.569 74.6427 217.633 74.728C217.718 74.792 217.761 74.8773 217.761 74.984V78.12C217.761 78.2267 217.718 78.3227 217.633 78.408C217.569 78.472 217.483 78.504 217.377 78.504H211.649C211.542 78.504 211.489 78.5573 211.489 78.664V96.616C211.489 96.7227 211.446 96.8187 211.361 96.904C211.297 96.968 211.211 97 211.105 97H207.361C207.254 97 207.158 96.968 207.073 96.904C207.009 96.8187 206.977 96.7227 206.977 96.616V78.664C206.977 78.5573 206.923 78.504 206.817 78.504H201.249C201.142 78.504 201.046 78.472 200.961 78.408C200.897 78.3227 200.865 78.2267 200.865 78.12V74.984C200.865 74.8773 200.897 74.792 200.961 74.728C201.046 74.6427 201.142 74.6 201.249 74.6H217.377ZM225.755 80.296C227.142 80.296 228.379 80.5413 229.467 81.032C230.555 81.5013 231.398 82.152 231.995 82.984C232.614 83.816 232.923 84.744 232.923 85.768V96.616C232.923 96.7227 232.881 96.8187 232.795 96.904C232.731 96.968 232.646 97 232.539 97H228.795C228.689 97 228.593 96.968 228.507 96.904C228.443 96.8187 228.411 96.7227 228.411 96.616V95.56C228.411 95.496 228.39 95.4533 228.347 95.432C228.305 95.4107 228.262 95.432 228.219 95.496C227.323 96.6693 225.883 97.256 223.899 97.256C222.235 97.256 220.891 96.8507 219.867 96.04C218.843 95.2293 218.331 94.0347 218.331 92.456C218.331 90.8133 218.907 89.544 220.059 88.648C221.211 87.7307 222.854 87.272 224.987 87.272H228.251C228.358 87.272 228.411 87.2187 228.411 87.112V86.408C228.411 85.704 228.198 85.16 227.771 84.776C227.345 84.3707 226.705 84.168 225.851 84.168C225.19 84.168 224.635 84.2853 224.187 84.52C223.761 84.7547 223.483 85.0853 223.355 85.512C223.291 85.7467 223.153 85.8533 222.939 85.832L219.067 85.32C218.811 85.2773 218.694 85.1813 218.715 85.032C218.801 84.136 219.153 83.3253 219.771 82.6C220.411 81.8747 221.243 81.3093 222.267 80.904C223.313 80.4987 224.475 80.296 225.755 80.296ZM225.115 93.896C226.033 93.896 226.811 93.6507 227.451 93.16C228.091 92.6693 228.411 92.04 228.411 91.272V90.12C228.411 90.0133 228.358 89.96 228.251 89.96H225.947C224.987 89.96 224.23 90.1413 223.675 90.504C223.142 90.8667 222.875 91.3787 222.875 92.04C222.875 92.616 223.078 93.0747 223.483 93.416C223.889 93.736 224.433 93.896 225.115 93.896ZM250.662 84.744C251.067 85.8533 251.27 87.176 251.27 88.712C251.27 90.184 251.088 91.4747 250.726 92.584C250.235 94.0347 249.446 95.176 248.358 96.008C247.291 96.84 246.022 97.256 244.55 97.256C242.992 97.256 241.766 96.6693 240.87 95.496C240.827 95.4533 240.784 95.4427 240.742 95.464C240.699 95.464 240.678 95.496 240.678 95.56V96.616C240.678 96.7227 240.635 96.8187 240.55 96.904C240.486 96.968 240.4 97 240.294 97H236.549C236.443 97 236.347 96.968 236.262 96.904C236.198 96.8187 236.166 96.7227 236.166 96.616V74.984C236.166 74.8773 236.198 74.792 236.262 74.728C236.347 74.6427 236.443 74.6 236.549 74.6H240.294C240.4 74.6 240.486 74.6427 240.55 74.728C240.635 74.792 240.678 74.8773 240.678 74.984V81.832C240.678 81.896 240.699 81.9387 240.742 81.96C240.784 81.9813 240.827 81.96 240.87 81.896C241.702 80.8293 242.886 80.296 244.422 80.296C245.979 80.296 247.28 80.7013 248.326 81.512C249.392 82.3013 250.171 83.3787 250.662 84.744ZM245.926 92.008C246.374 91.1973 246.598 90.1307 246.598 88.808C246.598 87.336 246.342 86.2053 245.83 85.416C245.318 84.584 244.56 84.168 243.558 84.168C242.619 84.168 241.904 84.584 241.414 85.416C240.944 86.2267 240.71 87.3467 240.71 88.776C240.71 90.2053 240.923 91.2827 241.35 92.008C241.862 92.9253 242.608 93.384 243.59 93.384C244.635 93.384 245.414 92.9253 245.926 92.008ZM254.611 97C254.504 97 254.408 96.968 254.323 96.904C254.259 96.8187 254.227 96.7227 254.227 96.616V74.984C254.227 74.8773 254.259 74.792 254.323 74.728C254.408 74.6427 254.504 74.6 254.611 74.6H258.355C258.461 74.6 258.547 74.6427 258.611 74.728C258.696 74.792 258.739 74.8773 258.739 74.984V96.616C258.739 96.7227 258.696 96.8187 258.611 96.904C258.547 96.968 258.461 97 258.355 97H254.611ZM276.599 87.08C276.727 87.8907 276.77 88.7973 276.727 89.8C276.706 90.056 276.567 90.184 276.311 90.184H266.423C266.295 90.184 266.252 90.2373 266.295 90.344C266.359 90.7707 266.476 91.1973 266.647 91.624C267.202 92.8187 268.332 93.416 270.039 93.416C271.404 93.3947 272.482 92.84 273.271 91.752C273.356 91.624 273.452 91.56 273.559 91.56C273.623 91.56 273.698 91.6027 273.783 91.688L276.087 93.96C276.194 94.0667 276.247 94.1627 276.247 94.248C276.247 94.2907 276.204 94.376 276.119 94.504C275.415 95.3787 274.508 96.0613 273.399 96.552C272.29 97.0213 271.074 97.256 269.751 97.256C267.916 97.256 266.359 96.84 265.079 96.008C263.82 95.176 262.914 94.0133 262.359 92.52C261.911 91.4533 261.687 90.056 261.687 88.328C261.687 87.1547 261.847 86.12 262.167 85.224C262.658 83.7093 263.511 82.504 264.727 81.608C265.964 80.712 267.426 80.264 269.111 80.264C271.244 80.264 272.951 80.8827 274.231 82.12C275.532 83.3573 276.322 85.0107 276.599 87.08ZM269.143 84.168C267.799 84.168 266.914 84.7973 266.487 86.056C266.402 86.3333 266.327 86.6747 266.263 87.08C266.263 87.1867 266.316 87.24 266.423 87.24H271.959C272.087 87.24 272.13 87.1867 272.087 87.08C271.98 86.4613 271.927 86.1627 271.927 86.184C271.735 85.544 271.394 85.0533 270.903 84.712C270.434 84.3493 269.847 84.168 269.143 84.168Z" fill="black"/>
<rect width="410" height="24" transform="translate(64 136)" fill="white"/>
<path d="M73 139L69 142.99H72V150H74V142.99H77L73 139ZM80 153.01V146H78V153.01H75L79 157L83 153.01H80Z" fill="#006158"/>
<path d="M118 140.726H130.6V142.049H118V140.726ZM118 152.634H130.6V153.958H118V152.634ZM118 148.665H130.6V149.988H118V148.665ZM118 144.695H130.6V146.018H118V144.695Z" fill="#006158"/>
<path d="M164 139.781H180V141.461H164V139.781ZM164 153.222H180V154.903H164V153.222ZM164 146.501H180V148.182H164V146.501Z" fill="#006158"/>
<path d="M222.25 155.5H218.5V154H222.25C223.244 153.999 224.198 153.604 224.901 152.901C225.604 152.198 225.999 151.244 226 150.25V146.5H227.5V150.25C227.498 151.642 226.945 152.976 225.961 153.961C224.976 154.945 223.642 155.498 222.25 155.5ZM214 158.5H211C210.602 158.5 210.221 158.341 209.94 158.06C209.659 157.779 209.5 157.398 209.5 157V146.5C209.5 146.102 209.659 145.721 209.94 145.44C210.221 145.159 210.602 145 211 145H214C214.398 145 214.779 145.159 215.06 145.44C215.341 145.721 215.5 146.102 215.5 146.5V157C215.5 157.398 215.341 157.779 215.06 158.06C214.779 158.341 214.398 158.5 214 158.5ZM211 146.5V157H214V146.5H211ZM229 143.5H218.5C218.102 143.5 217.721 143.341 217.44 143.06C217.159 142.779 217 142.398 217 142V139C217 138.602 217.159 138.221 217.44 137.94C217.721 137.659 218.102 137.5 218.5 137.5H229C229.398 137.5 229.779 137.659 230.06 137.94C230.341 138.221 230.5 138.602 230.5 139V142C230.5 142.398 230.341 142.779 230.06 143.06C229.779 143.341 229.398 143.5 229 143.5ZM218.5 139V142H229V139H218.5Z" fill="#006158"/>
<path d="M259 155V141H277V155H259ZM260.5 153.5H264.5V142.5H260.5V153.5ZM266 153.5H270V142.5H266V153.5ZM271.5 153.5H275.5V142.5H271.5V153.5Z" fill="#006158"/>
<rect x="64.5" y="192.5" width="103" height="63" rx="4.5" stroke="#9747FF" stroke-dasharray="10 5"/>
<path d="M100 230V232H92V230H100ZM95 219.99V228H97V219.99H100L96 216L92 219.99H95Z" fill="#006158"/>
<path d="M140 218V216H132V218H140ZM135 228.01V220H137V228.01H140L136 232L132 228.01H135Z" fill="#006158"/>
<path fill-rule="evenodd" clip-rule="evenodd" d="M474 289H64V288H474V289Z" fill="#D3D3D3"/>
<path d="M66.9801 337H77.0201C78.0467 337 78.6867 335.887 78.1734 335L73.1534 326.327C72.6401 325.44 71.3601 325.44 70.8467 326.327L65.8267 335C65.3134 335.887 65.9534 337 66.9801 337ZM72.0001 332.333C71.6334 332.333 71.3334 332.033 71.3334 331.667V330.333C71.3334 329.967 71.6334 329.667 72.0001 329.667C72.3667 329.667 72.6667 329.967 72.6667 330.333V331.667C72.6667 332.033 72.3667 332.333 72.0001 332.333ZM72.6667 335H71.3334V333.667H72.6667V335Z" fill="#FF8328"/>
<path d="M90.704 325.8C90.7573 325.8 90.8 325.821 90.832 325.864C90.8747 325.896 90.896 325.939 90.896 325.992V327.56C90.896 327.613 90.8747 327.661 90.832 327.704C90.8 327.736 90.7573 327.752 90.704 327.752H87.84C87.7867 327.752 87.76 327.779 87.76 327.832V336.808C87.76 336.861 87.7387 336.909 87.696 336.952C87.664 336.984 87.6213 337 87.568 337H85.696C85.6427 337 85.5947 336.984 85.552 336.952C85.52 336.909 85.504 336.861 85.504 336.808V327.832C85.504 327.779 85.4773 327.752 85.424 327.752H82.64C82.5867 327.752 82.5387 327.736 82.496 327.704C82.464 327.661 82.448 327.613 82.448 327.56V325.992C82.448 325.939 82.464 325.896 82.496 325.864C82.5387 325.821 82.5867 325.8 82.64 325.8H90.704ZM94.4796 337.128C93.5836 337.128 92.8156 336.893 92.1756 336.424C91.5356 335.955 91.0983 335.315 90.8636 334.504C90.7143 334.003 90.6396 333.459 90.6396 332.872C90.6396 332.243 90.7143 331.677 90.8636 331.176C91.109 330.387 91.5516 329.768 92.1916 329.32C92.8316 328.872 93.5996 328.648 94.4956 328.648C95.3703 328.648 96.117 328.872 96.7356 329.32C97.3543 329.757 97.7916 330.371 98.0476 331.16C98.2183 331.693 98.3036 332.253 98.3036 332.84C98.3036 333.416 98.229 333.955 98.0796 334.456C97.845 335.288 97.4076 335.944 96.7676 336.424C96.1383 336.893 95.3756 337.128 94.4796 337.128ZM94.4796 335.192C94.8316 335.192 95.1303 335.085 95.3756 334.872C95.621 334.659 95.797 334.365 95.9036 333.992C95.989 333.651 96.0316 333.277 96.0316 332.872C96.0316 332.424 95.989 332.045 95.9036 331.736C95.7863 331.373 95.605 331.091 95.3596 330.888C95.1143 330.685 94.8156 330.584 94.4636 330.584C94.101 330.584 93.797 330.685 93.5516 330.888C93.317 331.091 93.1463 331.373 93.0396 331.736C92.9543 331.992 92.9116 332.371 92.9116 332.872C92.9116 333.352 92.949 333.725 93.0236 333.992C93.1303 334.365 93.3063 334.659 93.5516 334.872C93.8076 335.085 94.117 335.192 94.4796 335.192ZM110.237 330.872C110.44 331.427 110.541 332.088 110.541 332.856C110.541 333.592 110.45 334.237 110.269 334.792C110.024 335.517 109.629 336.088 109.085 336.504C108.552 336.92 107.917 337.128 107.181 337.128C106.402 337.128 105.789 336.835 105.341 336.248C105.32 336.227 105.298 336.221 105.277 336.232C105.256 336.232 105.245 336.248 105.245 336.28V336.808C105.245 336.861 105.224 336.909 105.181 336.952C105.149 336.984 105.106 337 105.053 337H103.181C103.128 337 103.08 336.984 103.037 336.952C103.005 336.909 102.989 336.861 102.989 336.808V325.992C102.989 325.939 103.005 325.896 103.037 325.864C103.08 325.821 103.128 325.8 103.181 325.8H105.053C105.106 325.8 105.149 325.821 105.181 325.864C105.224 325.896 105.245 325.939 105.245 325.992V329.416C105.245 329.448 105.256 329.469 105.277 329.48C105.298 329.491 105.32 329.48 105.341 329.448C105.757 328.915 106.349 328.648 107.117 328.648C107.896 328.648 108.546 328.851 109.069 329.256C109.602 329.651 109.992 330.189 110.237 330.872ZM107.869 334.504C108.093 334.099 108.205 333.565 108.205 332.904C108.205 332.168 108.077 331.603 107.821 331.208C107.565 330.792 107.186 330.584 106.685 330.584C106.216 330.584 105.858 330.792 105.613 331.208C105.378 331.613 105.261 332.173 105.261 332.888C105.261 333.603 105.368 334.141 105.581 334.504C105.837 334.963 106.21 335.192 106.701 335.192C107.224 335.192 107.613 334.963 107.869 334.504ZM119.253 332.04C119.317 332.445 119.338 332.899 119.317 333.4C119.306 333.528 119.237 333.592 119.109 333.592H114.165C114.101 333.592 114.079 333.619 114.101 333.672C114.133 333.885 114.191 334.099 114.277 334.312C114.554 334.909 115.119 335.208 115.973 335.208C116.655 335.197 117.194 334.92 117.589 334.376C117.631 334.312 117.679 334.28 117.733 334.28C117.765 334.28 117.802 334.301 117.845 334.344L118.997 335.48C119.05 335.533 119.077 335.581 119.077 335.624C119.077 335.645 119.055 335.688 119.013 335.752C118.661 336.189 118.207 336.531 117.653 336.776C117.098 337.011 116.49 337.128 115.829 337.128C114.911 337.128 114.133 336.92 113.493 336.504C112.863 336.088 112.41 335.507 112.133 334.76C111.909 334.227 111.797 333.528 111.797 332.664C111.797 332.077 111.877 331.56 112.037 331.112C112.282 330.355 112.709 329.752 113.317 329.304C113.935 328.856 114.666 328.632 115.509 328.632C116.575 328.632 117.429 328.941 118.069 329.56C118.719 330.179 119.114 331.005 119.253 332.04ZM115.525 330.584C114.853 330.584 114.41 330.899 114.197 331.528C114.154 331.667 114.117 331.837 114.085 332.04C114.085 332.093 114.111 332.12 114.165 332.12H116.933C116.997 332.12 117.018 332.093 116.997 332.04C116.943 331.731 116.917 331.581 116.917 331.592C116.821 331.272 116.65 331.027 116.405 330.856C116.17 330.675 115.877 330.584 115.525 330.584ZM128.006 328.664C128.39 328.664 128.694 328.739 128.918 328.888C129.003 328.931 129.035 329.011 129.014 329.128L128.678 330.952C128.667 331.08 128.593 331.117 128.454 331.064C128.294 331.011 128.107 330.984 127.894 330.984C127.809 330.984 127.691 330.995 127.542 331.016C127.158 331.048 126.833 331.192 126.566 331.448C126.299 331.693 126.166 332.024 126.166 332.44V336.808C126.166 336.861 126.145 336.909 126.102 336.952C126.07 336.984 126.027 337 125.974 337H124.102C124.049 337 124.001 336.984 123.958 336.952C123.926 336.909 123.91 336.861 123.91 336.808V328.968C123.91 328.915 123.926 328.872 123.958 328.84C124.001 328.797 124.049 328.776 124.102 328.776H125.974C126.027 328.776 126.07 328.797 126.102 328.84C126.145 328.872 126.166 328.915 126.166 328.968V329.576C126.166 329.608 126.177 329.629 126.198 329.64C126.219 329.651 126.235 329.645 126.246 329.624C126.683 328.984 127.27 328.664 128.006 328.664ZM137.112 332.04C137.176 332.445 137.197 332.899 137.176 333.4C137.165 333.528 137.096 333.592 136.968 333.592H132.024C131.96 333.592 131.939 333.619 131.96 333.672C131.992 333.885 132.051 334.099 132.136 334.312C132.413 334.909 132.979 335.208 133.832 335.208C134.515 335.197 135.053 334.92 135.448 334.376C135.491 334.312 135.539 334.28 135.592 334.28C135.624 334.28 135.661 334.301 135.704 334.344L136.856 335.48C136.909 335.533 136.936 335.581 136.936 335.624C136.936 335.645 136.915 335.688 136.872 335.752C136.52 336.189 136.067 336.531 135.512 336.776C134.957 337.011 134.349 337.128 133.688 337.128C132.771 337.128 131.992 336.92 131.352 336.504C130.723 336.088 130.269 335.507 129.992 334.76C129.768 334.227 129.656 333.528 129.656 332.664C129.656 332.077 129.736 331.56 129.896 331.112C130.141 330.355 130.568 329.752 131.176 329.304C131.795 328.856 132.525 328.632 133.368 328.632C134.435 328.632 135.288 328.941 135.928 329.56C136.579 330.179 136.973 331.005 137.112 332.04ZM133.384 330.584C132.712 330.584 132.269 330.899 132.056 331.528C132.013 331.667 131.976 331.837 131.944 332.04C131.944 332.093 131.971 332.12 132.024 332.12H134.792C134.856 332.12 134.877 332.093 134.856 332.04C134.803 331.731 134.776 331.581 134.776 331.592C134.68 331.272 134.509 331.027 134.264 330.856C134.029 330.675 133.736 330.584 133.384 330.584ZM138.758 337C138.705 337 138.657 336.984 138.614 336.952C138.582 336.909 138.566 336.861 138.566 336.808V325.992C138.566 325.939 138.582 325.896 138.614 325.864C138.657 325.821 138.705 325.8 138.758 325.8H140.63C140.684 325.8 140.726 325.821 140.758 325.864C140.801 325.896 140.822 325.939 140.822 325.992V336.808C140.822 336.861 140.801 336.909 140.758 336.952C140.726 336.984 140.684 337 140.63 337H138.758ZM149.753 332.04C149.817 332.445 149.838 332.899 149.817 333.4C149.806 333.528 149.737 333.592 149.609 333.592H144.665C144.601 333.592 144.579 333.619 144.601 333.672C144.633 333.885 144.691 334.099 144.777 334.312C145.054 334.909 145.619 335.208 146.473 335.208C147.155 335.197 147.694 334.92 148.089 334.376C148.131 334.312 148.179 334.28 148.233 334.28C148.265 334.28 148.302 334.301 148.345 334.344L149.497 335.48C149.55 335.533 149.577 335.581 149.577 335.624C149.577 335.645 149.555 335.688 149.513 335.752C149.161 336.189 148.707 336.531 148.153 336.776C147.598 337.011 146.99 337.128 146.329 337.128C145.411 337.128 144.633 336.92 143.993 336.504C143.363 336.088 142.91 335.507 142.633 334.76C142.409 334.227 142.297 333.528 142.297 332.664C142.297 332.077 142.377 331.56 142.537 331.112C142.782 330.355 143.209 329.752 143.817 329.304C144.435 328.856 145.166 328.632 146.009 328.632C147.075 328.632 147.929 328.941 148.569 329.56C149.219 330.179 149.614 331.005 149.753 332.04ZM146.025 330.584C145.353 330.584 144.91 330.899 144.697 331.528C144.654 331.667 144.617 331.837 144.585 332.04C144.585 332.093 144.611 332.12 144.665 332.12H147.433C147.497 332.12 147.518 332.093 147.497 332.04C147.443 331.731 147.417 331.581 147.417 331.592C147.321 331.272 147.15 331.027 146.905 330.856C146.67 330.675 146.377 330.584 146.025 330.584ZM154.409 328.648C155.102 328.648 155.721 328.771 156.265 329.016C156.809 329.251 157.23 329.576 157.529 329.992C157.838 330.408 157.993 330.872 157.993 331.384V336.808C157.993 336.861 157.972 336.909 157.929 336.952C157.897 336.984 157.854 337 157.801 337H155.929C155.876 337 155.828 336.984 155.785 336.952C155.753 336.909 155.737 336.861 155.737 336.808V336.28C155.737 336.248 155.726 336.227 155.705 336.216C155.684 336.205 155.662 336.216 155.641 336.248C155.193 336.835 154.473 337.128 153.481 337.128C152.649 337.128 151.977 336.925 151.465 336.52C150.953 336.115 150.697 335.517 150.697 334.728C150.697 333.907 150.985 333.272 151.561 332.824C152.137 332.365 152.958 332.136 154.025 332.136H155.657C155.71 332.136 155.737 332.109 155.737 332.056V331.704C155.737 331.352 155.63 331.08 155.417 330.888C155.204 330.685 154.884 330.584 154.457 330.584C154.126 330.584 153.849 330.643 153.625 330.76C153.412 330.877 153.273 331.043 153.209 331.256C153.177 331.373 153.108 331.427 153.001 331.416L151.065 331.16C150.937 331.139 150.878 331.091 150.889 331.016C150.932 330.568 151.108 330.163 151.417 329.8C151.737 329.437 152.153 329.155 152.665 328.952C153.188 328.749 153.769 328.648 154.409 328.648ZM154.089 335.448C154.548 335.448 154.937 335.325 155.257 335.08C155.577 334.835 155.737 334.52 155.737 334.136V333.56C155.737 333.507 155.71 333.48 155.657 333.48H154.505C154.025 333.48 153.646 333.571 153.369 333.752C153.102 333.933 152.969 334.189 152.969 334.52C152.969 334.808 153.07 335.037 153.273 335.208C153.476 335.368 153.748 335.448 154.089 335.448ZM162.862 337.112C162.147 337.112 161.523 337.011 160.99 336.808C160.457 336.605 160.041 336.323 159.742 335.96C159.454 335.597 159.31 335.187 159.31 334.728V334.568C159.31 334.515 159.326 334.472 159.358 334.44C159.401 334.397 159.449 334.376 159.502 334.376H161.278C161.331 334.376 161.374 334.397 161.406 334.44C161.449 334.472 161.47 334.515 161.47 334.568V334.584C161.47 334.819 161.598 335.021 161.854 335.192C162.121 335.352 162.451 335.432 162.846 335.432C163.209 335.432 163.502 335.363 163.726 335.224C163.95 335.075 164.062 334.893 164.062 334.68C164.062 334.488 163.966 334.344 163.774 334.248C163.582 334.152 163.267 334.051 162.83 333.944C162.329 333.816 161.934 333.693 161.646 333.576C160.963 333.341 160.419 333.053 160.014 332.712C159.609 332.371 159.406 331.88 159.406 331.24C159.406 330.451 159.71 329.827 160.318 329.368C160.937 328.899 161.753 328.664 162.766 328.664C163.449 328.664 164.046 328.776 164.558 329C165.07 329.213 165.465 329.517 165.742 329.912C166.03 330.307 166.174 330.755 166.174 331.256C166.174 331.309 166.153 331.357 166.11 331.4C166.078 331.432 166.035 331.448 165.982 331.448H164.27C164.217 331.448 164.169 331.432 164.126 331.4C164.094 331.357 164.078 331.309 164.078 331.256C164.078 331.021 163.955 330.824 163.71 330.664C163.475 330.504 163.161 330.424 162.766 330.424C162.414 330.424 162.126 330.488 161.902 330.616C161.678 330.744 161.566 330.92 161.566 331.144C161.566 331.357 161.673 331.517 161.886 331.624C162.11 331.731 162.478 331.843 162.99 331.96C163.107 331.992 163.241 332.029 163.39 332.072C163.539 332.104 163.699 332.147 163.87 332.2C164.627 332.424 165.225 332.712 165.662 333.064C166.099 333.416 166.318 333.928 166.318 334.6C166.318 335.389 166.003 336.008 165.374 336.456C164.755 336.893 163.918 337.112 162.862 337.112ZM174.893 332.04C174.957 332.445 174.979 332.899 174.957 333.4C174.947 333.528 174.877 333.592 174.749 333.592H169.805C169.741 333.592 169.72 333.619 169.741 333.672C169.773 333.885 169.832 334.099 169.917 334.312C170.195 334.909 170.76 335.208 171.613 335.208C172.296 335.197 172.835 334.92 173.229 334.376C173.272 334.312 173.32 334.28 173.373 334.28C173.405 334.28 173.443 334.301 173.485 334.344L174.637 335.48C174.691 335.533 174.717 335.581 174.717 335.624C174.717 335.645 174.696 335.688 174.653 335.752C174.301 336.189 173.848 336.531 173.293 336.776C172.739 337.011 172.131 337.128 171.469 337.128C170.552 337.128 169.773 336.92 169.133 336.504C168.504 336.088 168.051 335.507 167.773 334.76C167.549 334.227 167.437 333.528 167.437 332.664C167.437 332.077 167.517 331.56 167.677 331.112C167.923 330.355 168.349 329.752 168.957 329.304C169.576 328.856 170.307 328.632 171.149 328.632C172.216 328.632 173.069 328.941 173.709 329.56C174.36 330.179 174.755 331.005 174.893 332.04ZM171.165 330.584C170.493 330.584 170.051 330.899 169.837 331.528C169.795 331.667 169.757 331.837 169.725 332.04C169.725 332.093 169.752 332.12 169.805 332.12H172.573C172.637 332.12 172.659 332.093 172.637 332.04C172.584 331.731 172.557 331.581 172.557 331.592C172.461 331.272 172.291 331.027 172.045 330.856C171.811 330.675 171.517 330.584 171.165 330.584ZM181.452 325.992C181.452 325.939 181.468 325.896 181.5 325.864C181.542 325.821 181.59 325.8 181.644 325.8H183.516C183.569 325.8 183.612 325.821 183.644 325.864C183.686 325.896 183.708 325.939 183.708 325.992V336.808C183.708 336.861 183.686 336.909 183.644 336.952C183.612 336.984 183.569 337 183.516 337H181.644C181.59 337 181.542 336.984 181.5 336.952C181.468 336.909 181.452 336.861 181.452 336.808V336.28C181.452 336.248 181.441 336.232 181.42 336.232C181.398 336.221 181.377 336.227 181.356 336.248C180.908 336.835 180.294 337.128 179.516 337.128C178.769 337.128 178.124 336.92 177.58 336.504C177.046 336.088 176.662 335.517 176.428 334.792C176.246 334.237 176.156 333.592 176.156 332.856C176.156 332.099 176.252 331.437 176.444 330.872C176.689 330.189 177.073 329.651 177.596 329.256C178.129 328.851 178.785 328.648 179.564 328.648C180.332 328.648 180.929 328.915 181.356 329.448C181.377 329.48 181.398 329.491 181.42 329.48C181.441 329.469 181.452 329.448 181.452 329.416V325.992ZM181.116 334.504C181.329 334.109 181.436 333.571 181.436 332.888C181.436 332.173 181.318 331.613 181.084 331.208C180.838 330.792 180.481 330.584 180.012 330.584C179.51 330.584 179.132 330.792 178.876 331.208C178.609 331.624 178.476 332.189 178.476 332.904C178.476 333.544 178.588 334.077 178.812 334.504C179.078 334.963 179.473 335.192 179.996 335.192C180.476 335.192 180.849 334.963 181.116 334.504Z" fill="black"/>
</svg>
