<svg width="538" height="568" viewBox="0 0 538 568" fill="none" xmlns="http://www.w3.org/2000/svg">
<rect width="538" height="568" fill="white"/>
<path d="M80.352 74.856C80.4587 74.6853 80.608 74.6 80.8 74.6H84.544C84.6507 74.6 84.736 74.6427 84.8 74.728C84.8853 74.792 84.928 74.8773 84.928 74.984V96.616C84.928 96.7227 84.8853 96.8187 84.8 96.904C84.736 96.968 84.6507 97 84.544 97H80.8C80.6933 97 80.5973 96.968 80.512 96.904C80.448 96.8187 80.416 96.7227 80.416 96.616V82.504C80.416 82.4187 80.3947 82.376 80.352 82.376C80.3093 82.376 80.2667 82.408 80.224 82.472L76.832 87.784C76.7253 87.9547 76.576 88.04 76.384 88.04H74.496C74.304 88.04 74.1547 87.9547 74.048 87.784L70.656 82.472C70.6133 82.408 70.5707 82.3867 70.528 82.408C70.4853 82.408 70.464 82.4507 70.464 82.536V96.616C70.464 96.7227 70.4213 96.8187 70.336 96.904C70.272 96.968 70.1867 97 70.08 97H66.336C66.2293 97 66.1333 96.968 66.048 96.904C65.984 96.8187 65.952 96.7227 65.952 96.616V74.984C65.952 74.8773 65.984 74.792 66.048 74.728C66.1333 74.6427 66.2293 74.6 66.336 74.6H70.08C70.272 74.6 70.4213 74.6853 70.528 74.856L75.328 82.312C75.392 82.44 75.456 82.44 75.52 82.312L80.352 74.856ZM103.099 87.08C103.227 87.8907 103.27 88.7973 103.227 89.8C103.206 90.056 103.067 90.184 102.811 90.184H92.923C92.795 90.184 92.7523 90.2373 92.795 90.344C92.859 90.7707 92.9763 91.1973 93.147 91.624C93.7017 92.8187 94.8323 93.416 96.539 93.416C97.9043 93.3947 98.9817 92.84 99.771 91.752C99.8563 91.624 99.9523 91.56 100.059 91.56C100.123 91.56 100.198 91.6027 100.283 91.688L102.587 93.96C102.694 94.0667 102.747 94.1627 102.747 94.248C102.747 94.2907 102.704 94.376 102.619 94.504C101.915 95.3787 101.008 96.0613 99.899 96.552C98.7897 97.0213 97.5737 97.256 96.251 97.256C94.4163 97.256 92.859 96.84 91.579 96.008C90.3203 95.176 89.4137 94.0133 88.859 92.52C88.411 91.4533 88.187 90.056 88.187 88.328C88.187 87.1547 88.347 86.12 88.667 85.224C89.1577 83.7093 90.011 82.504 91.227 81.608C92.4643 80.712 93.9257 80.264 95.611 80.264C97.7443 80.264 99.451 80.8827 100.731 82.12C102.032 83.3573 102.822 85.0107 103.099 87.08ZM95.643 84.168C94.299 84.168 93.4137 84.7973 92.987 86.056C92.9017 86.3333 92.827 86.6747 92.763 87.08C92.763 87.1867 92.8163 87.24 92.923 87.24H98.459C98.587 87.24 98.6297 87.1867 98.587 87.08C98.4803 86.4613 98.427 86.1627 98.427 86.184C98.235 85.544 97.8937 85.0533 97.403 84.712C96.9337 84.3493 96.347 84.168 95.643 84.168ZM116.216 74.984C116.216 74.8773 116.248 74.792 116.312 74.728C116.397 74.6427 116.493 74.6 116.6 74.6H120.344C120.45 74.6 120.536 74.6427 120.6 74.728C120.685 74.792 120.728 74.8773 120.728 74.984V96.616C120.728 96.7227 120.685 96.8187 120.6 96.904C120.536 96.968 120.45 97 120.344 97H116.6C116.493 97 116.397 96.968 116.312 96.904C116.248 96.8187 116.216 96.7227 116.216 96.616V95.56C116.216 95.496 116.194 95.464 116.152 95.464C116.109 95.4427 116.066 95.4533 116.024 95.496C115.128 96.6693 113.901 97.256 112.344 97.256C110.85 97.256 109.56 96.84 108.472 96.008C107.405 95.176 106.637 94.0347 106.168 92.584C105.805 91.4747 105.624 90.184 105.624 88.712C105.624 87.1973 105.816 85.8747 106.2 84.744C106.69 83.3787 107.458 82.3013 108.504 81.512C109.57 80.7013 110.882 80.296 112.44 80.296C113.976 80.296 115.17 80.8293 116.024 81.896C116.066 81.96 116.109 81.9813 116.152 81.96C116.194 81.9387 116.216 81.896 116.216 81.832V74.984ZM115.544 92.008C115.97 91.2187 116.184 90.1413 116.184 88.776C116.184 87.3467 115.949 86.2267 115.48 85.416C114.989 84.584 114.274 84.168 113.336 84.168C112.333 84.168 111.576 84.584 111.064 85.416C110.53 86.248 110.264 87.3787 110.264 88.808C110.264 90.088 110.488 91.1547 110.936 92.008C111.469 92.9253 112.258 93.384 113.304 93.384C114.264 93.384 115.01 92.9253 115.544 92.008ZM126.565 78.696C125.839 78.696 125.231 78.4613 124.741 77.992C124.271 77.5013 124.037 76.8933 124.037 76.168C124.037 75.4213 124.271 74.8133 124.741 74.344C125.21 73.8747 125.818 73.64 126.565 73.64C127.311 73.64 127.919 73.8747 128.389 74.344C128.858 74.8133 129.093 75.4213 129.093 76.168C129.093 76.8933 128.847 77.5013 128.357 77.992C127.887 78.4613 127.29 78.696 126.565 78.696ZM124.645 97C124.538 97 124.442 96.968 124.357 96.904C124.293 96.8187 124.261 96.7227 124.261 96.616V80.904C124.261 80.7973 124.293 80.712 124.357 80.648C124.442 80.5627 124.538 80.52 124.645 80.52H128.389C128.495 80.52 128.581 80.5627 128.645 80.648C128.73 80.712 128.773 80.7973 128.773 80.904V96.616C128.773 96.7227 128.73 96.8187 128.645 96.904C128.581 96.968 128.495 97 128.389 97H124.645ZM138.849 80.296C140.236 80.296 141.473 80.5413 142.561 81.032C143.649 81.5013 144.492 82.152 145.089 82.984C145.708 83.816 146.017 84.744 146.017 85.768V96.616C146.017 96.7227 145.974 96.8187 145.889 96.904C145.825 96.968 145.74 97 145.633 97H141.889C141.782 97 141.686 96.968 141.601 96.904C141.537 96.8187 141.505 96.7227 141.505 96.616V95.56C141.505 95.496 141.484 95.4533 141.441 95.432C141.398 95.4107 141.356 95.432 141.313 95.496C140.417 96.6693 138.977 97.256 136.993 97.256C135.329 97.256 133.985 96.8507 132.961 96.04C131.937 95.2293 131.425 94.0347 131.425 92.456C131.425 90.8133 132.001 89.544 133.153 88.648C134.305 87.7307 135.948 87.272 138.081 87.272H141.345C141.452 87.272 141.505 87.2187 141.505 87.112V86.408C141.505 85.704 141.292 85.16 140.865 84.776C140.438 84.3707 139.798 84.168 138.945 84.168C138.284 84.168 137.729 84.2853 137.281 84.52C136.854 84.7547 136.577 85.0853 136.449 85.512C136.385 85.7467 136.246 85.8533 136.033 85.832L132.161 85.32C131.905 85.2773 131.788 85.1813 131.809 85.032C131.894 84.136 132.246 83.3253 132.865 82.6C133.505 81.8747 134.337 81.3093 135.361 80.904C136.406 80.4987 137.569 80.296 138.849 80.296ZM138.209 93.896C139.126 93.896 139.905 93.6507 140.545 93.16C141.185 92.6693 141.505 92.04 141.505 91.272V90.12C141.505 90.0133 141.452 89.96 141.345 89.96H139.041C138.081 89.96 137.324 90.1413 136.769 90.504C136.236 90.8667 135.969 91.3787 135.969 92.04C135.969 92.616 136.172 93.0747 136.577 93.416C136.982 93.736 137.526 93.896 138.209 93.896Z" fill="black"/>
<rect x="64.5" y="136.5" width="63" height="118" rx="4.5" stroke="#9747FF" stroke-dasharray="10 5"/>
<path d="M85 219.776L87 221.776C91.97 216.806 100.03 216.806 105 221.776L107 219.776C100.93 213.706 91.08 213.706 85 219.776ZM93 227.776L96 230.776L99 227.776C97.35 226.116 94.66 226.116 93 227.776ZM89 223.776L91 225.776C93.76 223.016 98.24 223.016 101 225.776L103 223.776C99.14 219.916 92.87 219.916 89 223.776Z" fill="#006158"/>
<path d="M105 168.17L107 166.17C103.27 162.44 98.13 161.02 93.3 161.86L95.88 164.44C99.18 164.42 102.49 165.66 105 168.17ZM103 170.17C101.92 169.09 100.64 168.32 99.28 167.84L102.3 170.86L103 170.17ZM93 174.17L96 177.17L99 174.17C97.35 172.51 94.66 172.51 93 174.17ZM87.41 158.81L86 160.22L89.05 163.27C87.59 164 86.22 164.96 85 166.17L87 168.17C88.23 166.94 89.65 166.01 91.17 165.39L93.41 167.63C91.79 168.06 90.27 168.91 89 170.17L91 172.17C92.35 170.82 94.11 170.13 95.89 170.11L102.97 177.19L104.38 175.78L87.41 158.81Z" fill="#006158"/>
<rect x="144.5" y="136.5" width="63" height="119" rx="4.5" stroke="#9747FF" stroke-dasharray="10 5"/>
<path d="M174.72 161.39C174.72 160.73 175.26 160.19 175.92 160.19C176.58 160.19 177.12 160.73 177.12 161.39L177.11 165.3L178.92 167.09V161.49C178.92 159.83 177.58 158.49 175.92 158.49C174.38 158.49 173.13 159.65 172.96 161.14L174.72 162.9V161.39ZM182.92 167.49H181.22C181.22 168.07 181.12 168.62 180.95 169.13L182.22 170.4C182.66 169.52 182.92 168.53 182.92 167.49ZM168.33 159.35L166.92 160.76L172.92 166.76V167.49C172.92 169.15 174.26 170.49 175.92 170.49C176.15 170.49 176.36 170.46 176.57 170.41L178.23 172.07C177.52 172.4 176.73 172.59 175.92 172.59C173.16 172.59 170.62 170.49 170.62 167.49H168.92C168.92 170.9 171.64 173.72 174.92 174.21V177.49H176.92V174.21C177.83 174.08 178.69 173.76 179.47 173.31L183.67 177.51L185.08 176.1L168.33 159.35Z" fill="#006158"/>
<path d="M176 226.5C177.66 226.5 179 225.16 179 223.5V217.5C179 215.84 177.66 214.5 176 214.5C174.34 214.5 173 215.84 173 217.5V223.5C173 225.16 174.34 226.5 176 226.5ZM175 217.5C175 216.95 175.45 216.5 176 216.5C176.55 216.5 177 216.95 177 217.5V223.5C177 224.05 176.55 224.5 176 224.5C175.45 224.5 175 224.05 175 223.5V217.5ZM181 223.5C181 226.26 178.76 228.5 176 228.5C173.24 228.5 171 226.26 171 223.5H169C169 227.03 171.61 229.93 175 230.42V233.5H177V230.42C180.39 229.93 183 227.03 183 223.5H181Z" fill="#006158"/>
<rect x="224.5" y="136.5" width="63" height="110" rx="4.5" stroke="#9747FF" stroke-dasharray="10 5"/>
<path d="M248.34 158.935L246.93 160.345L251.29 164.705L251 165.005H247V171.005H251L256 176.005V169.415L260.18 173.595C259.53 174.085 258.8 174.475 258 174.705V176.765C259.34 176.465 260.57 175.845 261.61 175.015L263.66 177.065L265.07 175.655L248.34 158.935ZM254 171.175L251.83 169.005H249V167.005H251.83L252.71 166.125L254 167.415V171.175ZM263 168.005C263 168.825 262.85 169.615 262.59 170.345L264.12 171.875C264.68 170.705 265 169.395 265 168.005C265 163.725 262.01 160.145 258 159.235V161.295C260.89 162.155 263 164.835 263 168.005ZM256 160.005L254.12 161.885L256 163.765V160.005ZM260.5 168.005C260.5 166.235 259.48 164.715 258 163.975V165.765L260.48 168.245C260.49 168.165 260.5 168.085 260.5 168.005Z" fill="#006158"/>
<path d="M247 212V218H251L256 223V207L251 212H247ZM254 211.83V218.17L251.83 216H249V214H251.83L254 211.83ZM260.5 215C260.5 213.23 259.48 211.71 258 210.97V219.02C259.48 218.29 260.5 216.77 260.5 215ZM258 206.23V208.29C260.89 209.15 263 211.83 263 215C263 218.17 260.89 220.85 258 221.71V223.77C262.01 222.86 265 219.28 265 215C265 210.72 262.01 207.14 258 206.23Z" fill="#006158"/>
<rect x="304.5" y="136.5" width="63" height="110" rx="4.5" stroke="#9747FF" stroke-dasharray="10 5"/>
<path d="M341 161V177C341 177.55 340.55 178 340 178H332C331.45 178 331 177.55 331 177V161C331 160.45 331.45 160 332 160H334V158H338V160H340C340.55 160 341 160.45 341 161ZM339 162H333V176H339V162Z" fill="#006158"/>
<path d="M339.67 207H338V205H334V207H332.33C331.6 207 331 207.6 331 208.33V223.66C331 224.4 331.6 225 332.33 225H339.66C340.4 225 341 224.4 341 223.67V208.33C341 207.6 340.4 207 339.67 207Z" fill="#006158"/>
<rect x="64.5" y="288.5" width="128" height="63" rx="4.5" stroke="#9747FF" stroke-dasharray="10 5"/>
<path d="M90 327H94V313H90V327ZM98 313V327H102V313H98Z" fill="#006158"/>
<path d="M155.5 313V327L166.5 320L155.5 313Z" fill="#006158"/>
<rect x="64.5" y="384.5" width="108" height="63" rx="4.5" stroke="#9747FF" stroke-dasharray="10 5"/>
<path d="M91 420H98V422H91V420ZM91 416H101V418H91V416ZM91 412H101V414H91V412ZM103 408H98.82C98.4 406.84 97.3 406 96 406C94.7 406 93.6 406.84 93.18 408H89C88.86 408 88.73 408.01 88.6 408.04C88.21 408.12 87.86 408.32 87.59 408.59C87.41 408.77 87.26 408.99 87.16 409.23C87.06 409.46 87 409.72 87 410V424C87 424.27 87.06 424.54 87.16 424.78C87.26 425.02 87.41 425.23 87.59 425.42C87.86 425.69 88.21 425.89 88.6 425.97C88.73 425.99 88.86 426 89 426H103C104.1 426 105 425.1 105 424V410C105 408.9 104.1 408 103 408ZM96 407.75C96.41 407.75 96.75 408.09 96.75 408.5C96.75 408.91 96.41 409.25 96 409.25C95.59 409.25 95.25 408.91 95.25 408.5C95.25 408.09 95.59 407.75 96 407.75ZM103 424H89V410H103V424Z" fill="#006158"/>
<path d="M148 408H143.82C143.4 406.84 142.3 406 141 406C139.7 406 138.6 406.84 138.18 408H134C132.9 408 132 408.9 132 410V424C132 425.1 132.9 426 134 426H148C149.1 426 150 425.1 150 424V410C150 408.9 149.1 408 148 408ZM141 408C141.55 408 142 408.45 142 409C142 409.55 141.55 410 141 410C140.45 410 140 409.55 140 409C140 408.45 140.45 408 141 408ZM143 422H136V420H143V422ZM146 418H136V416H146V418ZM146 414H136V412H146V414Z" fill="#006158"/>
<path d="M81 483H69C67.89 483 67 483.9 67 485V499C67 500.1 67.89 501 69 501H83C84.1 501 85 500.1 85 499V487L81 483ZM76 499C74.34 499 73 497.66 73 496C73 494.34 74.34 493 76 493C77.66 493 79 494.34 79 496C79 497.66 77.66 499 76 499ZM79 489H69V485H79V489Z" fill="#006158"/>
<path d="M113.001 493.5C115.21 493.5 117.001 491.709 117.001 489.5C117.001 487.291 115.21 485.5 113.001 485.5C110.791 485.5 109.001 487.291 109.001 489.5C109.001 491.709 110.791 493.5 113.001 493.5Z" fill="#006158"/>
<path d="M113.001 495.5C110.331 495.5 105.001 496.84 105.001 499.5V501.5H121.001V499.5C121.001 496.84 115.671 495.5 113.001 495.5ZM120.761 485.86L119.081 487.55C119.921 488.73 119.921 490.26 119.081 491.44L120.761 493.13C122.781 491.11 122.781 488.06 120.761 485.86ZM124.071 482.5L122.441 484.13C125.211 487.15 125.211 491.69 122.441 494.87L124.071 496.5C127.971 492.61 127.981 486.55 124.071 482.5Z" fill="#006158"/>
<path d="M156.5 488.095H155V494.095L159.75 496.945L160.5 495.715L156.5 493.345V488.095ZM161.337 481.905L165.944 485.75L164.664 487.285L160.054 483.442L161.337 481.905ZM150.663 481.905L151.945 483.441L147.337 487.285L146.057 485.749L150.663 481.905ZM156 484.095C151.03 484.095 147 488.125 147 493.095C147 498.065 151.03 502.095 156 502.095C160.97 502.095 165 498.065 165 493.095C165 488.125 160.97 484.095 156 484.095ZM156 500.095C152.14 500.095 149 496.955 149 493.095C149 489.235 152.14 486.095 156 486.095C159.86 486.095 163 489.235 163 493.095C163 496.955 159.86 500.095 156 500.095Z" fill="#006158"/>
<path d="M200.5 486V497.5C200.5 499.71 198.71 501.5 196.5 501.5C194.29 501.5 192.5 499.71 192.5 497.5V485C192.5 483.62 193.62 482.5 195 482.5C196.38 482.5 197.5 483.62 197.5 485V495.5C197.5 496.05 197.05 496.5 196.5 496.5C195.95 496.5 195.5 496.05 195.5 495.5V486H194V495.5C194 496.88 195.12 498 196.5 498C197.88 498 199 496.88 199 495.5V485C199 482.79 197.21 481 195 481C192.79 481 191 482.79 191 485V497.5C191 500.54 193.46 503 196.5 503C199.54 503 202 500.54 202 497.5V486H200.5Z" fill="#006158"/>
</svg>
