<svg width="794" height="543" viewBox="0 0 794 543" fill="none" xmlns="http://www.w3.org/2000/svg">
<rect width="794" height="543" fill="white"/>
<path d="M80.352 74.856C80.4587 74.6853 80.608 74.6 80.8 74.6H84.544C84.6507 74.6 84.736 74.6427 84.8 74.728C84.8853 74.792 84.928 74.8773 84.928 74.984V96.616C84.928 96.7227 84.8853 96.8187 84.8 96.904C84.736 96.968 84.6507 97 84.544 97H80.8C80.6933 97 80.5973 96.968 80.512 96.904C80.448 96.8187 80.416 96.7227 80.416 96.616V82.504C80.416 82.4187 80.3947 82.376 80.352 82.376C80.3093 82.376 80.2667 82.408 80.224 82.472L76.832 87.784C76.7253 87.9547 76.576 88.04 76.384 88.04H74.496C74.304 88.04 74.1547 87.9547 74.048 87.784L70.656 82.472C70.6133 82.408 70.5707 82.3867 70.528 82.408C70.4853 82.408 70.464 82.4507 70.464 82.536V96.616C70.464 96.7227 70.4213 96.8187 70.336 96.904C70.272 96.968 70.1867 97 70.08 97H66.336C66.2293 97 66.1333 96.968 66.048 96.904C65.984 96.8187 65.952 96.7227 65.952 96.616V74.984C65.952 74.8773 65.984 74.792 66.048 74.728C66.1333 74.6427 66.2293 74.6 66.336 74.6H70.08C70.272 74.6 70.4213 74.6853 70.528 74.856L75.328 82.312C75.392 82.44 75.456 82.44 75.52 82.312L80.352 74.856ZM90.971 78.696C90.2457 78.696 89.6377 78.4613 89.147 77.992C88.6777 77.5013 88.443 76.8933 88.443 76.168C88.443 75.4213 88.6777 74.8133 89.147 74.344C89.6163 73.8747 90.2243 73.64 90.971 73.64C91.7177 73.64 92.3257 73.8747 92.795 74.344C93.2643 74.8133 93.499 75.4213 93.499 76.168C93.499 76.8933 93.2537 77.5013 92.763 77.992C92.2937 78.4613 91.6963 78.696 90.971 78.696ZM89.051 97C88.9443 97 88.8483 96.968 88.763 96.904C88.699 96.8187 88.667 96.7227 88.667 96.616V80.904C88.667 80.7973 88.699 80.712 88.763 80.648C88.8483 80.5627 88.9443 80.52 89.051 80.52H92.795C92.9017 80.52 92.987 80.5627 93.051 80.648C93.1363 80.712 93.179 80.7973 93.179 80.904V96.616C93.179 96.7227 93.1363 96.8187 93.051 96.904C92.987 96.968 92.9017 97 92.795 97H89.051ZM103.255 97.224C101.826 97.224 100.578 97.0213 99.5113 96.616C98.4446 96.2107 97.6126 95.6453 97.0153 94.92C96.4393 94.1947 96.1513 93.3733 96.1513 92.456V92.136C96.1513 92.0293 96.1833 91.944 96.2473 91.88C96.3326 91.7947 96.4286 91.752 96.5353 91.752H100.087C100.194 91.752 100.279 91.7947 100.343 91.88C100.429 91.944 100.471 92.0293 100.471 92.136V92.168C100.471 92.6373 100.727 93.0427 101.239 93.384C101.773 93.704 102.434 93.864 103.223 93.864C103.949 93.864 104.535 93.7253 104.983 93.448C105.431 93.1493 105.655 92.7867 105.655 92.36C105.655 91.976 105.463 91.688 105.079 91.496C104.695 91.304 104.066 91.1013 103.191 90.888C102.189 90.632 101.399 90.3867 100.823 90.152C99.4579 89.6827 98.3699 89.1067 97.5593 88.424C96.7486 87.7413 96.3433 86.76 96.3433 85.48C96.3433 83.9013 96.9513 82.6533 98.1673 81.736C99.4046 80.7973 101.037 80.328 103.063 80.328C104.429 80.328 105.623 80.552 106.647 81C107.671 81.4267 108.461 82.0347 109.015 82.824C109.591 83.6133 109.879 84.5093 109.879 85.512C109.879 85.6187 109.837 85.7147 109.751 85.8C109.687 85.864 109.602 85.896 109.495 85.896H106.071C105.965 85.896 105.869 85.864 105.783 85.8C105.719 85.7147 105.687 85.6187 105.687 85.512C105.687 85.0427 105.442 84.648 104.951 84.328C104.482 84.008 103.853 83.848 103.063 83.848C102.359 83.848 101.783 83.976 101.335 84.232C100.887 84.488 100.663 84.84 100.663 85.288C100.663 85.7147 100.877 86.0347 101.303 86.248C101.751 86.4613 102.487 86.6853 103.511 86.92C103.746 86.984 104.013 87.0587 104.311 87.144C104.61 87.208 104.93 87.2933 105.271 87.4C106.786 87.848 107.981 88.424 108.855 89.128C109.73 89.832 110.167 90.856 110.167 92.2C110.167 93.7787 109.538 95.016 108.279 95.912C107.042 96.7867 105.367 97.224 103.255 97.224ZM119.99 97.256C118.283 97.256 116.8 96.8293 115.542 95.976C114.304 95.1227 113.419 93.9493 112.886 92.456C112.523 91.3893 112.342 90.1307 112.342 88.68C112.342 87.2507 112.523 86.0133 112.886 84.968C113.398 83.5173 114.283 82.376 115.542 81.544C116.8 80.712 118.283 80.296 119.99 80.296C121.696 80.296 123.19 80.7227 124.47 81.576C125.771 82.4293 126.635 83.5067 127.062 84.808C127.232 85.32 127.318 85.704 127.318 85.96V86.024C127.318 86.216 127.211 86.3333 126.998 86.376L123.318 86.92H123.254C123.062 86.92 122.934 86.8133 122.87 86.6L122.774 86.088C122.624 85.5333 122.294 85.0747 121.782 84.712C121.27 84.3493 120.662 84.168 119.958 84.168C119.275 84.168 118.699 84.3387 118.23 84.68C117.76 85.0213 117.43 85.4907 117.238 86.088C117.003 86.728 116.886 87.6027 116.886 88.712C116.886 89.8213 116.992 90.696 117.206 91.336C117.398 91.976 117.728 92.4773 118.198 92.84C118.688 93.2027 119.275 93.384 119.958 93.384C120.619 93.384 121.195 93.2133 121.686 92.872C122.198 92.5093 122.55 92.0187 122.742 91.4C122.763 91.3573 122.774 91.2933 122.774 91.208C122.795 91.1867 122.806 91.1547 122.806 91.112C122.827 90.856 122.976 90.7493 123.254 90.792L126.934 91.368C127.147 91.4107 127.254 91.528 127.254 91.72C127.254 91.8907 127.19 92.2107 127.062 92.68C126.614 94.1093 125.739 95.2293 124.438 96.04C123.158 96.8507 121.675 97.256 119.99 97.256Z" fill="black"/>
<rect x="64.5" y="136.5" width="43" height="77" rx="4.5" stroke="#9747FF" stroke-dasharray="10 5"/>
<path d="M86 148C80.5 148 76 152.5 76 158C76 163.5 80.5 168 86 168C91.5 168 96 163.5 96 158C96 152.5 91.5 148 86 148ZM90.2 162.2L85 159V153H86.5V158.2L91 160.9L90.2 162.2Z" fill="#006158"/>
<path d="M86 200C88.1217 200 90.1566 199.157 91.6569 197.657C93.1571 196.157 94 194.122 94 192C94 189.878 93.1571 187.843 91.6569 186.343C90.1566 184.843 88.1217 184 86 184C83.8783 184 81.8434 184.843 80.3431 186.343C78.8429 187.843 78 189.878 78 192C78 194.122 78.8429 196.157 80.3431 197.657C81.8434 199.157 83.8783 200 86 200ZM86 182C87.3132 182 88.6136 182.259 89.8268 182.761C91.0401 183.264 92.1425 184 93.0711 184.929C93.9997 185.858 94.7362 186.96 95.2388 188.173C95.7413 189.386 96 190.687 96 192C96 194.652 94.9464 197.196 93.0711 199.071C91.1957 200.946 88.6522 202 86 202C80.47 202 76 197.5 76 192C76 189.348 77.0536 186.804 78.9289 184.929C80.8043 183.054 83.3478 182 86 182ZM86.5 187V192.25L91 194.92L90.25 196.15L85 193V187H86.5Z" fill="#006158"/>
<rect x="124.5" y="136.5" width="63" height="107" rx="4.5" stroke="#9747FF" stroke-dasharray="10 5"/>
<path d="M162 164H161V162C161 159.24 158.76 157 156 157C153.24 157 151 159.24 151 162V164H150C148.9 164 148 164.9 148 166V176C148 177.1 148.9 178 150 178H162C163.1 178 164 177.1 164 176V166C164 164.9 163.1 164 162 164ZM156 173C154.9 173 154 172.1 154 171C154 169.9 154.9 169 156 169C157.1 169 158 169.9 158 171C158 172.1 157.1 173 156 173ZM159.1 164H152.9V162C152.9 160.29 154.29 158.9 156 158.9C157.71 158.9 159.1 160.29 159.1 162V164Z" fill="#006158"/>
<path d="M156 217C157.1 217 158 216.1 158 215C158 213.9 157.1 213 156 213C154.9 213 154 213.9 154 215C154 216.1 154.9 217 156 217ZM162 208H161V206C161 203.24 158.76 201 156 201C153.24 201 151 203.24 151 206V208H150C148.9 208 148 208.9 148 210V220C148 221.1 148.9 222 150 222H162C163.1 222 164 221.1 164 220V210C164 208.9 163.1 208 162 208ZM152.9 206C152.9 204.29 154.29 202.9 156 202.9C157.71 202.9 159.1 204.29 159.1 206V208H152.9V206ZM162 220H150V210H162V220Z" fill="#006158"/>
<rect x="204.5" y="136.5" width="63" height="107" rx="4.5" stroke="#9747FF" stroke-dasharray="10 5"/>
<path d="M236 158C230.48 158 226 162.48 226 168C226 173.52 230.48 178 236 178C241.52 178 246 173.52 246 168C246 162.48 241.52 158 236 158Z" fill="#006158"/>
<path fill-rule="evenodd" clip-rule="evenodd" d="M236 204.5C231.861 204.5 228.5 207.861 228.5 212C228.5 216.139 231.861 219.5 236 219.5C240.139 219.5 243.5 216.139 243.5 212C243.5 207.861 240.139 204.5 236 204.5ZM226 212C226 206.48 230.48 202 236 202C241.52 202 246 206.48 246 212C246 217.52 241.52 222 236 222C230.48 222 226 217.52 226 212Z" fill="#006158"/>
<rect x="284.5" y="136.5" width="63" height="101" rx="4.5" stroke="#9747FF" stroke-dasharray="10 5"/>
<path d="M309.825 178L311.45 170.975L306 166.25L313.2 165.625L316 159L318.8 165.625L326 166.25L320.55 170.975L322.175 178L316 174.275L309.825 178Z" fill="#006158"/>
<path d="M312.85 211.825L316 209.925L319.15 211.85L318.325 208.25L321.1 205.85L317.45 205.525L316 202.125L314.55 205.5L310.9 205.825L313.675 208.25L312.85 211.825ZM309.825 216L311.45 208.975L306 204.25L313.2 203.625L316 197L318.8 203.625L326 204.25L320.55 208.975L322.175 216L316 212.275L309.825 216Z" fill="#006158"/>
<rect x="364.5" y="136.5" width="43" height="91" rx="4.5" stroke="#9747FF" stroke-dasharray="10 5"/>
<path d="M383 153V161L390 157L383 153ZM395 149H377C375.9 149 375 149.9 375 151V163C375 164.1 375.9 165 377 165H382V167H390V165H395C396.1 165 397 164.1 397 163V151C397 149.9 396.1 149 395 149ZM395 163H377V151H395V163Z" fill="#006158"/>
<path d="M383 201V209L390 205L383 201ZM395 197H377C375.9 197 375 197.9 375 199V211C375 212.1 375.9 213 377 213H382V215H390V213H395C396.1 213 397 212.1 397 211V199C397 197.9 396.1 197 395 197ZM395 211H377V199H395V211Z" fill="#006158"/>
<rect x="424.5" y="136.5" width="43" height="91" rx="4.5" stroke="#9747FF" stroke-dasharray="10 5"/>
<path d="M439 159.18V163.18L446 167L453 163.18V159.18L446 163L439 159.18ZM446 149L435 155L446 161L455 156.09V163H457V155L446 149Z" fill="#006158"/>
<path d="M446 197L435 203L439 205.18V211.18L446 215L453 211.18V205.18L455 204.09V211H457V203L446 197ZM452.82 203L446 206.72L439.18 203L446 199.28L452.82 203ZM451 209.99L446 212.72L441 209.99V206.27L446 209L451 206.27V209.99Z" fill="#006158"/>
<rect x="484.5" y="136.5" width="43" height="91" rx="4.5" stroke="#9747FF" stroke-dasharray="10 5"/>
<path d="M513 149H499C497.9 149 497 149.9 497 151V165C497 166.1 497.9 167 499 167H513C514.1 167 515 166.1 515 165V151C515 149.9 514.1 149 513 149ZM508 163H501V161H508V163ZM511 159H501V157H511V159ZM511 155H501V153H511V155Z" fill="#006158"/>
<path d="M513 199V213H499V199H513ZM513 197H499C497.9 197 497 197.9 497 199V213C497 214.1 497.9 215 499 215H513C514.1 215 515 214.1 515 213V199C515 197.9 514.1 197 513 197Z" fill="#006158"/>
<path d="M508 211H501V209H508V211ZM511 207H501V205H511V207ZM511 203H501V201H511V203Z" fill="#006158"/>
<rect x="544.5" y="136.5" width="43" height="91" rx="4.5" stroke="#9747FF" stroke-dasharray="10 5"/>
<path d="M563.68 159.19L566 157.43L568.31 159.19L567.43 156.34L569.75 154.5H566.91L566 151.69L565.09 154.5H562.25L564.56 156.34L563.68 159.19ZM574 155.5C574 151.08 570.42 147.5 566 147.5C561.58 147.5 558 151.08 558 155.5C558 157.53 558.76 159.37 560 160.78V168.5L566 166.5L572 168.5V160.78C573.24 159.37 574 157.53 574 155.5ZM566 149.5C569.31 149.5 572 152.19 572 155.5C572 158.81 569.31 161.5 566 161.5C562.69 161.5 560 158.81 560 155.5C560 152.19 562.69 149.5 566 149.5Z" fill="#006158"/>
<path d="M563.68 207.19L566 205.43L568.31 207.19L567.43 204.34L569.75 202.5H566.91L566 199.69L565.09 202.5H562.25L564.56 204.34L563.68 207.19ZM574 203.5C574 199.08 570.42 195.5 566 195.5C561.58 195.5 558 199.08 558 203.5C558 205.53 558.76 207.37 560 208.78V216.5L566 214.5L572 216.5V208.78C573.24 207.37 574 205.53 574 203.5ZM566 197.5C569.31 197.5 572 200.19 572 203.5C572 206.81 569.31 209.5 566 209.5C562.69 209.5 560 206.81 560 203.5C560 200.19 562.69 197.5 566 197.5ZM566 212.5L562 213.52V210.42C563.18 211.1 564.54 211.5 566 211.5C567.46 211.5 568.82 211.1 570 210.42V213.52L566 212.5Z" fill="#006158"/>
<rect x="604.5" y="136.5" width="43" height="145" rx="4.5" stroke="#9747FF" stroke-dasharray="10 5"/>
<path d="M634 152H626L624 150H618C616.9 150 616 150.9 616 152V164C616 165.1 616.9 166 618 166H634C635.1 166 636 165.1 636 164V154C636 152.9 635.1 152 634 152ZM628.2 162.2L625.4 159.2L626.6 158L628.2 159.6L631.8 156L633 157.4L628.2 162.2Z" fill="#006158"/>
<path d="M634 198H618V188H634V198ZM634 186H626L624 184H618C616.9 184 616 184.9 616 186V198C616 199.1 616.9 200 618 200H634C635.1 200 636 199.1 636 198V188C636 186.9 635.1 186 634 186ZM627.2 196.2L624.4 193.2L625.6 192L627.2 193.6L630.8 190L632 191.4L627.2 196.2Z" fill="#006158"/>
<path d="M624 218L626 220H634C634.53 220 635.039 220.211 635.414 220.586C635.789 220.961 636 221.47 636 222V232C636 232.53 635.789 233.039 635.414 233.414C635.039 233.789 634.53 234 634 234H618C617.47 234 616.961 233.789 616.586 233.414C616.211 233.039 616 232.53 616 232V220C616 218.89 616.89 218 618 218H624ZM629 223V226H626V228H629V231H631V228H634V226H631V223H629Z" fill="#006158"/>
<path d="M624 252L626 254H634C634.53 254 635.039 254.211 635.414 254.586C635.789 254.961 636 255.47 636 256V266C636 266.53 635.789 267.039 635.414 267.414C635.039 267.789 634.53 268 634 268H618C617.47 268 616.961 267.789 616.586 267.414C616.211 267.039 616 266.53 616 266V254C616 252.89 616.89 252 618 252H624ZM626.46 258.88L628.59 261L626.46 263.12L627.88 264.54L630 262.41L632.12 264.54L633.54 263.12L631.41 261L633.54 258.88L632.12 257.46L630 259.59L627.88 257.46L626.46 258.88Z" fill="#006158"/>
<rect x="664.5" y="136.5" width="43" height="91" rx="4.5" stroke="#9747FF" stroke-dasharray="10 5"/>
<path d="M694 164C695.1 164 695.99 163.1 695.99 162L696 152C696 150.9 695.1 150 694 150H678C676.9 150 676 150.9 676 152V162C676 163.1 676.9 164 678 164H674V166H698V164H694ZM678 152H694V162H678V152Z" fill="#006158"/>
<path d="M694 212C695.1 212 695.99 211.1 695.99 210L696 200C696 198.9 695.1 198 694 198H678C676.9 198 676 198.9 676 200V210C676 211.1 676.9 212 678 212H674V214H698V212H694ZM678 200H694V210H678V200Z" fill="#006158"/>
<path d="M69.2494 322.069L72.0794 319.242L86.2137 333.392L83.3837 336.219L69.2494 322.069ZM73.4857 317.827L76.3137 314.998L81.9714 320.654L79.1434 323.483L73.4857 317.827ZM64.9989 326.315L67.8273 323.486L73.4842 329.143L70.6557 331.972L64.9989 326.315ZM65 335H77V337H65V335Z" fill="#006158"/>
<path d="M138.4 318.636H137.6V317H136V318.636H128V317H126.4V318.636H125.6C124.72 318.636 124 319.373 124 320.273V333.364C124 334.264 124.72 335 125.6 335H138.4C139.28 335 140 334.264 140 333.364V320.273C140 319.373 139.28 318.636 138.4 318.636ZM138.4 333.364H125.6V322.727H138.4V333.364Z" fill="#006158"/>
<path d="M188 316C182.48 316 178 320.48 178 326C178 331.52 182.48 336 188 336C193.52 336 198 331.52 198 326C198 320.48 193.52 316 188 316ZM188 319C189.66 319 191 320.34 191 322C191 323.66 189.66 325 188 325C186.34 325 185 323.66 185 322C185 320.34 186.34 319 188 319ZM188 333.2C185.5 333.2 183.29 331.92 182 329.98C182.03 327.99 186 326.9 188 326.9C189.99 326.9 193.97 327.99 194 329.98C192.71 331.92 190.5 333.2 188 333.2Z" fill="#006158"/>
<path d="M240 317H248C250.76 317 253 319.24 253 322V330C253 332.76 250.76 335 248 335H240C237.24 335 235 332.76 235 330V322C235 319.24 237.24 317 240 317Z" fill="#006158"/>
<path d="M303 332.5C300.49 332.5 298.32 331.08 297.24 329H303V327H296.58C296.53 326.67 296.5 326.34 296.5 326C296.5 325.66 296.53 325.33 296.58 325H303V323H297.24C298.32 320.92 300.5 319.5 303 319.5C304.61 319.5 306.09 320.09 307.23 321.07L309 319.3C307.41 317.87 305.3 317 303 317C299.08 317 295.76 319.51 294.52 323H291V325H294.06C294.02 325.33 294 325.66 294 326C294 326.34 294.02 326.67 294.06 327H291V329H294.52C295.76 332.49 299.08 335 303 335C305.31 335 307.41 334.13 309 332.7L307.22 330.93C306.09 331.91 304.62 332.5 303 332.5Z" fill="#006158"/>
<path d="M366 325V317H359V320H353V317H346V325H353V322H355V332H359V335H366V327H359V330H357V322H359V325H366Z" fill="#006158"/>
<path d="M420 316H404C402.9 316 402 316.9 402 318V330C402 331.1 402.9 332 404 332H418L422 336V318C422 316.9 421.1 316 420 316ZM417 328H407C406.45 328 406 327.55 406 327C406 326.45 406.45 326 407 326H417C417.55 326 418 326.45 418 327C418 327.55 417.55 328 417 328ZM417 325H407C406.45 325 406 324.55 406 324C406 323.45 406.45 323 407 323H417C417.55 323 418 323.45 418 324C418 324.55 417.55 325 417 325ZM417 322H407C406.45 322 406 321.55 406 321C406 320.45 406.45 320 407 320H417C417.55 320 418 320.45 418 321C418 321.55 417.55 322 417 322Z" fill="#006158"/>
<path fill-rule="evenodd" clip-rule="evenodd" d="M464.945 318.633C464.046 319.531 463.542 320.75 463.542 322.021C463.542 323.292 464.046 324.51 464.945 325.409C465.844 326.308 467.062 326.813 468.333 326.813C469.604 326.813 470.823 326.308 471.722 325.409C472.62 324.51 473.125 323.292 473.125 322.021C473.125 320.75 472.62 319.531 471.722 318.633C470.823 317.734 469.604 317.229 468.333 317.229C467.062 317.229 465.844 317.734 464.945 318.633ZM470.366 324.054C469.827 324.593 469.096 324.896 468.333 324.896C467.571 324.896 466.84 324.593 466.3 324.054C465.761 323.515 465.458 322.783 465.458 322.021C465.458 321.258 465.761 320.527 466.3 319.988C466.84 319.449 467.571 319.146 468.333 319.146C469.096 319.146 469.827 319.449 470.366 319.988C470.905 320.527 471.208 321.258 471.208 322.021C471.208 322.783 470.905 323.515 470.366 324.054ZM461.25 332.504C461.635 331.573 462.2 330.728 462.912 330.016C463.984 328.944 465.35 328.214 466.838 327.918C468.325 327.622 469.866 327.774 471.267 328.354C472.668 328.934 473.866 329.917 474.708 331.178C475.55 332.439 476 333.921 476 335.438H474.083C474.083 333.913 473.478 332.45 472.399 331.372C471.321 330.293 469.858 329.688 468.333 329.688C466.808 329.688 465.346 330.293 464.267 331.372C463.189 332.45 462.583 333.913 462.583 335.438H460.667C460.667 334.431 460.865 333.434 461.25 332.504Z" fill="#006158"/>
<path d="M528 325C529.66 325 530.99 323.66 530.99 322C530.99 320.34 529.66 319 528 319C526.34 319 525 320.34 525 322C525 323.66 526.34 325 528 325ZM520 325C521.66 325 522.99 323.66 522.99 322C522.99 320.34 521.66 319 520 319C518.34 319 517 320.34 517 322C517 323.66 518.34 325 520 325ZM520 327C517.67 327 513 328.17 513 330.5V333H527V330.5C527 328.17 522.33 327 520 327ZM528 327C527.71 327 527.38 327.02 527.03 327.05C528.19 327.89 529 329.02 529 330.5V333H535V330.5C535 328.17 530.33 327 528 327Z" fill="#006158"/>
<path d="M580 335.75C579.765 335.75 579.539 335.657 579.373 335.49C579.207 335.324 579.114 335.099 579.114 334.864V332.205H575.568C575.098 332.205 574.647 332.018 574.315 331.685C573.982 331.353 573.795 330.902 573.795 330.432V321.568C573.795 321.098 573.982 320.647 574.315 320.315C574.647 319.982 575.098 319.795 575.568 319.795H587.977C588.447 319.795 588.898 319.982 589.231 320.315C589.563 320.647 589.75 321.098 589.75 321.568V330.432C589.75 330.902 589.563 331.353 589.231 331.685C588.898 332.018 588.447 332.205 587.977 332.205H584.343L581.064 335.493C580.886 335.652 580.674 335.75 580.443 335.75H580ZM572.023 328.659H570.25V318.023C570.25 317.553 570.437 317.102 570.769 316.769C571.102 316.437 571.553 316.25 572.023 316.25H586.205V318.023H572.023V328.659Z" fill="#006158"/>
<path d="M643 327H637V333H635V327H629V325H635V319H637V325H643V327Z" fill="#006158"/>
<path d="M700 334H684C683.47 334 682.961 333.789 682.586 333.414C682.211 333.039 682 332.53 682 332V320C682 319.47 682.211 318.961 682.586 318.586C682.961 318.211 683.47 318 684 318H700C700.53 318 701.039 318.211 701.414 318.586C701.789 318.961 702 319.47 702 320V332C702 332.53 701.789 333.039 701.414 333.414C701.039 333.789 700.53 334 700 334ZM685 327V329H696V327H685ZM685 323V325H699V323H685Z" fill="#006158"/>
<path d="M69 381V383H83V381H69Z" fill="#006158"/>
<path d="M132 390C134.122 390 136.157 389.157 137.657 387.657C139.157 386.157 140 384.122 140 382C140 379.878 139.157 377.843 137.657 376.343C136.157 374.843 134.122 374 132 374C129.878 374 127.843 374.843 126.343 376.343C124.843 377.843 124 379.878 124 382C124 384.122 124.843 386.157 126.343 387.657C127.843 389.157 129.878 390 132 390ZM132 372C133.313 372 134.614 372.259 135.827 372.761C137.04 373.264 138.142 374 139.071 374.929C140 375.858 140.736 376.96 141.239 378.173C141.741 379.386 142 380.687 142 382C142 384.652 140.946 387.196 139.071 389.071C137.196 390.946 134.652 392 132 392C126.47 392 122 387.5 122 382C122 379.348 123.054 376.804 124.929 374.929C126.804 373.054 129.348 372 132 372ZM132.5 377V382.25L137 384.92L136.25 386.15L131 383V377H132.5Z" fill="#006158"/>
<path d="M196 370H180V372H196V370ZM180 394H196V392H180V394ZM196 374H180C179.47 374 178.961 374.211 178.586 374.586C178.211 374.961 178 375.47 178 376V388C178 388.53 178.211 389.039 178.586 389.414C178.961 389.789 179.47 390 180 390H196C196.53 390 197.039 389.789 197.414 389.414C197.789 389.039 198 388.53 198 388V376C198 375.47 197.789 374.961 197.414 374.586C197.039 374.211 196.53 374 196 374ZM188 376.75C188.597 376.75 189.169 376.987 189.591 377.409C190.013 377.831 190.25 378.403 190.25 379C190.25 379.597 190.013 380.169 189.591 380.591C189.169 381.013 188.597 381.25 188 381.25C187.403 381.25 186.831 381.013 186.409 380.591C185.987 380.169 185.75 379.597 185.75 379C185.75 378.403 185.987 377.831 186.409 377.409C186.831 376.987 187.403 376.75 188 376.75ZM193 387H183V385.5C183 383.83 186.33 383 188 383C189.67 383 193 383.83 193 385.5V387Z" fill="#006158"/>
<path d="M252 372H236C234.9 372 234.01 372.9 234.01 374L234 392L238 388H252C253.1 388 254 387.1 254 386V374C254 372.9 253.1 372 252 372ZM245 384H243V382H245V384ZM245 380H243V376H245V380Z" fill="#006158"/>
<path d="M299.669 385.127C298.715 385.127 297.8 384.755 297.125 384.093C296.45 383.43 296.071 382.531 296.071 381.594C296.071 380.657 296.45 379.759 297.125 379.096C297.8 378.434 298.715 378.061 299.669 378.061C300.623 378.061 301.539 378.434 302.213 379.096C302.888 379.759 303.267 380.657 303.267 381.594C303.267 382.531 302.888 383.43 302.213 384.093C301.539 384.755 300.623 385.127 299.669 385.127ZM307.307 382.573C307.349 382.25 307.379 381.927 307.379 381.594C307.379 381.261 307.349 380.928 307.307 380.585L309.477 378.94C309.672 378.788 309.723 378.516 309.6 378.293L307.544 374.801C307.421 374.579 307.143 374.488 306.917 374.579L304.357 375.588C303.822 375.195 303.267 374.851 302.62 374.599L302.239 371.924C302.198 371.682 301.982 371.5 301.725 371.5H297.613C297.356 371.5 297.14 371.682 297.099 371.924L296.719 374.599C296.071 374.851 295.516 375.195 294.981 375.588L292.421 374.579C292.195 374.488 291.917 374.579 291.794 374.801L289.738 378.293C289.604 378.516 289.666 378.788 289.861 378.94L292.031 380.585C291.989 380.928 291.959 381.261 291.959 381.594C291.959 381.927 291.989 382.25 292.031 382.573L289.861 384.249C289.666 384.401 289.604 384.673 289.738 384.895L291.794 388.388C291.917 388.61 292.195 388.691 292.421 388.61L294.981 387.59C295.516 387.994 296.071 388.337 296.719 388.59L297.099 391.265C297.14 391.507 297.356 391.689 297.613 391.689H301.725C301.982 391.689 302.198 391.507 302.239 391.265L302.62 388.59C303.267 388.327 303.822 387.994 304.357 387.59L306.917 388.61C307.143 388.691 307.421 388.61 307.544 388.388L309.6 384.895C309.723 384.673 309.672 384.401 309.477 384.249L307.307 382.573Z" fill="#006158"/>
<path d="M352.462 383.923L354.769 386.231L358.923 382.077L358.272 381.422L354.769 384.925L353.112 383.272L352.462 383.923Z" fill="#006158"/>
<path fill-rule="evenodd" clip-rule="evenodd" d="M363.159 375.621C363.304 375.765 363.385 375.961 363.385 376.165V391.231C363.385 391.656 363.04 392 362.615 392H348.769C348.344 392 348 391.656 348 391.231V372.769C348 372.344 348.344 372 348.769 372H359.22C359.424 372 359.62 372.081 359.764 372.225L363.159 375.621ZM351.077 383.923C351.077 381.375 353.145 379.308 355.692 379.308C358.24 379.308 360.308 381.375 360.308 383.923C360.308 386.471 358.24 388.538 355.692 388.538C353.145 388.538 351.077 386.471 351.077 383.923Z" fill="#006158"/>
<g clip-path="url(#clip0_20979_24545)">
<path d="M406.087 370.923C404.777 370.923 403.407 371.77 402.192 373.346C400.978 374.923 400.038 377.299 400.087 380.443C400.087 381.944 400.566 383.609 401.471 385C401.604 385.205 401.834 385.328 401.99 385.52C401.355 386.287 400.259 387.741 400.259 387.741C400.161 387.824 400.081 387.928 400.026 388.044C399.97 388.161 399.939 388.288 399.935 388.417C399.932 388.546 399.955 388.674 400.004 388.794C400.053 388.913 400.127 389.021 400.22 389.11C400.313 389.2 400.425 389.268 400.546 389.312C400.668 389.356 400.797 389.373 400.926 389.364C401.055 389.354 401.18 389.318 401.294 389.257C401.408 389.196 401.507 389.112 401.587 389.01C401.587 389.01 402.697 387.524 403.288 386.818C403.969 387.25 404.748 387.538 405.625 387.538C407.202 387.538 408.682 386.784 409.952 385.75C410.132 385.604 410.241 385.389 410.413 385.231C410.82 385.516 411.299 385.692 411.826 385.692C412.712 385.692 413.463 385.27 414.106 384.769C414.749 384.268 415.3 383.664 415.808 383.067C416.148 382.666 416.398 382.334 416.674 382C416.639 382.435 416.612 382.863 416.615 383.269C416.617 383.482 416.626 383.673 416.702 383.933C416.739 384.062 416.772 384.241 416.933 384.423C417.094 384.605 417.42 384.769 417.711 384.769C418.465 384.769 419.026 384.346 419.442 383.933C419.857 383.518 420.19 383.042 420.568 382.606C421.319 381.733 422.043 381.077 423.077 381.077C423.322 381.077 423.557 380.98 423.73 380.807C423.903 380.633 424 380.399 424 380.154C424 379.909 423.903 379.674 423.73 379.501C423.557 379.328 423.322 379.231 423.077 379.231C421.249 379.231 420.022 380.422 419.182 381.394C418.922 381.696 418.726 381.902 418.52 382.144C418.522 382.111 418.517 382.091 418.52 382.057C418.555 381.588 418.612 381.131 418.577 380.673C418.568 380.414 418.509 380.16 418.403 379.923C418.274 379.641 417.842 379.231 417.365 379.231C416.866 379.231 416.584 379.45 416.356 379.635C416.128 379.82 415.929 380.034 415.721 380.269C415.306 380.74 414.867 381.299 414.394 381.856C413.921 382.413 413.42 382.963 412.952 383.327C412.485 383.691 412.096 383.846 411.826 383.846C411.766 383.846 411.734 383.742 411.682 383.731C412.169 383.146 412.767 382.644 413.154 382.029C413.997 380.685 414.583 379.354 414.769 378.192C414.862 377.611 414.896 377.046 414.625 376.49C414.354 375.935 413.647 375.538 413.01 375.538C411.768 375.538 410.724 376.342 410.01 377.413C409.294 378.486 408.856 379.893 408.856 381.452C408.856 382.261 409.11 382.942 409.375 383.615C409.155 383.828 408.996 384.123 408.769 384.308C407.702 385.177 406.586 385.692 405.625 385.692C405.207 385.692 404.834 385.51 404.471 385.318C404.902 384.743 404.936 384.819 405.394 384.134C407.285 381.31 409.231 377.701 409.231 374.242C409.231 373.831 409.203 373.088 408.769 372.337C408.335 371.586 407.368 370.923 406.087 370.923ZM406.087 372.769C406.836 372.769 406.988 372.972 407.154 373.259C407.32 373.547 407.385 374.005 407.385 374.241C407.385 376.966 405.638 380.434 403.836 383.125C403.468 383.675 403.468 383.6 403.115 384.077C403.09 384.04 403.054 384.028 403.029 383.99C402.342 382.935 401.933 381.526 401.933 380.442C401.933 380.433 401.933 380.423 401.933 380.414C401.89 377.65 402.708 375.739 403.664 374.5C404.618 373.261 405.826 372.769 406.087 372.769ZM412.952 377.413C412.965 377.482 413 377.603 412.952 377.903C412.833 378.646 412.345 379.854 411.596 381.048C411.39 381.376 411.058 381.621 410.818 381.943C410.795 381.751 410.702 381.662 410.702 381.452C410.702 380.242 411.053 379.15 411.538 378.423C412.002 377.727 412.538 377.44 412.952 377.413ZM400 391.231V393.077H424V391.231H400Z" fill="#006158"/>
</g>
<path d="M462.5 372C461.837 372 461.201 372.263 460.732 372.732C460.263 373.201 460 373.837 460 374.5V389.5C460 390.163 460.263 390.799 460.732 391.268C461.201 391.737 461.837 392 462.5 392H475.75C475.949 392 476.14 391.921 476.28 391.78C476.421 391.64 476.5 391.449 476.5 391.25C476.5 391.051 476.421 390.86 476.28 390.72C476.14 390.579 475.949 390.5 475.75 390.5H462.5C462.235 390.5 461.98 390.395 461.793 390.207C461.605 390.02 461.5 389.765 461.5 389.5H475.75C475.949 389.5 476.14 389.421 476.28 389.28C476.421 389.14 476.5 388.949 476.5 388.75V374.5C476.5 374.172 476.435 373.847 476.31 373.543C476.184 373.24 476 372.964 475.768 372.732C475.536 372.5 475.26 372.316 474.957 372.19C474.653 372.065 474.328 372 474 372H462.5ZM471.5 382.25V382.75C471.5 383.75 470.117 384.5 468.25 384.5C466.383 384.5 465 383.75 465 382.75V382.25C465 382.051 465.079 381.86 465.22 381.72C465.36 381.579 465.551 381.5 465.75 381.5H470.75C470.949 381.5 471.14 381.579 471.28 381.72C471.421 381.86 471.5 382.051 471.5 382.25ZM470 378.745C470 379.209 469.816 379.654 469.487 379.982C469.159 380.311 468.714 380.495 468.25 380.495C467.786 380.495 467.341 380.311 467.013 379.982C466.684 379.654 466.5 379.209 466.5 378.745C466.5 377.78 467.283 377 468.25 377C469.217 377 470 377.779 470 378.745Z" fill="#006158"/>
<path d="M517 373V391H523V387.5H525V391H531V373H517ZM519 375H521V377H519V375ZM523 375H525V377H523V375ZM527 375H529V377H527V375ZM519 379H521V381H519V379ZM523 379H525V381H523V379ZM527 379H529V381H527V379ZM519 383H521V385H519V383ZM523 383H525V385H523V383ZM527 383H529V385H527V383ZM519 387H521V389H519V387ZM527 387H529V389H527V387Z" fill="#006158"/>
<path d="M575.2 378.55C575.2 379.214 574.664 379.75 574 379.75C573.336 379.75 572.8 379.214 572.8 378.55V377.35C572.8 375.362 574.379 373.75 576.4 373.75C578.387 373.75 580 375.362 580 377.35V377.642C580 378.423 579.955 379.203 579.865 379.979L584.455 378.599C584.882 378.471 585.347 378.591 585.629 378.914C585.974 379.236 586.079 379.705 585.94 380.129L585.265 382.116H588.4C589.064 382.116 589.6 382.686 589.6 383.316C589.6 384.014 589.064 384.516 588.4 384.516H583.6C583.214 384.516 582.854 384.366 582.625 384.051C582.4 383.74 582.34 383.335 582.46 382.971L582.929 381.565L579.389 382.626C578.946 384.606 578.208 386.508 577.199 388.27L576.677 389.181C576.194 390.029 575.294 390.55 574.319 390.55C572.819 390.55 571.566 389.331 571.566 387.831V385.135C571.566 383.545 572.643 382.142 574.165 381.689L577.33 380.736C577.51 379.716 577.566 378.681 577.566 377.642V377.35C577.566 376.686 577.064 376.15 576.366 376.15C575.736 376.15 575.166 376.686 575.166 377.35L575.2 378.55ZM574 385.135V387.831C574 388.007 574.142 388.15 574.319 388.15C574.431 388.15 574.54 388.09 574.596 387.989L575.118 387.078C575.774 385.923 576.302 384.704 576.693 383.436L574.855 383.954C574.349 384.138 574 384.606 574 385.135ZM568.9 386.35H570.4V387.831C570.4 387.94 570.404 388.045 570.413 388.15H568.9C568.403 388.15 568 387.749 568 387.25C568 386.751 568.403 386.35 568.9 386.35ZM591.1 388.15H578.631C578.939 387.561 579.22 386.961 579.471 386.35H591.1C591.599 386.35 592 386.751 592 387.25C592 387.749 591.599 388.15 591.1 388.15Z" fill="#006158"/>
<path d="M628 376H626V390C626 391.1 626.9 392 628 392H642V390H628V376ZM644 372H632C630.9 372 630 372.9 630 374V386C630 387.1 630.9 388 632 388H644C645.1 388 646 387.1 646 386V374C646 372.9 645.1 372 644 372Z" fill="#006158"/>
<path fill-rule="evenodd" clip-rule="evenodd" d="M687.084 381.084L688.551 376.684H690.449L691.916 381.084L696.316 382.551V384.449L691.916 385.916L690.449 390.316H688.551L687.084 385.916L682.684 384.449V382.551L687.084 381.084ZM689.5 380.162L688.824 382.191L688.191 382.824L686.162 383.5L688.191 384.176L688.824 384.809L689.5 386.838L690.176 384.809L690.809 384.176L692.838 383.5L690.809 382.824L690.176 382.191L689.5 380.162Z" fill="#006158"/>
<path fill-rule="evenodd" clip-rule="evenodd" d="M696.151 375.151L696.931 372.81H698.069L698.849 375.151L701.19 375.931V377.069L698.849 377.849L698.069 380.19H696.931L696.151 377.849L693.81 377.069V375.931L696.151 375.151Z" fill="#006158"/>
<path fill-rule="evenodd" clip-rule="evenodd" d="M730 427H64V426H730V427Z" fill="#D3D3D3"/>
<path d="M66.9801 475H77.0201C78.0468 475 78.6868 473.887 78.1734 473L73.1534 464.327C72.6401 463.44 71.3601 463.44 70.8468 464.327L65.8268 473C65.3134 473.887 65.9534 475 66.9801 475ZM72.0001 470.333C71.6334 470.333 71.3334 470.033 71.3334 469.667V468.333C71.3334 467.967 71.6334 467.667 72.0001 467.667C72.3668 467.667 72.6667 467.967 72.6667 468.333V469.667C72.6667 470.033 72.3668 470.333 72.0001 470.333ZM72.6667 473H71.3334V471.667H72.6667V473Z" fill="#FF8328"/>
<path d="M90.704 463.8C90.7573 463.8 90.8 463.821 90.832 463.864C90.8747 463.896 90.896 463.939 90.896 463.992V465.56C90.896 465.613 90.8747 465.661 90.832 465.704C90.8 465.736 90.7573 465.752 90.704 465.752H87.84C87.7867 465.752 87.76 465.779 87.76 465.832V474.808C87.76 474.861 87.7387 474.909 87.696 474.952C87.664 474.984 87.6213 475 87.568 475H85.696C85.6427 475 85.5947 474.984 85.552 474.952C85.52 474.909 85.504 474.861 85.504 474.808V465.832C85.504 465.779 85.4773 465.752 85.424 465.752H82.64C82.5867 465.752 82.5387 465.736 82.496 465.704C82.464 465.661 82.448 465.613 82.448 465.56V463.992C82.448 463.939 82.464 463.896 82.496 463.864C82.5387 463.821 82.5867 463.8 82.64 463.8H90.704ZM94.4796 475.128C93.5836 475.128 92.8156 474.893 92.1756 474.424C91.5356 473.955 91.0983 473.315 90.8636 472.504C90.7143 472.003 90.6396 471.459 90.6396 470.872C90.6396 470.243 90.7143 469.677 90.8636 469.176C91.109 468.387 91.5516 467.768 92.1916 467.32C92.8316 466.872 93.5996 466.648 94.4956 466.648C95.3703 466.648 96.117 466.872 96.7356 467.32C97.3543 467.757 97.7916 468.371 98.0476 469.16C98.2183 469.693 98.3036 470.253 98.3036 470.84C98.3036 471.416 98.229 471.955 98.0796 472.456C97.845 473.288 97.4076 473.944 96.7676 474.424C96.1383 474.893 95.3756 475.128 94.4796 475.128ZM94.4796 473.192C94.8316 473.192 95.1303 473.085 95.3756 472.872C95.621 472.659 95.797 472.365 95.9036 471.992C95.989 471.651 96.0316 471.277 96.0316 470.872C96.0316 470.424 95.989 470.045 95.9036 469.736C95.7863 469.373 95.605 469.091 95.3596 468.888C95.1143 468.685 94.8156 468.584 94.4636 468.584C94.101 468.584 93.797 468.685 93.5516 468.888C93.317 469.091 93.1463 469.373 93.0396 469.736C92.9543 469.992 92.9116 470.371 92.9116 470.872C92.9116 471.352 92.949 471.725 93.0236 471.992C93.1303 472.365 93.3063 472.659 93.5516 472.872C93.8076 473.085 94.117 473.192 94.4796 473.192ZM110.237 468.872C110.44 469.427 110.541 470.088 110.541 470.856C110.541 471.592 110.45 472.237 110.269 472.792C110.024 473.517 109.629 474.088 109.085 474.504C108.552 474.92 107.917 475.128 107.181 475.128C106.402 475.128 105.789 474.835 105.341 474.248C105.32 474.227 105.298 474.221 105.277 474.232C105.256 474.232 105.245 474.248 105.245 474.28V474.808C105.245 474.861 105.224 474.909 105.181 474.952C105.149 474.984 105.106 475 105.053 475H103.181C103.128 475 103.08 474.984 103.037 474.952C103.005 474.909 102.989 474.861 102.989 474.808V463.992C102.989 463.939 103.005 463.896 103.037 463.864C103.08 463.821 103.128 463.8 103.181 463.8H105.053C105.106 463.8 105.149 463.821 105.181 463.864C105.224 463.896 105.245 463.939 105.245 463.992V467.416C105.245 467.448 105.256 467.469 105.277 467.48C105.298 467.491 105.32 467.48 105.341 467.448C105.757 466.915 106.349 466.648 107.117 466.648C107.896 466.648 108.546 466.851 109.069 467.256C109.602 467.651 109.992 468.189 110.237 468.872ZM107.869 472.504C108.093 472.099 108.205 471.565 108.205 470.904C108.205 470.168 108.077 469.603 107.821 469.208C107.565 468.792 107.186 468.584 106.685 468.584C106.216 468.584 105.858 468.792 105.613 469.208C105.378 469.613 105.261 470.173 105.261 470.888C105.261 471.603 105.368 472.141 105.581 472.504C105.837 472.963 106.21 473.192 106.701 473.192C107.224 473.192 107.613 472.963 107.869 472.504ZM119.253 470.04C119.317 470.445 119.338 470.899 119.317 471.4C119.306 471.528 119.237 471.592 119.109 471.592H114.165C114.101 471.592 114.079 471.619 114.101 471.672C114.133 471.885 114.191 472.099 114.277 472.312C114.554 472.909 115.119 473.208 115.973 473.208C116.655 473.197 117.194 472.92 117.589 472.376C117.631 472.312 117.679 472.28 117.733 472.28C117.765 472.28 117.802 472.301 117.845 472.344L118.997 473.48C119.05 473.533 119.077 473.581 119.077 473.624C119.077 473.645 119.055 473.688 119.013 473.752C118.661 474.189 118.207 474.531 117.653 474.776C117.098 475.011 116.49 475.128 115.829 475.128C114.911 475.128 114.133 474.92 113.493 474.504C112.863 474.088 112.41 473.507 112.133 472.76C111.909 472.227 111.797 471.528 111.797 470.664C111.797 470.077 111.877 469.56 112.037 469.112C112.282 468.355 112.709 467.752 113.317 467.304C113.935 466.856 114.666 466.632 115.509 466.632C116.575 466.632 117.429 466.941 118.069 467.56C118.719 468.179 119.114 469.005 119.253 470.04ZM115.525 468.584C114.853 468.584 114.41 468.899 114.197 469.528C114.154 469.667 114.117 469.837 114.085 470.04C114.085 470.093 114.111 470.12 114.165 470.12H116.933C116.997 470.12 117.018 470.093 116.997 470.04C116.943 469.731 116.917 469.581 116.917 469.592C116.821 469.272 116.65 469.027 116.405 468.856C116.17 468.675 115.877 468.584 115.525 468.584ZM128.006 466.664C128.39 466.664 128.694 466.739 128.918 466.888C129.003 466.931 129.035 467.011 129.014 467.128L128.678 468.952C128.667 469.08 128.593 469.117 128.454 469.064C128.294 469.011 128.107 468.984 127.894 468.984C127.809 468.984 127.691 468.995 127.542 469.016C127.158 469.048 126.833 469.192 126.566 469.448C126.299 469.693 126.166 470.024 126.166 470.44V474.808C126.166 474.861 126.145 474.909 126.102 474.952C126.07 474.984 126.027 475 125.974 475H124.102C124.049 475 124.001 474.984 123.958 474.952C123.926 474.909 123.91 474.861 123.91 474.808V466.968C123.91 466.915 123.926 466.872 123.958 466.84C124.001 466.797 124.049 466.776 124.102 466.776H125.974C126.027 466.776 126.07 466.797 126.102 466.84C126.145 466.872 126.166 466.915 126.166 466.968V467.576C126.166 467.608 126.177 467.629 126.198 467.64C126.219 467.651 126.235 467.645 126.246 467.624C126.683 466.984 127.27 466.664 128.006 466.664ZM137.112 470.04C137.176 470.445 137.197 470.899 137.176 471.4C137.165 471.528 137.096 471.592 136.968 471.592H132.024C131.96 471.592 131.939 471.619 131.96 471.672C131.992 471.885 132.051 472.099 132.136 472.312C132.413 472.909 132.979 473.208 133.832 473.208C134.515 473.197 135.053 472.92 135.448 472.376C135.491 472.312 135.539 472.28 135.592 472.28C135.624 472.28 135.661 472.301 135.704 472.344L136.856 473.48C136.909 473.533 136.936 473.581 136.936 473.624C136.936 473.645 136.915 473.688 136.872 473.752C136.52 474.189 136.067 474.531 135.512 474.776C134.957 475.011 134.349 475.128 133.688 475.128C132.771 475.128 131.992 474.92 131.352 474.504C130.723 474.088 130.269 473.507 129.992 472.76C129.768 472.227 129.656 471.528 129.656 470.664C129.656 470.077 129.736 469.56 129.896 469.112C130.141 468.355 130.568 467.752 131.176 467.304C131.795 466.856 132.525 466.632 133.368 466.632C134.435 466.632 135.288 466.941 135.928 467.56C136.579 468.179 136.973 469.005 137.112 470.04ZM133.384 468.584C132.712 468.584 132.269 468.899 132.056 469.528C132.013 469.667 131.976 469.837 131.944 470.04C131.944 470.093 131.971 470.12 132.024 470.12H134.792C134.856 470.12 134.877 470.093 134.856 470.04C134.803 469.731 134.776 469.581 134.776 469.592C134.68 469.272 134.509 469.027 134.264 468.856C134.029 468.675 133.736 468.584 133.384 468.584ZM138.758 475C138.705 475 138.657 474.984 138.614 474.952C138.582 474.909 138.566 474.861 138.566 474.808V463.992C138.566 463.939 138.582 463.896 138.614 463.864C138.657 463.821 138.705 463.8 138.758 463.8H140.63C140.684 463.8 140.726 463.821 140.758 463.864C140.801 463.896 140.822 463.939 140.822 463.992V474.808C140.822 474.861 140.801 474.909 140.758 474.952C140.726 474.984 140.684 475 140.63 475H138.758ZM149.753 470.04C149.817 470.445 149.838 470.899 149.817 471.4C149.806 471.528 149.737 471.592 149.609 471.592H144.665C144.601 471.592 144.579 471.619 144.601 471.672C144.633 471.885 144.691 472.099 144.777 472.312C145.054 472.909 145.619 473.208 146.473 473.208C147.155 473.197 147.694 472.92 148.089 472.376C148.131 472.312 148.179 472.28 148.233 472.28C148.265 472.28 148.302 472.301 148.345 472.344L149.497 473.48C149.55 473.533 149.577 473.581 149.577 473.624C149.577 473.645 149.555 473.688 149.513 473.752C149.161 474.189 148.707 474.531 148.153 474.776C147.598 475.011 146.99 475.128 146.329 475.128C145.411 475.128 144.633 474.92 143.993 474.504C143.363 474.088 142.91 473.507 142.633 472.76C142.409 472.227 142.297 471.528 142.297 470.664C142.297 470.077 142.377 469.56 142.537 469.112C142.782 468.355 143.209 467.752 143.817 467.304C144.435 466.856 145.166 466.632 146.009 466.632C147.075 466.632 147.929 466.941 148.569 467.56C149.219 468.179 149.614 469.005 149.753 470.04ZM146.025 468.584C145.353 468.584 144.91 468.899 144.697 469.528C144.654 469.667 144.617 469.837 144.585 470.04C144.585 470.093 144.611 470.12 144.665 470.12H147.433C147.497 470.12 147.518 470.093 147.497 470.04C147.443 469.731 147.417 469.581 147.417 469.592C147.321 469.272 147.15 469.027 146.905 468.856C146.67 468.675 146.377 468.584 146.025 468.584ZM154.409 466.648C155.102 466.648 155.721 466.771 156.265 467.016C156.809 467.251 157.23 467.576 157.529 467.992C157.838 468.408 157.993 468.872 157.993 469.384V474.808C157.993 474.861 157.972 474.909 157.929 474.952C157.897 474.984 157.854 475 157.801 475H155.929C155.876 475 155.828 474.984 155.785 474.952C155.753 474.909 155.737 474.861 155.737 474.808V474.28C155.737 474.248 155.726 474.227 155.705 474.216C155.684 474.205 155.662 474.216 155.641 474.248C155.193 474.835 154.473 475.128 153.481 475.128C152.649 475.128 151.977 474.925 151.465 474.52C150.953 474.115 150.697 473.517 150.697 472.728C150.697 471.907 150.985 471.272 151.561 470.824C152.137 470.365 152.958 470.136 154.025 470.136H155.657C155.71 470.136 155.737 470.109 155.737 470.056V469.704C155.737 469.352 155.63 469.08 155.417 468.888C155.204 468.685 154.884 468.584 154.457 468.584C154.126 468.584 153.849 468.643 153.625 468.76C153.412 468.877 153.273 469.043 153.209 469.256C153.177 469.373 153.108 469.427 153.001 469.416L151.065 469.16C150.937 469.139 150.878 469.091 150.889 469.016C150.932 468.568 151.108 468.163 151.417 467.8C151.737 467.437 152.153 467.155 152.665 466.952C153.188 466.749 153.769 466.648 154.409 466.648ZM154.089 473.448C154.548 473.448 154.937 473.325 155.257 473.08C155.577 472.835 155.737 472.52 155.737 472.136V471.56C155.737 471.507 155.71 471.48 155.657 471.48H154.505C154.025 471.48 153.646 471.571 153.369 471.752C153.102 471.933 152.969 472.189 152.969 472.52C152.969 472.808 153.07 473.037 153.273 473.208C153.476 473.368 153.748 473.448 154.089 473.448ZM162.862 475.112C162.147 475.112 161.523 475.011 160.99 474.808C160.457 474.605 160.041 474.323 159.742 473.96C159.454 473.597 159.31 473.187 159.31 472.728V472.568C159.31 472.515 159.326 472.472 159.358 472.44C159.401 472.397 159.449 472.376 159.502 472.376H161.278C161.331 472.376 161.374 472.397 161.406 472.44C161.449 472.472 161.47 472.515 161.47 472.568V472.584C161.47 472.819 161.598 473.021 161.854 473.192C162.121 473.352 162.451 473.432 162.846 473.432C163.209 473.432 163.502 473.363 163.726 473.224C163.95 473.075 164.062 472.893 164.062 472.68C164.062 472.488 163.966 472.344 163.774 472.248C163.582 472.152 163.267 472.051 162.83 471.944C162.329 471.816 161.934 471.693 161.646 471.576C160.963 471.341 160.419 471.053 160.014 470.712C159.609 470.371 159.406 469.88 159.406 469.24C159.406 468.451 159.71 467.827 160.318 467.368C160.937 466.899 161.753 466.664 162.766 466.664C163.449 466.664 164.046 466.776 164.558 467C165.07 467.213 165.465 467.517 165.742 467.912C166.03 468.307 166.174 468.755 166.174 469.256C166.174 469.309 166.153 469.357 166.11 469.4C166.078 469.432 166.035 469.448 165.982 469.448H164.27C164.217 469.448 164.169 469.432 164.126 469.4C164.094 469.357 164.078 469.309 164.078 469.256C164.078 469.021 163.955 468.824 163.71 468.664C163.475 468.504 163.161 468.424 162.766 468.424C162.414 468.424 162.126 468.488 161.902 468.616C161.678 468.744 161.566 468.92 161.566 469.144C161.566 469.357 161.673 469.517 161.886 469.624C162.11 469.731 162.478 469.843 162.99 469.96C163.107 469.992 163.241 470.029 163.39 470.072C163.539 470.104 163.699 470.147 163.87 470.2C164.627 470.424 165.225 470.712 165.662 471.064C166.099 471.416 166.318 471.928 166.318 472.6C166.318 473.389 166.003 474.008 165.374 474.456C164.755 474.893 163.918 475.112 162.862 475.112ZM174.893 470.04C174.957 470.445 174.979 470.899 174.957 471.4C174.947 471.528 174.877 471.592 174.749 471.592H169.805C169.741 471.592 169.72 471.619 169.741 471.672C169.773 471.885 169.832 472.099 169.917 472.312C170.195 472.909 170.76 473.208 171.613 473.208C172.296 473.197 172.835 472.92 173.229 472.376C173.272 472.312 173.32 472.28 173.373 472.28C173.405 472.28 173.443 472.301 173.485 472.344L174.637 473.48C174.691 473.533 174.717 473.581 174.717 473.624C174.717 473.645 174.696 473.688 174.653 473.752C174.301 474.189 173.848 474.531 173.293 474.776C172.739 475.011 172.131 475.128 171.469 475.128C170.552 475.128 169.773 474.92 169.133 474.504C168.504 474.088 168.051 473.507 167.773 472.76C167.549 472.227 167.437 471.528 167.437 470.664C167.437 470.077 167.517 469.56 167.677 469.112C167.923 468.355 168.349 467.752 168.957 467.304C169.576 466.856 170.307 466.632 171.149 466.632C172.216 466.632 173.069 466.941 173.709 467.56C174.36 468.179 174.755 469.005 174.893 470.04ZM171.165 468.584C170.493 468.584 170.051 468.899 169.837 469.528C169.795 469.667 169.757 469.837 169.725 470.04C169.725 470.093 169.752 470.12 169.805 470.12H172.573C172.637 470.12 172.659 470.093 172.637 470.04C172.584 469.731 172.557 469.581 172.557 469.592C172.461 469.272 172.291 469.027 172.045 468.856C171.811 468.675 171.517 468.584 171.165 468.584ZM181.452 463.992C181.452 463.939 181.468 463.896 181.5 463.864C181.542 463.821 181.59 463.8 181.644 463.8H183.516C183.569 463.8 183.612 463.821 183.644 463.864C183.686 463.896 183.708 463.939 183.708 463.992V474.808C183.708 474.861 183.686 474.909 183.644 474.952C183.612 474.984 183.569 475 183.516 475H181.644C181.59 475 181.542 474.984 181.5 474.952C181.468 474.909 181.452 474.861 181.452 474.808V474.28C181.452 474.248 181.441 474.232 181.42 474.232C181.398 474.221 181.377 474.227 181.356 474.248C180.908 474.835 180.294 475.128 179.516 475.128C178.769 475.128 178.124 474.92 177.58 474.504C177.046 474.088 176.662 473.517 176.428 472.792C176.246 472.237 176.156 471.592 176.156 470.856C176.156 470.099 176.252 469.437 176.444 468.872C176.689 468.189 177.073 467.651 177.596 467.256C178.129 466.851 178.785 466.648 179.564 466.648C180.332 466.648 180.929 466.915 181.356 467.448C181.377 467.48 181.398 467.491 181.42 467.48C181.441 467.469 181.452 467.448 181.452 467.416V463.992ZM181.116 472.504C181.329 472.109 181.436 471.571 181.436 470.888C181.436 470.173 181.318 469.613 181.084 469.208C180.838 468.792 180.481 468.584 180.012 468.584C179.51 468.584 179.132 468.792 178.876 469.208C178.609 469.624 178.476 470.189 178.476 470.904C178.476 471.544 178.588 472.077 178.812 472.504C179.078 472.963 179.473 473.192 179.996 473.192C180.476 473.192 180.849 472.963 181.116 472.504Z" fill="black"/>
<defs>
<clipPath id="clip0_20979_24545">
<rect width="24" height="24" fill="white" transform="translate(400 370)"/>
</clipPath>
</defs>
</svg>
