<svg width="538" height="653" viewBox="0 0 538 653" fill="none" xmlns="http://www.w3.org/2000/svg">
<rect width="538" height="653" fill="white"/>
<path d="M78.816 74.984C78.816 74.8773 78.848 74.792 78.912 74.728C78.9973 74.6427 79.0933 74.6 79.2 74.6H82.944C83.0507 74.6 83.136 74.6427 83.2 74.728C83.2853 74.792 83.328 74.8773 83.328 74.984V96.616C83.328 96.7227 83.2853 96.8187 83.2 96.904C83.136 96.968 83.0507 97 82.944 97H79.328C79.1147 97 78.9653 96.9147 78.88 96.744L70.592 83.048C70.5493 82.984 70.5067 82.9627 70.464 82.984C70.4213 82.984 70.4 83.0267 70.4 83.112L70.464 96.616C70.464 96.7227 70.4213 96.8187 70.336 96.904C70.272 96.968 70.1867 97 70.08 97H66.336C66.2293 97 66.1333 96.968 66.048 96.904C65.984 96.8187 65.952 96.7227 65.952 96.616V74.984C65.952 74.8773 65.984 74.792 66.048 74.728C66.1333 74.6427 66.2293 74.6 66.336 74.6H69.952C70.1653 74.6 70.3147 74.6853 70.4 74.856L78.656 88.488C78.6987 88.552 78.7413 88.584 78.784 88.584C78.8267 88.5627 78.848 88.5093 78.848 88.424L78.816 74.984ZM93.5052 80.296C94.8919 80.296 96.1293 80.5413 97.2173 81.032C98.3053 81.5013 99.1479 82.152 99.7453 82.984C100.364 83.816 100.673 84.744 100.673 85.768V96.616C100.673 96.7227 100.631 96.8187 100.545 96.904C100.481 96.968 100.396 97 100.289 97H96.5453C96.4386 97 96.3426 96.968 96.2573 96.904C96.1933 96.8187 96.1613 96.7227 96.1613 96.616V95.56C96.1613 95.496 96.1399 95.4533 96.0973 95.432C96.0546 95.4107 96.0119 95.432 95.9693 95.496C95.0733 96.6693 93.6333 97.256 91.6493 97.256C89.9853 97.256 88.6413 96.8507 87.6173 96.04C86.5933 95.2293 86.0813 94.0347 86.0813 92.456C86.0813 90.8133 86.6573 89.544 87.8093 88.648C88.9613 87.7307 90.6039 87.272 92.7373 87.272H96.0013C96.1079 87.272 96.1613 87.2187 96.1613 87.112V86.408C96.1613 85.704 95.9479 85.16 95.5213 84.776C95.0946 84.3707 94.4546 84.168 93.6013 84.168C92.9399 84.168 92.3853 84.2853 91.9373 84.52C91.5106 84.7547 91.2333 85.0853 91.1053 85.512C91.0413 85.7467 90.9026 85.8533 90.6893 85.832L86.8173 85.32C86.5613 85.2773 86.4439 85.1813 86.4653 85.032C86.5506 84.136 86.9026 83.3253 87.5213 82.6C88.1613 81.8747 88.9933 81.3093 90.0173 80.904C91.0626 80.4987 92.2253 80.296 93.5052 80.296ZM92.8653 93.896C93.7826 93.896 94.5613 93.6507 95.2013 93.16C95.8413 92.6693 96.1613 92.04 96.1613 91.272V90.12C96.1613 90.0133 96.1079 89.96 96.0013 89.96H93.6973C92.7373 89.96 91.9799 90.1413 91.4253 90.504C90.8919 90.8667 90.6253 91.3787 90.6253 92.04C90.6253 92.616 90.8279 93.0747 91.2333 93.416C91.6386 93.736 92.1826 93.896 92.8653 93.896ZM107.99 97C107.777 97 107.638 96.8933 107.574 96.68L102.454 80.968C102.433 80.9253 102.422 80.872 102.422 80.808C102.422 80.616 102.539 80.52 102.774 80.52H106.902C107.137 80.52 107.286 80.6267 107.35 80.84L109.974 90.536C109.995 90.6 110.027 90.632 110.07 90.632C110.113 90.632 110.145 90.6 110.166 90.536L112.79 80.84C112.854 80.6267 113.003 80.52 113.238 80.52L117.366 80.584C117.494 80.584 117.59 80.6267 117.654 80.712C117.718 80.776 117.729 80.8827 117.686 81.032L112.598 96.68C112.534 96.8933 112.395 97 112.182 97H107.99ZM122.471 78.696C121.746 78.696 121.138 78.4613 120.647 77.992C120.178 77.5013 119.943 76.8933 119.943 76.168C119.943 75.4213 120.178 74.8133 120.647 74.344C121.116 73.8747 121.724 73.64 122.471 73.64C123.218 73.64 123.826 73.8747 124.295 74.344C124.764 74.8133 124.999 75.4213 124.999 76.168C124.999 76.8933 124.754 77.5013 124.263 77.992C123.794 78.4613 123.196 78.696 122.471 78.696ZM120.551 97C120.444 97 120.348 96.968 120.263 96.904C120.199 96.8187 120.167 96.7227 120.167 96.616V80.904C120.167 80.7973 120.199 80.712 120.263 80.648C120.348 80.5627 120.444 80.52 120.551 80.52H124.295C124.402 80.52 124.487 80.5627 124.551 80.648C124.636 80.712 124.679 80.7973 124.679 80.904V96.616C124.679 96.7227 124.636 96.8187 124.551 96.904C124.487 96.968 124.402 97 124.295 97H120.551ZM138.243 80.936C138.243 80.8293 138.275 80.744 138.339 80.68C138.425 80.5947 138.521 80.552 138.627 80.552H142.371C142.478 80.552 142.563 80.5947 142.627 80.68C142.713 80.744 142.755 80.8293 142.755 80.936V95.528C142.755 98.3227 141.945 100.317 140.323 101.512C138.723 102.707 136.654 103.304 134.115 103.304C133.369 103.304 132.537 103.251 131.619 103.144C131.406 103.123 131.299 102.984 131.299 102.728L131.427 99.432C131.427 99.1547 131.577 99.0373 131.875 99.08C132.643 99.208 133.347 99.272 133.987 99.272C135.353 99.272 136.398 98.9733 137.123 98.376C137.87 97.7787 138.243 96.8187 138.243 95.496C138.243 95.432 138.222 95.4 138.179 95.4C138.137 95.3787 138.094 95.3893 138.051 95.432C137.241 96.3067 136.057 96.744 134.499 96.744C133.113 96.744 131.833 96.4133 130.659 95.752C129.507 95.0693 128.686 93.9813 128.195 92.488C127.875 91.5067 127.715 90.2373 127.715 88.68C127.715 87.016 127.907 85.6613 128.291 84.616C128.739 83.3147 129.497 82.2693 130.563 81.48C131.63 80.6907 132.867 80.296 134.275 80.296C135.918 80.296 137.177 80.7867 138.051 81.768C138.094 81.8107 138.137 81.832 138.179 81.832C138.222 81.8107 138.243 81.768 138.243 81.704V80.936ZM137.987 91.272C138.158 90.632 138.243 89.7573 138.243 88.648C138.243 87.9867 138.222 87.4747 138.179 87.112C138.137 86.7493 138.062 86.408 137.955 86.088C137.763 85.512 137.443 85.0533 136.995 84.712C136.547 84.3493 135.993 84.168 135.331 84.168C134.691 84.168 134.147 84.3493 133.699 84.712C133.251 85.0533 132.921 85.512 132.707 86.088C132.409 86.728 132.259 87.592 132.259 88.68C132.259 89.8747 132.387 90.728 132.643 91.24C132.835 91.816 133.166 92.2853 133.635 92.648C134.126 92.9893 134.702 93.16 135.363 93.16C136.046 93.16 136.611 92.9893 137.059 92.648C137.507 92.2853 137.817 91.8267 137.987 91.272ZM152.536 80.296C153.923 80.296 155.161 80.5413 156.249 81.032C157.337 81.5013 158.179 82.152 158.777 82.984C159.395 83.816 159.705 84.744 159.705 85.768V96.616C159.705 96.7227 159.662 96.8187 159.577 96.904C159.513 96.968 159.427 97 159.321 97H155.577C155.47 97 155.374 96.968 155.289 96.904C155.225 96.8187 155.193 96.7227 155.193 96.616V95.56C155.193 95.496 155.171 95.4533 155.129 95.432C155.086 95.4107 155.043 95.432 155.001 95.496C154.105 96.6693 152.665 97.256 150.681 97.256C149.017 97.256 147.673 96.8507 146.649 96.04C145.625 95.2293 145.113 94.0347 145.113 92.456C145.113 90.8133 145.689 89.544 146.841 88.648C147.993 87.7307 149.635 87.272 151.769 87.272H155.033C155.139 87.272 155.193 87.2187 155.193 87.112V86.408C155.193 85.704 154.979 85.16 154.553 84.776C154.126 84.3707 153.486 84.168 152.633 84.168C151.971 84.168 151.417 84.2853 150.969 84.52C150.542 84.7547 150.265 85.0853 150.137 85.512C150.073 85.7467 149.934 85.8533 149.721 85.832L145.849 85.32C145.593 85.2773 145.475 85.1813 145.497 85.032C145.582 84.136 145.934 83.3253 146.553 82.6C147.193 81.8747 148.025 81.3093 149.049 80.904C150.094 80.4987 151.257 80.296 152.536 80.296ZM151.897 93.896C152.814 93.896 153.593 93.6507 154.233 93.16C154.873 92.6693 155.193 92.04 155.193 91.272V90.12C155.193 90.0133 155.139 89.96 155.033 89.96H152.729C151.769 89.96 151.011 90.1413 150.457 90.504C149.923 90.8667 149.657 91.3787 149.657 92.04C149.657 92.616 149.859 93.0747 150.265 93.416C150.67 93.736 151.214 93.896 151.897 93.896ZM171.979 83.784C171.979 83.8907 171.936 83.9867 171.851 84.072C171.787 84.136 171.702 84.168 171.595 84.168H168.523C168.416 84.168 168.363 84.2213 168.363 84.328V91.112C168.363 91.816 168.502 92.3387 168.779 92.68C169.078 93.0213 169.547 93.192 170.187 93.192H171.243C171.35 93.192 171.435 93.2347 171.499 93.32C171.584 93.384 171.627 93.4693 171.627 93.576V96.616C171.627 96.8507 171.499 96.9893 171.243 97.032C170.347 97.0747 169.707 97.096 169.323 97.096C167.552 97.096 166.23 96.808 165.355 96.232C164.48 95.6347 164.032 94.5253 164.011 92.904V84.328C164.011 84.2213 163.958 84.168 163.851 84.168H162.027C161.92 84.168 161.824 84.136 161.739 84.072C161.675 83.9867 161.643 83.8907 161.643 83.784V80.936C161.643 80.8293 161.675 80.744 161.739 80.68C161.824 80.5947 161.92 80.552 162.027 80.552H163.851C163.958 80.552 164.011 80.4987 164.011 80.392V76.584C164.011 76.4773 164.043 76.392 164.107 76.328C164.192 76.2427 164.288 76.2 164.395 76.2H167.979C168.086 76.2 168.171 76.2427 168.235 76.328C168.32 76.392 168.363 76.4773 168.363 76.584V80.392C168.363 80.4987 168.416 80.552 168.523 80.552H171.595C171.702 80.552 171.787 80.5947 171.851 80.68C171.936 80.744 171.979 80.8293 171.979 80.936V83.784ZM177.127 78.696C176.402 78.696 175.794 78.4613 175.303 77.992C174.834 77.5013 174.599 76.8933 174.599 76.168C174.599 75.4213 174.834 74.8133 175.303 74.344C175.773 73.8747 176.381 73.64 177.127 73.64C177.874 73.64 178.482 73.8747 178.951 74.344C179.421 74.8133 179.655 75.4213 179.655 76.168C179.655 76.8933 179.41 77.5013 178.919 77.992C178.45 78.4613 177.853 78.696 177.127 78.696ZM175.207 97C175.101 97 175.005 96.968 174.919 96.904C174.855 96.8187 174.823 96.7227 174.823 96.616V80.904C174.823 80.7973 174.855 80.712 174.919 80.648C175.005 80.5627 175.101 80.52 175.207 80.52H178.951C179.058 80.52 179.143 80.5627 179.207 80.648C179.293 80.712 179.335 80.7973 179.335 80.904V96.616C179.335 96.7227 179.293 96.8187 179.207 96.904C179.143 96.968 179.058 97 178.951 97H175.207ZM190.116 97.256C188.324 97.256 186.788 96.7867 185.508 95.848C184.228 94.9093 183.353 93.6293 182.884 92.008C182.585 91.0053 182.436 89.9173 182.436 88.744C182.436 87.4853 182.585 86.3547 182.884 85.352C183.374 83.7733 184.26 82.536 185.54 81.64C186.82 80.744 188.356 80.296 190.148 80.296C191.897 80.296 193.39 80.744 194.628 81.64C195.865 82.5147 196.74 83.7413 197.252 85.32C197.593 86.3867 197.764 87.5067 197.764 88.68C197.764 89.832 197.614 90.9093 197.316 91.912C196.846 93.576 195.972 94.888 194.692 95.848C193.433 96.7867 191.908 97.256 190.116 97.256ZM190.116 93.384C190.82 93.384 191.417 93.1707 191.908 92.744C192.398 92.3173 192.75 91.7307 192.964 90.984C193.134 90.3013 193.22 89.5547 193.22 88.744C193.22 87.848 193.134 87.0907 192.964 86.472C192.729 85.7467 192.366 85.1813 191.876 84.776C191.385 84.3707 190.788 84.168 190.084 84.168C189.358 84.168 188.75 84.3707 188.26 84.776C187.79 85.1813 187.449 85.7467 187.236 86.472C187.065 86.984 186.98 87.7413 186.98 88.744C186.98 89.704 187.054 90.4507 187.204 90.984C187.417 91.7307 187.769 92.3173 188.26 92.744C188.772 93.1707 189.39 93.384 190.116 93.384ZM209.24 80.296C210.947 80.296 212.323 80.8187 213.368 81.864C214.413 82.9093 214.936 84.328 214.936 86.12V96.616C214.936 96.7227 214.893 96.8187 214.808 96.904C214.744 96.968 214.659 97 214.552 97H210.808C210.701 97 210.605 96.968 210.52 96.904C210.456 96.8187 210.424 96.7227 210.424 96.616V87.048C210.424 86.1947 210.179 85.5013 209.688 84.968C209.219 84.4347 208.589 84.168 207.8 84.168C207.011 84.168 206.371 84.4347 205.88 84.968C205.411 85.5013 205.176 86.1947 205.176 87.048V96.616C205.176 96.7227 205.133 96.8187 205.048 96.904C204.984 96.968 204.899 97 204.792 97H201.048C200.941 97 200.845 96.968 200.76 96.904C200.696 96.8187 200.664 96.7227 200.664 96.616V80.936C200.664 80.8293 200.696 80.744 200.76 80.68C200.845 80.5947 200.941 80.552 201.048 80.552H204.792C204.899 80.552 204.984 80.5947 205.048 80.68C205.133 80.744 205.176 80.8293 205.176 80.936V82.056C205.176 82.12 205.197 82.1627 205.24 82.184C205.283 82.2053 205.315 82.1947 205.336 82.152C206.211 80.9147 207.512 80.296 209.24 80.296Z" fill="black"/>
<rect x="64.5" y="136.5" width="91" height="43" rx="4.5" stroke="#9747FF" stroke-dasharray="10 5"/>
<path d="M86.34 159.655V167.655H94.34V159.655H86.34ZM76.34 167.655H84.34V159.655H76.34V167.655ZM76.34 149.655V157.655H84.34V149.655H76.34ZM90 148.345L84.34 153.995L90 159.655L95.66 153.995L90 148.345Z" fill="#006158"/>
<path d="M138 151.175L140.83 154.005L138 156.835L135.17 154.005L138 151.175ZM130.34 151.655V155.655H126.34V151.655H130.34ZM140.34 161.655V165.655H136.34V161.655H140.34ZM130.34 161.655V165.655H126.34V161.655H130.34ZM138 148.345L132.34 153.995L138 159.655L143.66 153.995L138 148.345ZM132.34 149.655H124.34V157.655H132.34V149.655ZM142.34 159.655H134.34V167.655H142.34V159.655ZM132.34 159.655H124.34V167.655H132.34V159.655Z" fill="#006158"/>
<rect width="410" height="140" transform="translate(64 212)" fill="white"/>
<rect x="64.5" y="212.5" width="187" height="43" rx="4.5" stroke="#9747FF" stroke-dasharray="10 5"/>
<path d="M89.41 229.41L88 228L82 234L88 240L89.41 238.59L84.83 234L89.41 229.41Z" fill="#006158"/>
<path d="M132 228L130.59 229.41L135.17 234L130.59 238.59L132 240L138 234L132 228Z" fill="#006158"/>
<path d="M182 230L176 236L177.41 237.41L182 232.83L186.59 237.41L188 236L182 230Z" fill="#006158"/>
<path d="M234.59 230.59L230 235.17L225.41 230.59L224 232L230 238L236 232L234.59 230.59Z" fill="#006158"/>
<rect x="276.5" y="212.5" width="187" height="43" rx="4.5" stroke="#9747FF" stroke-dasharray="10 5"/>
<path d="M306 233H293.83L299.42 227.41L298 226L290 234L298 242L299.41 240.59L293.83 235H306V233Z" fill="#006158"/>
<path d="M346 226L344.59 227.41L350.17 233H338V235H350.17L344.59 240.59L346 242L354 234L346 226Z" fill="#006158"/>
<path d="M386 234L387.41 235.41L393 229.83V242H395V229.83L400.58 235.42L402 234L394 226L386 234Z" fill="#006158"/>
<path d="M450 234L448.59 232.59L443 238.17V226H441V238.17L435.42 232.58L434 234L442 242L450 234Z" fill="#006158"/>
<path d="M83 286.41L81.59 285L76 290.59L70.41 285L69 286.41L74.59 292L69 297.59L70.41 299L76 293.41L81.59 299L83 297.59L77.41 292L83 286.41Z" fill="#006158"/>
<path d="M130.41 296.59L125.82 292L130.41 287.41L129 286L123 292L129 298L130.41 296.59ZM118 286H120V298H118V286Z" fill="#006158"/>
<path d="M165.59 287.41L170.18 292L165.59 296.59L167 298L173 292L167 286L165.59 287.41ZM176 286H178V298H176V286Z" fill="#006158"/>
<path d="M215 294H213V299H218V297H215V294ZM213 290H215V287H218V285H213V290ZM225 297H222V299H227V294H225V297ZM222 285V287H225V290H227V285H222Z" fill="#006158"/>
<path d="M261 296H264V299H266V294H261V296ZM264 288H261V290H266V285H264V288ZM270 299H272V296H275V294H270V299ZM272 288V285H270V290H275V288H272Z" fill="#006158"/>
<path d="M310 290C308.9 290 308 290.9 308 292C308 293.1 308.9 294 310 294C311.1 294 312 293.1 312 292C312 290.9 311.1 290 310 290ZM322 290C320.9 290 320 290.9 320 292C320 293.1 320.9 294 322 294C323.1 294 324 293.1 324 292C324 290.9 323.1 290 322 290ZM316 290C314.9 290 314 290.9 314 292C314 293.1 314.9 294 316 294C317.1 294 318 293.1 318 292C318 290.9 317.1 290 316 290Z" fill="#006158"/>
<path d="M364 288C365.1 288 366 287.1 366 286C366 284.9 365.1 284 364 284C362.9 284 362 284.9 362 286C362 287.1 362.9 288 364 288ZM364 290C362.9 290 362 290.9 362 292C362 293.1 362.9 294 364 294C365.1 294 366 293.1 366 292C366 290.9 365.1 290 364 290ZM364 296C362.9 296 362 296.9 362 298C362 299.1 362.9 300 364 300C365.1 300 366 299.1 366 298C366 296.9 365.1 296 364 296Z" fill="#006158"/>
<path d="M412 282C413.313 282 414.614 282.259 415.827 282.761C417.04 283.264 418.142 284 419.071 284.929C420 285.858 420.736 286.96 421.239 288.173C421.741 289.386 422 290.687 422 292C422 294.652 420.946 297.196 419.071 299.071C417.196 300.946 414.652 302 412 302C410.687 302 409.386 301.741 408.173 301.239C406.96 300.736 405.858 300 404.929 299.071C403.054 297.196 402 294.652 402 292C402 289.348 403.054 286.804 404.929 284.929C406.804 283.054 409.348 282 412 282ZM412 290.5C411.602 290.5 411.221 290.658 410.939 290.939C410.658 291.221 410.5 291.602 410.5 292C410.5 292.398 410.658 292.779 410.939 293.061C411.221 293.342 411.602 293.5 412 293.5C412.398 293.5 412.779 293.342 413.061 293.061C413.342 292.779 413.5 292.398 413.5 292C413.5 291.602 413.342 291.221 413.061 290.939C412.779 290.658 412.398 290.5 412 290.5ZM406.5 290.5C406.102 290.5 405.721 290.658 405.439 290.939C405.158 291.221 405 291.602 405 292C405 292.398 405.158 292.779 405.439 293.061C405.721 293.342 406.102 293.5 406.5 293.5C406.898 293.5 407.279 293.342 407.561 293.061C407.842 292.779 408 292.398 408 292C408 291.602 407.842 291.221 407.561 290.939C407.279 290.658 406.898 290.5 406.5 290.5ZM417.5 290.5C417.102 290.5 416.721 290.658 416.439 290.939C416.158 291.221 416 291.602 416 292C416 292.398 416.158 292.779 416.439 293.061C416.721 293.342 417.102 293.5 417.5 293.5C417.898 293.5 418.279 293.342 418.561 293.061C418.842 292.779 419 292.398 419 292C419 291.602 418.842 291.221 418.561 290.939C418.279 290.658 417.898 290.5 417.5 290.5Z" fill="#006158"/>
<path d="M451 298H469V296H451V298ZM451 293H469V291H451V293ZM451 286V288H469V286H451Z" fill="#006158"/>
<path d="M76 334V337L80 333L76 329V332C71.58 332 68 335.58 68 340C68 341.57 68.46 343.03 69.24 344.26L70.7 342.8C70.25 341.97 70 341.01 70 340C70 336.69 72.69 334 76 334ZM82.76 335.74L81.3 337.2C81.74 338.04 82 338.99 82 340C82 343.31 79.31 346 76 346V343L72 347L76 351V348C80.42 348 84 344.42 84 340C84 338.43 83.54 336.97 82.76 335.74Z" fill="#006158"/>
<path d="M117 349C116.45 349 115.979 348.804 115.588 348.413C115.196 348.021 115 347.55 115 347V333C115 332.45 115.196 331.979 115.588 331.588C115.979 331.196 116.45 331 117 331H124V333H117V347H131V340H133V347C133 347.55 132.804 348.021 132.413 348.413C132.021 348.804 131.55 349 131 349H117ZM121.7 343.7L120.3 342.3L129.6 333H126V331H133V338H131V334.4L121.7 343.7Z" fill="#006158"/>
<path d="M178.63 339.1C176.78 337.49 174.38 336.5 171.73 336.5C167.08 336.5 163.15 339.53 161.77 343.72L164.13 344.5C165.18 341.31 168.18 339 171.73 339C173.68 339 175.46 339.72 176.85 340.88L173.23 344.5H182.23V335.5L178.63 339.1Z" fill="#006158"/>
<path d="M220.265 336.5C217.615 336.5 215.215 337.49 213.365 339.1L209.765 335.5V344.5H218.765L215.145 340.88C216.535 339.72 218.305 339 220.265 339C223.805 339 226.815 341.31 227.865 344.5L230.235 343.72C228.845 339.53 224.915 336.5 220.265 336.5Z" fill="#006158"/>
<path d="M273 336L271.59 337.41L273.17 339H265V341H273.17L271.59 342.58L273 344L277 340L273 336ZM261 333H268V331H261C259.9 331 259 331.9 259 333V347C259 348.1 259.9 349 261 349H268V347H261V333Z" fill="#006158"/>
<rect x="64.5" y="384.5" width="91" height="43" rx="4.5" stroke="#9747FF" stroke-dasharray="10 5"/>
<path d="M84 414.5V408.5H88V414.5H93V406.5H96L86 397.5L76 406.5H79V414.5H84Z" fill="#006158"/>
<path d="M134 400.19L139 404.69V412.5H137V406.5H131V412.5H129V404.69L134 400.19ZM134 397.5L124 406.5H127V414.5H133V408.5H135V414.5H141V406.5H144L134 397.5Z" fill="#006158"/>
<rect x="188.5" y="384.5" width="91" height="43" rx="4.5" stroke="#9747FF" stroke-dasharray="10 5"/>
<path d="M202 402H206V398H202V402ZM208 414H212V410H208V414ZM202 414H206V410H202V414ZM202 408H206V404H202V408ZM208 408H212V404H208V408ZM214 398V402H218V398H214ZM208 402H212V398H208V402ZM214 408H218V404H214V408ZM214 414H218V410H214V414Z" fill="#006158"/>
<path d="M250 402H254V398H250V402ZM256 414H260V410H256V414ZM250 414H254V410H250V414ZM250 408H254V404H250V408ZM256 408H260V404H256V408ZM262 398V402H266V398H262ZM256 402H260V398H256V402ZM262 408H266V404H262V408ZM262 414H266V410H262V414Z" fill="#006158"/>
<path d="M324 406C325.1 406 326 405.1 326 404H322C322 405.1 322.9 406 324 406ZM330 400V395C330 391.93 328.37 389.36 325.5 388.68V388C325.5 387.17 324.83 386.5 324 386.5C323.17 386.5 322.5 387.17 322.5 388V388.68C319.64 389.36 318 391.92 318 395V400L316 402V403H332V402L330 400ZM328 401H320V395C320 392.52 321.51 390.5 324 390.5C326.49 390.5 328 392.52 328 395V401Z" fill="#006158"/>
<path d="M389 403V404H371V403L373 401V395C373 391.9 375.03 389.17 378 388.29V388C378 387.47 378.211 386.961 378.586 386.586C378.961 386.211 379.47 386 380 386C380.53 386 381.039 386.211 381.414 386.586C381.789 386.961 382 387.47 382 388V388.29C384.97 389.17 387 391.9 387 395V401L389 403ZM382 405C382 405.53 381.789 406.039 381.414 406.414C381.039 406.789 380.53 407 380 407C379.47 407 378.961 406.789 378.586 406.414C378.211 406.039 378 405.53 378 405" fill="#006158"/>
<path d="M436 406C434.633 406 433.342 405.738 432.125 405.212C430.908 404.688 429.846 403.971 428.938 403.062C428.029 402.154 427.312 401.092 426.788 399.875C426.263 398.658 426 397.367 426 396C426 394.617 426.263 393.321 426.788 392.113C427.312 390.904 428.029 389.846 428.938 388.938C429.846 388.029 430.908 387.312 432.125 386.788C433.342 386.263 434.633 386 436 386C437.383 386 438.679 386.263 439.887 386.788C441.096 387.312 442.154 388.029 443.062 388.938C443.971 389.846 444.688 390.904 445.212 392.113C445.738 393.321 446 394.617 446 396C446 397.367 445.738 398.658 445.212 399.875C444.688 401.092 443.971 402.154 443.062 403.062C442.154 403.971 441.096 404.688 439.887 405.212C438.679 405.738 437.383 406 436 406ZM436 403.95C436.433 403.35 436.808 402.725 437.125 402.075C437.442 401.425 437.7 400.733 437.9 400H434.1C434.3 400.733 434.558 401.425 434.875 402.075C435.192 402.725 435.567 403.35 436 403.95ZM433.4 403.55C433.1 403 432.838 402.429 432.613 401.838C432.388 401.246 432.2 400.633 432.05 400H429.1C429.583 400.833 430.188 401.558 430.912 402.175C431.638 402.792 432.467 403.25 433.4 403.55ZM438.6 403.55C439.533 403.25 440.363 402.792 441.088 402.175C441.812 401.558 442.417 400.833 442.9 400H439.95C439.8 400.633 439.613 401.246 439.387 401.838C439.163 402.429 438.9 403 438.6 403.55ZM428.25 398H431.65C431.6 397.667 431.562 397.338 431.537 397.012C431.513 396.688 431.5 396.35 431.5 396C431.5 395.65 431.513 395.312 431.537 394.988C431.562 394.663 431.6 394.333 431.65 394H428.25C428.167 394.333 428.104 394.663 428.062 394.988C428.021 395.312 428 395.65 428 396C428 396.35 428.021 396.688 428.062 397.012C428.104 397.338 428.167 397.667 428.25 398ZM433.65 398H438.35C438.4 397.667 438.438 397.338 438.463 397.012C438.488 396.688 438.5 396.35 438.5 396C438.5 395.65 438.488 395.312 438.463 394.988C438.438 394.663 438.4 394.333 438.35 394H433.65C433.6 394.333 433.562 394.663 433.537 394.988C433.513 395.312 433.5 395.65 433.5 396C433.5 396.35 433.513 396.688 433.537 397.012C433.562 397.338 433.6 397.667 433.65 398ZM440.35 398H443.75C443.833 397.667 443.896 397.338 443.938 397.012C443.979 396.688 444 396.35 444 396C444 395.65 443.979 395.312 443.938 394.988C443.896 394.663 443.833 394.333 443.75 394H440.35C440.4 394.333 440.438 394.663 440.463 394.988C440.488 395.312 440.5 395.65 440.5 396C440.5 396.35 440.488 396.688 440.463 397.012C440.438 397.338 440.4 397.667 440.35 398ZM439.95 392H442.9C442.417 391.167 441.812 390.442 441.088 389.825C440.363 389.208 439.533 388.75 438.6 388.45C438.9 389 439.163 389.571 439.387 390.162C439.613 390.754 439.8 391.367 439.95 392ZM434.1 392H437.9C437.7 391.267 437.442 390.575 437.125 389.925C436.808 389.275 436.433 388.65 436 388.05C435.567 388.65 435.192 389.275 434.875 389.925C434.558 390.575 434.3 391.267 434.1 392ZM429.1 392H432.05C432.2 391.367 432.388 390.754 432.613 390.162C432.838 389.571 433.1 389 433.4 388.45C432.467 388.75 431.638 389.208 430.912 389.825C430.188 390.442 429.583 391.167 429.1 392Z" fill="#006158"/>
<rect x="64.5" y="460.5" width="187" height="43" rx="4.5" stroke="#9747FF" stroke-dasharray="10 5"/>
<path d="M92 483L86 489L80 483L81.4102 481.59L86 486.17L90.5898 481.59L92 483Z" fill="#006158"/>
<path d="M92 476.41L86 482.41L80 476.41L81.4102 475L86 479.58L90.5898 475L92 476.41Z" fill="#006158"/>
<path d="M128 481L134 475L140 481L138.59 482.41L134 477.83L129.41 482.41L128 481Z" fill="#006158"/>
<path d="M128 487.59L134 481.59L140 487.59L138.59 489L134 484.42L129.41 489L128 487.59Z" fill="#006158"/>
<path d="M181 488L175 482L181 476L182.41 477.41L177.83 482L182.41 486.59L181 488Z" fill="#006158"/>
<path d="M187.59 488L181.59 482L187.59 476L189 477.41L184.42 482L189 486.59L187.59 488Z" fill="#006158"/>
<path d="M231 476L237 482L231 488L229.59 486.59L234.17 482L229.59 477.41L231 476Z" fill="#006158"/>
<path d="M224.41 476L230.41 482L224.41 488L223 486.59L227.58 482L223 477.41L224.41 476Z" fill="#006158"/>
<path fill-rule="evenodd" clip-rule="evenodd" d="M474 537H64V536H474V537Z" fill="#D3D3D3"/>
<path d="M66.9801 585H77.0201C78.0467 585 78.6867 583.887 78.1734 583L73.1534 574.327C72.6401 573.44 71.3601 573.44 70.8467 574.327L65.8267 583C65.3134 583.887 65.9534 585 66.9801 585ZM72.0001 580.333C71.6334 580.333 71.3334 580.033 71.3334 579.667V578.333C71.3334 577.967 71.6334 577.667 72.0001 577.667C72.3667 577.667 72.6667 577.967 72.6667 578.333V579.667C72.6667 580.033 72.3667 580.333 72.0001 580.333ZM72.6667 583H71.3334V581.667H72.6667V583Z" fill="#FF8328"/>
<path d="M90.704 573.8C90.7573 573.8 90.8 573.821 90.832 573.864C90.8747 573.896 90.896 573.939 90.896 573.992V575.56C90.896 575.613 90.8747 575.661 90.832 575.704C90.8 575.736 90.7573 575.752 90.704 575.752H87.84C87.7867 575.752 87.76 575.779 87.76 575.832V584.808C87.76 584.861 87.7387 584.909 87.696 584.952C87.664 584.984 87.6213 585 87.568 585H85.696C85.6427 585 85.5947 584.984 85.552 584.952C85.52 584.909 85.504 584.861 85.504 584.808V575.832C85.504 575.779 85.4773 575.752 85.424 575.752H82.64C82.5867 575.752 82.5387 575.736 82.496 575.704C82.464 575.661 82.448 575.613 82.448 575.56V573.992C82.448 573.939 82.464 573.896 82.496 573.864C82.5387 573.821 82.5867 573.8 82.64 573.8H90.704ZM94.4796 585.128C93.5836 585.128 92.8156 584.893 92.1756 584.424C91.5356 583.955 91.0983 583.315 90.8636 582.504C90.7143 582.003 90.6396 581.459 90.6396 580.872C90.6396 580.243 90.7143 579.677 90.8636 579.176C91.109 578.387 91.5516 577.768 92.1916 577.32C92.8316 576.872 93.5996 576.648 94.4956 576.648C95.3703 576.648 96.117 576.872 96.7356 577.32C97.3543 577.757 97.7916 578.371 98.0476 579.16C98.2183 579.693 98.3036 580.253 98.3036 580.84C98.3036 581.416 98.229 581.955 98.0796 582.456C97.845 583.288 97.4076 583.944 96.7676 584.424C96.1383 584.893 95.3756 585.128 94.4796 585.128ZM94.4796 583.192C94.8316 583.192 95.1303 583.085 95.3756 582.872C95.621 582.659 95.797 582.365 95.9036 581.992C95.989 581.651 96.0316 581.277 96.0316 580.872C96.0316 580.424 95.989 580.045 95.9036 579.736C95.7863 579.373 95.605 579.091 95.3596 578.888C95.1143 578.685 94.8156 578.584 94.4636 578.584C94.101 578.584 93.797 578.685 93.5516 578.888C93.317 579.091 93.1463 579.373 93.0396 579.736C92.9543 579.992 92.9116 580.371 92.9116 580.872C92.9116 581.352 92.949 581.725 93.0236 581.992C93.1303 582.365 93.3063 582.659 93.5516 582.872C93.8076 583.085 94.117 583.192 94.4796 583.192ZM110.237 578.872C110.44 579.427 110.541 580.088 110.541 580.856C110.541 581.592 110.45 582.237 110.269 582.792C110.024 583.517 109.629 584.088 109.085 584.504C108.552 584.92 107.917 585.128 107.181 585.128C106.402 585.128 105.789 584.835 105.341 584.248C105.32 584.227 105.298 584.221 105.277 584.232C105.256 584.232 105.245 584.248 105.245 584.28V584.808C105.245 584.861 105.224 584.909 105.181 584.952C105.149 584.984 105.106 585 105.053 585H103.181C103.128 585 103.08 584.984 103.037 584.952C103.005 584.909 102.989 584.861 102.989 584.808V573.992C102.989 573.939 103.005 573.896 103.037 573.864C103.08 573.821 103.128 573.8 103.181 573.8H105.053C105.106 573.8 105.149 573.821 105.181 573.864C105.224 573.896 105.245 573.939 105.245 573.992V577.416C105.245 577.448 105.256 577.469 105.277 577.48C105.298 577.491 105.32 577.48 105.341 577.448C105.757 576.915 106.349 576.648 107.117 576.648C107.896 576.648 108.546 576.851 109.069 577.256C109.602 577.651 109.992 578.189 110.237 578.872ZM107.869 582.504C108.093 582.099 108.205 581.565 108.205 580.904C108.205 580.168 108.077 579.603 107.821 579.208C107.565 578.792 107.186 578.584 106.685 578.584C106.216 578.584 105.858 578.792 105.613 579.208C105.378 579.613 105.261 580.173 105.261 580.888C105.261 581.603 105.368 582.141 105.581 582.504C105.837 582.963 106.21 583.192 106.701 583.192C107.224 583.192 107.613 582.963 107.869 582.504ZM119.253 580.04C119.317 580.445 119.338 580.899 119.317 581.4C119.306 581.528 119.237 581.592 119.109 581.592H114.165C114.101 581.592 114.079 581.619 114.101 581.672C114.133 581.885 114.191 582.099 114.277 582.312C114.554 582.909 115.119 583.208 115.973 583.208C116.655 583.197 117.194 582.92 117.589 582.376C117.631 582.312 117.679 582.28 117.733 582.28C117.765 582.28 117.802 582.301 117.845 582.344L118.997 583.48C119.05 583.533 119.077 583.581 119.077 583.624C119.077 583.645 119.055 583.688 119.013 583.752C118.661 584.189 118.207 584.531 117.653 584.776C117.098 585.011 116.49 585.128 115.829 585.128C114.911 585.128 114.133 584.92 113.493 584.504C112.863 584.088 112.41 583.507 112.133 582.76C111.909 582.227 111.797 581.528 111.797 580.664C111.797 580.077 111.877 579.56 112.037 579.112C112.282 578.355 112.709 577.752 113.317 577.304C113.935 576.856 114.666 576.632 115.509 576.632C116.575 576.632 117.429 576.941 118.069 577.56C118.719 578.179 119.114 579.005 119.253 580.04ZM115.525 578.584C114.853 578.584 114.41 578.899 114.197 579.528C114.154 579.667 114.117 579.837 114.085 580.04C114.085 580.093 114.111 580.12 114.165 580.12H116.933C116.997 580.12 117.018 580.093 116.997 580.04C116.943 579.731 116.917 579.581 116.917 579.592C116.821 579.272 116.65 579.027 116.405 578.856C116.17 578.675 115.877 578.584 115.525 578.584ZM128.006 576.664C128.39 576.664 128.694 576.739 128.918 576.888C129.003 576.931 129.035 577.011 129.014 577.128L128.678 578.952C128.667 579.08 128.593 579.117 128.454 579.064C128.294 579.011 128.107 578.984 127.894 578.984C127.809 578.984 127.691 578.995 127.542 579.016C127.158 579.048 126.833 579.192 126.566 579.448C126.299 579.693 126.166 580.024 126.166 580.44V584.808C126.166 584.861 126.145 584.909 126.102 584.952C126.07 584.984 126.027 585 125.974 585H124.102C124.049 585 124.001 584.984 123.958 584.952C123.926 584.909 123.91 584.861 123.91 584.808V576.968C123.91 576.915 123.926 576.872 123.958 576.84C124.001 576.797 124.049 576.776 124.102 576.776H125.974C126.027 576.776 126.07 576.797 126.102 576.84C126.145 576.872 126.166 576.915 126.166 576.968V577.576C126.166 577.608 126.177 577.629 126.198 577.64C126.219 577.651 126.235 577.645 126.246 577.624C126.683 576.984 127.27 576.664 128.006 576.664ZM137.112 580.04C137.176 580.445 137.197 580.899 137.176 581.4C137.165 581.528 137.096 581.592 136.968 581.592H132.024C131.96 581.592 131.939 581.619 131.96 581.672C131.992 581.885 132.051 582.099 132.136 582.312C132.413 582.909 132.979 583.208 133.832 583.208C134.515 583.197 135.053 582.92 135.448 582.376C135.491 582.312 135.539 582.28 135.592 582.28C135.624 582.28 135.661 582.301 135.704 582.344L136.856 583.48C136.909 583.533 136.936 583.581 136.936 583.624C136.936 583.645 136.915 583.688 136.872 583.752C136.52 584.189 136.067 584.531 135.512 584.776C134.957 585.011 134.349 585.128 133.688 585.128C132.771 585.128 131.992 584.92 131.352 584.504C130.723 584.088 130.269 583.507 129.992 582.76C129.768 582.227 129.656 581.528 129.656 580.664C129.656 580.077 129.736 579.56 129.896 579.112C130.141 578.355 130.568 577.752 131.176 577.304C131.795 576.856 132.525 576.632 133.368 576.632C134.435 576.632 135.288 576.941 135.928 577.56C136.579 578.179 136.973 579.005 137.112 580.04ZM133.384 578.584C132.712 578.584 132.269 578.899 132.056 579.528C132.013 579.667 131.976 579.837 131.944 580.04C131.944 580.093 131.971 580.12 132.024 580.12H134.792C134.856 580.12 134.877 580.093 134.856 580.04C134.803 579.731 134.776 579.581 134.776 579.592C134.68 579.272 134.509 579.027 134.264 578.856C134.029 578.675 133.736 578.584 133.384 578.584ZM138.758 585C138.705 585 138.657 584.984 138.614 584.952C138.582 584.909 138.566 584.861 138.566 584.808V573.992C138.566 573.939 138.582 573.896 138.614 573.864C138.657 573.821 138.705 573.8 138.758 573.8H140.63C140.684 573.8 140.726 573.821 140.758 573.864C140.801 573.896 140.822 573.939 140.822 573.992V584.808C140.822 584.861 140.801 584.909 140.758 584.952C140.726 584.984 140.684 585 140.63 585H138.758ZM149.753 580.04C149.817 580.445 149.838 580.899 149.817 581.4C149.806 581.528 149.737 581.592 149.609 581.592H144.665C144.601 581.592 144.579 581.619 144.601 581.672C144.633 581.885 144.691 582.099 144.777 582.312C145.054 582.909 145.619 583.208 146.473 583.208C147.155 583.197 147.694 582.92 148.089 582.376C148.131 582.312 148.179 582.28 148.233 582.28C148.265 582.28 148.302 582.301 148.345 582.344L149.497 583.48C149.55 583.533 149.577 583.581 149.577 583.624C149.577 583.645 149.555 583.688 149.513 583.752C149.161 584.189 148.707 584.531 148.153 584.776C147.598 585.011 146.99 585.128 146.329 585.128C145.411 585.128 144.633 584.92 143.993 584.504C143.363 584.088 142.91 583.507 142.633 582.76C142.409 582.227 142.297 581.528 142.297 580.664C142.297 580.077 142.377 579.56 142.537 579.112C142.782 578.355 143.209 577.752 143.817 577.304C144.435 576.856 145.166 576.632 146.009 576.632C147.075 576.632 147.929 576.941 148.569 577.56C149.219 578.179 149.614 579.005 149.753 580.04ZM146.025 578.584C145.353 578.584 144.91 578.899 144.697 579.528C144.654 579.667 144.617 579.837 144.585 580.04C144.585 580.093 144.611 580.12 144.665 580.12H147.433C147.497 580.12 147.518 580.093 147.497 580.04C147.443 579.731 147.417 579.581 147.417 579.592C147.321 579.272 147.15 579.027 146.905 578.856C146.67 578.675 146.377 578.584 146.025 578.584ZM154.409 576.648C155.102 576.648 155.721 576.771 156.265 577.016C156.809 577.251 157.23 577.576 157.529 577.992C157.838 578.408 157.993 578.872 157.993 579.384V584.808C157.993 584.861 157.972 584.909 157.929 584.952C157.897 584.984 157.854 585 157.801 585H155.929C155.876 585 155.828 584.984 155.785 584.952C155.753 584.909 155.737 584.861 155.737 584.808V584.28C155.737 584.248 155.726 584.227 155.705 584.216C155.684 584.205 155.662 584.216 155.641 584.248C155.193 584.835 154.473 585.128 153.481 585.128C152.649 585.128 151.977 584.925 151.465 584.52C150.953 584.115 150.697 583.517 150.697 582.728C150.697 581.907 150.985 581.272 151.561 580.824C152.137 580.365 152.958 580.136 154.025 580.136H155.657C155.71 580.136 155.737 580.109 155.737 580.056V579.704C155.737 579.352 155.63 579.08 155.417 578.888C155.204 578.685 154.884 578.584 154.457 578.584C154.126 578.584 153.849 578.643 153.625 578.76C153.412 578.877 153.273 579.043 153.209 579.256C153.177 579.373 153.108 579.427 153.001 579.416L151.065 579.16C150.937 579.139 150.878 579.091 150.889 579.016C150.932 578.568 151.108 578.163 151.417 577.8C151.737 577.437 152.153 577.155 152.665 576.952C153.188 576.749 153.769 576.648 154.409 576.648ZM154.089 583.448C154.548 583.448 154.937 583.325 155.257 583.08C155.577 582.835 155.737 582.52 155.737 582.136V581.56C155.737 581.507 155.71 581.48 155.657 581.48H154.505C154.025 581.48 153.646 581.571 153.369 581.752C153.102 581.933 152.969 582.189 152.969 582.52C152.969 582.808 153.07 583.037 153.273 583.208C153.476 583.368 153.748 583.448 154.089 583.448ZM162.862 585.112C162.147 585.112 161.523 585.011 160.99 584.808C160.457 584.605 160.041 584.323 159.742 583.96C159.454 583.597 159.31 583.187 159.31 582.728V582.568C159.31 582.515 159.326 582.472 159.358 582.44C159.401 582.397 159.449 582.376 159.502 582.376H161.278C161.331 582.376 161.374 582.397 161.406 582.44C161.449 582.472 161.47 582.515 161.47 582.568V582.584C161.47 582.819 161.598 583.021 161.854 583.192C162.121 583.352 162.451 583.432 162.846 583.432C163.209 583.432 163.502 583.363 163.726 583.224C163.95 583.075 164.062 582.893 164.062 582.68C164.062 582.488 163.966 582.344 163.774 582.248C163.582 582.152 163.267 582.051 162.83 581.944C162.329 581.816 161.934 581.693 161.646 581.576C160.963 581.341 160.419 581.053 160.014 580.712C159.609 580.371 159.406 579.88 159.406 579.24C159.406 578.451 159.71 577.827 160.318 577.368C160.937 576.899 161.753 576.664 162.766 576.664C163.449 576.664 164.046 576.776 164.558 577C165.07 577.213 165.465 577.517 165.742 577.912C166.03 578.307 166.174 578.755 166.174 579.256C166.174 579.309 166.153 579.357 166.11 579.4C166.078 579.432 166.035 579.448 165.982 579.448H164.27C164.217 579.448 164.169 579.432 164.126 579.4C164.094 579.357 164.078 579.309 164.078 579.256C164.078 579.021 163.955 578.824 163.71 578.664C163.475 578.504 163.161 578.424 162.766 578.424C162.414 578.424 162.126 578.488 161.902 578.616C161.678 578.744 161.566 578.92 161.566 579.144C161.566 579.357 161.673 579.517 161.886 579.624C162.11 579.731 162.478 579.843 162.99 579.96C163.107 579.992 163.241 580.029 163.39 580.072C163.539 580.104 163.699 580.147 163.87 580.2C164.627 580.424 165.225 580.712 165.662 581.064C166.099 581.416 166.318 581.928 166.318 582.6C166.318 583.389 166.003 584.008 165.374 584.456C164.755 584.893 163.918 585.112 162.862 585.112ZM174.893 580.04C174.957 580.445 174.979 580.899 174.957 581.4C174.947 581.528 174.877 581.592 174.749 581.592H169.805C169.741 581.592 169.72 581.619 169.741 581.672C169.773 581.885 169.832 582.099 169.917 582.312C170.195 582.909 170.76 583.208 171.613 583.208C172.296 583.197 172.835 582.92 173.229 582.376C173.272 582.312 173.32 582.28 173.373 582.28C173.405 582.28 173.443 582.301 173.485 582.344L174.637 583.48C174.691 583.533 174.717 583.581 174.717 583.624C174.717 583.645 174.696 583.688 174.653 583.752C174.301 584.189 173.848 584.531 173.293 584.776C172.739 585.011 172.131 585.128 171.469 585.128C170.552 585.128 169.773 584.92 169.133 584.504C168.504 584.088 168.051 583.507 167.773 582.76C167.549 582.227 167.437 581.528 167.437 580.664C167.437 580.077 167.517 579.56 167.677 579.112C167.923 578.355 168.349 577.752 168.957 577.304C169.576 576.856 170.307 576.632 171.149 576.632C172.216 576.632 173.069 576.941 173.709 577.56C174.36 578.179 174.755 579.005 174.893 580.04ZM171.165 578.584C170.493 578.584 170.051 578.899 169.837 579.528C169.795 579.667 169.757 579.837 169.725 580.04C169.725 580.093 169.752 580.12 169.805 580.12H172.573C172.637 580.12 172.659 580.093 172.637 580.04C172.584 579.731 172.557 579.581 172.557 579.592C172.461 579.272 172.291 579.027 172.045 578.856C171.811 578.675 171.517 578.584 171.165 578.584ZM181.452 573.992C181.452 573.939 181.468 573.896 181.5 573.864C181.542 573.821 181.59 573.8 181.644 573.8H183.516C183.569 573.8 183.612 573.821 183.644 573.864C183.686 573.896 183.708 573.939 183.708 573.992V584.808C183.708 584.861 183.686 584.909 183.644 584.952C183.612 584.984 183.569 585 183.516 585H181.644C181.59 585 181.542 584.984 181.5 584.952C181.468 584.909 181.452 584.861 181.452 584.808V584.28C181.452 584.248 181.441 584.232 181.42 584.232C181.398 584.221 181.377 584.227 181.356 584.248C180.908 584.835 180.294 585.128 179.516 585.128C178.769 585.128 178.124 584.92 177.58 584.504C177.046 584.088 176.662 583.517 176.428 582.792C176.246 582.237 176.156 581.592 176.156 580.856C176.156 580.099 176.252 579.437 176.444 578.872C176.689 578.189 177.073 577.651 177.596 577.256C178.129 576.851 178.785 576.648 179.564 576.648C180.332 576.648 180.929 576.915 181.356 577.448C181.377 577.48 181.398 577.491 181.42 577.48C181.441 577.469 181.452 577.448 181.452 577.416V573.992ZM181.116 582.504C181.329 582.109 181.436 581.571 181.436 580.888C181.436 580.173 181.318 579.613 181.084 579.208C180.838 578.792 180.481 578.584 180.012 578.584C179.51 578.584 179.132 578.792 178.876 579.208C178.609 579.624 178.476 580.189 178.476 580.904C178.476 581.544 178.588 582.077 178.812 582.504C179.078 582.963 179.473 583.192 179.996 583.192C180.476 583.192 180.849 582.963 181.116 582.504Z" fill="black"/>
</svg>
