<svg width="538" height="453" viewBox="0 0 538 453" fill="none" xmlns="http://www.w3.org/2000/svg">
<rect width="538" height="453" fill="white"/>
<path d="M78.816 74.984C78.816 74.8773 78.848 74.792 78.912 74.728C78.9973 74.6427 79.0933 74.6 79.2 74.6H82.944C83.0507 74.6 83.136 74.6427 83.2 74.728C83.2853 74.792 83.328 74.8773 83.328 74.984V96.616C83.328 96.7227 83.2853 96.8187 83.2 96.904C83.136 96.968 83.0507 97 82.944 97H79.328C79.1147 97 78.9653 96.9147 78.88 96.744L70.592 83.048C70.5493 82.984 70.5067 82.9627 70.464 82.984C70.4213 82.984 70.4 83.0267 70.4 83.112L70.464 96.616C70.464 96.7227 70.4213 96.8187 70.336 96.904C70.272 96.968 70.1867 97 70.08 97H66.336C66.2293 97 66.1333 96.968 66.048 96.904C65.984 96.8187 65.952 96.7227 65.952 96.616V74.984C65.952 74.8773 65.984 74.792 66.048 74.728C66.1333 74.6427 66.2293 74.6 66.336 74.6H69.952C70.1653 74.6 70.3147 74.6853 70.4 74.856L78.656 88.488C78.6987 88.552 78.7413 88.584 78.784 88.584C78.8267 88.5627 78.848 88.5093 78.848 88.424L78.816 74.984ZM94.2093 97.256C92.4173 97.256 90.8813 96.7867 89.6013 95.848C88.3213 94.9093 87.4466 93.6293 86.9773 92.008C86.6786 91.0053 86.5293 89.9173 86.5293 88.744C86.5293 87.4853 86.6786 86.3547 86.9773 85.352C87.4679 83.7733 88.3533 82.536 89.6333 81.64C90.9133 80.744 92.4493 80.296 94.2413 80.296C95.9906 80.296 97.4839 80.744 98.7213 81.64C99.9586 82.5147 100.833 83.7413 101.345 85.32C101.687 86.3867 101.857 87.5067 101.857 88.68C101.857 89.832 101.708 90.9093 101.409 91.912C100.94 93.576 100.065 94.888 98.7853 95.848C97.5266 96.7867 96.0013 97.256 94.2093 97.256ZM94.2093 93.384C94.9133 93.384 95.5106 93.1707 96.0013 92.744C96.4919 92.3173 96.8439 91.7307 97.0573 90.984C97.2279 90.3013 97.3133 89.5547 97.3133 88.744C97.3133 87.848 97.2279 87.0907 97.0573 86.472C96.8226 85.7467 96.4599 85.1813 95.9693 84.776C95.4786 84.3707 94.8813 84.168 94.1773 84.168C93.4519 84.168 92.8439 84.3707 92.3533 84.776C91.8839 85.1813 91.5426 85.7467 91.3293 86.472C91.1586 86.984 91.0733 87.7413 91.0733 88.744C91.0733 89.704 91.1479 90.4507 91.2973 90.984C91.5106 91.7307 91.8626 92.3173 92.3533 92.744C92.8653 93.1707 93.4839 93.384 94.2093 93.384ZM113.76 83.784C113.76 83.8907 113.718 83.9867 113.632 84.072C113.568 84.136 113.483 84.168 113.376 84.168H110.304C110.198 84.168 110.144 84.2213 110.144 84.328V91.112C110.144 91.816 110.283 92.3387 110.56 92.68C110.859 93.0213 111.328 93.192 111.968 93.192H113.024C113.131 93.192 113.216 93.2347 113.28 93.32C113.366 93.384 113.408 93.4693 113.408 93.576V96.616C113.408 96.8507 113.28 96.9893 113.024 97.032C112.128 97.0747 111.488 97.096 111.104 97.096C109.334 97.096 108.011 96.808 107.136 96.232C106.262 95.6347 105.814 94.5253 105.792 92.904V84.328C105.792 84.2213 105.739 84.168 105.632 84.168H103.808C103.702 84.168 103.606 84.136 103.52 84.072C103.456 83.9867 103.424 83.8907 103.424 83.784V80.936C103.424 80.8293 103.456 80.744 103.52 80.68C103.606 80.5947 103.702 80.552 103.808 80.552H105.632C105.739 80.552 105.792 80.4987 105.792 80.392V76.584C105.792 76.4773 105.824 76.392 105.888 76.328C105.974 76.2427 106.07 76.2 106.176 76.2H109.76C109.867 76.2 109.952 76.2427 110.016 76.328C110.102 76.392 110.144 76.4773 110.144 76.584V80.392C110.144 80.4987 110.198 80.552 110.304 80.552H113.376C113.483 80.552 113.568 80.5947 113.632 80.68C113.718 80.744 113.76 80.8293 113.76 80.936V83.784ZM118.909 78.696C118.183 78.696 117.575 78.4613 117.085 77.992C116.615 77.5013 116.381 76.8933 116.381 76.168C116.381 75.4213 116.615 74.8133 117.085 74.344C117.554 73.8747 118.162 73.64 118.909 73.64C119.655 73.64 120.263 73.8747 120.733 74.344C121.202 74.8133 121.437 75.4213 121.437 76.168C121.437 76.8933 121.191 77.5013 120.701 77.992C120.231 78.4613 119.634 78.696 118.909 78.696ZM116.989 97C116.882 97 116.786 96.968 116.701 96.904C116.637 96.8187 116.605 96.7227 116.605 96.616V80.904C116.605 80.7973 116.637 80.712 116.701 80.648C116.786 80.5627 116.882 80.52 116.989 80.52H120.733C120.839 80.52 120.925 80.5627 120.989 80.648C121.074 80.712 121.117 80.7973 121.117 80.904V96.616C121.117 96.7227 121.074 96.8187 120.989 96.904C120.925 96.968 120.839 97 120.733 97H116.989ZM134.009 80.52C134.115 80.52 134.201 80.5627 134.265 80.648C134.35 80.712 134.393 80.7973 134.393 80.904V83.944C134.393 84.0507 134.35 84.1467 134.265 84.232C134.201 84.296 134.115 84.328 134.009 84.328H130.905C130.798 84.328 130.745 84.3813 130.745 84.488V96.616C130.745 96.7227 130.702 96.8187 130.617 96.904C130.553 96.968 130.467 97 130.361 97H126.617C126.51 97 126.414 96.968 126.329 96.904C126.265 96.8187 126.233 96.7227 126.233 96.616V84.488C126.233 84.3813 126.179 84.328 126.073 84.328H124.185C124.078 84.328 123.982 84.296 123.897 84.232C123.833 84.1467 123.801 84.0507 123.801 83.944V80.904C123.801 80.7973 123.833 80.712 123.897 80.648C123.982 80.5627 124.078 80.52 124.185 80.52H126.073C126.179 80.52 126.233 80.4667 126.233 80.36V79.656C126.233 78.3333 126.435 77.3093 126.841 76.584C127.246 75.8373 127.897 75.3147 128.793 75.016C129.71 74.696 130.969 74.5573 132.569 74.6H133.785C133.891 74.6 133.977 74.6427 134.041 74.728C134.126 74.792 134.169 74.8773 134.169 74.984V77.576C134.169 77.6827 134.126 77.7787 134.041 77.864C133.977 77.928 133.891 77.96 133.785 77.96H132.729C131.982 77.9813 131.459 78.1413 131.161 78.44C130.883 78.7173 130.745 79.24 130.745 80.008V80.36C130.745 80.4667 130.798 80.52 130.905 80.52H134.009ZM139.449 78.696C138.723 78.696 138.115 78.4613 137.625 77.992C137.155 77.5013 136.921 76.8933 136.921 76.168C136.921 75.4213 137.155 74.8133 137.625 74.344C138.094 73.8747 138.702 73.64 139.449 73.64C140.195 73.64 140.803 73.8747 141.273 74.344C141.742 74.8133 141.977 75.4213 141.977 76.168C141.977 76.8933 141.731 77.5013 141.241 77.992C140.771 78.4613 140.174 78.696 139.449 78.696ZM137.529 97C137.422 97 137.326 96.968 137.241 96.904C137.177 96.8187 137.145 96.7227 137.145 96.616V80.904C137.145 80.7973 137.177 80.712 137.241 80.648C137.326 80.5627 137.422 80.52 137.529 80.52H141.273C141.379 80.52 141.465 80.5627 141.529 80.648C141.614 80.712 141.657 80.7973 141.657 80.904V96.616C141.657 96.7227 141.614 96.8187 141.529 96.904C141.465 96.968 141.379 97 141.273 97H137.529ZM152.365 97.256C150.658 97.256 149.175 96.8293 147.917 95.976C146.679 95.1227 145.794 93.9493 145.261 92.456C144.898 91.3893 144.717 90.1307 144.717 88.68C144.717 87.2507 144.898 86.0133 145.261 84.968C145.773 83.5173 146.658 82.376 147.917 81.544C149.175 80.712 150.658 80.296 152.365 80.296C154.071 80.296 155.565 80.7227 156.845 81.576C158.146 82.4293 159.01 83.5067 159.437 84.808C159.607 85.32 159.693 85.704 159.693 85.96V86.024C159.693 86.216 159.586 86.3333 159.373 86.376L155.693 86.92H155.629C155.437 86.92 155.309 86.8133 155.245 86.6L155.149 86.088C154.999 85.5333 154.669 85.0747 154.157 84.712C153.645 84.3493 153.037 84.168 152.333 84.168C151.65 84.168 151.074 84.3387 150.605 84.68C150.135 85.0213 149.805 85.4907 149.613 86.088C149.378 86.728 149.261 87.6027 149.261 88.712C149.261 89.8213 149.367 90.696 149.581 91.336C149.773 91.976 150.103 92.4773 150.573 92.84C151.063 93.2027 151.65 93.384 152.333 93.384C152.994 93.384 153.57 93.2133 154.061 92.872C154.573 92.5093 154.925 92.0187 155.117 91.4C155.138 91.3573 155.149 91.2933 155.149 91.208C155.17 91.1867 155.181 91.1547 155.181 91.112C155.202 90.856 155.351 90.7493 155.629 90.792L159.309 91.368C159.522 91.4107 159.629 91.528 159.629 91.72C159.629 91.8907 159.565 92.2107 159.437 92.68C158.989 94.1093 158.114 95.2293 156.813 96.04C155.533 96.8507 154.05 97.256 152.365 97.256ZM168.88 80.296C170.267 80.296 171.504 80.5413 172.592 81.032C173.68 81.5013 174.523 82.152 175.12 82.984C175.739 83.816 176.048 84.744 176.048 85.768V96.616C176.048 96.7227 176.006 96.8187 175.92 96.904C175.856 96.968 175.771 97 175.664 97H171.92C171.814 97 171.718 96.968 171.632 96.904C171.568 96.8187 171.536 96.7227 171.536 96.616V95.56C171.536 95.496 171.515 95.4533 171.472 95.432C171.43 95.4107 171.387 95.432 171.344 95.496C170.448 96.6693 169.008 97.256 167.024 97.256C165.36 97.256 164.016 96.8507 162.992 96.04C161.968 95.2293 161.456 94.0347 161.456 92.456C161.456 90.8133 162.032 89.544 163.184 88.648C164.336 87.7307 165.979 87.272 168.112 87.272H171.376C171.483 87.272 171.536 87.2187 171.536 87.112V86.408C171.536 85.704 171.323 85.16 170.896 84.776C170.47 84.3707 169.83 84.168 168.976 84.168C168.315 84.168 167.76 84.2853 167.312 84.52C166.886 84.7547 166.608 85.0853 166.48 85.512C166.416 85.7467 166.278 85.8533 166.064 85.832L162.192 85.32C161.936 85.2773 161.819 85.1813 161.84 85.032C161.926 84.136 162.278 83.3253 162.896 82.6C163.536 81.8747 164.368 81.3093 165.392 80.904C166.438 80.4987 167.6 80.296 168.88 80.296ZM168.24 93.896C169.158 93.896 169.936 93.6507 170.576 93.16C171.216 92.6693 171.536 92.04 171.536 91.272V90.12C171.536 90.0133 171.483 89.96 171.376 89.96H169.072C168.112 89.96 167.355 90.1413 166.8 90.504C166.267 90.8667 166 91.3787 166 92.04C166 92.616 166.203 93.0747 166.608 93.416C167.014 93.736 167.558 93.896 168.24 93.896ZM188.323 83.784C188.323 83.8907 188.28 83.9867 188.195 84.072C188.131 84.136 188.045 84.168 187.939 84.168H184.867C184.76 84.168 184.707 84.2213 184.707 84.328V91.112C184.707 91.816 184.845 92.3387 185.123 92.68C185.421 93.0213 185.891 93.192 186.531 93.192H187.587C187.693 93.192 187.779 93.2347 187.843 93.32C187.928 93.384 187.971 93.4693 187.971 93.576V96.616C187.971 96.8507 187.843 96.9893 187.587 97.032C186.691 97.0747 186.051 97.096 185.667 97.096C183.896 97.096 182.573 96.808 181.699 96.232C180.824 95.6347 180.376 94.5253 180.355 92.904V84.328C180.355 84.2213 180.301 84.168 180.195 84.168H178.371C178.264 84.168 178.168 84.136 178.083 84.072C178.019 83.9867 177.987 83.8907 177.987 83.784V80.936C177.987 80.8293 178.019 80.744 178.083 80.68C178.168 80.5947 178.264 80.552 178.371 80.552H180.195C180.301 80.552 180.355 80.4987 180.355 80.392V76.584C180.355 76.4773 180.387 76.392 180.451 76.328C180.536 76.2427 180.632 76.2 180.739 76.2H184.323C184.429 76.2 184.515 76.2427 184.579 76.328C184.664 76.392 184.707 76.4773 184.707 76.584V80.392C184.707 80.4987 184.76 80.552 184.867 80.552H187.939C188.045 80.552 188.131 80.5947 188.195 80.68C188.28 80.744 188.323 80.8293 188.323 80.936V83.784ZM193.471 78.696C192.746 78.696 192.138 78.4613 191.647 77.992C191.178 77.5013 190.943 76.8933 190.943 76.168C190.943 75.4213 191.178 74.8133 191.647 74.344C192.116 73.8747 192.724 73.64 193.471 73.64C194.218 73.64 194.826 73.8747 195.295 74.344C195.764 74.8133 195.999 75.4213 195.999 76.168C195.999 76.8933 195.754 77.5013 195.263 77.992C194.794 78.4613 194.196 78.696 193.471 78.696ZM191.551 97C191.444 97 191.348 96.968 191.263 96.904C191.199 96.8187 191.167 96.7227 191.167 96.616V80.904C191.167 80.7973 191.199 80.712 191.263 80.648C191.348 80.5627 191.444 80.52 191.551 80.52H195.295C195.402 80.52 195.487 80.5627 195.551 80.648C195.636 80.712 195.679 80.7973 195.679 80.904V96.616C195.679 96.7227 195.636 96.8187 195.551 96.904C195.487 96.968 195.402 97 195.295 97H191.551ZM206.459 97.256C204.667 97.256 203.131 96.7867 201.851 95.848C200.571 94.9093 199.697 93.6293 199.227 92.008C198.929 91.0053 198.779 89.9173 198.779 88.744C198.779 87.4853 198.929 86.3547 199.227 85.352C199.718 83.7733 200.603 82.536 201.883 81.64C203.163 80.744 204.699 80.296 206.491 80.296C208.241 80.296 209.734 80.744 210.971 81.64C212.209 82.5147 213.083 83.7413 213.595 85.32C213.937 86.3867 214.107 87.5067 214.107 88.68C214.107 89.832 213.958 90.9093 213.659 91.912C213.19 93.576 212.315 94.888 211.035 95.848C209.777 96.7867 208.251 97.256 206.459 97.256ZM206.459 93.384C207.163 93.384 207.761 93.1707 208.251 92.744C208.742 92.3173 209.094 91.7307 209.307 90.984C209.478 90.3013 209.563 89.5547 209.563 88.744C209.563 87.848 209.478 87.0907 209.307 86.472C209.073 85.7467 208.71 85.1813 208.219 84.776C207.729 84.3707 207.131 84.168 206.427 84.168C205.702 84.168 205.094 84.3707 204.603 84.776C204.134 85.1813 203.793 85.7467 203.579 86.472C203.409 86.984 203.323 87.7413 203.323 88.744C203.323 89.704 203.398 90.4507 203.547 90.984C203.761 91.7307 204.113 92.3173 204.603 92.744C205.115 93.1707 205.734 93.384 206.459 93.384ZM225.584 80.296C227.29 80.296 228.666 80.8187 229.712 81.864C230.757 82.9093 231.28 84.328 231.28 86.12V96.616C231.28 96.7227 231.237 96.8187 231.152 96.904C231.088 96.968 231.002 97 230.896 97H227.152C227.045 97 226.949 96.968 226.864 96.904C226.8 96.8187 226.768 96.7227 226.768 96.616V87.048C226.768 86.1947 226.522 85.5013 226.032 84.968C225.562 84.4347 224.933 84.168 224.144 84.168C223.354 84.168 222.714 84.4347 222.224 84.968C221.754 85.5013 221.52 86.1947 221.52 87.048V96.616C221.52 96.7227 221.477 96.8187 221.392 96.904C221.328 96.968 221.242 97 221.136 97H217.392C217.285 97 217.189 96.968 217.104 96.904C217.04 96.8187 217.008 96.7227 217.008 96.616V80.936C217.008 80.8293 217.04 80.744 217.104 80.68C217.189 80.5947 217.285 80.552 217.392 80.552H221.136C221.242 80.552 221.328 80.5947 221.392 80.68C221.477 80.744 221.52 80.8293 221.52 80.936V82.056C221.52 82.12 221.541 82.1627 221.584 82.184C221.626 82.2053 221.658 82.1947 221.68 82.152C222.554 80.9147 223.856 80.296 225.584 80.296ZM260.178 96.52C260.263 96.648 260.306 96.7333 260.306 96.776C260.306 96.9253 260.189 97 259.954 97H255.762C255.57 97 255.41 96.9253 255.282 96.776L254.034 95.432C253.991 95.368 253.917 95.3573 253.81 95.4C251.826 96.6373 249.693 97.256 247.41 97.256C245.405 97.256 243.73 96.7867 242.386 95.848C241.063 94.888 240.402 93.48 240.402 91.624C240.402 90.1947 240.786 88.9893 241.554 88.008C242.322 87.0267 243.367 86.1413 244.69 85.352C244.818 85.2667 244.829 85.192 244.722 85.128C243.655 83.8267 242.951 82.824 242.61 82.12C242.269 81.3947 242.098 80.6267 242.098 79.816C242.098 78.8133 242.365 77.896 242.898 77.064C243.453 76.2107 244.221 75.5493 245.202 75.08C246.205 74.5893 247.346 74.344 248.626 74.344C249.927 74.344 251.09 74.5893 252.114 75.08C253.159 75.5707 253.97 76.264 254.546 77.16C255.122 78.0347 255.41 79.0373 255.41 80.168C255.41 81.4907 255.037 82.6427 254.29 83.624C253.565 84.584 252.573 85.4587 251.314 86.248C251.207 86.312 251.197 86.3867 251.282 86.472L254.13 89.704C254.215 89.7893 254.301 89.7893 254.386 89.704C255.197 88.808 255.858 87.9547 256.37 87.144C256.498 86.9093 256.669 86.8667 256.882 87.016L259.666 88.584C259.901 88.712 259.954 88.8827 259.826 89.096C258.93 90.504 257.991 91.7307 257.01 92.776C256.946 92.84 256.967 92.936 257.074 93.064L260.178 96.52ZM248.722 78.44C248.082 78.44 247.57 78.6107 247.186 78.952C246.802 79.272 246.61 79.7093 246.61 80.264C246.61 80.5627 246.717 80.8933 246.93 81.256C247.143 81.6187 247.613 82.2373 248.338 83.112C248.381 83.1973 248.455 83.2187 248.562 83.176C249.33 82.6853 249.906 82.216 250.29 81.768C250.695 81.32 250.898 80.8187 250.898 80.264C250.898 79.7093 250.695 79.272 250.29 78.952C249.885 78.6107 249.362 78.44 248.722 78.44ZM247.57 93.48C248.594 93.48 249.746 93.1173 251.026 92.392C251.154 92.3067 251.165 92.232 251.058 92.168L250.066 91.048L249.33 90.248C248.861 89.7573 248.317 89.16 247.698 88.456C247.655 88.392 247.581 88.3813 247.474 88.424C246.706 88.8933 246.119 89.3413 245.714 89.768C245.309 90.1947 245.074 90.6853 245.01 91.24C244.989 91.304 244.978 91.4107 244.978 91.56C244.978 92.136 245.213 92.6053 245.682 92.968C246.173 93.3093 246.802 93.48 247.57 93.48ZM285.691 78.088C285.691 78.1947 285.648 78.2907 285.563 78.376C285.499 78.44 285.413 78.472 285.307 78.472H274.843C274.736 78.472 274.683 78.5253 274.683 78.632V83.592C274.683 83.6987 274.736 83.752 274.843 83.752H281.723C281.829 83.752 281.915 83.7947 281.979 83.88C282.064 83.944 282.107 84.0293 282.107 84.136V87.24C282.107 87.3467 282.064 87.4427 281.979 87.528C281.915 87.592 281.829 87.624 281.723 87.624H274.843C274.736 87.624 274.683 87.6773 274.683 87.784V96.616C274.683 96.7227 274.64 96.8187 274.555 96.904C274.491 96.968 274.405 97 274.299 97H270.555C270.448 97 270.352 96.968 270.267 96.904C270.203 96.8187 270.171 96.7227 270.171 96.616V74.984C270.171 74.8773 270.203 74.792 270.267 74.728C270.352 74.6427 270.448 74.6 270.555 74.6H285.307C285.413 74.6 285.499 74.6427 285.563 74.728C285.648 74.792 285.691 74.8773 285.691 74.984V78.088ZM300.505 87.08C300.633 87.8907 300.676 88.7973 300.633 89.8C300.612 90.056 300.473 90.184 300.217 90.184H290.329C290.201 90.184 290.159 90.2373 290.201 90.344C290.265 90.7707 290.383 91.1973 290.553 91.624C291.108 92.8187 292.239 93.416 293.945 93.416C295.311 93.3947 296.388 92.84 297.177 91.752C297.263 91.624 297.359 91.56 297.465 91.56C297.529 91.56 297.604 91.6027 297.689 91.688L299.993 93.96C300.1 94.0667 300.153 94.1627 300.153 94.248C300.153 94.2907 300.111 94.376 300.025 94.504C299.321 95.3787 298.415 96.0613 297.305 96.552C296.196 97.0213 294.98 97.256 293.657 97.256C291.823 97.256 290.265 96.84 288.985 96.008C287.727 95.176 286.82 94.0133 286.265 92.52C285.817 91.4533 285.593 90.056 285.593 88.328C285.593 87.1547 285.753 86.12 286.073 85.224C286.564 83.7093 287.417 82.504 288.633 81.608C289.871 80.712 291.332 80.264 293.017 80.264C295.151 80.264 296.857 80.8827 298.137 82.12C299.439 83.3573 300.228 85.0107 300.505 87.08ZM293.049 84.168C291.705 84.168 290.82 84.7973 290.393 86.056C290.308 86.3333 290.233 86.6747 290.169 87.08C290.169 87.1867 290.223 87.24 290.329 87.24H295.865C295.993 87.24 296.036 87.1867 295.993 87.08C295.887 86.4613 295.833 86.1627 295.833 86.184C295.641 85.544 295.3 85.0533 294.809 84.712C294.34 84.3493 293.753 84.168 293.049 84.168ZM317.974 87.08C318.102 87.8907 318.145 88.7973 318.102 89.8C318.081 90.056 317.942 90.184 317.686 90.184H307.798C307.67 90.184 307.627 90.2373 307.67 90.344C307.734 90.7707 307.851 91.1973 308.022 91.624C308.577 92.8187 309.707 93.416 311.414 93.416C312.779 93.3947 313.857 92.84 314.646 91.752C314.731 91.624 314.827 91.56 314.934 91.56C314.998 91.56 315.073 91.6027 315.158 91.688L317.462 93.96C317.569 94.0667 317.622 94.1627 317.622 94.248C317.622 94.2907 317.579 94.376 317.494 94.504C316.79 95.3787 315.883 96.0613 314.774 96.552C313.665 97.0213 312.449 97.256 311.126 97.256C309.291 97.256 307.734 96.84 306.454 96.008C305.195 95.176 304.289 94.0133 303.734 92.52C303.286 91.4533 303.062 90.056 303.062 88.328C303.062 87.1547 303.222 86.12 303.542 85.224C304.033 83.7093 304.886 82.504 306.102 81.608C307.339 80.712 308.801 80.264 310.486 80.264C312.619 80.264 314.326 80.8827 315.606 82.12C316.907 83.3573 317.697 85.0107 317.974 87.08ZM310.518 84.168C309.174 84.168 308.289 84.7973 307.862 86.056C307.777 86.3333 307.702 86.6747 307.638 87.08C307.638 87.1867 307.691 87.24 307.798 87.24H313.334C313.462 87.24 313.505 87.1867 313.462 87.08C313.355 86.4613 313.302 86.1627 313.302 86.184C313.11 85.544 312.769 85.0533 312.278 84.712C311.809 84.3493 311.222 84.168 310.518 84.168ZM331.091 74.984C331.091 74.8773 331.123 74.792 331.187 74.728C331.272 74.6427 331.368 74.6 331.475 74.6H335.219C335.325 74.6 335.411 74.6427 335.475 74.728C335.56 74.792 335.603 74.8773 335.603 74.984V96.616C335.603 96.7227 335.56 96.8187 335.475 96.904C335.411 96.968 335.325 97 335.219 97H331.475C331.368 97 331.272 96.968 331.187 96.904C331.123 96.8187 331.091 96.7227 331.091 96.616V95.56C331.091 95.496 331.069 95.464 331.027 95.464C330.984 95.4427 330.941 95.4533 330.899 95.496C330.003 96.6693 328.776 97.256 327.219 97.256C325.725 97.256 324.435 96.84 323.347 96.008C322.28 95.176 321.512 94.0347 321.043 92.584C320.68 91.4747 320.499 90.184 320.499 88.712C320.499 87.1973 320.691 85.8747 321.075 84.744C321.565 83.3787 322.333 82.3013 323.379 81.512C324.445 80.7013 325.757 80.296 327.315 80.296C328.851 80.296 330.045 80.8293 330.899 81.896C330.941 81.96 330.984 81.9813 331.027 81.96C331.069 81.9387 331.091 81.896 331.091 81.832V74.984ZM330.419 92.008C330.845 91.2187 331.059 90.1413 331.059 88.776C331.059 87.3467 330.824 86.2267 330.355 85.416C329.864 84.584 329.149 84.168 328.211 84.168C327.208 84.168 326.451 84.584 325.939 85.416C325.405 86.248 325.139 87.3787 325.139 88.808C325.139 90.088 325.363 91.1547 325.811 92.008C326.344 92.9253 327.133 93.384 328.179 93.384C329.139 93.384 329.885 92.9253 330.419 92.008ZM353.568 84.744C353.973 85.8533 354.176 87.176 354.176 88.712C354.176 90.184 353.994 91.4747 353.632 92.584C353.141 94.0347 352.352 95.176 351.264 96.008C350.197 96.84 348.928 97.256 347.456 97.256C345.898 97.256 344.672 96.6693 343.776 95.496C343.733 95.4533 343.69 95.4427 343.648 95.464C343.605 95.464 343.584 95.496 343.584 95.56V96.616C343.584 96.7227 343.541 96.8187 343.456 96.904C343.392 96.968 343.306 97 343.2 97H339.456C339.349 97 339.253 96.968 339.168 96.904C339.104 96.8187 339.072 96.7227 339.072 96.616V74.984C339.072 74.8773 339.104 74.792 339.168 74.728C339.253 74.6427 339.349 74.6 339.456 74.6H343.2C343.306 74.6 343.392 74.6427 343.456 74.728C343.541 74.792 343.584 74.8773 343.584 74.984V81.832C343.584 81.896 343.605 81.9387 343.648 81.96C343.69 81.9813 343.733 81.96 343.776 81.896C344.608 80.8293 345.792 80.296 347.328 80.296C348.885 80.296 350.186 80.7013 351.232 81.512C352.298 82.3013 353.077 83.3787 353.568 84.744ZM348.832 92.008C349.28 91.1973 349.504 90.1307 349.504 88.808C349.504 87.336 349.248 86.2053 348.736 85.416C348.224 84.584 347.466 84.168 346.464 84.168C345.525 84.168 344.81 84.584 344.32 85.416C343.85 86.2267 343.616 87.3467 343.616 88.776C343.616 90.2053 343.829 91.2827 344.256 92.008C344.768 92.9253 345.514 93.384 346.496 93.384C347.541 93.384 348.32 92.9253 348.832 92.008ZM363.693 80.296C365.079 80.296 366.317 80.5413 367.405 81.032C368.493 81.5013 369.335 82.152 369.933 82.984C370.551 83.816 370.861 84.744 370.861 85.768V96.616C370.861 96.7227 370.818 96.8187 370.733 96.904C370.669 96.968 370.583 97 370.477 97H366.733C366.626 97 366.53 96.968 366.445 96.904C366.381 96.8187 366.349 96.7227 366.349 96.616V95.56C366.349 95.496 366.327 95.4533 366.285 95.432C366.242 95.4107 366.199 95.432 366.157 95.496C365.261 96.6693 363.821 97.256 361.837 97.256C360.173 97.256 358.829 96.8507 357.805 96.04C356.781 95.2293 356.269 94.0347 356.269 92.456C356.269 90.8133 356.845 89.544 357.997 88.648C359.149 87.7307 360.791 87.272 362.925 87.272H366.189C366.295 87.272 366.349 87.2187 366.349 87.112V86.408C366.349 85.704 366.135 85.16 365.709 84.776C365.282 84.3707 364.642 84.168 363.789 84.168C363.127 84.168 362.573 84.2853 362.125 84.52C361.698 84.7547 361.421 85.0853 361.293 85.512C361.229 85.7467 361.09 85.8533 360.877 85.832L357.005 85.32C356.749 85.2773 356.631 85.1813 356.653 85.032C356.738 84.136 357.09 83.3253 357.709 82.6C358.349 81.8747 359.181 81.3093 360.205 80.904C361.25 80.4987 362.413 80.296 363.693 80.296ZM363.053 93.896C363.97 93.896 364.749 93.6507 365.389 93.16C366.029 92.6693 366.349 92.04 366.349 91.272V90.12C366.349 90.0133 366.295 89.96 366.189 89.96H363.885C362.925 89.96 362.167 90.1413 361.613 90.504C361.079 90.8667 360.813 91.3787 360.813 92.04C360.813 92.616 361.015 93.0747 361.421 93.416C361.826 93.736 362.37 93.896 363.053 93.896ZM381.271 97.256C379.564 97.256 378.082 96.8293 376.823 95.976C375.586 95.1227 374.7 93.9493 374.167 92.456C373.804 91.3893 373.623 90.1307 373.623 88.68C373.623 87.2507 373.804 86.0133 374.167 84.968C374.679 83.5173 375.564 82.376 376.823 81.544C378.082 80.712 379.564 80.296 381.271 80.296C382.978 80.296 384.471 80.7227 385.751 81.576C387.052 82.4293 387.916 83.5067 388.343 84.808C388.514 85.32 388.599 85.704 388.599 85.96V86.024C388.599 86.216 388.492 86.3333 388.279 86.376L384.599 86.92H384.535C384.343 86.92 384.215 86.8133 384.151 86.6L384.055 86.088C383.906 85.5333 383.575 85.0747 383.063 84.712C382.551 84.3493 381.943 84.168 381.239 84.168C380.556 84.168 379.98 84.3387 379.511 84.68C379.042 85.0213 378.711 85.4907 378.519 86.088C378.284 86.728 378.167 87.6027 378.167 88.712C378.167 89.8213 378.274 90.696 378.487 91.336C378.679 91.976 379.01 92.4773 379.479 92.84C379.97 93.2027 380.556 93.384 381.239 93.384C381.9 93.384 382.476 93.2133 382.967 92.872C383.479 92.5093 383.831 92.0187 384.023 91.4C384.044 91.3573 384.055 91.2933 384.055 91.208C384.076 91.1867 384.087 91.1547 384.087 91.112C384.108 90.856 384.258 90.7493 384.535 90.792L388.215 91.368C388.428 91.4107 388.535 91.528 388.535 91.72C388.535 91.8907 388.471 92.2107 388.343 92.68C387.895 94.1093 387.02 95.2293 385.719 96.04C384.439 96.8507 382.956 97.256 381.271 97.256ZM391.611 97C391.504 97 391.408 96.968 391.323 96.904C391.259 96.8187 391.227 96.7227 391.227 96.616V74.984C391.227 74.8773 391.259 74.792 391.323 74.728C391.408 74.6427 391.504 74.6 391.611 74.6H395.355C395.461 74.6 395.547 74.6427 395.611 74.728C395.696 74.792 395.739 74.8773 395.739 74.984V85.768C395.739 85.832 395.76 85.8747 395.803 85.896C395.845 85.896 395.888 85.8747 395.931 85.832L400.283 80.776C400.432 80.6267 400.592 80.552 400.763 80.552H405.019C405.232 80.552 405.339 80.6267 405.339 80.776C405.339 80.84 405.307 80.9253 405.243 81.032L401.179 86.184C401.136 86.2693 401.125 86.344 401.147 86.408L405.915 96.552C405.957 96.6373 405.979 96.7013 405.979 96.744C405.979 96.9147 405.861 97 405.627 97H401.691C401.477 97 401.328 96.904 401.243 96.712L398.075 89.224C398.053 89.1813 398.011 89.16 397.947 89.16C397.904 89.1387 397.872 89.1493 397.851 89.192L395.803 91.752C395.76 91.8373 395.739 91.9013 395.739 91.944V96.616C395.739 96.7227 395.696 96.8187 395.611 96.904C395.547 96.968 395.461 97 395.355 97H391.611Z" fill="black"/>
<rect width="410" height="92" transform="translate(64 136)" fill="white"/>
<rect x="64.5" y="136.5" width="91" height="43" rx="4.5" stroke="#9747FF" stroke-dasharray="10 5"/>
<path d="M91 159H81V157H91V159ZM86 148C84.6868 148 83.3864 148.259 82.1732 148.761C80.9599 149.264 79.8575 150 78.9289 150.929C77.0536 152.804 76 155.348 76 158C76 160.652 77.0536 163.196 78.9289 165.071C79.8575 166 80.9599 166.736 82.1732 167.239C83.3864 167.741 84.6868 168 86 168C88.6522 168 91.1957 166.946 93.0711 165.071C94.9464 163.196 96 160.652 96 158C96 156.687 95.7413 155.386 95.2388 154.173C94.7362 152.96 93.9997 151.858 93.0711 150.929C92.1425 150 91.0401 149.264 89.8268 148.761C88.6136 148.259 87.3132 148 86 148Z" fill="#006158"/>
<path d="M139 157H129V159H139V157Z" fill="#006158"/>
<path fill-rule="evenodd" clip-rule="evenodd" d="M134 148C128.48 148 124 152.48 124 158C124 163.52 128.48 168 134 168C139.52 168 144 163.52 144 158C144 152.48 139.52 148 134 148ZM126.5 158C126.5 153.861 129.861 150.5 134 150.5C138.139 150.5 141.5 153.861 141.5 158C141.5 162.139 138.139 165.5 134 165.5C129.861 165.5 126.5 162.139 126.5 158Z" fill="#006158"/>
<rect x="180.5" y="136.5" width="91" height="43" rx="4.5" stroke="#9747FF" stroke-dasharray="10 5"/>
<path d="M202 148C196.48 148 192 152.48 192 158C192 163.52 196.48 168 202 168C207.52 168 212 163.52 212 158C212 152.48 207.52 148 202 148ZM200 163L195 158L196.41 156.59L200 160.17L207.59 152.58L209 154L200 163Z" fill="#006158"/>
<path d="M250 148C244.5 148 240 152.5 240 158C240 163.5 244.5 168 250 168C255.5 168 260 163.5 260 158C260 152.5 255.5 148 250 148ZM250 166C245.59 166 242 162.41 242 158C242 153.59 245.59 150 250 150C254.41 150 258 153.59 258 158C258 162.41 254.41 166 250 166ZM254.59 153.58L248 160.17L245.41 157.59L244 159L248 163L256 155L254.59 153.58Z" fill="#006158"/>
<rect x="296.5" y="136.5" width="91" height="43" rx="4.5" stroke="#9747FF" stroke-dasharray="10 5"/>
<path fill-rule="evenodd" clip-rule="evenodd" d="M318 168C323.523 168 328 163.523 328 158C328 152.477 323.523 148 318 148C312.477 148 308 152.477 308 158C308 163.523 312.477 168 318 168ZM313.943 161.889L310.222 158.418L311.167 157.542L314.882 161.007L313.943 161.889ZM317.711 160.132L324.753 153.556L325.698 154.437L317.711 161.889L313.99 158.418L314.942 157.542L317.711 160.132ZM320.992 153.556L321.931 154.437L317.711 158.374L316.765 157.499L320.992 153.556Z" fill="#006158"/>
<path d="M368.678 154.261L369.5 155.083L365.802 158.782L364.979 157.959L368.678 154.261Z" fill="#006158"/>
<path d="M365.802 160.433L371.973 154.261L372.802 155.083L365.802 162.083L362.541 158.823L363.363 158L365.802 160.433Z" fill="#006158"/>
<path d="M362.5 162.083L359.239 158.823L360.068 158L363.323 161.261L362.5 162.083Z" fill="#006158"/>
<path fill-rule="evenodd" clip-rule="evenodd" d="M376 158C376 163.523 371.523 168 366 168C360.477 168 356 163.523 356 158C356 152.477 360.477 148 366 148C371.523 148 376 152.477 376 158ZM374 158C374 162.418 370.418 166 366 166C361.582 166 358 162.418 358 158C358 153.582 361.582 150 366 150C370.418 150 374 153.582 374 158Z" fill="#006158"/>
<path d="M416.47 157H431.53C433.07 157 434.03 155.33 433.26 154L425.73 140.99C424.96 139.66 423.04 139.66 422.27 140.99L414.74 154C413.97 155.33 414.93 157 416.47 157ZM424 150C423.45 150 423 149.55 423 149V147C423 146.45 423.45 146 424 146C424.55 146 425 146.45 425 147V149C425 149.55 424.55 150 424 150ZM425 154H423V152H425V154Z" fill="#006158"/>
<path d="M68.9289 208.929C65.0257 212.832 65.0257 219.168 68.9289 223.071C72.8322 226.974 79.1678 226.974 83.0711 223.071C86.9743 219.168 86.9743 212.832 83.0711 208.929C79.1678 205.026 72.8322 205.026 68.9289 208.929ZM80.2426 213.172L77.4142 216L80.2426 218.828L78.8284 220.243L76 217.414L73.1716 220.243L71.7574 218.828L74.5858 216L71.7574 213.172L73.1716 211.757L76 214.586L78.8284 211.757L80.2426 213.172Z" fill="#006158"/>
<path d="M125 217H123V211H125V217ZM125 221H123V219H125V221ZM124 206C122.687 206 121.386 206.259 120.173 206.761C118.96 207.264 117.858 208 116.929 208.929C115.054 210.804 114 213.348 114 216C114 218.652 115.054 221.196 116.929 223.071C117.858 224 118.96 224.736 120.173 225.239C121.386 225.741 122.687 226 124 226C126.652 226 129.196 224.946 131.071 223.071C132.946 221.196 134 218.652 134 216C134 214.687 133.741 213.386 133.239 212.173C132.736 210.96 132 209.858 131.071 208.929C130.142 208 129.04 207.264 127.827 206.761C126.614 206.259 125.313 206 124 206Z" fill="#006158"/>
<path d="M169 211V221H175V219H171V211H169ZM172 206C173.313 206 174.614 206.259 175.827 206.761C177.04 207.264 178.142 208 179.071 208.929C180 209.858 180.736 210.96 181.239 212.173C181.741 213.386 182 214.687 182 216C182 218.652 180.946 221.196 179.071 223.071C177.196 224.946 174.652 226 172 226C170.687 226 169.386 225.741 168.173 225.239C166.96 224.736 165.858 224 164.929 223.071C163.054 221.196 162 218.652 162 216C162 213.348 163.054 210.804 164.929 208.929C166.804 207.054 169.348 206 172 206Z" fill="#006158"/>
<path d="M220 206C221.313 206 222.614 206.259 223.827 206.761C225.04 207.264 226.142 208 227.071 208.929C228 209.858 228.736 210.96 229.239 212.173C229.741 213.386 230 214.687 230 216C230 218.652 228.946 221.196 227.071 223.071C225.196 224.946 222.652 226 220 226C218.687 226 217.386 225.741 216.173 225.239C214.96 224.736 213.858 224 212.929 223.071C211.054 221.196 210 218.652 210 216C210 213.348 211.054 210.804 212.929 208.929C214.804 207.054 217.348 206 220 206ZM217 211V221H223V219H219V217H223V215H219V213H223V211H217Z" fill="#006158"/>
<path fill-rule="evenodd" clip-rule="evenodd" d="M274 224C272.279 225.291 270.176 226 268 226C266.687 226 265.386 225.741 264.173 225.239C262.96 224.736 261.858 224 260.929 223.071C259.054 221.196 258 218.652 258 216C258 213.824 258.709 211.721 260 210L258 208L259.414 206.586L263.759 210.931L265 212.165V212.172L267 214.172V214.17L277.092 224.263L275.678 225.678L274 224ZM271 221L269 219H267V217L265 215V221H271Z" fill="#006158"/>
<path d="M267 211.3L276.66 221C277.53 219.493 278 217.771 278 216C278 214.687 277.741 213.386 277.239 212.173C276.736 210.96 276 209.858 275.071 208.929C274.142 208 273.04 207.264 271.827 206.761C270.614 206.259 269.313 206 268 206C266.229 206 264.507 206.47 263 207.34L266.7 211H267V211.3Z" fill="#006158"/>
<path d="M319.827 206.761C318.614 206.259 317.313 206 316 206C314.229 206 312.507 206.47 311 207.34L314.688 211H319V213H316.691L324.66 221C325.53 219.493 326 217.771 326 216C326 214.687 325.741 213.386 325.239 212.173C324.736 210.96 324 209.858 323.071 208.929C322.142 208 321.04 207.264 319.827 206.761Z" fill="#006158"/>
<path fill-rule="evenodd" clip-rule="evenodd" d="M308 210C306.709 211.721 306 213.824 306 216C306 218.652 307.054 221.196 308.929 223.071C309.858 224 310.96 224.736 312.173 225.239C313.386 225.741 314.687 226 316 226C318.176 226 320.279 225.291 322 224L323.678 225.678L325.563 223.792L307.886 206.114L306 208L308 210ZM315 217L313 215V221H319L317 219H315V217Z" fill="#006158"/>
<g clip-path="url(#clip0_17943_115656)">
<circle cx="364" cy="216" r="12" fill="#006158"/>
<path d="M363.625 211.242C363.672 211.214 363.742 211.2 363.835 211.2H365.529C365.576 211.2 365.613 211.219 365.641 211.256C365.679 211.284 365.697 211.321 365.697 211.368V220.832C365.697 220.879 365.679 220.921 365.641 220.958C365.613 220.986 365.576 221 365.529 221H363.891C363.845 221 363.803 220.986 363.765 220.958C363.737 220.921 363.723 220.879 363.723 220.832V213.16C363.723 213.141 363.714 213.123 363.695 213.104C363.677 213.085 363.658 213.081 363.639 213.09L362.253 213.468L362.197 213.482C362.113 213.482 362.071 213.431 362.071 213.328L362.029 212.124C362.029 212.031 362.071 211.965 362.155 211.928L363.625 211.242Z" fill="white"/>
</g>
<path d="M412 208V206C410.687 206 409.386 206.259 408.173 206.761C406.96 207.264 405.858 208 404.929 208.929C403.054 210.804 402 213.348 402 216H404C404 213.878 404.843 211.843 406.343 210.343C407.843 208.843 409.878 208 412 208Z" fill="#006158"/>
<path d="M456.585 219.585L452.415 215.415L451 216.83L456.585 222.415L468.585 210.415L467.17 209L456.585 219.585Z" fill="#006158"/>
<rect x="64.5" y="260.5" width="91" height="43" rx="4.5" stroke="#9747FF" stroke-dasharray="10 5"/>
<path d="M87 279H85V277H87V279ZM87 287H85V281H87V287ZM86 272C84.6868 272 83.3864 272.259 82.1732 272.761C80.9599 273.264 79.8575 274 78.9289 274.929C77.0536 276.804 76 279.348 76 282C76 284.652 77.0536 287.196 78.9289 289.071C79.8575 290 80.9599 290.736 82.1732 291.239C83.3864 291.741 84.6868 292 86 292C88.6522 292 91.1957 290.946 93.0711 289.071C94.9464 287.196 96 284.652 96 282C96 280.687 95.7413 279.386 95.2388 278.173C94.7362 276.96 93.9997 275.858 93.0711 274.929C92.1425 274 91.0401 273.264 89.8268 272.761C88.6136 272.259 87.3132 272 86 272Z" fill="#006158"/>
<path d="M133 277H135V279H133V277ZM133 281H135V287H133V281ZM134 272C128.48 272 124 276.48 124 282C124 287.52 128.48 292 134 292C139.52 292 144 287.52 144 282C144 276.48 139.52 272 134 272ZM134 290C129.59 290 126 286.41 126 282C126 277.59 129.59 274 134 274C138.41 274 142 277.59 142 282C142 286.41 138.41 290 134 290Z" fill="#006158"/>
<rect x="180.5" y="260.5" width="91" height="43" rx="4.5" stroke="#9747FF" stroke-dasharray="10 5"/>
<path d="M202 272C196.48 272 192 276.48 192 282C192 287.52 196.48 292 202 292C207.52 292 212 287.52 212 282C212 276.48 207.52 272 202 272ZM203 289H201V287H203V289ZM205.07 281.25L204.17 282.17C203.45 282.9 203 283.5 203 285H201V284.5C201 283.4 201.45 282.4 202.17 281.67L203.41 280.41C203.78 280.05 204 279.55 204 279C204 277.9 203.1 277 202 277C200.9 277 200 277.9 200 279H198C198 276.79 199.79 275 202 275C204.21 275 206 276.79 206 279C206 279.88 205.64 280.68 205.07 281.25Z" fill="#006158"/>
<path d="M249 288H251V286H249V288ZM250 272C244.48 272 240 276.48 240 282C240 287.52 244.48 292 250 292C255.52 292 260 287.52 260 282C260 276.48 255.52 272 250 272ZM250 290C245.59 290 242 286.41 242 282C242 277.59 245.59 274 250 274C254.41 274 258 277.59 258 282C258 286.41 254.41 290 250 290ZM250 276C247.79 276 246 277.79 246 280H248C248 278.9 248.9 278 250 278C251.1 278 252 278.9 252 280C252 282 249 281.75 249 285H251C251 282.75 254 282.5 254 280C254 277.79 252.21 276 250 276Z" fill="#006158"/>
<path fill-rule="evenodd" clip-rule="evenodd" d="M474 337H64V336H474V337Z" fill="#D3D3D3"/>
<path d="M66.9801 385H77.0201C78.0468 385 78.6868 383.887 78.1734 383L73.1534 374.327C72.6401 373.44 71.3601 373.44 70.8468 374.327L65.8268 383C65.3134 383.887 65.9534 385 66.9801 385ZM72.0001 380.333C71.6334 380.333 71.3334 380.033 71.3334 379.667V378.333C71.3334 377.967 71.6334 377.667 72.0001 377.667C72.3668 377.667 72.6667 377.967 72.6667 378.333V379.667C72.6667 380.033 72.3668 380.333 72.0001 380.333ZM72.6667 383H71.3334V381.667H72.6667V383Z" fill="#FF8328"/>
<path d="M90.704 373.8C90.7573 373.8 90.8 373.821 90.832 373.864C90.8747 373.896 90.896 373.939 90.896 373.992V375.56C90.896 375.613 90.8747 375.661 90.832 375.704C90.8 375.736 90.7573 375.752 90.704 375.752H87.84C87.7867 375.752 87.76 375.779 87.76 375.832V384.808C87.76 384.861 87.7387 384.909 87.696 384.952C87.664 384.984 87.6213 385 87.568 385H85.696C85.6427 385 85.5947 384.984 85.552 384.952C85.52 384.909 85.504 384.861 85.504 384.808V375.832C85.504 375.779 85.4773 375.752 85.424 375.752H82.64C82.5867 375.752 82.5387 375.736 82.496 375.704C82.464 375.661 82.448 375.613 82.448 375.56V373.992C82.448 373.939 82.464 373.896 82.496 373.864C82.5387 373.821 82.5867 373.8 82.64 373.8H90.704ZM94.4796 385.128C93.5836 385.128 92.8156 384.893 92.1756 384.424C91.5356 383.955 91.0983 383.315 90.8636 382.504C90.7143 382.003 90.6396 381.459 90.6396 380.872C90.6396 380.243 90.7143 379.677 90.8636 379.176C91.109 378.387 91.5516 377.768 92.1916 377.32C92.8316 376.872 93.5996 376.648 94.4956 376.648C95.3703 376.648 96.117 376.872 96.7356 377.32C97.3543 377.757 97.7916 378.371 98.0476 379.16C98.2183 379.693 98.3036 380.253 98.3036 380.84C98.3036 381.416 98.229 381.955 98.0796 382.456C97.845 383.288 97.4076 383.944 96.7676 384.424C96.1383 384.893 95.3756 385.128 94.4796 385.128ZM94.4796 383.192C94.8316 383.192 95.1303 383.085 95.3756 382.872C95.621 382.659 95.797 382.365 95.9036 381.992C95.989 381.651 96.0316 381.277 96.0316 380.872C96.0316 380.424 95.989 380.045 95.9036 379.736C95.7863 379.373 95.605 379.091 95.3596 378.888C95.1143 378.685 94.8156 378.584 94.4636 378.584C94.101 378.584 93.797 378.685 93.5516 378.888C93.317 379.091 93.1463 379.373 93.0396 379.736C92.9543 379.992 92.9116 380.371 92.9116 380.872C92.9116 381.352 92.949 381.725 93.0236 381.992C93.1303 382.365 93.3063 382.659 93.5516 382.872C93.8076 383.085 94.117 383.192 94.4796 383.192ZM110.237 378.872C110.44 379.427 110.541 380.088 110.541 380.856C110.541 381.592 110.45 382.237 110.269 382.792C110.024 383.517 109.629 384.088 109.085 384.504C108.552 384.92 107.917 385.128 107.181 385.128C106.402 385.128 105.789 384.835 105.341 384.248C105.32 384.227 105.298 384.221 105.277 384.232C105.256 384.232 105.245 384.248 105.245 384.28V384.808C105.245 384.861 105.224 384.909 105.181 384.952C105.149 384.984 105.106 385 105.053 385H103.181C103.128 385 103.08 384.984 103.037 384.952C103.005 384.909 102.989 384.861 102.989 384.808V373.992C102.989 373.939 103.005 373.896 103.037 373.864C103.08 373.821 103.128 373.8 103.181 373.8H105.053C105.106 373.8 105.149 373.821 105.181 373.864C105.224 373.896 105.245 373.939 105.245 373.992V377.416C105.245 377.448 105.256 377.469 105.277 377.48C105.298 377.491 105.32 377.48 105.341 377.448C105.757 376.915 106.349 376.648 107.117 376.648C107.896 376.648 108.546 376.851 109.069 377.256C109.602 377.651 109.992 378.189 110.237 378.872ZM107.869 382.504C108.093 382.099 108.205 381.565 108.205 380.904C108.205 380.168 108.077 379.603 107.821 379.208C107.565 378.792 107.186 378.584 106.685 378.584C106.216 378.584 105.858 378.792 105.613 379.208C105.378 379.613 105.261 380.173 105.261 380.888C105.261 381.603 105.368 382.141 105.581 382.504C105.837 382.963 106.21 383.192 106.701 383.192C107.224 383.192 107.613 382.963 107.869 382.504ZM119.253 380.04C119.317 380.445 119.338 380.899 119.317 381.4C119.306 381.528 119.237 381.592 119.109 381.592H114.165C114.101 381.592 114.079 381.619 114.101 381.672C114.133 381.885 114.191 382.099 114.277 382.312C114.554 382.909 115.119 383.208 115.973 383.208C116.655 383.197 117.194 382.92 117.589 382.376C117.631 382.312 117.679 382.28 117.733 382.28C117.765 382.28 117.802 382.301 117.845 382.344L118.997 383.48C119.05 383.533 119.077 383.581 119.077 383.624C119.077 383.645 119.055 383.688 119.013 383.752C118.661 384.189 118.207 384.531 117.653 384.776C117.098 385.011 116.49 385.128 115.829 385.128C114.911 385.128 114.133 384.92 113.493 384.504C112.863 384.088 112.41 383.507 112.133 382.76C111.909 382.227 111.797 381.528 111.797 380.664C111.797 380.077 111.877 379.56 112.037 379.112C112.282 378.355 112.709 377.752 113.317 377.304C113.935 376.856 114.666 376.632 115.509 376.632C116.575 376.632 117.429 376.941 118.069 377.56C118.719 378.179 119.114 379.005 119.253 380.04ZM115.525 378.584C114.853 378.584 114.41 378.899 114.197 379.528C114.154 379.667 114.117 379.837 114.085 380.04C114.085 380.093 114.111 380.12 114.165 380.12H116.933C116.997 380.12 117.018 380.093 116.997 380.04C116.943 379.731 116.917 379.581 116.917 379.592C116.821 379.272 116.65 379.027 116.405 378.856C116.17 378.675 115.877 378.584 115.525 378.584ZM128.006 376.664C128.39 376.664 128.694 376.739 128.918 376.888C129.003 376.931 129.035 377.011 129.014 377.128L128.678 378.952C128.667 379.08 128.593 379.117 128.454 379.064C128.294 379.011 128.107 378.984 127.894 378.984C127.809 378.984 127.691 378.995 127.542 379.016C127.158 379.048 126.833 379.192 126.566 379.448C126.299 379.693 126.166 380.024 126.166 380.44V384.808C126.166 384.861 126.145 384.909 126.102 384.952C126.07 384.984 126.027 385 125.974 385H124.102C124.049 385 124.001 384.984 123.958 384.952C123.926 384.909 123.91 384.861 123.91 384.808V376.968C123.91 376.915 123.926 376.872 123.958 376.84C124.001 376.797 124.049 376.776 124.102 376.776H125.974C126.027 376.776 126.07 376.797 126.102 376.84C126.145 376.872 126.166 376.915 126.166 376.968V377.576C126.166 377.608 126.177 377.629 126.198 377.64C126.219 377.651 126.235 377.645 126.246 377.624C126.683 376.984 127.27 376.664 128.006 376.664ZM137.112 380.04C137.176 380.445 137.197 380.899 137.176 381.4C137.165 381.528 137.096 381.592 136.968 381.592H132.024C131.96 381.592 131.939 381.619 131.96 381.672C131.992 381.885 132.051 382.099 132.136 382.312C132.413 382.909 132.979 383.208 133.832 383.208C134.515 383.197 135.053 382.92 135.448 382.376C135.491 382.312 135.539 382.28 135.592 382.28C135.624 382.28 135.661 382.301 135.704 382.344L136.856 383.48C136.909 383.533 136.936 383.581 136.936 383.624C136.936 383.645 136.915 383.688 136.872 383.752C136.52 384.189 136.067 384.531 135.512 384.776C134.957 385.011 134.349 385.128 133.688 385.128C132.771 385.128 131.992 384.92 131.352 384.504C130.723 384.088 130.269 383.507 129.992 382.76C129.768 382.227 129.656 381.528 129.656 380.664C129.656 380.077 129.736 379.56 129.896 379.112C130.141 378.355 130.568 377.752 131.176 377.304C131.795 376.856 132.525 376.632 133.368 376.632C134.435 376.632 135.288 376.941 135.928 377.56C136.579 378.179 136.973 379.005 137.112 380.04ZM133.384 378.584C132.712 378.584 132.269 378.899 132.056 379.528C132.013 379.667 131.976 379.837 131.944 380.04C131.944 380.093 131.971 380.12 132.024 380.12H134.792C134.856 380.12 134.877 380.093 134.856 380.04C134.803 379.731 134.776 379.581 134.776 379.592C134.68 379.272 134.509 379.027 134.264 378.856C134.029 378.675 133.736 378.584 133.384 378.584ZM138.758 385C138.705 385 138.657 384.984 138.614 384.952C138.582 384.909 138.566 384.861 138.566 384.808V373.992C138.566 373.939 138.582 373.896 138.614 373.864C138.657 373.821 138.705 373.8 138.758 373.8H140.63C140.684 373.8 140.726 373.821 140.758 373.864C140.801 373.896 140.822 373.939 140.822 373.992V384.808C140.822 384.861 140.801 384.909 140.758 384.952C140.726 384.984 140.684 385 140.63 385H138.758ZM149.753 380.04C149.817 380.445 149.838 380.899 149.817 381.4C149.806 381.528 149.737 381.592 149.609 381.592H144.665C144.601 381.592 144.579 381.619 144.601 381.672C144.633 381.885 144.691 382.099 144.777 382.312C145.054 382.909 145.619 383.208 146.473 383.208C147.155 383.197 147.694 382.92 148.089 382.376C148.131 382.312 148.179 382.28 148.233 382.28C148.265 382.28 148.302 382.301 148.345 382.344L149.497 383.48C149.55 383.533 149.577 383.581 149.577 383.624C149.577 383.645 149.555 383.688 149.513 383.752C149.161 384.189 148.707 384.531 148.153 384.776C147.598 385.011 146.99 385.128 146.329 385.128C145.411 385.128 144.633 384.92 143.993 384.504C143.363 384.088 142.91 383.507 142.633 382.76C142.409 382.227 142.297 381.528 142.297 380.664C142.297 380.077 142.377 379.56 142.537 379.112C142.782 378.355 143.209 377.752 143.817 377.304C144.435 376.856 145.166 376.632 146.009 376.632C147.075 376.632 147.929 376.941 148.569 377.56C149.219 378.179 149.614 379.005 149.753 380.04ZM146.025 378.584C145.353 378.584 144.91 378.899 144.697 379.528C144.654 379.667 144.617 379.837 144.585 380.04C144.585 380.093 144.611 380.12 144.665 380.12H147.433C147.497 380.12 147.518 380.093 147.497 380.04C147.443 379.731 147.417 379.581 147.417 379.592C147.321 379.272 147.15 379.027 146.905 378.856C146.67 378.675 146.377 378.584 146.025 378.584ZM154.409 376.648C155.102 376.648 155.721 376.771 156.265 377.016C156.809 377.251 157.23 377.576 157.529 377.992C157.838 378.408 157.993 378.872 157.993 379.384V384.808C157.993 384.861 157.972 384.909 157.929 384.952C157.897 384.984 157.854 385 157.801 385H155.929C155.876 385 155.828 384.984 155.785 384.952C155.753 384.909 155.737 384.861 155.737 384.808V384.28C155.737 384.248 155.726 384.227 155.705 384.216C155.684 384.205 155.662 384.216 155.641 384.248C155.193 384.835 154.473 385.128 153.481 385.128C152.649 385.128 151.977 384.925 151.465 384.52C150.953 384.115 150.697 383.517 150.697 382.728C150.697 381.907 150.985 381.272 151.561 380.824C152.137 380.365 152.958 380.136 154.025 380.136H155.657C155.71 380.136 155.737 380.109 155.737 380.056V379.704C155.737 379.352 155.63 379.08 155.417 378.888C155.204 378.685 154.884 378.584 154.457 378.584C154.126 378.584 153.849 378.643 153.625 378.76C153.412 378.877 153.273 379.043 153.209 379.256C153.177 379.373 153.108 379.427 153.001 379.416L151.065 379.16C150.937 379.139 150.878 379.091 150.889 379.016C150.932 378.568 151.108 378.163 151.417 377.8C151.737 377.437 152.153 377.155 152.665 376.952C153.188 376.749 153.769 376.648 154.409 376.648ZM154.089 383.448C154.548 383.448 154.937 383.325 155.257 383.08C155.577 382.835 155.737 382.52 155.737 382.136V381.56C155.737 381.507 155.71 381.48 155.657 381.48H154.505C154.025 381.48 153.646 381.571 153.369 381.752C153.102 381.933 152.969 382.189 152.969 382.52C152.969 382.808 153.07 383.037 153.273 383.208C153.476 383.368 153.748 383.448 154.089 383.448ZM162.862 385.112C162.147 385.112 161.523 385.011 160.99 384.808C160.457 384.605 160.041 384.323 159.742 383.96C159.454 383.597 159.31 383.187 159.31 382.728V382.568C159.31 382.515 159.326 382.472 159.358 382.44C159.401 382.397 159.449 382.376 159.502 382.376H161.278C161.331 382.376 161.374 382.397 161.406 382.44C161.449 382.472 161.47 382.515 161.47 382.568V382.584C161.47 382.819 161.598 383.021 161.854 383.192C162.121 383.352 162.451 383.432 162.846 383.432C163.209 383.432 163.502 383.363 163.726 383.224C163.95 383.075 164.062 382.893 164.062 382.68C164.062 382.488 163.966 382.344 163.774 382.248C163.582 382.152 163.267 382.051 162.83 381.944C162.329 381.816 161.934 381.693 161.646 381.576C160.963 381.341 160.419 381.053 160.014 380.712C159.609 380.371 159.406 379.88 159.406 379.24C159.406 378.451 159.71 377.827 160.318 377.368C160.937 376.899 161.753 376.664 162.766 376.664C163.449 376.664 164.046 376.776 164.558 377C165.07 377.213 165.465 377.517 165.742 377.912C166.03 378.307 166.174 378.755 166.174 379.256C166.174 379.309 166.153 379.357 166.11 379.4C166.078 379.432 166.035 379.448 165.982 379.448H164.27C164.217 379.448 164.169 379.432 164.126 379.4C164.094 379.357 164.078 379.309 164.078 379.256C164.078 379.021 163.955 378.824 163.71 378.664C163.475 378.504 163.161 378.424 162.766 378.424C162.414 378.424 162.126 378.488 161.902 378.616C161.678 378.744 161.566 378.92 161.566 379.144C161.566 379.357 161.673 379.517 161.886 379.624C162.11 379.731 162.478 379.843 162.99 379.96C163.107 379.992 163.241 380.029 163.39 380.072C163.539 380.104 163.699 380.147 163.87 380.2C164.627 380.424 165.225 380.712 165.662 381.064C166.099 381.416 166.318 381.928 166.318 382.6C166.318 383.389 166.003 384.008 165.374 384.456C164.755 384.893 163.918 385.112 162.862 385.112ZM174.893 380.04C174.957 380.445 174.979 380.899 174.957 381.4C174.947 381.528 174.877 381.592 174.749 381.592H169.805C169.741 381.592 169.72 381.619 169.741 381.672C169.773 381.885 169.832 382.099 169.917 382.312C170.195 382.909 170.76 383.208 171.613 383.208C172.296 383.197 172.835 382.92 173.229 382.376C173.272 382.312 173.32 382.28 173.373 382.28C173.405 382.28 173.443 382.301 173.485 382.344L174.637 383.48C174.691 383.533 174.717 383.581 174.717 383.624C174.717 383.645 174.696 383.688 174.653 383.752C174.301 384.189 173.848 384.531 173.293 384.776C172.739 385.011 172.131 385.128 171.469 385.128C170.552 385.128 169.773 384.92 169.133 384.504C168.504 384.088 168.051 383.507 167.773 382.76C167.549 382.227 167.437 381.528 167.437 380.664C167.437 380.077 167.517 379.56 167.677 379.112C167.923 378.355 168.349 377.752 168.957 377.304C169.576 376.856 170.307 376.632 171.149 376.632C172.216 376.632 173.069 376.941 173.709 377.56C174.36 378.179 174.755 379.005 174.893 380.04ZM171.165 378.584C170.493 378.584 170.051 378.899 169.837 379.528C169.795 379.667 169.757 379.837 169.725 380.04C169.725 380.093 169.752 380.12 169.805 380.12H172.573C172.637 380.12 172.659 380.093 172.637 380.04C172.584 379.731 172.557 379.581 172.557 379.592C172.461 379.272 172.291 379.027 172.045 378.856C171.811 378.675 171.517 378.584 171.165 378.584ZM181.452 373.992C181.452 373.939 181.468 373.896 181.5 373.864C181.542 373.821 181.59 373.8 181.644 373.8H183.516C183.569 373.8 183.612 373.821 183.644 373.864C183.686 373.896 183.708 373.939 183.708 373.992V384.808C183.708 384.861 183.686 384.909 183.644 384.952C183.612 384.984 183.569 385 183.516 385H181.644C181.59 385 181.542 384.984 181.5 384.952C181.468 384.909 181.452 384.861 181.452 384.808V384.28C181.452 384.248 181.441 384.232 181.42 384.232C181.398 384.221 181.377 384.227 181.356 384.248C180.908 384.835 180.294 385.128 179.516 385.128C178.769 385.128 178.124 384.92 177.58 384.504C177.046 384.088 176.662 383.517 176.428 382.792C176.246 382.237 176.156 381.592 176.156 380.856C176.156 380.099 176.252 379.437 176.444 378.872C176.689 378.189 177.073 377.651 177.596 377.256C178.129 376.851 178.785 376.648 179.564 376.648C180.332 376.648 180.929 376.915 181.356 377.448C181.377 377.48 181.398 377.491 181.42 377.48C181.441 377.469 181.452 377.448 181.452 377.416V373.992ZM181.116 382.504C181.329 382.109 181.436 381.571 181.436 380.888C181.436 380.173 181.318 379.613 181.084 379.208C180.838 378.792 180.481 378.584 180.012 378.584C179.51 378.584 179.132 378.792 178.876 379.208C178.609 379.624 178.476 380.189 178.476 380.904C178.476 381.544 178.588 382.077 178.812 382.504C179.078 382.963 179.473 383.192 179.996 383.192C180.476 383.192 180.849 382.963 181.116 382.504Z" fill="black"/>
<defs>
<clipPath id="clip0_17943_115656">
<rect width="24" height="24" fill="white" transform="translate(352 204)"/>
</clipPath>
</defs>
</svg>
